<svg width="70" height="71" viewBox="0 0 70 71" fill="none" xmlns="http://www.w3.org/2000/svg">
<path d="M44.0947 16.7411C54.8128 20.4962 62.5 30.7002 62.5 42.7001C62.5 57.8874 50.1873 70.2001 35 70.2001C19.8127 70.2001 7.5 57.8874 7.5 42.7001C7.50002 31.0105 14.7948 21.0246 25.0801 17.0448C25.3513 17.5928 25.6442 18.1372 25.9502 18.6757C19.9604 20.9343 15.0366 25.3697 12.1436 31.0155C11.9802 31.3349 12.1788 31.7111 12.5 31.871C12.825 32.0328 13.1065 32.2766 13.293 32.6357C14.1252 34.2338 15.1102 32.1019 15.0342 33.7011C14.9599 35.3015 16.0944 38.8796 16.7764 38.4247C17.4584 37.9673 17.4572 35.3467 18.6699 35.0194C19.8808 34.6919 21.6225 32.6352 22.1523 33.5487C22.683 34.4626 22.5309 36.1387 22.9863 35.7587C23.4391 35.3774 24.0448 35.7582 23.9688 36.9003C23.8945 38.0434 24.9524 39.6433 25.2559 40.2528C25.5588 40.8618 23.3624 38.4999 22.3037 37.0526C21.2431 35.6061 23.0607 40.1006 24.4238 41.7763C25.7872 43.4518 30.9367 44.6698 32.2988 45.3564C33.6618 46.0409 37.3716 44.0619 35.9336 44.1376C35.9336 44.1376 32.6767 44.5948 31.4658 43.9853C30.2547 43.3759 27.5288 43.3776 27.0732 42.539C26.6204 41.6993 26.6203 40.4809 25.7861 39.3388C24.9539 38.1957 24.4249 36.1388 25.5605 37.0526C26.6962 37.9673 27.9083 38.1201 28.0586 37.5097C28.2102 36.8998 25.9399 34.8434 27.3779 33.9296C28.818 33.0157 30.1802 33.7012 30.8613 33.0155C31.5433 32.3307 33.1333 30.2731 32.7539 29.2831C32.5679 28.7966 32.4561 28.3832 32.4434 28.0526C32.8483 28.5959 33.2167 29.0956 33.5312 29.5409C33.7738 29.8844 34.1735 30.083 34.5938 30.0692C35.0138 30.0554 35.3986 29.831 35.6182 29.4726C35.6715 29.3855 35.7271 29.2971 35.7842 29.2069C35.7871 30.0961 35.8447 29.8499 36.9951 29.0546C38.207 28.217 40.1768 28.2164 40.1768 26.5409C40.1773 24.8652 44.9462 21.9707 43.8105 22.0468C42.6747 22.1234 40.4785 24.2557 40.4785 22.8075C40.4785 22.7419 40.4776 22.6738 40.4775 22.6034C40.8698 22.0449 41.2628 21.4776 41.6436 20.9032C42.5395 19.5517 43.3928 18.1453 44.0947 16.7411ZM52.5107 56.0233C52.0583 56.0731 51.7036 54.9064 51.4004 55.1591C50.8083 55.6559 52.1077 56.8351 51.4004 57.496C50.6938 58.155 50.4909 59.1479 49.9365 59.2362C49.3801 59.3233 48.5235 60.1362 49.0771 60.5927C49.6316 61.0491 50.4904 60.5926 50.7939 59.7304C51.0964 58.8678 51.3501 58.5041 51.9561 58.2538C52.5613 58.0025 52.5114 57.291 53.0664 56.8603C53.6228 56.4285 52.9663 55.9711 52.5107 56.0233ZM42.3145 57.496C42.2851 56.946 42.0611 57.5968 41.3535 57.496C40.6468 57.3933 41.2035 59.0695 41.6572 59.2226C42.1116 59.3737 42.3511 58.2217 42.3145 57.496ZM40.1934 45.6122C39.6096 45.1073 39.872 47.4382 39.6807 47.8964C39.4863 48.3529 38.627 47.3372 38.2246 47.1337C37.8199 46.9311 38.0725 46.6266 38.2246 46.2206C38.3744 45.8137 37.4663 45.4601 36.7598 45.6122C36.0514 45.7634 36.0456 45.5591 35.7725 46.12C35.4993 46.6783 35.715 47.167 35.001 46.7948C34.2869 46.4236 33.8331 46.9828 33.3271 47.5419C32.8221 48.0992 32.6224 48.3029 32.4189 48.7099C32.2164 49.115 29.4411 48.8611 29.4404 50.1806C29.4404 51.5024 30.6007 52.5692 30.3486 53.5849C30.0958 54.6004 30.5504 55.6668 31.4092 55.1591C32.2672 54.6503 33.5299 54.8025 33.8828 54.3974C34.2366 53.9913 36.6085 53.3311 37.0127 54.0927C37.416 54.8553 37.8714 55.2689 38.5781 55.2909C39.2845 55.3132 39.3867 55.9717 39.3867 56.4804C39.3868 56.9882 40.4449 56.5825 41.0508 56.7851C41.6567 56.9876 43.1209 56.8347 43.2227 55.6669C43.3236 54.4995 43.9793 53.6875 44.2314 53.078C44.4844 52.4685 44.1318 50.69 42.668 49.37C41.2043 48.0493 40.5482 45.918 40.1934 45.6122ZM32.874 34.996C32.896 34.2077 31.6625 35.3003 31.8633 36.2655C32.0647 37.2286 31.6099 37.4336 31.1562 38.1952C30.7011 38.9581 28.834 40.7353 28.3281 40.7353C27.8244 40.7358 27.9753 41.7508 28.3281 42.3593C28.681 42.9689 30.448 43.071 30.8037 43.1718C31.1566 43.2731 31.5594 40.4307 31.6621 41.1913C31.7629 41.9549 31.9139 44.2392 32.166 43.7314C32.4182 43.2229 33.377 43.9344 33.377 43.4267C33.3767 42.9179 32.9733 42.0618 33.9336 42.5419C34.8627 43.0056 36.1257 43.3062 36.1572 42.8173V42.7187C36.2055 42.2365 37.7409 42.6808 38.377 43.1728C39.0331 43.6805 38.0246 45.1022 38.7295 44.7978C39.4372 44.4934 40.1941 45.289 40.5488 44.8407C40.9017 44.3907 40.952 44.0458 42.0625 44.9794C43.1717 45.9153 43.9802 45.7219 43.2734 44.9794C42.5734 44.2465 41.9244 43.0016 40.4922 42.5546C40.4619 42.5451 40.4309 42.5391 40.3994 42.5351C40.1317 42.5006 38.7682 42.3082 37.7705 41.8515C37.7705 41.8515 36.2482 41.038 35.7725 41.5468C35.2968 42.0554 35.3631 40.1257 35.001 40.4814C34.6421 40.8372 35.1941 42.0042 34.1357 41.6991C33.0752 41.3948 32.7224 41.7501 32.4189 40.8866C32.1163 40.0235 30.6022 40.4809 31.8135 39.8212C33.0244 39.1603 33.6302 38.9569 33.6807 39.4648C33.7335 39.9726 34.9428 39.0075 34.4893 37.6366C34.0355 36.2654 32.822 36.7225 32.874 34.996ZM32.3027 25.7773C33.1191 25.2797 33.8309 25.1006 33.8906 26.2362C33.9255 26.8995 33.9309 27.5303 33.9746 28.0194C33.4727 27.3345 32.9055 26.5809 32.3027 25.7773ZM39.5088 23.9628C39.4393 25.1187 39.3938 26.5827 38.6621 26.8456C38.1204 27.0402 37.3823 27.3341 36.7891 27.7167C37.2393 27.0775 37.7435 26.3865 38.2832 25.6483C38.6789 25.1072 39.0898 24.5426 39.5088 23.9628ZM39.9424 15.6435C40.946 15.8256 41.9301 16.0636 42.8926 16.3515C42.1997 17.713 41.3513 19.0918 40.4502 20.4384C40.417 19.3833 40.3449 18.3903 40.1768 18.0087C39.9093 17.4047 39.9399 19.6759 39.8555 21.3124C38.3463 23.4974 36.7614 25.5692 35.5557 27.3046C35.6034 27.0716 35.6108 26.8566 35.5566 26.6933C35.3284 26.0085 35.7841 24.4851 36.8447 24.4081C37.9042 24.3307 39.1154 22.5794 39.418 20.828C39.7204 19.0765 39.7208 17.7045 38.8887 17.8564C38.7169 17.8878 38.5821 17.8541 38.4893 17.7733C38.3261 17.6312 38.1986 17.4176 38.0312 17.2919C38.7621 16.876 39.4098 16.3148 39.9424 15.6435ZM45.4561 19.2577C45.1742 19.1313 44.856 19.3275 44.8154 19.6337C44.7444 20.1729 44.6223 20.6884 44.416 21.0575C43.9668 21.8595 44.7641 21.2091 45.6416 19.8905C45.7899 19.6677 45.7003 19.3673 45.4561 19.2577ZM30.0566 15.6435C30.5607 16.279 31.1681 16.8161 31.8516 17.2245C30.2335 17.4226 28.662 17.7718 27.1514 18.2567C26.8363 17.7099 26.5383 17.1626 26.2646 16.6171C27.4924 16.2061 28.7586 15.8791 30.0566 15.6435Z" fill="#454545"/>
<path fill-rule="evenodd" clip-rule="evenodd" d="M34.5535 0C40.1059 0 44.607 4.73114 44.607 10.5673C44.607 16.4035 37.2812 24.3674 34.5535 28.8199C31.4603 24.4406 24.5 16.4035 24.5 10.5673C24.5 4.73114 29.0011 0 34.5535 0ZM34.5535 6.03207C31.9624 6.03207 29.8619 8.13258 29.8619 10.7237C29.8619 13.3148 31.9624 15.4153 34.5535 15.4153C37.1446 15.4153 39.2451 13.3148 39.2451 10.7237C39.2451 8.13258 37.1446 6.03207 34.5535 6.03207Z" fill="#74AC00"/>
</svg>
