<svg width="92" height="70" viewBox="0 0 92 70" fill="none" xmlns="http://www.w3.org/2000/svg">
<path d="M30.5998 41.7932C30.2461 41.4866 29.9046 41.2587 29.6037 41.1035C29.4482 40.3915 28.5662 39.5667 27.332 39.0879C27.1809 39.0283 27.0266 38.9864 26.8777 38.9427C26.9286 38.9147 26.9842 38.8988 27.035 38.8709C28.1505 38.211 28.8786 37.2861 28.9571 36.5651C29.5916 36.315 30.4012 35.7595 31.0715 35.0396C32.0574 33.981 32.3814 33.0013 31.788 32.8606C31.1947 32.7188 29.9081 33.4727 28.9222 34.5313C28.5769 34.902 28.3069 35.2485 28.1359 35.5662C27.4745 35.4473 26.5237 35.6642 25.5846 36.2199C25.0001 36.5659 24.5267 36.9939 24.1867 37.4185C24.2253 37.345 24.2725 37.2766 24.309 37.2006C24.8531 36.0577 24.9821 34.9204 24.7109 34.259C25.0828 33.6681 25.3456 32.5138 25.3399 31.3354C25.3337 29.8623 24.8979 28.935 24.3789 29.2654C23.8599 29.5955 23.4457 31.0608 23.4527 32.5337C23.4542 33.0189 23.5109 33.4273 23.5925 33.7687C22.9443 33.9964 22.2049 34.7707 21.6878 35.8569C21.6114 36.0179 21.5384 36.1698 21.4781 36.3291C21.2027 36.2678 20.9151 36.2398 20.6219 36.2398C20.3286 36.2398 20.0411 36.2695 19.7656 36.3291C19.7053 36.17 19.6324 36.0173 19.556 35.8569C19.0389 34.7707 18.2995 33.9964 17.6512 33.7687C17.7329 33.4274 17.7887 33.0191 17.791 32.5337C17.7988 31.0606 17.3864 29.5955 16.8674 29.2654C16.8026 29.2233 16.7424 29.1953 16.6777 29.1936C16.2251 29.1691 15.9124 30.0466 15.9063 31.3354C15.9001 32.5 16.1693 33.6434 16.5341 34.2409C16.2542 34.8993 16.387 36.0487 16.9354 37.2006C16.953 37.2374 16.9694 37.2724 16.9875 37.3091C16.6545 36.9234 16.1924 36.5352 15.6593 36.2198C14.7202 35.6641 13.7693 35.4467 13.1079 35.566C12.9369 35.2483 12.6669 34.9019 12.3216 34.5311C11.3357 33.4727 10.0666 32.7199 9.47321 32.8604C8.8799 33.0023 9.18626 33.9807 10.1722 35.0394C10.8426 35.7593 11.6521 36.315 12.2866 36.5649C12.3652 37.2859 13.0932 38.2108 14.2088 38.8707C14.2595 38.9021 14.3152 38.9162 14.366 38.9425C14.217 38.9863 14.0628 39.03 13.9116 39.0877C12.6764 39.5669 11.7944 40.3908 11.6399 41.1033C11.3391 41.259 10.9976 41.4864 10.6439 41.7931C9.55569 42.7373 8.75253 44.0007 8.84401 44.626C8.93556 45.2511 9.88776 44.989 10.9759 44.0449C11.6228 43.4836 12.1772 42.8177 12.4962 42.2292C13.0481 42.3657 13.8002 42.3185 14.5932 42.0664C14.4673 42.2309 14.341 42.4058 14.2262 42.5933C13.5929 43.6258 13.3339 44.6964 13.4922 45.3897C13.3752 45.6421 13.2558 45.93 13.1603 46.2612C12.753 47.6724 12.7523 49.206 13.1603 49.6752C13.5683 50.1443 14.2384 49.3794 14.6456 47.968C14.8433 47.2829 14.9372 46.576 14.9426 45.9705C15.5285 45.691 16.1746 45.0682 16.6901 44.2272C17.1045 43.5513 17.3592 42.8615 17.4414 42.2661C17.783 42.7489 17.7866 43.208 17.8608 43.7916C16.9498 44.6157 16.3755 45.8272 16.3755 47.1874C16.3755 49.655 18.2766 51.6907 20.6218 51.6907C22.9671 51.6907 24.8681 49.655 24.8681 47.1874C24.8681 45.8274 24.2939 44.6159 23.3828 43.7916C23.3905 43.1701 23.5207 42.7953 23.8022 42.2844C23.8869 42.876 24.1433 43.5583 24.5536 44.2274C25.0692 45.0682 25.7152 45.691 26.3011 45.9708C26.3073 46.576 26.4004 47.2831 26.5981 47.9682C27.0054 49.3794 27.6755 50.1446 28.0834 49.6754C28.4914 49.2062 28.4907 47.6726 28.0834 46.2614C27.9879 45.93 27.8686 45.6423 27.7514 45.3899C27.9098 44.6967 27.6507 43.6261 27.0174 42.5935C26.9027 42.4062 26.7763 42.2309 26.6505 42.0667C27.4435 42.3185 28.1955 42.3665 28.7475 42.2294C29.0665 42.8182 29.6209 43.4839 30.2677 44.0451C31.3559 44.9893 32.3081 45.2515 32.3996 44.6262C32.4912 44.0008 31.688 42.7374 30.5998 41.7932Z" fill="#454545"/>
<path d="M74.9511 31.3352C75.5232 31.3352 75.9885 31.8043 75.9885 32.3813C75.9883 32.796 75.7471 33.153 75.3996 33.3217C75.4676 33.4142 75.5229 33.5109 75.5659 33.5797C75.9585 34.2076 76.4082 35.6226 77.0917 36.0182C77.6206 36.0019 78.1504 36.0061 78.6764 36.0598C79.0345 36.0964 79.4656 36.1439 79.8402 36.2849C80.0224 35.985 80.3476 35.7827 80.7217 35.7827C81.2935 35.7831 81.7572 36.2519 81.7574 36.8288C81.7571 37.4052 81.2934 37.8728 80.7217 37.8731C80.2583 37.8731 79.8653 37.5656 79.7328 37.1422C79.4082 37.2603 79.079 37.3666 78.7716 37.5267C78.2166 37.8161 77.8125 38.3397 77.5125 38.8828C76.9025 39.9874 76.6566 41.2596 76.5202 42.5042C76.4476 43.1666 76.3654 43.8153 76.1617 44.4525C75.9516 45.1094 75.6697 45.7478 75.3269 46.3455C74.738 47.3722 73.9102 48.2631 72.8884 48.8619C71.8104 49.4936 70.4354 49.6818 69.2151 49.4577C68.6348 49.3511 68.0497 49.1621 67.5628 48.8169C66.8813 48.3343 66.1007 48.3587 65.3235 48.5675C64.6204 48.7564 63.942 49.0511 63.2193 49.1633C63.0762 49.1854 62.0136 49.3721 62.1576 48.971C62.2648 48.6737 62.6408 48.4313 62.8919 48.2662C63.4006 47.9317 63.92 47.6348 64.3571 47.2114C66.4281 47.925 68.8525 47.7694 71.0093 46.5914C74.9164 44.4572 76.5175 39.749 74.5476 36.0806C74.4157 35.8351 74.2707 35.6008 74.1146 35.3774C74.3555 35.0768 74.5213 34.73 74.6186 34.1876C74.6498 34.0126 74.6015 33.6302 74.6341 33.3754C74.2176 33.24 73.9174 32.8462 73.9171 32.3813C73.9171 31.8047 74.3794 31.3357 74.9511 31.3352Z" fill="#454545"/>
<path d="M67.885 32.7987C70.4521 32.7767 72.866 34.0468 74.0921 36.33C75.9169 39.7285 74.4416 44.1226 70.7616 46.1325C67.0818 48.1421 62.6282 46.9865 60.8033 43.5883C60.6272 43.2604 60.4825 42.922 60.3668 42.5786C61.9431 44.1468 64.5493 44.496 66.7471 43.2956C69.3898 41.8521 70.4962 38.6858 69.1735 36.2226C68.2217 34.4501 66.281 33.5402 64.2826 33.7079C65.4465 33.1027 66.683 32.809 67.885 32.7987Z" fill="#454545"/>
<path d="M64.797 34.2448C66.4198 34.2582 67.9231 35.0607 68.6886 36.4858C69.855 38.658 68.8858 41.4925 66.4821 42.8055C64.0783 44.1185 61.1956 43.3879 60.0291 41.2156C59.8873 40.9514 59.7783 40.6762 59.6983 40.3965C60.6056 40.9064 61.8025 40.925 62.84 40.3584C64.3812 39.5166 65.0457 37.6735 64.274 36.2365C63.8697 35.4839 63.1576 35.0029 62.3498 34.8371C63.1432 34.4276 63.9857 34.2382 64.797 34.2448Z" fill="#454545"/>
<path d="M61.7142 35.3255C62.5867 35.3266 63.3884 35.7522 63.7908 36.5014C64.4036 37.6433 63.8821 39.1552 62.5767 39.8682C61.2715 40.5807 59.7314 40.1955 59.1181 39.0542C59.0405 38.9098 58.9817 38.7579 58.9398 38.6039C59.0779 38.5603 59.2168 38.4931 59.3519 38.3979C59.6402 38.1946 59.865 37.9071 59.9962 37.5839C60.1272 37.2607 60.1627 36.8725 60.0257 36.543C59.9511 36.3637 59.8385 36.2312 59.7053 36.1429C59.8872 35.9699 60.0958 35.8139 60.3305 35.6857C60.7793 35.4406 61.2571 35.3249 61.7142 35.3255Z" fill="#454545"/>
<path d="M59.2965 36.6383C59.4626 36.6583 59.5581 36.7387 59.6013 36.8426C59.6446 36.9466 59.6445 37.0941 59.5667 37.286C59.4888 37.478 59.3327 37.6895 59.1216 37.8385C58.9103 37.9874 58.6869 38.042 58.5206 38.022C58.3546 38.002 58.2592 37.9232 58.2158 37.8194C58.1726 37.7155 58.1744 37.5679 58.2522 37.376C58.3301 37.1841 58.4881 36.9742 58.699 36.8253C58.8837 36.6952 59.0743 36.6326 59.2307 36.6331C59.253 36.6332 59.2758 36.6358 59.2965 36.6383Z" fill="#454545"/>
<path fill-rule="evenodd" clip-rule="evenodd" d="M63.0702 9C66.2214 9.00028 69.2451 9.96322 71.4734 11.6758C73.0933 12.9202 74.1926 14.4891 74.6756 16.1821C75.5074 16.4514 76.3042 16.7858 77.0501 17.1832C78.5495 17.9822 79.8136 19.0148 80.7632 20.2123L83.5256 23.6934C84.1019 24.1585 84.6579 24.6542 85.1865 25.1828C87.1346 27.131 88.6818 29.4437 89.7361 31.9891C90.7904 34.5344 91.3328 37.2632 91.333 40.0182C91.3324 45.5824 89.121 50.9191 85.1865 54.8535C83.2381 56.8018 80.9257 58.3488 78.3801 59.4032C75.8345 60.4575 73.1064 61.0001 70.3511 61C64.7866 60.9995 59.4502 58.7885 55.5157 54.8535C53.5678 52.9054 52.0203 50.5941 50.9661 48.0489C49.9118 45.5034 49.3692 42.7733 49.3693 40.0182C49.3694 37.0524 50.0032 34.1526 51.186 31.4938V30.2832C51.0171 30.1175 50.8353 29.9577 50.6405 29.8069C49.3251 28.789 47.5383 28.216 45.6751 28.2136C43.8124 28.2113 42.0241 28.7789 40.7046 29.7931L40.7011 29.7948V32.8551C41.5277 35.1299 41.9635 37.5519 41.9637 40.0182C41.9638 42.7733 41.4211 45.5034 40.3669 48.0489C39.3126 50.5941 37.7651 52.9054 35.8172 54.8535C31.8828 58.7885 26.5464 60.9995 20.9818 61C18.2265 61.0001 15.4984 60.4575 12.9528 59.4032C10.4072 58.3488 8.09481 56.8018 6.14648 54.8535C2.21191 50.9191 0.000533701 45.5824 0 40.0182C0.000113441 37.2632 0.542571 34.5344 1.5968 31.9891C2.6512 29.4437 4.19831 27.131 6.14648 25.1828C7.07553 24.2537 8.08485 23.4228 9.15477 22.6923L11.1239 20.2123C12.0736 19.0147 13.3392 17.9822 14.8388 17.1832C15.5845 16.7859 16.3799 16.4496 17.2115 16.1804C17.6946 14.4883 18.7953 12.9199 20.4138 11.6758L20.8416 11.3623C23.0213 9.84566 25.8627 9.00003 28.8169 9C31.9684 9.00006 34.9915 9.96302 37.22 11.6758C39.1636 13.1697 40.3636 15.1292 40.6388 17.2126C41.3 16.6902 42.0925 16.2703 42.9751 15.9882C44.2588 15.578 45.6719 15.4708 47.0347 15.6799C48.3975 15.889 49.6493 16.4062 50.6318 17.1641C50.8354 17.3212 51.0252 17.4886 51.2016 17.6629C51.3535 15.4126 52.5839 13.2768 54.6671 11.6758C56.8955 9.96312 59.9189 9.00017 63.0702 9ZM20.9126 23.5115C11.4845 23.5117 3.84163 31.1547 3.84133 40.5827C3.84133 50.011 11.4844 57.6538 20.9126 57.654C30.3409 57.654 37.9838 50.0111 37.9838 40.5827C37.9835 31.1546 30.3408 23.5115 20.9126 23.5115ZM69.9943 23.5115C60.5662 23.5115 52.9234 31.1546 52.9231 40.5827C52.9231 50.0111 60.566 57.654 69.9943 57.654C79.4227 57.654 87.0656 50.0111 87.0656 40.5827C87.0653 31.1547 79.4225 23.5115 69.9943 23.5115Z" fill="#74AC00"/>
</svg>
