<svg width="13" height="13" viewBox="0 0 13 13" fill="none" xmlns="http://www.w3.org/2000/svg">
<path d="M7 3C7 2.72386 6.77614 2.5 6.5 2.5C6.22386 2.5 6 2.72386 6 3V7.69371L9.18365 6.63249C9.44569 6.54515 9.58731 6.26192 9.49996 5.99988C9.41265 5.73794 9.12957 5.59631 8.86758 5.6835L7 6.305V3Z" fill="#454545"/>
<path fill-rule="evenodd" clip-rule="evenodd" d="M6.5 0C10.0899 0 13 2.91015 13 6.5C13 10.0899 10.0899 13 6.5 13C2.91015 13 0 10.0899 0 6.5C0 2.91015 2.91015 0 6.5 0ZM6.5 1C9.53757 1 12 3.46243 12 6.5C12 9.53757 9.53757 12 6.5 12C3.46243 12 1 9.53757 1 6.5C1 3.46243 3.46243 1 6.5 1Z" fill="#454545"/>
</svg>
