<svg width="26" height="26" viewBox="0 0 26 26" fill="none" xmlns="http://www.w3.org/2000/svg">
<mask id="path-1-inside-1_1116_3811" fill="white">
<path d="M13 0C14.1934 0 15.3444 0.152344 16.4531 0.457031C17.5618 0.761719 18.5986 1.19759 19.5635 1.76465C20.5283 2.33171 21.4043 3.00879 22.1914 3.7959C22.9785 4.58301 23.6556 5.46322 24.2227 6.43652C24.7897 7.40983 25.2256 8.44661 25.5303 9.54688C25.835 10.6471 25.9915 11.7982 26 13C26 14.1934 25.8477 15.3444 25.543 16.4531C25.2383 17.5618 24.8024 18.5986 24.2354 19.5635C23.6683 20.5283 22.9912 21.4043 22.2041 22.1914C21.417 22.9785 20.5368 23.6556 19.5635 24.2227C18.5902 24.7897 17.5534 25.2256 16.4531 25.5303C15.3529 25.835 14.2018 25.9915 13 26C11.8066 26 10.6556 25.8477 9.54688 25.543C8.43815 25.2383 7.40137 24.8024 6.43652 24.2354C5.47168 23.6683 4.5957 22.9912 3.80859 22.2041C3.02148 21.417 2.3444 20.5368 1.77734 19.5635C1.21029 18.5902 0.774414 17.5576 0.469727 16.4658C0.165039 15.374 0.00846354 14.2188 0 13C0 11.8066 0.152344 10.6556 0.457031 9.54688C0.761719 8.43815 1.19759 7.40137 1.76465 6.43652C2.33171 5.47168 3.00879 4.5957 3.7959 3.80859C4.58301 3.02148 5.46322 2.3444 6.43652 1.77734C7.40983 1.21029 8.44238 0.774414 9.53418 0.469727C10.626 0.165039 11.7812 0.00846354 13 0ZM23.2705 8.125C22.9489 7.43945 22.5596 6.79622 22.1025 6.19531C21.6455 5.5944 21.1377 5.04004 20.5791 4.53223C20.0205 4.02441 19.4154 3.58008 18.7637 3.19922C18.112 2.81836 17.4307 2.50098 16.7197 2.24707C17.0244 2.67025 17.2995 3.11882 17.5449 3.59277C17.7904 4.06673 18.0062 4.55339 18.1924 5.05273C18.3786 5.55208 18.5436 6.06413 18.6875 6.58887C18.8314 7.11361 18.9499 7.62565 19.043 8.125H23.2705ZM24.375 13C24.375 11.8743 24.2184 10.791 23.9053 9.75H19.2969C19.3646 10.2917 19.4154 10.8291 19.4492 11.3623C19.4831 11.8955 19.5 12.4414 19.5 13C19.5 13.5501 19.4831 14.0918 19.4492 14.625C19.4154 15.1582 19.3646 15.6999 19.2969 16.25H23.9053C24.2184 15.209 24.375 14.1257 24.375 13ZM13 24.375C13.4147 24.375 13.7998 24.2607 14.1553 24.0322C14.5107 23.8037 14.8451 23.5033 15.1582 23.1309C15.4714 22.7585 15.7422 22.3395 15.9707 21.874C16.1992 21.4085 16.415 20.9303 16.6182 20.4395C16.8213 19.9486 16.9779 19.4831 17.0879 19.043C17.1979 18.6029 17.2952 18.2135 17.3799 17.875H8.62012C8.68783 18.2051 8.78516 18.5944 8.91211 19.043C9.03906 19.4915 9.19564 19.957 9.38184 20.4395C9.56803 20.9219 9.77962 21.3958 10.0166 21.8613C10.2536 22.3268 10.5286 22.75 10.8418 23.1309C11.1549 23.5117 11.485 23.8122 11.832 24.0322C12.179 24.2523 12.5684 24.3665 13 24.375ZM17.6592 16.25C17.7269 15.7083 17.7777 15.1709 17.8115 14.6377C17.8454 14.1045 17.8665 13.5586 17.875 13C17.875 12.4499 17.8581 11.9082 17.8242 11.375C17.7904 10.8418 17.7354 10.3001 17.6592 9.75H8.34082C8.27311 10.2917 8.22233 10.8291 8.18848 11.3623C8.15462 11.8955 8.13346 12.4414 8.125 13C8.125 13.5501 8.14193 14.0918 8.17578 14.625C8.20964 15.1582 8.26465 15.6999 8.34082 16.25H17.6592ZM1.625 13C1.625 14.1257 1.78158 15.209 2.09473 16.25H6.70312C6.63542 15.7083 6.58464 15.1709 6.55078 14.6377C6.51693 14.1045 6.5 13.5586 6.5 13C6.5 12.4499 6.51693 11.9082 6.55078 11.375C6.58464 10.8418 6.63542 10.3001 6.70312 9.75H2.09473C1.78158 10.791 1.625 11.8743 1.625 13ZM13 1.625C12.5853 1.625 12.2002 1.73926 11.8447 1.96777C11.4893 2.19629 11.1549 2.49674 10.8418 2.86914C10.5286 3.24154 10.2578 3.66048 10.0293 4.12598C9.80078 4.59147 9.58496 5.06966 9.38184 5.56055C9.17871 6.05143 9.02214 6.51693 8.91211 6.95703C8.80208 7.39714 8.70475 7.78646 8.62012 8.125H17.3799C17.3122 7.79492 17.2148 7.4056 17.0879 6.95703C16.9609 6.50846 16.8044 6.04297 16.6182 5.56055C16.432 5.07813 16.2204 4.60417 15.9834 4.13867C15.7464 3.67318 15.4714 3.25 15.1582 2.86914C14.8451 2.48828 14.515 2.18783 14.168 1.96777C13.821 1.74772 13.4316 1.63346 13 1.625ZM9.28027 2.24707C8.56934 2.49251 7.88802 2.8099 7.23633 3.19922C6.58464 3.58854 5.97949 4.03288 5.4209 4.53223C4.8623 5.03158 4.35449 5.58171 3.89746 6.18262C3.44043 6.78353 3.05111 7.43099 2.72949 8.125H6.95703C7.05859 7.61719 7.17708 7.10514 7.3125 6.58887C7.44792 6.07259 7.60872 5.56478 7.79492 5.06543C7.98112 4.56608 8.20117 4.0752 8.45508 3.59277C8.70898 3.11035 8.98405 2.66178 9.28027 2.24707ZM2.72949 17.875C3.05111 18.5605 3.44043 19.2038 3.89746 19.8047C4.35449 20.4056 4.8623 20.96 5.4209 21.4678C5.97949 21.9756 6.58464 22.4199 7.23633 22.8008C7.88802 23.1816 8.56934 23.499 9.28027 23.7529C8.97559 23.3298 8.70052 22.8812 8.45508 22.4072C8.20964 21.9333 7.99382 21.4466 7.80762 20.9473C7.62142 20.4479 7.45638 19.9359 7.3125 19.4111C7.16862 18.8864 7.05013 18.3743 6.95703 17.875H2.72949ZM16.7197 23.7529C17.4307 23.5075 18.112 23.1901 18.7637 22.8008C19.4154 22.4115 20.0205 21.9671 20.5791 21.4678C21.1377 20.9684 21.6455 20.4183 22.1025 19.8174C22.5596 19.2165 22.9489 18.569 23.2705 17.875H19.043C18.9414 18.3828 18.8229 18.8949 18.6875 19.4111C18.5521 19.9274 18.3913 20.4352 18.2051 20.9346C18.0189 21.4339 17.7988 21.9248 17.5449 22.4072C17.291 22.8896 17.016 23.3382 16.7197 23.7529Z"/>
</mask>
<path d="M13 0C14.1934 0 15.3444 0.152344 16.4531 0.457031C17.5618 0.761719 18.5986 1.19759 19.5635 1.76465C20.5283 2.33171 21.4043 3.00879 22.1914 3.7959C22.9785 4.58301 23.6556 5.46322 24.2227 6.43652C24.7897 7.40983 25.2256 8.44661 25.5303 9.54688C25.835 10.6471 25.9915 11.7982 26 13C26 14.1934 25.8477 15.3444 25.543 16.4531C25.2383 17.5618 24.8024 18.5986 24.2354 19.5635C23.6683 20.5283 22.9912 21.4043 22.2041 22.1914C21.417 22.9785 20.5368 23.6556 19.5635 24.2227C18.5902 24.7897 17.5534 25.2256 16.4531 25.5303C15.3529 25.835 14.2018 25.9915 13 26C11.8066 26 10.6556 25.8477 9.54688 25.543C8.43815 25.2383 7.40137 24.8024 6.43652 24.2354C5.47168 23.6683 4.5957 22.9912 3.80859 22.2041C3.02148 21.417 2.3444 20.5368 1.77734 19.5635C1.21029 18.5902 0.774414 17.5576 0.469727 16.4658C0.165039 15.374 0.00846354 14.2188 0 13C0 11.8066 0.152344 10.6556 0.457031 9.54688C0.761719 8.43815 1.19759 7.40137 1.76465 6.43652C2.33171 5.47168 3.00879 4.5957 3.7959 3.80859C4.58301 3.02148 5.46322 2.3444 6.43652 1.77734C7.40983 1.21029 8.44238 0.774414 9.53418 0.469727C10.626 0.165039 11.7812 0.00846354 13 0ZM23.2705 8.125C22.9489 7.43945 22.5596 6.79622 22.1025 6.19531C21.6455 5.5944 21.1377 5.04004 20.5791 4.53223C20.0205 4.02441 19.4154 3.58008 18.7637 3.19922C18.112 2.81836 17.4307 2.50098 16.7197 2.24707C17.0244 2.67025 17.2995 3.11882 17.5449 3.59277C17.7904 4.06673 18.0062 4.55339 18.1924 5.05273C18.3786 5.55208 18.5436 6.06413 18.6875 6.58887C18.8314 7.11361 18.9499 7.62565 19.043 8.125H23.2705ZM24.375 13C24.375 11.8743 24.2184 10.791 23.9053 9.75H19.2969C19.3646 10.2917 19.4154 10.8291 19.4492 11.3623C19.4831 11.8955 19.5 12.4414 19.5 13C19.5 13.5501 19.4831 14.0918 19.4492 14.625C19.4154 15.1582 19.3646 15.6999 19.2969 16.25H23.9053C24.2184 15.209 24.375 14.1257 24.375 13ZM13 24.375C13.4147 24.375 13.7998 24.2607 14.1553 24.0322C14.5107 23.8037 14.8451 23.5033 15.1582 23.1309C15.4714 22.7585 15.7422 22.3395 15.9707 21.874C16.1992 21.4085 16.415 20.9303 16.6182 20.4395C16.8213 19.9486 16.9779 19.4831 17.0879 19.043C17.1979 18.6029 17.2952 18.2135 17.3799 17.875H8.62012C8.68783 18.2051 8.78516 18.5944 8.91211 19.043C9.03906 19.4915 9.19564 19.957 9.38184 20.4395C9.56803 20.9219 9.77962 21.3958 10.0166 21.8613C10.2536 22.3268 10.5286 22.75 10.8418 23.1309C11.1549 23.5117 11.485 23.8122 11.832 24.0322C12.179 24.2523 12.5684 24.3665 13 24.375ZM17.6592 16.25C17.7269 15.7083 17.7777 15.1709 17.8115 14.6377C17.8454 14.1045 17.8665 13.5586 17.875 13C17.875 12.4499 17.8581 11.9082 17.8242 11.375C17.7904 10.8418 17.7354 10.3001 17.6592 9.75H8.34082C8.27311 10.2917 8.22233 10.8291 8.18848 11.3623C8.15462 11.8955 8.13346 12.4414 8.125 13C8.125 13.5501 8.14193 14.0918 8.17578 14.625C8.20964 15.1582 8.26465 15.6999 8.34082 16.25H17.6592ZM1.625 13C1.625 14.1257 1.78158 15.209 2.09473 16.25H6.70312C6.63542 15.7083 6.58464 15.1709 6.55078 14.6377C6.51693 14.1045 6.5 13.5586 6.5 13C6.5 12.4499 6.51693 11.9082 6.55078 11.375C6.58464 10.8418 6.63542 10.3001 6.70312 9.75H2.09473C1.78158 10.791 1.625 11.8743 1.625 13ZM13 1.625C12.5853 1.625 12.2002 1.73926 11.8447 1.96777C11.4893 2.19629 11.1549 2.49674 10.8418 2.86914C10.5286 3.24154 10.2578 3.66048 10.0293 4.12598C9.80078 4.59147 9.58496 5.06966 9.38184 5.56055C9.17871 6.05143 9.02214 6.51693 8.91211 6.95703C8.80208 7.39714 8.70475 7.78646 8.62012 8.125H17.3799C17.3122 7.79492 17.2148 7.4056 17.0879 6.95703C16.9609 6.50846 16.8044 6.04297 16.6182 5.56055C16.432 5.07813 16.2204 4.60417 15.9834 4.13867C15.7464 3.67318 15.4714 3.25 15.1582 2.86914C14.8451 2.48828 14.515 2.18783 14.168 1.96777C13.821 1.74772 13.4316 1.63346 13 1.625ZM9.28027 2.24707C8.56934 2.49251 7.88802 2.8099 7.23633 3.19922C6.58464 3.58854 5.97949 4.03288 5.4209 4.53223C4.8623 5.03158 4.35449 5.58171 3.89746 6.18262C3.44043 6.78353 3.05111 7.43099 2.72949 8.125H6.95703C7.05859 7.61719 7.17708 7.10514 7.3125 6.58887C7.44792 6.07259 7.60872 5.56478 7.79492 5.06543C7.98112 4.56608 8.20117 4.0752 8.45508 3.59277C8.70898 3.11035 8.98405 2.66178 9.28027 2.24707ZM2.72949 17.875C3.05111 18.5605 3.44043 19.2038 3.89746 19.8047C4.35449 20.4056 4.8623 20.96 5.4209 21.4678C5.97949 21.9756 6.58464 22.4199 7.23633 22.8008C7.88802 23.1816 8.56934 23.499 9.28027 23.7529C8.97559 23.3298 8.70052 22.8812 8.45508 22.4072C8.20964 21.9333 7.99382 21.4466 7.80762 20.9473C7.62142 20.4479 7.45638 19.9359 7.3125 19.4111C7.16862 18.8864 7.05013 18.3743 6.95703 17.875H2.72949ZM16.7197 23.7529C17.4307 23.5075 18.112 23.1901 18.7637 22.8008C19.4154 22.4115 20.0205 21.9671 20.5791 21.4678C21.1377 20.9684 21.6455 20.4183 22.1025 19.8174C22.5596 19.2165 22.9489 18.569 23.2705 17.875H19.043C18.9414 18.3828 18.8229 18.8949 18.6875 19.4111C18.5521 19.9274 18.3913 20.4352 18.2051 20.9346C18.0189 21.4339 17.7988 21.9248 17.5449 22.4072C17.291 22.8896 17.016 23.3382 16.7197 23.7529Z" fill="#74AC00" stroke="#74AC00" stroke-width="0.015625" mask="url(#path-1-inside-1_1116_3811)"/>
</svg>
