<svg width="28" height="22" viewBox="0 0 28 22" fill="none" xmlns="http://www.w3.org/2000/svg">
<path d="M5.625 4.75V4.125C5.625 3.71079 5.28921 3.375 4.875 3.375C4.46079 3.375 4.125 3.71079 4.125 4.125V4.75M16.75 0.875C17.2645 0.875 17.726 1.10756 18.0719 1.4845C18.1045 1.52007 18.133 1.55922 18.1588 1.60001L19.7452 4.10656C19.7709 4.14713 19.7991 4.18606 19.8315 4.2215C20.1801 4.60283 20.6709 4.875 21.1875 4.875H24.875C25.4054 4.875 25.9141 5.08571 26.2892 5.46079C26.6643 5.83586 26.875 6.34457 26.875 6.875V18.875C26.875 19.4054 26.6643 19.9141 26.2892 20.2892C25.9141 20.6643 25.4054 20.875 24.875 20.875H2.875C2.34457 20.875 1.83586 20.6643 1.46079 20.2892C1.08571 19.9141 0.875 19.4054 0.875 18.875V6.875C0.875 6.34457 1.08571 5.83586 1.46079 5.46079C1.83586 5.08571 2.34457 4.875 2.875 4.875H6.625C7.13968 4.875 7.57507 4.60292 7.91865 4.22169C7.95079 4.18602 7.97914 4.14713 8.00482 4.10656L9.59123 1.60001C9.61704 1.55922 9.64549 1.52007 9.67813 1.4845C10.024 1.10756 10.4855 0.875 11 0.875H16.75ZM18.875 11.875C18.875 14.6364 16.6364 16.875 13.875 16.875C11.1136 16.875 8.875 14.6364 8.875 11.875C8.875 9.11358 11.1136 6.875 13.875 6.875C16.6364 6.875 18.875 9.11358 18.875 11.875Z" stroke="#74AC00" stroke-width="1.75" stroke-linecap="round" stroke-linejoin="round"/>
</svg>
