<svg width="11" height="15" viewBox="0 0 11 15" fill="none" xmlns="http://www.w3.org/2000/svg">
<path d="M5.5 0.5C8.24972 0.5 10.5 2.7892 10.5 5.63965C10.5 6.18609 10.3196 6.88242 9.99414 7.67773C9.6719 8.46513 9.22318 9.31258 8.72168 10.1494C7.71859 11.8232 6.52729 13.4191 5.78711 14.3525L5.78516 14.3545C5.65195 14.5242 5.43136 14.5455 5.27637 14.418L5.21484 14.3545C4.48515 13.4181 3.29423 11.8229 2.28809 10.1494C1.78474 9.31219 1.33304 8.46432 1.00879 7.67676C0.681334 6.88135 0.500012 6.18538 0.5 5.63965C0.5 2.78927 2.75136 0.5 5.5 0.5ZM5.5 3.25977C4.20092 3.25977 3.16699 4.33853 3.16699 5.63965C3.16702 6.94074 4.20094 8.01953 5.5 8.01953C6.79906 8.01953 7.83298 6.94074 7.83301 5.63965C7.83301 4.33853 6.79908 3.25977 5.5 3.25977Z" stroke="#454545"/>
</svg>
