<svg width="26" height="26" viewBox="0 0 26 26" fill="none" xmlns="http://www.w3.org/2000/svg">
<path d="M0.928711 18.8213C1.30341 18.8214 1.60742 19.1253 1.60742 19.5V23.1426C1.60742 23.8329 2.16707 24.3926 2.85742 24.3926H6.5C6.87472 24.3926 7.17864 24.6966 7.17871 25.0713C7.17871 25.4461 6.87476 25.75 6.5 25.75H1.85742C1.43118 25.75 1.0221 25.5807 0.720703 25.2793C0.419305 24.9779 0.25 24.5688 0.25 24.1426V19.5C0.25 19.1252 0.553947 18.8213 0.928711 18.8213ZM25.0713 18.8213C25.4461 18.8213 25.75 19.1252 25.75 19.5V24.1426C25.75 24.5688 25.5807 24.9779 25.2793 25.2793C24.9779 25.5807 24.5688 25.75 24.1426 25.75H19.5C19.1252 25.75 18.8213 25.4461 18.8213 25.0713C18.8214 24.6966 19.1253 24.3926 19.5 24.3926H23.1426C23.8329 24.3926 24.3926 23.8329 24.3926 23.1426V19.5C24.3926 19.1253 24.6966 18.8214 25.0713 18.8213ZM13 15.1074C13.3748 15.1074 13.6787 15.4114 13.6787 15.7861V19.5C13.6787 19.8748 13.3748 20.1787 13 20.1787C12.6252 20.1787 12.3213 19.8748 12.3213 19.5V15.7861C12.3213 15.4114 12.6252 15.1074 13 15.1074ZM6.5 12.3213H10.2139C10.5886 12.3213 10.8926 12.6252 10.8926 13C10.8926 13.3748 10.5886 13.6787 10.2139 13.6787H6.5C6.12524 13.6787 5.82129 13.3748 5.82129 13C5.82129 12.6252 6.12524 12.3213 6.5 12.3213ZM15.7861 12.3213H19.5C19.8748 12.3213 20.1787 12.6252 20.1787 13C20.1787 13.3748 19.8748 13.6787 19.5 13.6787H15.7861C15.4114 13.6787 15.1074 13.3748 15.1074 13C15.1074 12.6252 15.4114 12.3213 15.7861 12.3213ZM13 5.82129C13.3748 5.82129 13.6787 6.12524 13.6787 6.5V10.2139C13.6787 10.5886 13.3748 10.8926 13 10.8926C12.6252 10.8926 12.3213 10.5886 12.3213 10.2139V6.5C12.3213 6.12524 12.6252 5.82129 13 5.82129ZM1.85742 0.25H6.5C6.87476 0.250001 7.17871 0.553947 7.17871 0.928711C7.17864 1.30341 6.87472 1.60742 6.5 1.60742H2.85742C2.16707 1.60742 1.60742 2.16707 1.60742 2.85742V6.5C1.60742 6.87472 1.30341 7.17864 0.928711 7.17871C0.553946 7.17871 0.25 6.87476 0.25 6.5V1.85742C0.25 1.43118 0.419305 1.0221 0.720703 0.720703C1.0221 0.419305 1.43118 0.25 1.85742 0.25ZM19.5 0.25H24.1426C24.5688 0.25 24.9779 0.419305 25.2793 0.720703C25.5807 1.0221 25.75 1.43118 25.75 1.85742V6.5C25.75 6.87476 25.4461 7.17871 25.0713 7.17871C24.6966 7.17864 24.3926 6.87472 24.3926 6.5V2.85742C24.3926 2.16707 23.8329 1.60742 23.1426 1.60742H19.5C19.1253 1.60742 18.8214 1.30341 18.8213 0.928711C18.8213 0.553946 19.1252 0.25 19.5 0.25Z" fill="#74AC00" stroke="#74AC00" stroke-width="0.5"/>
</svg>
