<svg width="70" height="70" viewBox="0 0 70 70" fill="none" xmlns="http://www.w3.org/2000/svg">
<path d="M2.88574 50.481C4.26645 50.481 5.38574 51.6002 5.38574 52.981V61.9238C5.38615 63.4102 6.58985 64.6139 8.07617 64.6143H16.0083C17.389 64.6143 18.5083 65.7335 18.5083 67.1143V67.5C18.5083 68.8807 17.389 70 16.0083 70H8.07617C3.61601 69.9996 0.000404221 66.384 0 61.9238V52.981C9.64181e-08 51.6002 1.11929 50.481 2.5 50.481H2.88574Z" fill="#74AC00"/>
<path d="M67.5 50.481C68.8807 50.481 70 51.6002 70 52.981V61.9238C69.9996 66.384 66.384 69.9996 61.9238 70H53.9893C52.6085 70 51.4893 68.8807 51.4893 67.5V67.1143C51.4893 65.7335 52.6085 64.6143 53.9893 64.6143H61.9238C63.4102 64.6139 64.6139 63.4102 64.6143 61.9238V52.981C64.6143 51.6002 65.7335 50.481 67.1143 50.481H67.5Z" fill="#74AC00"/>
<path d="M16.0083 0C17.389 6.19718e-08 18.5083 1.11929 18.5083 2.5V2.88574C18.5083 4.26645 17.389 5.38574 16.0083 5.38574H8.07617C6.58985 5.38615 5.38615 6.58985 5.38574 8.07617V15C5.38574 16.3807 4.26645 17.5 2.88574 17.5H2.5C1.11929 17.5 5.70963e-08 16.3807 0 15V8.07617C0.000407193 3.61601 3.61601 0.000406153 8.07617 0H16.0083Z" fill="#74AC00"/>
<path d="M61.9238 0C66.384 0.000404221 69.9996 3.61601 70 8.07617V15C70 16.3807 68.8807 17.5 67.5 17.5H67.1143C65.7335 17.5 64.6143 16.3807 64.6143 15V8.07617C64.6139 6.58985 63.4102 5.38615 61.9238 5.38574H53.9893C52.6085 5.38574 51.4893 4.26645 51.4893 2.88574V2.5C51.4893 1.11929 52.6085 0 53.9893 0H61.9238Z" fill="#74AC00"/>
<path d="M54.5204 20.8362C54.5191 20.8337 54.5173 20.8316 54.5151 20.8299C43.5137 12.6477 18.2398 20.337 17.5214 35.2513C17.4154 37.466 17.703 39.8717 18.3766 42.4354C18.5295 43.0174 19.338 43.0345 19.5625 42.4762C23.4639 32.7717 31.69 25.3611 44.1111 24.2399C44.1111 24.2399 33.2247 26.6166 26.4579 36.8603C24.9069 38.822 23.6626 41.0001 22.7662 43.3227C20.9306 47.6196 19.9477 52.2196 19.8684 56.8752C19.8626 57.2203 20.1429 57.5 20.488 57.5H23.9672C24.3523 57.5 24.6512 57.1566 24.613 56.7735C24.4718 55.358 24.2896 52.0394 25.1156 48.2912C25.1846 47.9781 25.4849 47.7752 25.803 47.8153C27.5086 48.0304 29.2257 48.1461 30.9455 48.1618C35.3944 48.1618 38.5563 47.2158 40.9005 45.1861C43.0004 43.3679 44.1592 40.9222 45.3857 38.3363C47.2581 34.3838 48.2281 26.2766 54.3897 22.8184C54.5636 22.721 54.7101 22.5827 54.8162 22.416C54.9222 22.2493 54.9845 22.0593 54.9975 21.8631C55.0104 21.6668 54.9736 21.4705 54.8903 21.2918C54.808 21.1149 54.6828 20.9607 54.5257 20.8426C54.5234 20.8409 54.5216 20.8387 54.5204 20.8362Z" fill="#454545"/>
</svg>
