<svg width="59" height="43" viewBox="0 0 59 43" fill="none" xmlns="http://www.w3.org/2000/svg">
<path d="M17.8583 0.75C24.9084 0.75 30.6237 5.32187 30.6239 10.9619C30.6239 16.6021 24.9084 21.1748 17.8583 21.1748C15.3347 21.1747 12.9834 20.5862 11.0028 19.5752C6.87408 22.5441 -3.1601 26.9364 2.3778 22.3418C5.14238 20.0482 6.59567 18.1196 7.34362 16.751C5.92532 15.1055 5.09362 13.1119 5.09362 10.9619C5.09377 5.32198 10.8084 0.75018 17.8583 0.75Z" stroke="#74AC00" stroke-width="1.5"/>
<path d="M21.069 6.50904C20.9994 6.46265 20.9301 6.41693 20.8613 6.37205C19.9478 5.77674 19.0846 5.32182 18.0123 5.12773C17.8222 5.09333 17.6776 5.28979 17.7259 5.47682C18.1378 7.07238 16.6855 8.30529 15.6665 9.46546C15.5364 9.61356 15.2866 9.57064 15.2023 9.39248C14.4752 7.8562 13.0289 7.25998 11.5835 6.28425C11.3991 6.15979 11.151 6.31268 11.197 6.53033C11.8934 9.82876 14.0884 10.4604 12.106 14.1913C11.9919 14.406 12.2095 14.6521 12.4267 14.5428C15.9588 12.7667 14.7351 11.1052 15.4506 12.0954C16.6398 13.7714 17.6793 14.5396 19.0584 14.4226C19.1824 14.4121 19.3008 14.4856 19.3317 14.6061C19.4438 15.0436 19.5469 15.6628 19.4597 16.3085C19.426 16.5575 19.7347 16.7865 19.9297 16.628C21.5485 15.312 21.4311 14.359 21.5603 13.62C21.5726 13.5495 21.6178 13.49 21.68 13.4548C22.1091 13.212 22.5692 12.9244 23.0663 12.5921C26.8932 9.87067 24.0308 8.86043 21.069 6.50904ZM20.498 12.534C20.3893 12.6227 20.2283 12.6047 20.1467 12.4907C19.2879 11.2905 19.1315 10.107 19.647 8.71073C19.6943 8.58251 19.839 8.52149 19.966 8.57199L19.9981 8.58474C20.1277 8.63627 20.1893 8.78388 20.1417 8.91499C19.7048 10.1189 19.8395 11.1096 20.5812 12.1502C20.6601 12.2609 20.6436 12.4151 20.5383 12.5011L20.498 12.534Z" fill="#454545"/>
<path d="M40.6416 18.1309C33.5915 18.1309 27.876 22.7036 27.876 28.3438C27.8761 33.9838 33.5916 38.5556 40.6416 38.5557C43.1652 38.5557 45.5164 37.967 47.4971 36.9561C51.6254 39.925 61.6614 44.3176 56.123 39.7227C53.3588 37.4293 51.9052 35.5014 51.1572 34.1328C52.5755 32.4873 53.4072 30.4937 53.4072 28.3438C53.4072 22.7036 47.6918 18.1309 40.6416 18.1309Z" stroke="#74AC00" stroke-width="1.5"/>
<path d="M35.0792 32.1329C35.2047 32.1024 35.472 32.1024 35.7658 32.1024H36.7098C37.0381 32.1024 37.3654 32.0827 37.6252 32.0414C37.7219 32.0257 37.8027 32.0069 37.8826 31.9804C37.6345 31.7749 37.4111 31.5434 37.2247 31.2735C36.6418 30.4952 36.3664 29.5415 36.2807 28.5689C36.1971 28.6309 36.1269 28.7265 36.0518 28.8455C35.7346 29.3484 35.8348 29.8939 35.6227 30.3822C35.0386 30.6769 35.0599 29.3087 35.1936 28.9685C35.4051 28.4303 35.8629 28.2582 35.9088 27.8313C35.8333 27.8539 35.7641 27.8707 35.6799 27.9237C35.1923 28.2313 35.0655 28.7794 34.6787 29.1224C34.0334 29.1224 34.622 27.8928 34.879 27.6471C35.3432 27.2035 35.9054 27.3622 36.0518 26.7866C35.9588 26.4041 35.8108 26.0469 35.5655 25.7416C33.9652 23.8755 34.1528 23.656 37.1674 23.7746H37.2247C37.092 23.0913 37.2428 22.3059 37.711 21.8691C37.7999 21.7865 37.8692 21.7621 37.9398 21.7767V21.7755C38.3447 21.862 38.4531 23.2963 38.4833 23.9576C38.6347 23.994 38.8074 24.052 38.9696 24.1113C38.9906 24.0376 39.0081 23.9668 39.0268 23.8962C39.1414 23.4629 39.2861 22.9971 39.6561 22.6361C40.191 22.1048 40.8574 21.6465 40.972 22.5131C41.0553 23.2238 40.6984 24.022 40.0852 24.6338C40.2246 24.7145 40.3288 24.7812 40.4857 24.8797C41.601 25.5387 42.3463 26.7583 42.5168 28.076C42.9311 32.9999 44.6224 31.7127 46.0639 28.9673C47.0891 26.8324 46.345 24.1562 44.7195 23.1893C44.4193 23.0248 44.1288 22.953 43.9185 22.9742C43.7082 22.9958 43.5609 23.0805 43.4322 23.2815C43.1749 23.6836 43.106 24.6801 43.7469 26.3549V26.4159H43.7755V26.4769C43.8127 26.5911 43.7773 26.7292 43.6897 26.815C43.602 26.9006 43.4679 26.938 43.3464 26.9075C43.2249 26.876 43.1469 26.7778 43.1175 26.6616L43.0889 26.6006V26.5701C42.4215 24.8185 42.3759 23.6551 42.8315 22.9435C43.2481 22.4012 43.6325 22.2396 44.1474 22.3288C47.3772 22.887 47.6054 27.5404 46.5503 29.5205C46.2574 30.2213 44.8568 33.0272 42.9745 32.0407C42.4655 31.7928 42.1114 32.1707 41.7158 32.4095C41.6509 32.6595 41.5431 32.9413 41.3153 33.2394C40.9656 33.5235 40.4719 33.7172 40.1997 33.8233C39.483 34.1223 38.801 34.6373 38.1686 34.7146C37.5411 34.7913 37.0015 34.5183 37.7395 33.9155C38.2714 33.4811 39.0584 33.3628 39.6275 33.1164C39.8718 33.0106 40.0835 32.8942 40.2855 32.7783C39.9061 32.8107 39.541 32.7901 39.1699 32.6554C39.0451 32.623 38.9179 32.5796 38.798 32.5324C38.7789 32.5512 38.7627 32.5756 38.7408 32.5934C38.6091 32.7017 38.4374 32.81 38.2259 32.87C37.8027 32.993 37.2852 33.0038 36.9958 32.993C36.5459 32.9772 36.1246 32.9693 35.6799 32.993C35.5152 33.0028 35.1172 33.0461 34.7931 32.993C34.6311 32.9665 34.5014 32.9172 34.4499 32.87C34.4241 32.8475 34.3966 32.8278 34.3926 32.809C34.3886 32.7884 34.3964 32.75 34.4212 32.6861C34.5329 32.3981 34.7773 32.2155 35.0792 32.1329ZM38.6238 31.374C38.9003 31.3022 39.0451 30.8526 39.0953 30.3219C39.1634 29.5999 39.0568 28.7272 38.8683 28.4487C38.6232 28.0867 38.3137 28.4132 37.9918 28.3661C37.7061 28.3238 37.4679 27.8332 37.1428 27.9426C36.2316 28.2495 37.4547 31.6784 38.6238 31.374Z" fill="#454545"/>
</svg>
