<svg width="97" height="70" viewBox="0 0 97 70" fill="none" xmlns="http://www.w3.org/2000/svg">
<path d="M49.9714 17.8237C49.971 8.94539 40.9061 1.4843 29.3602 1.4841C17.8145 1.48439 8.75044 8.94541 8.75002 17.8237C8.75002 21.2203 10.0622 24.3876 12.3337 27.023L12.669 27.4123L12.4226 27.8636C11.1184 30.2499 8.62066 33.5462 3.93829 37.431C2.90601 38.2875 2.23585 38.928 1.84645 39.3837C1.88887 39.3754 1.93353 39.3677 1.97979 39.3576C2.57897 39.2267 3.38779 38.9659 4.34893 38.5972C8.19978 37.1197 14.0651 34.0697 17.4594 31.6289L17.8266 31.3651L18.2295 31.5709C21.4357 33.2075 25.2535 34.1651 29.3602 34.1652C40.9063 34.165 49.9714 26.7023 49.9714 17.8237ZM51.4555 17.8237C51.4555 27.8138 41.3999 35.6491 29.3602 35.6493H29.3593C25.1919 35.6491 21.2905 34.7133 17.957 33.0908C14.4073 35.5661 8.69815 38.518 4.88035 39.9827C3.89116 40.3622 3.00244 40.6527 2.2967 40.8069C1.94604 40.8835 1.61066 40.9337 1.31697 40.9344C1.05848 40.9351 0.670428 40.9008 0.366217 40.6484C0.193575 40.5052 0.0717216 40.3098 0.0232124 40.0822C-0.0222391 39.8687 0.00547623 39.6688 0.0512325 39.5083C0.138753 39.2015 0.333562 38.8981 0.559459 38.6117C1.02381 38.023 1.82474 37.2569 2.99141 36.2889C7.26403 32.7441 9.60827 29.7523 10.8737 27.5863C8.60498 24.7945 7.26592 21.4434 7.26592 17.8237C7.26635 7.83403 17.3202 0.000512109 29.3593 0H29.3602C41.3996 0.000205473 51.4551 7.8338 51.4555 17.8237Z" fill="#74AC00"/>
<path d="M34.7306 10.3756C34.6142 10.2979 34.4983 10.2215 34.3832 10.1464C32.8552 9.1506 31.4113 8.38964 29.6175 8.06498C29.2996 8.00743 29.0577 8.33606 29.1384 8.64891C29.8276 11.3179 27.3982 13.3802 25.6937 15.3209C25.4761 15.5686 25.0583 15.4968 24.9172 15.1988C23.7009 12.629 21.2816 11.6317 18.8639 9.99953C18.5555 9.79134 18.1405 10.0471 18.2173 10.4112C19.3823 15.9286 23.054 16.9851 19.7378 23.226C19.547 23.5851 19.911 23.9967 20.2744 23.814C26.1826 20.843 24.1356 18.0637 25.3325 19.7201C27.3218 22.5236 29.0605 23.8086 31.3675 23.6129C31.5748 23.5953 31.7729 23.7183 31.8245 23.9198C32.0121 24.6516 32.1846 25.6875 32.0387 26.7676C31.9824 27.1841 32.4988 27.5671 32.8249 27.302C35.5328 25.1005 35.3364 23.5066 35.5525 22.2703C35.5731 22.1524 35.6486 22.0529 35.7527 21.994C36.4705 21.5879 37.2401 21.1068 38.0716 20.551C44.473 15.9987 39.685 14.3088 34.7306 10.3756ZM33.7755 20.4537C33.5938 20.6021 33.3244 20.5721 33.1879 20.3813C31.7513 18.3737 31.4898 16.394 32.3519 14.0584C32.4311 13.8439 32.6732 13.7419 32.8857 13.8263L32.9393 13.8477C33.1561 13.9339 33.2592 14.1808 33.1796 14.4001C32.4488 16.4139 32.6741 18.0711 33.9148 19.8118C34.0467 19.997 34.019 20.2548 33.8429 20.3986L33.7755 20.4537Z" fill="#454545"/>
<path d="M88.0889 46.899C88.0886 38.0145 79.0183 30.55 67.4695 30.55C55.9209 30.5502 46.8504 38.0146 46.8502 46.899C46.8504 55.7834 55.9207 63.2469 67.4695 63.2471C71.5774 63.2471 75.3954 62.2886 78.6028 60.6516L79.0024 60.448L79.3656 60.709C82.7601 63.1502 88.6258 66.2012 92.4777 67.679C93.4393 68.0478 94.2496 68.3079 94.8495 68.439C94.9037 68.4508 94.9554 68.4602 95.0044 68.4695C94.6166 68.0123 93.9427 67.3656 92.8974 66.4983C88.2161 62.6145 85.7188 59.3201 84.4151 56.9348L84.1713 56.4884L84.503 56.1041C86.7755 53.4675 88.0888 50.2977 88.0889 46.899ZM89.5572 46.899C89.5572 50.5184 88.2172 53.8691 85.9475 56.6604C87.2129 58.8276 89.559 61.8206 93.8352 65.3684C95.0018 66.3362 95.8015 67.1024 96.2653 67.6904C96.4911 67.9767 96.6859 68.2797 96.7729 68.5852C96.8183 68.7448 96.8448 68.9433 96.7997 69.155C96.7514 69.3807 96.6306 69.574 96.4593 69.7161C96.1574 69.9666 95.772 70.0007 95.5139 70.0001C95.221 69.9993 94.8864 69.9504 94.5359 69.8739C93.8305 69.7198 92.9414 69.4294 91.9519 69.0498C88.1323 67.5845 82.4198 64.631 78.8714 62.1554C75.5382 63.7783 71.6372 64.7154 67.4695 64.7154C55.4326 64.7153 45.382 56.8832 45.3818 46.899C45.3821 36.9149 55.4325 29.0818 67.4695 29.0816C79.5067 29.0816 89.557 36.9148 89.5572 46.899Z" fill="#74AC00"/>
<path d="M58.1662 53.2376C58.376 53.1866 58.8232 53.1866 59.3146 53.1866H60.8937C61.4429 53.1866 61.9904 53.1536 62.4249 53.0846C62.5868 53.0582 62.7218 53.0269 62.8555 52.9825C62.4404 52.6387 62.0668 52.2515 61.755 51.8001C60.7801 50.4981 60.3194 48.9028 60.1759 47.276C60.0362 47.3796 59.9187 47.5396 59.7931 47.7387C59.2624 48.5799 59.4302 49.4924 59.0753 50.3092C58.0982 50.802 58.1339 48.5134 58.3576 47.9443C58.7113 47.044 59.4771 46.7562 59.5538 46.0421C59.4275 46.0799 59.3119 46.108 59.171 46.1968C58.3553 46.7112 58.1433 47.628 57.4963 48.2018C56.4168 48.2018 57.4014 46.1449 57.8312 45.7341C58.6078 44.992 59.5482 45.2575 59.7931 44.2946C59.6376 43.6548 59.3899 43.0573 58.9796 42.5467C56.3028 39.4251 56.6165 39.058 61.6593 39.2564H61.755C61.533 38.1133 61.7852 36.7995 62.5684 36.069C62.7172 35.9308 62.8331 35.8899 62.9512 35.9144V35.9123C63.6284 36.0571 63.8098 38.4563 63.8603 39.5625C64.1136 39.6233 64.4025 39.7203 64.6738 39.8196C64.709 39.6963 64.7382 39.5778 64.7695 39.4597C64.9612 38.7349 65.2033 37.9558 65.8222 37.3519C66.7169 36.4633 67.8316 35.6965 68.0233 37.1462C68.1625 38.3349 67.5657 39.6701 66.54 40.6936C66.773 40.8285 66.9474 40.9402 67.2099 41.1048C69.0754 42.2072 70.3221 44.2473 70.6073 46.4515C71.3003 54.6878 74.1295 52.5348 76.5408 47.9424C78.2556 44.3712 77.0109 39.8947 74.2918 38.2773C73.7897 38.0021 73.3037 37.882 72.952 37.9174C72.6003 37.9536 72.3538 38.0953 72.1386 38.4315C71.7081 39.1041 71.5929 40.7711 72.6649 43.5725V43.6746H72.7128V43.7766C72.775 43.9676 72.7158 44.1986 72.5692 44.3421C72.4227 44.4853 72.1983 44.5478 71.995 44.4968C71.7917 44.4442 71.6613 44.2799 71.6122 44.0855L71.5644 43.9835V43.9324C70.4479 41.0024 70.3716 39.0565 71.1337 37.8661C71.8307 36.9589 72.4736 36.6886 73.3348 36.8379C78.7375 37.7715 79.1192 45.5556 77.3543 48.8678C76.8644 50.04 74.5215 54.7336 71.3729 53.0834C70.5215 52.6687 69.9293 53.3009 69.2675 53.7004C69.159 54.1185 68.9786 54.5898 68.5976 55.0885C68.0126 55.5636 67.1867 55.8877 66.7314 56.0652C65.5325 56.5653 64.3918 57.4268 63.334 57.5561C62.2842 57.6844 61.3817 57.2278 62.6162 56.2194C63.5058 55.4929 64.8224 55.2949 65.7743 54.8827C66.1829 54.7058 66.537 54.511 66.8749 54.3172C66.2403 54.3715 65.6296 54.3369 65.0088 54.1116C64.8001 54.0573 64.5874 53.9848 64.3867 53.9059C64.3549 53.9372 64.3277 53.9782 64.291 54.008C64.0708 54.1891 63.7836 54.3702 63.4297 54.4706C62.7219 54.6763 61.8562 54.6944 61.3721 54.6763C60.6196 54.65 59.9148 54.6367 59.171 54.6763C58.8955 54.6928 58.2297 54.7651 57.6876 54.6763C57.4166 54.6319 57.1997 54.5496 57.1134 54.4706C57.0703 54.4329 57.0244 54.3999 57.0177 54.3686C57.011 54.334 57.024 54.2698 57.0656 54.1629C57.2523 53.6812 57.6612 53.3758 58.1662 53.2376ZM64.0954 51.9682C64.5579 51.8481 64.8001 51.0961 64.884 50.2082C64.998 49.0005 64.8196 47.5407 64.5043 47.0748C64.0944 46.4694 63.5766 47.0156 63.0382 46.9366C62.5603 46.8659 62.1618 46.0454 61.618 46.2284C60.0939 46.7416 62.1398 52.4773 64.0954 51.9682Z" fill="#454545"/>
</svg>
