<svg width="77" height="70" viewBox="0 0 77 70" fill="none" xmlns="http://www.w3.org/2000/svg">
<path d="M48.8833 0.25511C48.7497 -0.0947106 48.2344 -0.0824918 48.1343 0.277783C47.6476 2.02911 47.3269 3.79226 47.5528 5.50104C47.8461 7.69386 48.9883 9.85433 51.9738 11.9263C52.1555 12.0524 52.201 12.2974 52.0737 12.4758C48.6394 17.291 46.4873 25.0628 47.6321 30.1654C47.7169 30.5435 48.2076 30.5148 48.2818 30.1346C48.894 27.0004 49.3759 24.321 51.8163 21.4892C51.8632 21.4347 51.9269 21.3933 51.9964 21.3713C57.5295 19.619 60.8506 18.7566 62.0374 12.7099C62.0428 12.6825 62.0515 12.6543 62.063 12.6287C62.5065 11.6377 62.9757 11.3213 64.355 10.9508C65.1223 10.7492 65.9621 10.4294 65.9548 9.61615C65.9404 6.18921 63.9061 4.86154 61.7851 4.89629C59.738 4.92972 57.6106 6.2235 57.1033 8.12824C57.066 8.26805 56.9606 8.38259 56.8205 8.43032C56.5403 8.52575 56.2632 8.647 55.9891 8.79218C55.8536 8.86393 55.6861 8.85889 55.5597 8.77284C51.6192 6.08937 50.1146 3.47765 48.8833 0.25511ZM41.6596 5.46488C41.3316 5.29175 40.9664 5.6095 41.1253 5.93799C41.8752 7.48821 42.8825 8.9971 44.2394 10.2279C45.7272 11.5758 47.6266 12.5997 50.1253 13.0043C50.5209 13.0683 50.7118 12.5753 50.4012 12.3287C48.6464 10.9357 47.5302 9.46461 46.8882 7.95571C46.8448 7.85385 46.7606 7.77337 46.6544 7.73484C44.93 7.10899 43.3126 6.33736 41.6596 5.46488ZM65.9548 9.61615C65.7015 9.97066 65.3634 10.6391 64.7119 10.8477C66.6431 12.2316 69.1289 14.5361 70.9789 16.4207C71.2775 16.7248 71.6785 16.4681 71.4584 16.1062C70.1201 13.9052 67.7634 11.2175 65.9548 9.61615Z" fill="#454545"/>
<path d="M12.7882 1.52168C11.5406 1.51789 10.2424 1.65751 8.90481 1.96925C5.8662 2.67746 2.37275 5.97703 0.836227 9.30205C0.0680857 10.9644 -0.208097 12.6036 0.164238 13.8889C0.396662 14.6914 0.863459 15.3913 1.68425 15.9359C1.98375 16.1346 2.31116 15.7907 2.17981 15.4561C2.09954 15.2516 2.02885 15.0455 1.96841 14.8394C1.88206 14.5448 2.07722 14.25 2.37775 14.1874C2.67977 14.1244 2.97371 14.3197 3.06644 14.614C3.30874 15.3829 3.73108 16.1815 4.25912 16.8275C4.31099 16.891 4.38316 16.9342 4.46319 16.9519C5.21026 17.1171 6.00172 17.2561 6.82315 17.372C7.11285 17.4128 7.33781 17.1192 7.26361 16.8362C7.15255 16.4126 7.11291 16.0158 7.10156 15.6478C7.09207 15.3403 7.35041 15.0957 7.65804 15.1019C7.96524 15.1082 8.20384 15.3622 8.21043 15.6694C8.22251 16.2326 8.3098 16.7628 8.7106 17.4459C8.77012 17.5473 8.87658 17.6117 8.99375 17.6221C9.88613 17.7015 10.7977 17.7564 11.7137 17.7895C11.9322 17.7974 12.1107 17.6186 12.1109 17.3999C12.1114 16.8781 12.1395 16.3658 12.1796 15.8603C12.2039 15.5536 12.4764 15.3287 12.7827 15.3578C13.0882 15.3869 13.3117 15.6578 13.2878 15.9637C13.2488 16.4654 13.2232 16.9629 13.225 17.4605C13.2257 17.6644 13.3922 17.827 13.5961 17.8277C14.5822 17.8314 15.5607 17.8097 16.5126 17.7664C16.6905 17.7583 16.8385 17.627 16.8669 17.4513C16.959 16.8822 17.031 16.3429 17.0983 15.8071C17.1367 15.5011 17.4155 15.2837 17.7214 15.3222C18.0262 15.3606 18.2428 15.6383 18.2045 15.9431C18.1527 16.3546 18.0976 16.7733 18.0324 17.2086C17.9961 17.4515 18.1932 17.6675 18.438 17.6478C19.3132 17.5775 20.1503 17.4879 20.9335 17.3804C21.0701 17.3617 21.1856 17.2697 21.2334 17.1404C21.4583 16.5316 21.6424 15.9271 21.7745 15.3279C21.8407 15.0274 22.1271 14.8223 22.4306 14.8738C22.7327 14.9251 22.9376 15.2116 22.8729 15.5112C22.7999 15.8496 22.7122 16.1867 22.612 16.5225C22.5288 16.8015 22.767 17.0764 23.0519 17.0162C23.32 16.9596 23.5765 16.9004 23.8194 16.8386C23.9146 16.8144 23.9962 16.7534 24.0465 16.6691C24.4499 15.9919 24.7751 15.3235 24.9996 14.6676C25.0996 14.3754 25.4037 14.1955 25.7024 14.2742C25.999 14.3523 26.1783 14.6562 26.082 14.9475C26.0668 14.9936 26.0512 15.0396 26.0351 15.0856C25.9206 15.4145 26.2571 15.6894 26.4895 15.43C27.0459 14.8092 27.3194 14.0423 27.38 13.1686C27.4964 11.4929 26.7097 9.38064 25.1609 7.42872C22.6441 4.25686 18.1945 1.53793 12.7882 1.52168ZM9.72646 18.8293C9.53549 18.815 9.36254 18.9435 9.32513 19.1313C9.25291 19.4938 9.18787 19.8578 9.13005 20.223C8.86078 21.9299 8.75677 23.6592 8.89545 25.062C9.03426 26.4647 9.44204 27.4941 9.97713 27.9055C10.9289 28.6374 12.1864 28.9478 13.3951 28.9098C14.6037 28.8719 15.7484 28.4732 16.4241 27.9168C16.9646 27.4718 17.4051 26.0753 17.4479 24.2665C17.4843 22.7332 17.283 20.9319 16.8942 19.2123C16.8538 19.0337 16.6899 18.9117 16.507 18.92C14.3071 19.0207 11.9789 18.9986 9.72646 18.8293Z" fill="#454545"/>
<ellipse cx="27.3907" cy="27.3913" rx="6.08696" ry="6.08696" fill="#74AC00"/>
<path fill-rule="evenodd" clip-rule="evenodd" d="M30.766 25.3155C30.9693 25.5332 30.9643 25.8808 30.7548 26.0921L26.7609 30.1196C26.5558 30.3264 26.2297 30.3264 26.0246 30.1196L24.0276 28.1058C23.8181 27.8946 23.8131 27.5469 24.0165 27.3292C24.2198 27.1116 24.5545 27.1064 24.764 27.3176L26.3927 28.9601L30.0185 25.3039C30.228 25.0927 30.5626 25.0978 30.766 25.3155Z" fill="white"/>
<ellipse cx="70" cy="27.3913" rx="6.08696" ry="6.08696" fill="#74AC00"/>
<path fill-rule="evenodd" clip-rule="evenodd" d="M73.3753 25.3155C73.5787 25.5332 73.5737 25.8808 73.3642 26.0921L69.3703 30.1196C69.1652 30.3264 68.839 30.3264 68.634 30.1196L66.637 28.1058C66.4275 27.8946 66.4225 27.5469 66.6259 27.3292C66.8292 27.1116 67.1638 27.1064 67.3733 27.3176L69.0021 28.9601L72.6279 25.3039C72.8373 25.0927 73.172 25.0978 73.3753 25.3155Z" fill="white"/>
<path d="M35.22 38.0435C34.095 38.0435 33.0856 38.3408 32.4003 38.7763C31.715 39.2118 31.3859 39.7341 31.3859 40.2482C31.3859 40.7623 31.715 41.2846 32.4003 41.7201C32.6906 41.9046 32.7019 42.4195 32.4068 42.5963C31.593 43.084 30.8505 43.7811 30.2114 44.6526C30.0723 44.8429 30.278 45.0841 30.4979 44.9991C31.9913 44.4221 33.6056 44.1333 35.2203 44.1333C36.8349 44.1333 38.4493 44.4221 39.9427 44.9991C40.1626 45.0841 40.3684 44.8429 40.2293 44.6526C39.5901 43.7808 38.8473 43.0835 38.0333 42.5958C37.7384 42.4191 37.7495 41.9045 38.0397 41.7201C38.725 41.2846 39.0542 40.7622 39.0542 40.2482C39.0542 39.7342 38.725 39.2118 38.0397 38.7763C37.3543 38.3409 36.3452 38.0435 35.22 38.0435ZM31.296 38.7633C30.3841 38.7633 29.6571 39.4901 29.6571 40.4017C29.6571 41.3134 30.384 42.0401 31.296 42.0401C31.3734 42.0401 31.4495 42.0348 31.524 42.0246C31.767 41.9913 31.8377 41.7056 31.7189 41.491C31.5093 41.1123 31.3886 40.6944 31.3886 40.2482C31.3886 39.9071 31.459 39.5825 31.5857 39.2793C31.6815 39.05 31.58 38.7688 31.3315 38.7636C31.3197 38.7634 31.3078 38.7633 31.296 38.7633ZM39.1453 38.7633C39.1328 38.7633 39.1203 38.7634 39.1078 38.7637C38.8596 38.7692 38.7584 39.0499 38.8542 39.279C38.9809 39.5822 39.0513 39.907 39.0513 40.2482C39.0513 40.6942 38.9307 41.112 38.7213 41.4905C38.6026 41.7052 38.6732 41.9909 38.9162 42.0245C38.9919 42.035 39.0684 42.0403 39.1453 42.0401C40.0572 42.0401 40.7841 41.3135 40.7841 40.4017C40.7841 39.4899 40.0573 38.7633 39.1453 38.7633ZM25.4779 40.579C25.1499 40.5226 24.9314 40.9123 25.0797 41.2103C25.2436 41.5394 25.3387 41.8595 25.388 42.1732C25.4258 42.4141 25.2025 42.6017 24.9633 42.5539C24.6217 42.4856 24.3827 42.8706 24.5693 43.1648C24.8289 43.5742 25.054 44.051 25.1982 44.7305C25.206 44.7671 25.2079 44.805 25.2046 44.8423C25.1361 45.6366 25.2154 46.4357 25.8778 47.2862C26.4198 48.2267 27.1883 48.8234 28.0814 49.0163C28.1935 49.0405 28.3067 49.0586 28.4209 49.071C28.6067 49.0913 28.7686 48.9566 28.8065 48.7737C28.8292 48.6644 28.8531 48.5554 28.8783 48.4467C28.9373 48.1924 28.7353 47.9503 28.4766 47.9146C28.4249 47.9075 28.3744 47.8986 28.3252 47.8879C27.8249 47.7799 27.4063 47.5167 27.0355 46.9679C26.9978 46.9122 26.9777 46.8452 26.9759 46.7779C26.8773 43.1434 28.6375 41.1219 25.4779 40.579ZM45.3136 41.2103C45.462 40.9123 45.2436 40.5226 44.9155 40.579C41.7561 41.1219 43.5163 43.1433 43.4177 46.7779C43.4158 46.8451 43.3957 46.9121 43.3581 46.9678C42.9874 47.5165 42.5687 47.7797 42.0685 47.8879C42.0317 47.8958 41.9942 47.9028 41.956 47.9088C41.7005 47.9491 41.5027 48.1899 41.5613 48.4418C41.5865 48.5504 41.6104 48.6593 41.6331 48.7684C41.6714 48.9531 41.8361 49.0882 42.0233 49.065C42.1204 49.053 42.2168 49.0368 42.3124 49.0162C43.2056 48.8233 43.9743 48.2264 44.5164 47.2855C45.1167 46.5144 45.237 45.7856 45.2032 45.0642C45.2019 45.0367 45.2034 45.0086 45.208 44.9813C45.3469 44.1659 45.5938 43.6238 45.8838 43.1661C46.0706 42.8713 45.8311 42.4856 45.4889 42.554L45.4284 42.5661C45.1892 42.6139 44.9658 42.4267 45.0028 42.1857C45.0516 41.8681 45.1474 41.5438 45.3136 41.2103ZM34.643 45.7304C34.643 45.5135 34.4618 45.34 34.2456 45.3569C34.0159 45.3749 33.7869 45.3992 33.559 45.4295L32.2182 45.6836C31.8447 45.7764 31.476 45.8878 31.1136 46.0174L29.7204 46.6282C29.4709 46.7594 29.2271 46.9011 28.9897 47.0529C28.9223 47.096 28.871 47.1598 28.8433 47.2348C28.3371 48.6025 28.0471 50.1575 28.0471 51.8086C28.0471 54.6242 28.8893 57.1616 30.2113 58.9648C31.3009 60.4509 32.6915 61.4296 34.2227 61.7279C34.4453 61.7713 34.6429 61.5938 34.6429 61.367L34.643 45.7304ZM36.1953 45.3571C35.9789 45.3401 35.7975 45.5137 35.7975 45.7308V61.367C35.7975 61.5938 35.9951 61.7713 36.2178 61.728C37.7491 61.4297 39.1397 60.4511 40.2293 58.9648C41.5514 57.1616 42.3936 54.6242 42.3936 51.8086C42.3936 50.1575 42.1037 48.6023 41.5974 47.2344C41.5697 47.1594 41.5183 47.0955 41.4509 47.0525C41.281 46.944 41.1078 46.8406 40.9316 46.7426L39.5528 46.1007C39.1895 45.9617 38.8176 45.8413 38.4391 45.7395L37.1027 45.4615C36.8015 45.4157 36.4989 45.3809 36.1953 45.3571ZM28.2571 51.1923C27.4993 51.2025 26.7577 51.5039 26.0982 52.0787C24.9846 52.8104 24.6561 53.9483 24.4082 55.1236C24.4016 55.1546 24.3912 55.1851 24.377 55.2134C24.0223 55.9235 23.6347 56.3532 23.2281 56.7079C23.0065 56.9012 23.1181 57.2679 23.4115 57.2869C23.629 57.3009 23.7697 57.5237 23.6686 57.7168C23.4957 58.0466 23.2751 58.3509 22.9829 58.6171C22.7368 58.8413 22.782 59.2899 23.108 59.3574C26.204 59.9984 25.351 56.4676 26.9136 52.943C26.9368 52.8907 26.9722 52.8437 27.0172 52.8083C27.4753 52.448 27.9142 52.3253 28.386 52.3485C28.4513 52.3518 28.5075 52.2999 28.5056 52.2346C28.5017 52.0932 28.4997 51.9513 28.4997 51.8086C28.4997 51.6282 28.503 51.4487 28.5092 51.2702C28.5106 51.2316 28.4812 51.1974 28.4426 51.1956C28.3808 51.1925 28.319 51.1914 28.2571 51.1923ZM42.1365 51.1923C42.0747 51.1915 42.0129 51.1926 41.951 51.1956C41.9386 51.1962 41.9291 51.2071 41.9296 51.2195C41.937 51.4148 41.941 51.611 41.941 51.8087C41.9409 51.9659 41.9385 52.1223 41.9338 52.278C41.9325 52.3187 41.9669 52.3505 42.0076 52.3485C42.4794 52.3253 42.9185 52.4481 43.3766 52.8084C43.4216 52.8438 43.4569 52.8908 43.4801 52.9431C45.0428 56.4676 44.1897 59.9983 47.2855 59.3574C47.6115 59.2899 47.6568 58.8413 47.4107 58.6171C47.1235 58.3555 46.9056 58.0571 46.7341 57.7339C46.6283 57.5344 46.7742 57.3033 46.9995 57.2888C47.3035 57.2692 47.419 56.8894 47.1904 56.6881C46.7575 56.3067 46.3465 55.8357 45.9743 55.0256C45.9632 55.0014 45.9547 54.9756 45.9489 54.9495C45.7039 53.8366 45.3541 52.7743 44.2954 52.0787C43.636 51.5039 42.8944 51.2025 42.1365 51.1923ZM29.4892 57.1278C29.4085 56.9254 29.1771 56.8228 28.9851 56.9256C28.7233 57.0657 28.4831 57.2313 28.2676 57.4266C27.5759 58.0534 27.2075 58.9803 27.225 60.0979C27.2254 60.1211 27.2237 60.1445 27.2205 60.1675C27.1183 60.9166 27.6335 61.5657 28.3997 62.2989C28.4439 62.3413 28.478 62.3936 28.4971 62.4518C28.7162 63.1189 28.7609 63.6484 28.7409 64.1361C28.7266 64.4848 29.13 64.6963 29.3921 64.466C29.6072 64.2771 29.9453 64.3843 29.9734 64.6691C29.9955 64.8942 29.9984 65.105 29.9901 65.3086C29.9758 65.6573 30.3761 65.8716 30.6383 65.6413L30.9349 65.3808C31.0981 65.2374 31.3487 65.2592 31.4776 65.434C31.639 65.653 31.7946 65.8823 31.9419 66.1232C32.1208 66.4158 32.5689 66.3741 32.6215 66.0352C33.1694 62.5012 29.0601 61.9437 28.5401 59.1399C28.5284 59.0767 28.5345 59.0102 28.5597 58.951C28.6727 58.6859 28.8357 58.4698 29.0432 58.2818C29.1566 58.179 29.288 58.0844 29.4366 57.9984C29.6234 57.8903 29.7139 57.6608 29.6283 57.4627C29.5803 57.3517 29.5339 57.2401 29.4892 57.1278ZM41.4502 56.9485C41.2583 56.8429 41.0248 56.945 40.9433 57.1483C40.8982 57.2606 40.8515 57.3723 40.8033 57.4834C40.7179 57.6799 40.8061 57.9079 40.9901 58.0178C41.1253 58.0986 41.2456 58.1867 41.3505 58.2818C41.558 58.4698 41.721 58.6859 41.834 58.951C41.8592 59.0101 41.8653 59.0767 41.8535 59.1399C41.3335 61.9438 37.2241 62.5012 37.7721 66.0354C37.8247 66.3742 38.2728 66.416 38.4517 66.1234C38.5926 65.8929 38.7412 65.6731 38.8952 65.4627C39.0239 65.2871 39.275 65.265 39.4385 65.4086L39.7035 65.6414C39.9657 65.8717 40.3659 65.6574 40.3517 65.3087C40.3434 65.1052 40.3463 64.8943 40.3684 64.6692C40.3965 64.3843 40.7345 64.2771 40.9496 64.466C41.2118 64.6963 41.615 64.4846 41.6008 64.1359C41.5816 63.6669 41.6222 63.1592 41.8203 62.5277C41.8393 62.467 41.8745 62.4126 41.9207 62.3689C42.7272 61.6069 43.2789 60.9399 43.1732 60.1672C43.1701 60.1442 43.1683 60.1207 43.1687 60.0975C43.1861 58.9801 42.8177 58.0533 42.126 57.4266C41.922 57.2417 41.6958 57.0836 41.4502 56.9485Z" fill="#454545"/>
<ellipse cx="54.7823" cy="63.913" rx="6.08696" ry="6.08696" fill="#74AC00"/>
<path fill-rule="evenodd" clip-rule="evenodd" d="M58.1576 61.8373C58.3609 62.0549 58.3559 62.4026 58.1464 62.6139L54.1525 66.6413C53.9474 66.8481 53.6213 66.8481 53.4162 66.6413L51.4192 64.6276C51.2097 64.4163 51.2047 64.0686 51.4081 63.851C51.6114 63.6333 51.9461 63.6281 52.1556 63.8394L53.7843 65.4819L57.4101 61.8257C57.6196 61.6144 57.9542 61.6196 58.1576 61.8373Z" fill="white"/>
</svg>
