<?xml version="1.0" standalone="no"?>
<!DOCTYPE svg PUBLIC "-//W3C//DTD SVG 1.1//EN" "http://www.w3.org/Graphics/SVG/1.1/DTD/svg11.dtd">
<svg xmlns="http://www.w3.org/2000/svg">
<metadata>Generated by Fontastic.me</metadata>
<defs>
<font id="inaturalisticons" horiz-adv-x="512">
<font-face font-family="inaturalisticons" units-per-em="512" ascent="480" descent="-32"/>
<missing-glyph horiz-adv-x="512" />

<glyph glyph-name="inat-wordmark" unicode="&#57344;" d="M62 244l5-7c2-2 4-5 5-7 2-3 4-5 6-8 2-2 4-5 6-8 2-3 4-5 6-9 1 1 2 1 3 1 1 0 3 0 4 0 2 0 3 0 5 0 1 0 2 0 3-1 0 3 0 7 0 10 0 3 0 6 0 9 0 8 0 15 0 23 0 8 0 15 1 23 0 3 0 6 0 9 0 3 0 6 1 9-1-1-2-1-3-1-1 0-2 0-3 0-1 0-2 0-3 0-1 0-2 0-4 1 0-3 0-5 1-8 0-2 0-4 0-7 0-2 0-4 0-7 0-2 0-5 0-8 0-3 0-7 1-10 0-3 0-6 0-10-2 2-3 3-4 5-1 1-2 3-3 4-1 1-2 3-3 4-1 2-3 3-4 5-1 2-3 4-5 6-2 3-4 6-6 8-2 3-4 6-6 9-2 3-4 6-6 9-1-1-2-1-3-1-2 0-3 0-4 0-1 0-3 0-4 0-2 0-3 0-4 1 0-7 0-14 0-20 0-6 0-13 0-19 0-4 0-7 0-11 0-4 0-7 0-11 0-4 0-7-1-11 0-4 0-7 0-11 1 1 2 1 3 1 1 0 2 0 3 0 1 0 2 0 3 0 1 0 2 0 3-1 0 3 0 6-1 10 0 3 0 7 0 10 0 4 0 7 0 10 0 3 0 6 0 8l0 12c1-2 2-4 4-5 1-2 2-4 4-6z m72-21c0 2 0 4 0 5 0 1 1 2 1 3 1 1 2 2 3 2 1 1 3 2 5 3l0-15c0-2-1-3-2-4 0-1-2-1-3-1-2 0-3 0-3 2-1 1-1 3-1 5z m-19-2c0-3 0-6 1-8 1-2 2-3 3-4 2-2 3-3 5-3 2-1 4-1 6-1 3 0 5 0 8 1 2 1 4 3 6 5 0-1 1-2 1-2 1-1 2-2 3-2 0-1 1-1 3-2 1 0 2 0 4 0 2 0 4 0 6 1 3 1 5 2 7 4 0 1 0 1 0 2 0 0 0 1 0 1 0 1 0 1 0 2 0 0 0 1 0 2-1-1-3-2-4-2-1 0-1 1-2 1 0 1 0 1-1 2 0 1 0 2 0 3 0 1 0 3 0 4 0 2 0 3 0 5 0 2 0 4 0 6 0 2 0 4 0 6 0 2 0 4 0 6 0 2 0 4-1 7-1 2-2 4-4 5-1 2-4 3-6 4-3 1-6 2-10 2-4 0-7-1-11-2-3-1-6-2-10-5l2-10 3 0c1 2 3 4 4 5 2 1 4 1 7 1 1 0 2 0 3 0 1 0 2-1 2-1 1-1 2-2 2-3 1-1 1-2 1-4 0-1 0-2-1-2 0-1 0-2-1-2-1-1-2-1-3-2-2 0-3-1-6-1-2-1-4-2-7-3-2-1-4-2-5-4-2-1-3-3-4-5-1-2-1-4-1-7z m79 0l0 35c2 0 3 0 5 0 1-1 3-1 4-1 0 1 0 2 0 2 0 1 0 2 0 3 0 1 0 3 0 4-1 0-3 0-4 0-1 0-3 0-5 0 0 1 0 3 1 5 0 2 0 4 0 7 0 2 0 4 0 7 0 2 0 4 1 6l-2 2c-3-3-6-5-9-7-4-2-7-4-10-5l0-15c-1 0-3 0-4 0-2 0-3 0-4 0 1-1 1-1 1-2 0-1 0-2 0-2 0-1 0-2 0-3 0-1-1-1-1-2 2 0 3 0 4 1 1 0 2 0 4 0l0-16c0-2 0-5 0-8-1-3-1-6-1-9 0-6 2-10 4-13 3-4 7-5 12-5 3 0 5 0 8 1 2 0 5 1 7 2 0 1 0 1 0 2 0 0 0 1 0 2 0 1 0 2 0 4-1-1-2-1-2-1-1-1-2-1-3-1-4 0-6 2-6 7z m15 21c0-1 0-2 0-4 0-1 0-3 0-5 0-1 0-3 0-4 0-2 0-3 0-4 0-6 1-11 4-15 3-3 6-5 12-5 2 0 3 1 5 1 1 0 2 1 4 1 1 1 2 2 3 3 1 1 2 3 4 4 0-3-1-6-1-9 2 1 3 1 5 1 2 0 3 0 5 0 1 0 3 0 5 0 2 0 4 0 5-1 0 4 0 8 0 12-1 4-1 9-1 15l0 9c0 2 0 5 0 7 1 3 1 5 1 7 0 2 0 4 0 6 0 2 0 3 0 5-3-1-7-1-10-1-2 0-4 0-5 0-2 0-4 0-6 1 1-5 1-10 1-15 0-6 0-11 0-16 0-2 0-4 0-5 0-2-1-4-1-6 0-1-1-2-1-3-1-1-2-2-4-2-1 0-2 1-3 1 0 1-1 2-1 4-1 1-1 2-1 4 0 2 0 4 0 6 0 4 0 8 0 11 0 3 0 5 0 8 0 2 0 4 0 6 1 2 1 4 1 7-2-1-4-1-5-1-2 0-3 0-5 0-2 0-4 0-6 0-1 0-3 0-5 1 0-4 0-7 0-11 0-3 0-8 0-13z m81 8l1 16c-2-1-3-1-5-1-1 0-3 0-5 0-1 0-3 0-5 0-1 0-3 0-5 1 0-3 0-6 0-8 0-2 0-5 0-7 1-2 1-4 1-7 0-2 0-5 0-9l0-8c0-4 0-8-1-11 0-4 0-8 0-11 1 1 3 1 5 1 2 0 3 0 5 0 2 0 4 0 6 0 1 0 3 0 5-1 0 5 0 9 0 14-1 4-1 9-1 13 0 2 1 4 1 6 0 1 0 3 1 4 0 1 1 2 2 3 2 1 3 1 5 1 1 0 3 0 4 0 1-1 2-2 3-3l1 1c0 2 0 5 0 6 0 2 1 4 1 5 0 2 0 3 0 5 0 1 0 3 1 5-1 0-2 1-2 1-1 0-2 0-2 0-2 0-4-1-6-2-2 0-3-2-4-3-2-2-3-4-4-5 0-2-1-4-1-6z m41-27c0 2 0 4 0 5 0 1 1 2 1 3 1 1 2 2 3 2 1 1 3 2 5 3l0-15c0-2-1-3-2-4 0-1-1-1-3-1-2 0-3 0-3 2-1 1-1 3-1 5z m-19-2c0-3 0-6 1-8 1-2 2-3 3-4 2-2 3-3 5-3 2-1 4-1 6-1 3 0 5 0 8 1 2 1 4 3 6 5 0-1 1-2 2-2 0-1 1-2 2-2 1-1 2-1 3-2 1 0 2 0 4 0 2 0 4 0 7 1 2 1 4 2 6 4 0 1 0 1 0 2 0 0 0 1 0 1 0 1 0 1 0 2 0 0 0 1 0 2-1-1-3-2-4-2-1 0-1 1-2 1 0 1 0 1-1 2 0 1 0 2 0 3 0 1 0 3 0 4 0 2 0 3 0 5 0 2 0 4 0 6 0 2 0 4 0 6 0 2 0 4 0 6 0 2 0 4-1 7-1 2-2 4-4 5-1 2-4 3-6 4-3 1-6 2-10 2-4 0-7-1-11-2-3-1-6-2-10-5l2-10 3 0c1 2 3 4 5 5 1 1 3 1 6 1 1 0 2 0 3 0 1 0 2-1 3-1 0-1 1-2 1-3 1-1 1-2 1-4 0-1 0-2 0-2-1-1-1-2-2-2-1-1-2-1-3-2-1 0-3-1-6-1-2-1-4-2-6-3-3-1-4-2-6-4-2-1-3-3-4-5-1-2-1-4-1-7z m59 44l0-36c0-4 0-8 0-12-1-4-1-8-1-12 2 1 4 1 5 1 2 0 4 0 6 0 2 0 3 0 5 0 2 0 4 0 5-1 0 2 0 4 0 6 0 3 0 5 0 8 0 2 0 5 0 7 0 3 0 6 0 8l0 29c0 5 0 10 0 15 0 5 0 10 0 15-1-1-3-1-5-1-2 0-3 0-5 0-2 0-4 0-6 0-1 0-3 0-5 1 0-4 0-7 0-9 1-3 1-5 1-7 0-2 0-4 0-6 0-2 0-4 0-6z m32-28c0-4 0-8 0-11 0-3 0-5 0-7 0-2 0-4-1-6 0-2 0-5 0-8 2 1 3 1 5 1 2 0 4 0 5 0 2 0 4 0 6 0 2 0 4 0 5-1 0 2 0 4 0 6 0 2 0 4 0 6 0 2 0 4 0 6 0 2 0 4 0 6l0 6c0 4 0 8 0 13 0 6 0 11 1 18-4-1-7-1-11-1-2 0-4 0-6 0-1 0-3 0-5 1 0-3 0-4 0-6 1-2 1-3 1-5 0-2 0-4 0-7 0-3 0-6 0-11z m36-14l-4 0c0-2 0-5 0-7-1-3-1-5-1-8 2-1 5-2 8-2 3-1 6-1 9-1 2 0 5 0 8 1 2 1 5 2 7 4 2 1 4 4 5 6 1 3 2 6 2 10 0 9-4 15-12 18l-6 2c-2 1-4 2-6 3-1 0-2 2-2 3 0 1 1 2 1 3 1 0 1 1 2 1 0 1 1 1 2 1 1 0 1 0 2 0 3 0 5-1 7-2 1-1 2-4 3-7l4 0c0 3 0 5 0 7 1 3 1 5 2 8-3 1-5 1-8 2-2 1-5 1-7 1-3 0-6 0-8-1-3-1-5-2-7-4-2-2-4-4-5-7-1-3-2-6-2-10 0-5 1-9 3-12 3-2 6-4 9-6l7-2c2-1 4-2 5-2 0-1 1-2 1-4 0-1 0-1-1-2 0-1-1-1-1-1-1-1-2-1-3-1 0 0-1 0-2 0-3 0-5 0-7 2-2 1-4 4-5 7z m63-2l0 35c1 0 3 0 4 0 1-1 3-1 4-1 0 1 0 2 0 2 0 1 0 2 0 3 0 1 0 3 0 4-1 0-2 0-4 0-1 0-3 0-4 0 0 1 0 3 0 5 0 2 0 4 0 7 0 2 0 4 0 7 0 2 1 4 1 6l-2 2c-3-3-6-5-9-7-3-2-7-4-10-5l0-15c-1 0-2 0-4 0-1 0-3 0-3 0 0-1 0-1 0-2 0-1 0-2 0-2 0-1 0-2 0-3 0-1 0-1 0-2 1 0 2 0 3 1 1 0 3 0 4 0l0-16c0-2 0-5 0-8 0-3 0-6 0-9 0-6 1-10 3-13 3-4 7-5 12-5 3 0 5 0 8 1 2 0 5 1 7 2 0 1 0 1 0 2 0 0 0 1 0 2 0 1 0 2 0 4-1-1-1-1-2-1-1-1-2-1-3-1-3 0-5 2-5 7z m-77 61c0-3-1-6-4-8-2-3-5-4-8-4-3 0-6 1-9 4-2 2-3 5-3 8 0 3 1 6 3 9 3 2 6 3 9 3 3 0 6-1 8-3 3-3 4-6 4-9m-413-45c0-4 0-8 0-11 0-3 0-5 0-7 0-2 0-4-1-6 0-2 0-5 0-8 2 1 3 1 5 1 2 0 4 0 5 0 2 0 4 0 6 0 2 0 4 0 5-1 0 2 0 4 0 6 0 2 0 4 0 6 0 2 0 4 0 6 0 2 0 4 0 6l0 6c0 4 0 8 0 13 0 6 0 11 1 18-4-1-7-1-11-1-2 0-4 0-6 0-1 0-3 0-5 1 0-3 0-4 0-6 1-2 1-3 1-5 0-2 0-4 0-7 0-3 0-6 0-11m-12 38c3 0 6 1 9 2 2 1 3-2 6-2 2-1 6-1 8 0 4 0 6 2 8 5 3 3 4 7 4 11 0 4 1 8 4 11 2 2 4 3 6 4-2 2-4 1-7 1-6 0-14 0-20-3-4-3-7-7-8-12 0-3-1-7-2-10-2-3-5-4-8-7 0 0 0 0 0 0z"/>
<glyph glyph-name="arrow-down" unicode="&#57345;" d="M241 374l0-179-82 82-21-21 118-118 118 118-21 21-82-82 0 179z m-204-118c0 121 98 219 219 219 121 0 219-98 219-219 0-121-98-219-219-219-121 0-219 98-219 219z m412 0c0 107-86 193-193 193-107 0-193-86-193-193 0-107 86-193 193-193 107 0 193 86 193 193z"/>
<glyph glyph-name="arrow-left" unicode="&#57346;" d="M374 271l-179 0 82 82-21 21-118-118 118-118 21 21-82 82 179 0z m-118 204c121 0 219-98 219-219 0-121-98-219-219-219-121 0-219 98-219 219 0 121 98 219 219 219z m0-412c107 0 193 86 193 193 0 107-86 193-193 193-107 0-193-86-193-193 0-107 86-193 193-193z"/>
<glyph glyph-name="arrow-right" unicode="&#57347;" d="M138 241l179 0-82-82 21-21 118 118-118 118-21-21 82-82-179 0z m118-204c-121 0-219 98-219 219 0 121 98 219 219 219 121 0 219-98 219-219 0-121-98-219-219-219z m0 412c-107 0-193-86-193-193 0-107 86-193 193-193 107 0 193 86 193 193 0 107-86 193-193 193z"/>
<glyph glyph-name="species-unknown" unicode="&#57348;" d="M413 12l-74 0 0 16 74 0z m-120 0l-74 0 0 16 74 0z m-120 0l-74 0 0 16 74 0z m-145 87l-16 0 0 74 16 0z m0 120l-16 0 0 74 16 0z m0 120l-16 0 0 74 16 0z m385 145l-74 0 0 16 74 0z m-120 0l-74 0 0 16 74 0z m-120 0l-74 0 0 16 74 0z m327-385l-16 0 0 74 16 0z m0 120l-16 0 0 74 16 0z m0 120l-16 0 0 74 16 0z m-251-251c-27 0-46 19-46 46 0 27 19 46 46 46 26 0 45-19 45-46l0 0c0-27-19-46-45-46z m0 76c-18 0-30-12-30-30 0-18 12-30 30-30 17 0 29 12 29 30 0 18-12 30-29 30z m37 45l-71 0-1 18c-2 25 7 49 26 72 14 16 23 27 23 38 0 16-16 17-23 18-12 0-27-5-37-12l-9-6-19 62 5 4c20 11 48 18 75 18 27 0 50-8 66-22 14-13 22-31 22-52 0-34-20-56-36-74l-2-2c-13-15-19-29-19-46z m-56 16l40 0c0 21 7 39 24 57l1 2c15 16 32 35 32 64 0 16-6 29-17 39-12 12-32 18-55 18-29 0-50-8-61-13l9-30c12 5 25 9 37 9l1 0c34-2 38-24 38-34 0-17-13-33-26-48-17-20-24-40-23-61l0 0z m-202 225l-16 0 0 17c0 18 15 33 33 33l17 0 0-16-17 0c-10 0-17-8-17-17z m472 0l-16 0 0 17c0 10-7 17-17 17l-17 0 0 16 17 0c18 0 33-15 33-33z m-438-438l-17 0c-18 0-33 15-33 33l0 17 16 0 0-17c0-10 8-17 17-17l17 0z m405 0l-17 0 0 16 17 0c10 0 17 8 17 17l0 17 16 0 0-17c0-18-15-33-33-33z"/>
<glyph glyph-name="ios-calendar-outline" unicode="&#57349;" d="M352 416l0 32-16 0 0-32-160 0 0 32-16 0 0-32-96 0 0-352 384 0 0 352z m80-336l-352 0 0 240 352 0z m0 256l-352 0 0 64 80 0 0-32 16 0 0 32 160 0 0-32 16 0 0 32 80 0z"/>
<glyph glyph-name="captive" unicode="&#57350;" d="M370 204c0 1-1 2-2 3 1 0 1 1 1 2 2 3 2 7 0 11-1 4-4 6-6 7 0 0 0 1-1 1-2 1-3 3-5 4-16 12-31 24-53 29-7 2-16 5-25 8-16 6-33 12-47 14-4 0-8-1-10-5-2-4-1-8 2-11l0-1c1-1 5-4 7-7 2-2 4-4 6-6-6-3-11-6-16-10-3-2-5-4-8-5-2-1-3-2-5-3-1-1-3-2-4-3l-1 0c0 0-1-1-2-1 0-1-2-2-3-3-12 8-26 14-41 19l0 0c-5 2-11 0-14-5-3-4-2-10 1-14 6-7 14-15 23-23-8-8-14-14-17-18-4-5-4-10-2-15 3-4 9-7 14-5l0 0c7 2 20 7 36 16 12-8 22-13 30-16l0 0c18-12 36-17 54-17 14 0 29 3 43 11 16 8 28 19 41 30l0 0c5 5 5 10 4 13z m-21 1c0-2 1-4 3-5-11-10-22-19-34-25l-1 0c-11-6-23-9-35-9-14 0-29 4-44 14-1 0-2 1-4 2-7 2-17 8-29 16l-1 0c-4 2-9 2-12 0-7-4-13-7-19-10 3 3 5 5 8 8 3 2 4 5 4 9 0 4-1 7-4 9-5 4-9 8-13 12 9-4 18-9 25-14 5-3 10 0 13 2 1 1 3 3 5 4 0 0 1 0 1 1 2 0 3 1 5 2 1 1 2 2 4 3l0 0c3 2 6 4 10 6 6 4 12 9 19 12 0 0 1 0 1 0 1 1 1 1 2 1l15 4-12 10c-1 1-3 3-5 5 7-2 15-5 23-8 10-3 19-6 26-8 18-5 32-15 47-27 2-1 4-3 6-4 0 0 0 0 0 0-4-3-5-6-4-10z m71 189c7 5 13 14 13 24 0 15-13 28-29 28l-296 0c-16 0-28-13-28-28 0-10 5-19 13-24-26-38-40-84-40-132 0-61 24-116 66-154 32-27 73-42 116-42l43 0c42 0 83 15 115 43 43 37 66 92 66 153 0 48-14 94-39 132z m-313 11c-7 1-11 6-11 13 0 6 5 12 12 12l296 0c7 0 12-6 12-12 0-7-4-12-10-13l-17-2 12-11c1-1 2-2 2-3 8-11 15-22 20-34-7 1-12 1-12 1-12 0-23-4-32-8l-1-1c-2-1-5-2-8-3l0 0c-12-4-26-4-46 1l-3 1 0 0c-11 4-19 5-27 5-5 0-8 0-12-1l0 0-1 0c-7-2-14-5-21-9-6-4-12-7-16-6l-1 0c-1 0-4 1-7 3-1 0-2 1-3 1-1 1-2 1-3 2-1 0-2 1-3 1-18 9-39 12-58 7-3-1-6-2-8-2-1-1-3-1-4-2-2 0-3-1-5-1-3-1-6-2-9-2l-1 0-1-1c0 0-1 0-2 0-7 0-14 2-22 4l-2 1c-7 2-13 4-21 5l0 0-1 0c-1 0-2 0-6 1 6 13 13 25 21 37 1 1 2 1 3 2l13 12z m275-284c-28-25-66-39-104-39l-43 0c-40 0-77 14-105 38-39 35-61 86-61 142 0 26 4 51 12 74 7 0 10-1 10-1l1 0 1 0c6-1 11-3 17-4l3-1c9-3 17-5 26-5 2 0 4 0 7 1 4 0 7 2 11 3 1 0 3 1 5 1 1 0 3 1 4 2 3 0 5 1 7 2 15 3 33 1 47-6 1 0 2-1 3-1 1-1 2-1 3-2 1 0 2-1 3-1 4-3 9-5 14-5 1 0 1 0 2 0 7 0 15 3 23 8l0 0c6 3 12 6 18 7 2 1 5 1 8 1 6 0 13-1 22-4l3-1 1 0c23-6 40-7 55-1 4 1 8 2 11 4 8 3 16 7 25 7 6 0 14-1 19-2 9-24 13-49 13-76 0-57-22-107-61-141z"/>
<glyph glyph-name="chatbubble" unicode="&#57351;" d="M256 63c29 0 56 5 81 15 1 1 1 1 2 1 0 0 0 0 0 0 4 2 8 2 11 2 5 0 9-1 13-2l84-31-23 88c0 6 2 11 4 15 1 1 2 3 3 4 21 31 33 68 33 108 0 111-93 201-208 201-115 0-208-90-208-201 0-111 93-200 208-200z"/>
<glyph glyph-name="identification" unicode="&#57352;" d="M256 431c0 0-51 76-145 39l0-300 145-138 145 138 0 300c-94 37-145-39-145-39z m0-294c-22 0-39 18-39 40 0 22 17 39 39 39 22 0 39-17 39-39 0-22-17-40-39-40z"/>
<glyph glyph-name="person" unicode="&#57353;" d="M448 64c0 0 0 26-2 40-2 11-17 25-81 49-63 23-60 12-60 55 0 27 15 11 24 64 3 21 6 7 13 40 4 17-2 19-1 27 0 8 1 16 3 33 1 21-18 76-88 76-70 0-89-55-87-76 1-17 2-25 3-33 0-8-6-10-2-27 7-33 10-19 14-40 9-53 23-37 23-64 0-43 4-32-60-55-64-24-79-38-81-49-2-14-2-40-2-40z"/>
<glyph glyph-name="iconic-animalia" unicode="&#57354;" d="M335 406c-41-3-63-4-118-36-40-22-66-63-72-106-6-29-14-57-24-84-13-29-47-39-69-61-2-2-1-7 1-7 24 0 52 10 75 21 23 10 36-14 55-18 26-7 55-12 81-3 28 6 52 23 69 45 22 28 33 63 35 98 3 35 5 64 24 86 19 22 30 34 69 51 2 14-85 17-126 14z m-10-76c-14 0-25 11-25 25 0 14 11 26 25 26 14 0 26-12 26-26 0-14-12-25-26-25z"/>
<glyph glyph-name="iconic-arachnida" unicode="&#57355;" d="M425 254c-6 5-12 9-17 12-3 11-18 25-39 32-2 1-5 2-7 3 1 0 1 0 2 1 19 11 31 26 33 37 10 4 24 13 35 25 17 17 23 33 13 36-10 2-32-10-49-28-6-6-10-11-13-16-11 1-27-2-43-11-10-6-18-13-24-20 1 2 2 3 2 4 9 19 12 37 7 48 6 9 11 28 11 47 0 24-8 39-17 34-8-5-15-29-15-53 0-8 1-15 2-20-11-4-23-17-32-34-1-3-3-5-4-8-4 1-9 2-14 2-5 0-10-1-14-2-1 3-3 5-4 8-9 17-21 30-32 34 1 5 2 12 2 20 0 24-7 48-15 53-1 1-3 1-4 1l0 0c-7 1-13-14-13-35 0-19 5-37 11-47-5-11-3-29 7-48 0-1 0-1 1-2-6 6-14 13-23 18-16 9-32 12-43 11-3 5-7 10-13 16-17 18-38 30-48 28-10-3-5-19 12-36 11-12 25-21 35-25 2-11 14-26 33-37 1-1 1-1 2-1-2-1-5-2-7-3-21-7-36-21-39-32-5-3-11-7-17-12-18-15-31-36-30-46 2-10 18-6 36 10 11 9 20 20 26 29 9-2 22-1 35 3-2-3-4-6-6-9-11-16-15-34-12-45-2-4-4-9-6-14-7-23-7-48 0-56 7-7 18 5 25 28 3 11 5 23 5 32 10 5 21 15 30 29 7 11 11 22 12 32 6-8 6-16 7-25-15-14-25-33-25-55 0-40 32-74 72-74 40 0 72 34 72 74 0 22-10 41-25 55 0 10 2 16 7 24 1-9 5-20 12-31 9-14 20-24 30-29 0-9 2-21 5-32 7-23 18-35 25-28 7 8 7 33 0 56-2 5-4 10-6 14 3 11-1 29-12 45-2 3-4 6-6 9 13-4 26-5 35-3 6-9 15-20 26-29 18-16 34-20 36-10 1 10-12 31-30 46z"/>
<glyph glyph-name="iconic-aves" unicode="&#57356;" d="M387 295c-18-2-30-2-46-8-17 30-22 55-35 76-12 23-32 44-78 68l0 1c-3-24-5-45-4-64 2-2 4-4 7-6 28-25 39-51 76-83 1-1 2-3 2-5 0-1-2-3-3-3-2-1-4 0-5 1-38 33-50 60-76 83-1 1-1 1-1 1-1 1-2 2-3 2 0 1-1 1-1 1-1 1-2 2-3 2 0 1 0 1-1 1-1 1-2 1-3 2 0 0 0 0 0 0-1 1-3 2-4 3 0 0 0 0 0 0-1 1-2 2-3 3 0 0-1 0-1 0-1 1-2 2-3 2 0 0 0 0 0 0-1 1-1 1-2 2-1 0-1 0-2 1-1 0-2 1-3 2l0 0c-29 16-71 33-141 50 3-15 52-37 73-46 0 0-62 13-92 13 36-20 102-38 102-38 0 0-47 0-77 3 38-25 78-28 78-28 0 0-28-9-50-8 22-17 57-18 57-18 0 0-23-4-40-7 15-10 42-16 42-16 0 0-15-4-31-8 16-8 40-10 40-10 0 0-12-3-24-6 12-9 20-12 20-12 0 0 0-4-8-6 9-7 15-6 15-6 0 0-1-5-7-3 5-10 11-8 11-8 0 0 0-1-1-3 0 0 0 0 0 0 0 0 1-1 1-1 1-1 2-2 4-2 0 0 0 0 0 0 1-1 2-2 3-3 0 0 1 0 1 0 0 0 0 0 0-1 0 0 0 0 1 0 1-1 2-1 3-2 0 0 0 0 1-1 0 0 0 0 0 0 1-1 3-1 4-2 1-1 2-1 3-2 0 0 0 0 0 0 1 0 2-1 2-1 1-1 3-1 4-2 0 0 1 0 1 0 1-1 3-2 4-2 2-1 3-2 5-3 1 0 1 0 2-1 1 0 1 0 2 0 0 0 1-1 1-1 0 0 0 0 0 0 1 0 1-1 1-1 1 0 2 0 3-1 1 0 1 0 2-1 0 0 1 0 1 0 1 0 2-1 3-1 1 0 2-1 2-1 1 0 2-1 3-1 1 0 3-1 4-1 1 0 1-1 2-1 0 0 0 0 0 0 2 0 4-1 6-1 2-1 4-2 6-2 2-1 4-1 6-2 2 0 4-1 7-1 0 0 0 0 0 0 13-4 28-6 44-8 2 0 4-2 4-5-1-2-3-4-5-4-16 2-32 5-46 8-3-13-7-26-11-39-10-20-34-28-50-43-1-1-1-5 1-5 17 0 37 7 54 15 16 7 25-10 38-13 19-5 39-8 58-2 19 5 37 16 49 32 16 20 23 45 24 69 3 26 4 46 18 62 13 15 21 24 49 36 1 9-61 12-90 10z m5-47c-8 0-15 7-15 16 0 8 7 15 15 15 9 0 16-7 16-15 0-9-7-16-16-16z"/>
<glyph glyph-name="iconic-actinopterygii" unicode="&#57357;" d="M301 426c-2 0-4 0-7 0-36 0-67-3-100-20 39-23 44-58 42-86-2-28-9-22-20-58-50 37-103 21-165 24 78-85 152-49 158-198 76 111 10 135 46 122 58-22 96-23 129 5 14-11 37-34 43-65 33 77 8 98-1 121 7 13 14 28 21 44 49 123-36 102-146 111z m81-156c-47 15-72 43-81 90l15 3c8-41 29-65 70-78z m-2 79c-12 0-22 10-22 22 0 12 10 22 22 22 12 0 22-10 22-22 0-12-10-22-22-22z"/>
<glyph glyph-name="iconic-reptilia" unicode="&#57358;" d="M445 385c5 5 11 12 12 19-1 3-17-18-31-17-5 0-11-1-16-2-3 12-16 19-45 20-3 0-7 0-10-1-1 0-1 0-2 0 0 0-1 0-1 0-8-1-14 12-29 11-1 0-2 0-3 0-13-2-14-14-18-19-12-4-26-10-44-21-64-59-62-134-97-151-52-15-70 0-99-28-13-19-17-36-1-64 16-29 60-43 114-21 53 23 108 169 112 176 8 26 96 30 114 64 3 5 5 9 7 13 19 13 50 12 53 16-1 2-7 4-16 5z m-101-44c-11 0-21 9-21 21 0 11 10 21 21 21 12 0 21-10 21-21 0-12-9-21-21-21z m51-139c-43 11-84 17-123 19-3-7-7-14-11-22-11-21-23-42-36-60-14-17-28-32-45-40-1 0-1 0-2 0 25 0 51 2 77 6 63 8 122 22 135 26 12 4 22 20 23 36 1 7 0 15-3 21-3 7-7 11-15 14z m-21 43c-23 11-51 20-80 26-2-4-4-10-7-17-3-7-6-14-10-23 35-3 74-8 114-18 1 13-4 27-17 32z m-219-13c12 15 20 32 28 51 1 1 1 2 2 3-7 0-14 0-21 0-1 0-3 0-4 0-24 0-41-2-46-6-14-12-18-35-7-50 16 1 32 2 48 2z m2 65c-22 26-20 51-26 51-3-3-2-31 3-53 8 1 15 1 23 2z"/>
<glyph glyph-name="iconic-protozoa" unicode="&#57359;" d="M420 294c-7 6-16 10-25 9-1 0-2 0-3 0-12 0-24 1-30 10-6 12 2 28 14 35l0 0c21 16 24 34 19 47-6 17-25 27-43 22-12-1-25-3-36-6-17-4-34-8-50-6-2 2-4 4-7 6-8 7-18 16-32 15-17-1-30-15-36-36-4-13-18-23-32-23l-1 0-1-1c-10-2-17-9-20-19-3-10 0-21 6-29 4-5 9-7 13-9 2-1 4-2 6-3 4-4 5-10 4-16 0-3-2-8-7-11-3 0-6 0-9-1-14-1-30-3-41-16-10-11-16-24-22-37-1-3-2-5-3-7l0-1c-5-18 5-38 23-44 7-3 14-5 21-7 13-4 25-8 33-18 4-6 5-14 6-23 1-8 2-16 6-24 3-7 10-12 18-12 1-1 2-1 3-1 6 0 12 3 16 7 6 7 9 15 11 23 3 7 5 14 11 19 15 12 38 8 53-2 8-5 18-8 27-7 9 1 17 5 22 11l0 1c9 13 4 27 0 38-1 2-2 4-2 6l-1 1c-3 8-2 17 3 24l0 1c9 15 31 31 64 31l0 0c15 2 30 11 31 27 1 9-2 19-9 26z m-92-3c-9-12-20-33-52-30-32 4-42 42-42 61 3 16 14 27 25 38 8 8 11 16 30 16 20 1 17-33 22-47 5-15 29-20 17-38z"/>
<glyph glyph-name="iconic-plantae" unicode="&#57360;" d="M335 406c-41-3-63-4-118-36-40-22-66-63-72-106-6-29-14-57-24-84-13-29-47-39-69-61-2-2-1-7 1-7 24 0 52 10 75 21 23 10 36-14 55-18 26-7 55-12 81-3 28 6 52 23 69 45 22 28 33 63 35 98 3 35 5 64 24 86 19 22 30 34 69 51 2 14-85 17-126 14z m-32-133c16 5 32 9 38 22l10-5c-8-18-28-23-45-28-17-4-29-8-33-17-1-4-2-8-4-13 0 0 0 0 0 0l0 0c-3-7-6-13-11-20-5-6-10-11-17-17 10 0 18-1 27-3 22-4 39-7 55 16l10-7c-21-28-44-24-67-20-15 3-30 5-46 0-13-7-27-13-44-19l-3 11c10 3 19 7 27 11l0 0c1 0 2 1 3 1 18 14 11 28-2 52-12 21-27 47-6 71l9-7c-16-19-5-38 7-58 6-12 13-23 14-35 0-4 0-8-1-11 19 12 29 25 34 39 10 41-4 59-15 74-11 14-21 28 0 53l9-7c-15-18-10-25 0-39 6-8 13-17 17-30 7 27 22 55 86 77l4-11c-33-11-54-24-66-41-11-14-13-29-16-46 0 0 0-1 0-2 7 4 17 7 26 9z"/>
<glyph glyph-name="iconic-mollusca" unicode="&#57361;" d="M443 338c-6 0-12-4-15-9-7 2-14 3-20 4-9 1-19 1-28 0-12 7-20 32-26 43-1 1-2 3-3 4 6 3 10 9 10 16 0 10-8 18-18 18-10 0-18-8-18-18 0-8 5-14 12-17 0-4 1-11 0-14-2-9-5-15-9-20 3-4 5-8 8-13 34-63 6-144-62-181-38-21-80-23-116-11-8-7-17-12-25-18-5-3-11-7-13-12-3-7 16-4 18-4 13 2 25 7 37 11 13 3 27 4 39-5 8-6 19-9 29-11 21-4 45 0 64 11 18 10 32 25 42 43 6 10 11 21 15 33 3 11 5 22 6 33 3 22 7 44 17 63 6 9 13 18 22 23 6 3 11 5 17 7 2-7 9-13 17-13 10 0 18 9 18 19 0 9-8 18-18 18z m-173-179c64 34 90 110 58 169-22 40-64 62-108 61-21 0-43-5-63-16 35 3 68-12 85-43 23-43 4-97-42-122-39-21-84-15-111 12 2-6 4-12 7-17 32-59 110-79 174-44z m-75 57c42 23 59 72 39 109-14 25-40 39-68 39-14 0-29-3-43-10 14-3 27-11 34-24 13-25 2-57-25-72-18-9-39-9-55 0 1-5 3-10 6-14 20-38 70-51 112-28z m-68 51c23 12 32 38 21 58-7 13-21 20-36 20-8 0-16-2-24-6-4-2-8-5-11-8 2-1 4-3 6-7 2-5 1-12-1-18-2-5-6-10-11-14-3-1-5-2-7-3 0-3 1-5 3-8 10-20 37-26 60-14z m-52 45c1 3 1 5 0 7-1 2-2 3-5 4 0 0-1 0-1 0-3 0-6-1-10-3-3-3-6-7-7-10-2-3-2-6-1-8 1-1 2-3 5-3 3 0 7 0 11 3 4 3 6 6 8 10z"/>
<glyph glyph-name="iconic-mammalia" unicode="&#57362;" d="M437 142c-4 0-12 0-22 0l-30 0c-10 0-21 1-29 2-3 1-6 1-8 2 8 6 15 13 21 21 18 23 27 52 30 81 2-2 5-5 7-9 10-15 7-31 14-45 18-9 18 32 14 42-7 16-22 21-23 33 2 0 4-1 7-2 16-9 20-26 32-36 21 0 2 37-6 44-15 13-33 8-38 26 3 11 8 22 16 31 51 55 45 62-52 58l-1 0c4 20-1 44-16 57-3 2-5 3-7 3l0 0c-13-3-17-46-18-65-4-1-10-3-15-5-1 2-1 4-2 7-4 12-8 26-20 37-17 16-38 29-42 4-3-21 9-45 28-63-4-3-8-5-13-8-35-19-59-56-64-95-14-146-68-108-114-26-33 63-9 143 43 172 10 4 19 7 26 6 7-1 11-3 15-9 9-12 11-42-10-92l0-1-1 0 0-2c-1-4 0-8 3-10 3-3 7-4 11-3 4 1 6 4 7 7l1 2 0 1c22 52 23 87 9 108-14 16-26 21-43 18-103-16-110-155-76-214 9-21 54-104 114-75 16 8 28-4 40-11 2-7 6-15 13-24 11-9 27-15 36-18 22-9 44-24 64-26 21-2 38 6 14 24-17 12-42 16-60 23-8 3-15 7-21 10 12-1 24 0 35 4 4 1 9 2 12 4 1-1 2-2 2-2 4-3 10-7 17-8 13-4 30-4 39-4 14 0 28 1 42 0 5 0 18-2 28 0 6 1 10 2 11 4 1 0 2 1 2 1 0 1 0 2-1 4-3 9-11 14-21 17z m-78 224c12 0 22-10 22-23 0-12-10-22-22-22-13 0-23 10-23 22 0 13 10 23 23 23z m-35-202c-9 2-14 16-15 31l0 0c-2 22 1 48 7 56 8 11 18 1 28 3 9 1 17 15 27 12 29-9-10-111-47-102z"/>
<glyph glyph-name="iconic-chromista" unicode="&#57363;" d="M328 419c-10-1-26-4-32-13-22-4-45-12-80-32l0 0-1-1c-72-49-78-133-99-195-6-11-16-20-28-28-12-9-27-17-39-29-5-4-5-11-1-16 5-4 12-5 17 0 0 0 0 0 0 0 9 9 22 17 36 26 9 6 19 14 27 24 7-4 18-4 26-3 7 1 11 4 13 8 2-1 3-3 5-4 14-21 25-49 54-58 22-5 29-3 44 1 14 4 43 15 41 20-15 1-20 4-29 10-9 6-13 16-18 29-5 12-12 24-23 31-8 6-18 9-28 8-10 0-22-5-27-10-5-4-12-7-18-8-3 7-10 12-20 9-2 0-4-1-6-1 6 19 11 39 17 58 9-4 22-5 32-4 10 1 15 6 17 12 6-1 11-3 15-8 14-23 25-55 53-64 22-6 30-3 44 1 14 4 43 16 41 22-16 1-20 5-29 11-9 6-13 17-18 31-5 14-12 27-23 35-8 7-18 10-28 9-10 0-21-5-27-12-5-6-16-10-25-9-1 0-2 0-2 0-3 10-12 18-24 15-4-1-9-2-14-4 11 27 27 52 53 71 2-10 15-18 25-23 10-5 18-1 23 6 4-2 8-4 12-8 11-19 20-46 44-55 18-5 25-3 37 0 12 3 37 13 35 17-13 2-17 5-24 11-8 5-11 15-15 27-4 11-10 22-18 29-7 6-16 9-24 9-9 0-18-5-23-10-5-4-13-7-20-6 0 7-4 14-12 16-3 1-8 2-12 3 21 11 37 15 53 18 7-4 16-5 24-5 8 0 14 3 16 9 1 0 2 0 2 0 2-3 4-6 6-9 1-7 6-17 13-23 6-7 14-13 22-16 10-3 21-3 30 0 9 2 16 4 24 1 9-4 14-6 24-15 4 1-9 25-17 36-7 12-11 18-28 30-8 5-15 8-22 10-2 1-4 3-7 3-12 5-28 6-48 5-3 5-8 9-16 8z"/>
<glyph glyph-name="iconic-insecta" unicode="&#57364;" d="M404 423c-4 0-11-1-19-4-14-5-27-15-30-23-5-5-10-14-14-25-2-5-2-10-3-14 11 3 22 8 36 12 1 8 2 15 1 21 1 0 3 1 5 1 15 6 28 17 30 25 1 3-2 6-6 7z m-298-1c-4 0-7-3-6-6 2-8 15-19 31-25 1 0 3-1 5-1-2-6-1-13 0-20 14-5 25-9 36-13 0 5-1 9-3 14-3 11-9 20-14 25-2 8-16 18-30 23-8 3-14 4-19 3z m149-3c-29 0-52-24-52-52 0-10 3-19 7-26 11-7 21-15 29-27l3-3-2-4c-10-20-10-16-8-36l0-2-1-3c-5-8-15-15-26-23-11-7-25-13-38-19 0 0-1 0-2 0-2-5-3-9-3-12-5-4-10-11-15-18-5-10-8-20-9-28-4-7-3-25 2-42 5-18 13-27 17-21 5 6 4 25-1 43-1 2-1 3-2 5 7 3 15 11 21 22 4 7 7 15 8 21 5 2 9 4 14 8 11 8 20 21 24 32 2-2 5-4 8-6-21-11-35-36-35-65 0-40 27-72 61-72 34 0 61 32 61 72 0 29-14 54-35 65 3 2 6 4 8 6 4-11 13-24 24-32 5-4 10-6 14-8 1-6 4-14 8-21 6-11 14-19 21-22-1-2-1-3-2-5-5-18-5-37-1-43 4-6 12 3 17 21 5 17 6 35 2 42-1 8-4 18-9 28-5 7-10 14-15 18 0 4-1 8-3 12 0 0 0 0 0 0-13 6-27 12-38 19-11 8-21 15-26 23l-1 3 0 2c2 20 2 16-8 36l-2 4 3 3c7 11 16 19 26 25 5 8 8 18 8 28 0 28-23 52-52 52z m-187-49c-6 0-10-2-12-4-3-1-4-4-5-7-2-8 1-18 11-29 9-11 27-23 53-32 8-3 23-6 39-7l32-2-30-12c-2-1-4-2-7-3-16-7-23-15-27-22-3-8-3-15-2-23 0 0 0 0 1 0 1 0 5-1 9 0 8 1 20 4 32 9 12 5 25 11 35 18 10 6 19 13 22 18-1 13 1 21 7 33-10 13-21 21-36 28-16 7-36 13-63 23-27 9-46 13-59 12z m376 0c-13 1-32-3-59-12-27-10-47-16-63-23-15-7-26-15-36-28 6-12 8-20 7-33 3-5 12-12 22-18 10-7 23-13 35-18 12-5 24-8 32-9 4-1 8 0 9 0 1 0 1 0 1 0 1 8 1 15-2 23-4 7-11 15-27 22-3 1-5 2-7 3l-30 12 32 2c16 1 31 4 39 7 26 9 44 21 53 32 10 11 13 21 11 29-1 3-2 6-5 7-2 2-6 4-12 4z m-349-125c-11 1-21-2-25-6-4-6 5-13 20-17 7-1 13-1 19-1-1 2-2 3-3 5l0 0 0 1c-1 5-1 11-1 17-3 1-7 1-10 1z m320 0c-3 0-6 0-8-1 0-6 0-12-1-18l0 0 0 0c-1-2-2-3-3-5 5 0 11 0 17 1 16 4 25 11 20 17-3 4-13 7-25 6z"/>
<glyph glyph-name="iconic-fungi" unicode="&#57365;" d="M338 419c4-4 6-7 5-11-2-8-18-10-36-6-18 5-31 15-29 22 1 3 4 5 8 7-9 1-19 1-29 1-18 0-35-1-51-4 9-1 15-4 17-9 3-10-13-24-37-32-23-8-45-7-49 3-1 5 1 11 7 16-41-22-68-56-68-95 0-20 5-49 21-57 16-8 90 23 159 23 69 0 141-35 158-24 17 11 22 36 22 57 0 47-40 89-98 109z m-206-89c-6-10-15-14-20-8-5 5-4 18 2 28 6 10 15 14 20 8 6-5 5-18-2-28z m123 12c-13 0-24 9-24 19 0 10 11 18 24 18 14 0 25-8 25-18 0-10-11-19-25-19z m146-5c-4-6-17-1-29 10-11 12-17 25-13 31 4 6 17 1 28-10 12-12 18-25 14-31z m-145-78c-30 1-62-6-90-12-5-25-7-49-7-68 0-130 194-130 194 0 0 18-2 42-6 66-28 7-61 14-91 14z"/>
<glyph glyph-name="locate" unicode="&#57367;" d="M256 336c-44 0-80-36-80-80 0-44 36-80 80-80 44 0 80 36 80 80 0 44-36 80-80 80z m191-59c-10 89-81 160-170 170l0 33-42 0 0-33c-89-10-160-81-170-170l-33 0 0-42 33 0c10-89 81-160 170-170l0-33 42 0 0 33c89 10 160 81 170 170l33 0 0 42z m-191-170c-82 0-149 67-149 149 0 82 67 149 149 149 82 0 149-67 149-149 0-82-67-149-149-149z"/>
<glyph glyph-name="arrows-out" unicode="&#57368;" d="M24 154l-24-144c0-3 1-6 2-8 0 0 0 0 0 0 2-1 5-2 8-2l144 25c3 0 6 2 6 5 1 3 1 6-2 8l-28 29 76 75c3 4 3 9 0 12l-52 52c-3 4-9 4-12 0l-76-75-28 28c-2 2-5 3-8 2-3-1-5-4-6-7z m464 204l24 144c0 3-1 6-2 8 0 0 0 0 0 0-2 1-5 2-8 2l-144-25c-3 0-6-2-6-5-1-3-1-6 2-8l28-29-76-75c-3-4-3-9 0-12l52-52c3-4 9-4 12 0l76 75 28-28c2-2 5-3 8-2 3 1 5 4 6 7z m-130-334l144-24c3 0 6 1 8 2 0 0 0 0 0 0 1 2 2 5 2 8l-25 144c0 3-2 6-5 6-3 1-6 1-8-2l-29-28-75 76c-4 3-9 3-12 0l-52-52c-4-3-4-9 0-12l75-76-28-28c-2-2-3-5-2-8 1-3 4-5 7-6z m-204 464l-144 24c-3 0-6-1-8-2 0 0 0 0 0 0-1-2-2-5-2-8l25-144c0-3 2-6 5-6 3-1 6-1 8 2l29 28 75-76c4-3 9-3 12 0l52 52c4 3 4 9 0 12l-75 76 28 28c2 2 3 5 2 8-1 3-4 5-7 6z"/>
<glyph glyph-name="arrows-in" unicode="&#57369;" d="M184 54l24 145c1 3 0 5-2 7 0 0 0 0 0 0-2 2-5 3-7 3l-145-25c-3 0-5-2-6-5-1-3 0-7 2-9l28-28-76-76c-3-3-3-8 0-11l53-53c3-3 8-3 11 0l76 76 28-28c3-2 6-3 9-2 3 1 5 3 5 6z m144 404l-24-145c-1-3 0-5 2-7 0 0 0 0 0 0 2-2 5-3 7-3l145 25c3 0 5 2 6 5 1 3 0 7-2 9l-28 28 76 76c3 3 3 8 0 11l-53 53c-3 3-8 3-11 0l-76-76-28 28c-3 2-6 3-9 2-3-1-5-3-5-6z m130-274l-145 24c-3 1-5 0-7-2 0 0 0 0 0 0-2-2-3-5-3-7l25-145c0-3 2-5 5-6 3-1 7 0 9 2l28 28 76-76c3-3 8-3 11 0l53 53c3 3 3 8 0 11l-76 76 28 28c2 3 3 6 2 9-1 3-3 5-6 5z m-404 144l145-24c3-1 5 0 7 2 0 0 0 0 0 0 2 2 3 5 3 7l-25 145c0 3-2 5-5 6-3 1-6 0-9-2l-28-28-76 76c-3 3-8 3-11 0l-53-53c-3-3-3-8 0-11l76-76-28-28c-2-3-3-6-2-9 1-3 3-5 6-5z"/>
<glyph glyph-name="iconic-unknown" unicode="&#57370;" d="M239 100c-17 0-34 4-46 7l5 23c13-3 29-6 44-6l1-24c-2 0-3 0-4 0z m-175 5c-8 0-14 7-14 15 0 5 2 10 5 13 8 7 17 13 24 18l13-20c-5-3-19-14-19-14-1-1-1-1-1-1l-4-7z m229 8l-10 21c14 6 25 15 35 25l17-16c-11-13-26-23-42-30z m-181 1l-8 23c9 3 18 6 28 11 8 3 16 4 24 2l-6-23c-2 1-5 0-8-1-10-5-21-9-30-12z m20 49l-18 15c2 3 4 6 5 9 4 10 7 20 10 31l23-7c-3-11-7-22-11-32l0-1 0-1c-2-5-5-9-9-14z m232 22l-22 10c6 13 10 27 12 43l24-4c-3-18-7-34-14-49z m-200 73l-23 5 0 3c3 15 7 30 14 45l22-10c-6-13-10-26-12-39l0-1z m219 23l-24 3c2 16 6 34 15 50l21-12c-6-10-10-22-12-41z m-181 55l-17 17c9 9 20 17 32 24 3 2 6 3 9 5l12-21c-3-1-6-3-10-5l0 0c-9-5-18-12-26-20z m222 18l-15 19c11 8 24 16 44 24l9-21c-18-8-29-14-38-22z m-145 26l-8 23c17 5 31 7 50 9l2-24c-17-2-30-3-44-8z m136 8c-13 1-30 2-46 2l0 24c17 0 34-1 49-2z m-145-172l-22 0c-1 3-1 5-1 6 0 7 2 13 4 18 2 4 7 10 14 15 7 6 12 10 13 12 2 3 3 6 3 9 0 5-2 9-6 12-3 4-8 5-15 5-6 0-11-1-15-5-4-4-7-9-9-16l-22 3c0 10 5 19 13 26 8 7 19 11 32 11 14 0 25-4 33-11 9-7 13-16 13-26 0-5-2-10-5-15-3-5-9-11-19-19-5-5-8-8-10-11-1-2-1-7-1-14z m-22-8l24 0 0-24-24 0z"/>
<glyph glyph-name="iconic-amphibia" unicode="&#57371;" d="M447 172c-19-6-23-20-34-16 2 4 9 22 13 25 11 13-8 25-21 17-6-4-8-30-15-31-13-2-6 26-19 19-8-4-12-15-5-20 5-3 19-12 8-23l0 0c-32-4-95-13-90-8 22 18 63 40 96 65 29 21 51 44 48 67 0 1-1 2-1 3-1 1-2 2-3 3-4 2-9 3-16 3-14 0-33-4-53-10-20-5-41-12-58-17-9-3-17-5-24-6-7-2-13-2-18-1-3 1-5 4-4 7 1 3 4 4 7 4 2-1 7-1 13 0 6 2 14 4 23 6 17 5 38 12 58 18 20 6 40 10 56 10 2 0 5 0 7 0 2 3 4 5 4 5 3 4 7 7 11 6 11-1 8-14 16-14 5 0 9 5 9 10-1 7-8 6-11 11-9 18 16 6 21 8 6 3 4 11-1 14-1 0-2 0-4 0 0 0-1 0-1 0-6-1-15-4-15 2 0 7 18 15 4 22-18 10-9-19-15-20 0 0-1 0-1 0-1 0-2 0-3 1 0 0-1 0-1 1 0 0-1 0-1 1-3 4-1 11-7 13-2 2-4 2-5 1 0 0-1 0-1 0-5-2-7-12-3-17 4-5 12-5 7-14 0-1-1-2-2-2 0-1-1-1-1-2-6-7-18-16-23-19-2-1-4 0-5 1 2 27 5 49 20 67 17 19 44 32 36 54-7 21-50 6-87 3 0 0-1 0-2 0 0 0 0 0-1 0-8-1-15 12-30 12-1 0-2 0-4 0-17-3-15-20-22-23 0 0 0 0 0 0 0 0 0 0 0 0 0 0 0 0-1 0 0 0 0 0 0 0-13-5-27-11-44-21-1 0-2-1-4-2 0 0 0 0 0 0-32-23-44-54-49-82-1-4-5-7-9-7-5 1-8 5-7 10 1 7 3 15 5 22-30-23-55-69-75-91-5-3-4 37-4 59 0 12 20 0 24-2 6-4 18 2 12 10-6 9-26 3-25 11 0 5 21 13 24 17 7 9-8 21-20 12-2-2-15-19-18-20-6 7-3 15-5 30-2 14-18 18-22 0-4-18 17-37 2-36-8 0-15 9-22 12-7 3-19 3-14-11 4-11 25-14 34-16 1 0 2-1 4-1 0 0 0 0 0 0 0 0 0 0 0 0 12-9-9-93 23-92 16 0 36 29 50 33 8 2 14-22 17-42 0-14 4-24 15-29 19-8 53-15 79-16-12-12-30-21-25-38 18-17 113 9 142 0 7-2 10-32 31-35 23-2 27 17 27 24 1 7-28 15-29 23-2 14 9 2 35 9 27 8 24 28-1 33z m-102 224c13 0 23-10 23-23 0-12-10-22-23-22-12 0-22 10-22 22 0 13 10 23 22 23z"/>
<glyph glyph-name="icn-id-help" unicode="&#57372;" d="M452 392l1 0-6 8c0 0 0 0 0 0l-8 10 0 0c-10 11-20 22-32 31l0 1-10 7c0 0 0 0 0 0l-8 6 0 0c-40 26-85 40-133 40-47 0-93-13-132-40l0 0-8-5c0 0 0 0 0 0l-11-8 1 0c-12-9-22-20-32-31l0 0-8-10c0 0 0 0 0 0l-6-8 0 0c-28-40-43-88-43-137 0-132 107-239 239-239 132 0 239 107 239 239 0 49-14 96-43 136z m-61 34c12-10 22-20 32-32l-64-63c-8 12-19 22-32 31z m-30-170c0-58-47-105-105-105-58 0-105 47-105 105 0 58 47 105 105 105 58 0 105-47 105-105z m-105 217c42 0 82-12 117-34l-66-66c-16 7-33 11-51 11-18 0-35-4-50-11l-66 66c35 22 75 34 116 34z m-134-47l63-64c-12-8-23-18-32-30l-63 63c9 12 20 22 32 31z m-49-287c-21 34-34 74-34 117 0 44 13 85 37 121l65-65c-8-17-13-36-13-56 0-18 4-35 11-51z m15-16l62 62c9-13 19-24 31-32l-61-62c-12 10-22 20-32 32z m168-84c-45 0-86 13-120 36l65 66c17-8 35-13 55-13 20 0 39 5 56 13l65-65c-34-23-76-37-121-37z m137 52l-61 62c12 9 22 20 30 32l63-62c-9-12-20-22-32-32z m-20 115c7 15 11 32 11 50 0 20-5 38-13 55l65 65c24-36 37-77 37-120 0-43-12-83-34-116z"/>
<glyph glyph-name="no-location" unicode="&#57373;" d="M256 64l-4 5c-5 7-121 162-121 255 0 68 56 124 125 124 69 0 125-56 125-124 0-39-20-94-61-163-30-51-60-91-60-92z m0 374c-64 0-115-51-115-114 0-81 94-215 115-244 21 29 115 163 115 244 0 63-51 114-115 114z m1-77c27 0 45-16 45-38 0-16-8-27-21-35-14-8-18-14-18-24l0-6-21 0 0 8c-1 14 6 24 20 32 12 8 17 13 17 24 0 11-9 19-24 19-14 0-23-8-24-21l-21 0c1 23 17 41 47 41z m-19-136c0 10 7 16 16 16 10 0 16-6 16-16 0-9-6-15-16-15-9 0-16 6-16 15z"/>
<glyph glyph-name="arrow-up" unicode="&#57374;" d="M271 138l0 179 82-82 21 21-118 118-118-118 21-21 82 82 0-179z m204 118c0-121-98-219-219-219-121 0-219 98-219 219 0 121 98 219 219 219 121 0 219-98 219-219z m-412 0c0-107 86-193 193-193 107 0 193 86 193 193 0 107-86 193-193 193-107 0-193-86-193-193z"/>
<glyph glyph-name="icn-location-obscured" unicode="&#57375;" d="M63 257c4 4 8 8 12 12l-24 26c-8-8-17-17-26-25l-12-13 17-17c7-7 14-14 20-20l25 25c-4 4-8 8-12 12z m13-61c20-19 38-34 56-45l19 30c-16 10-32 23-51 40z m284-14l18-30c19 11 38 25 58 42l-23 27c-19-16-36-29-53-39z m-89-31l3-35c24 2 48 8 72 19l-14 32c-20-9-41-15-61-16z m-106-17c23-10 46-16 72-18l3 35c-22 1-42 6-61 15z m323 133c-9 11-17 19-24 27l-26-24c4-5 8-9 12-13-4-5-8-9-13-13l25-25c7 6 13 13 19 19l18 17z m-50 52c-19 17-38 32-57 44l-19-30c18-11 35-24 52-40z m-90 61c-23 10-48 16-72 19l-3-35c20-2 41-8 61-17z m-271-61l23-27c19 17 36 30 53 40l-19 30c-18-11-37-26-57-43z m165 45l-3 35c-25-2-49-9-72-19l14-32c20 9 40 14 61 16z m14-12c-51 0-93-43-93-95 0-52 42-95 93-95 51 0 93 43 93 95 0 52-42 95-93 95z m0-158c-34 0-62 28-62 63 0 35 28 64 62 64 34 0 62-29 62-64 0-35-28-63-62-63z"/>
<glyph glyph-name="icn-location-private" unicode="&#57376;" d="M388 363l79 79-25 25-85-85c-31 15-64 25-101 25-90 0-160-58-246-151 38-41 73-80 113-108l-78-78 25-25 84 84c30-15 63-24 102-24 110 0 190 90 246 149-31 38-69 79-114 109z m-230-107c0 55 44 100 98 100 21 0 41-6 57-18l-56-56c-1 3-1 6-1 9 0 9 3 17 8 23-2 0-5 1-8 1-32 0-57-27-57-59 0-9 2-18 6-26l-30-31c-11 17-17 36-17 57z m98-100c-21 0-41 6-57 18l30 30c8-4 17-6 27-6 32 0 57 26 57 58 0 3 0 5 0 8-6-5-14-8-22-8-3 0-6 1-9 1l55 56c11-16 18-36 18-57-1-55-45-100-99-100z"/>
<glyph glyph-name="layers" unicode="&#57377;" d="M256 132l-129 67-66-35 195-100 196 100-67 35z m129 158l-129-66-129 66-66-34 195-101 196 101z m67 57l-196 101-195-101 195-100z"/>
<glyph glyph-name="link" unicode="&#57366;" d="M369 352l-49 0c0 0 26-17 32-48l17 0c17 0 31-14 31-32l0-32c0-17-14-32-31-32l-112 0c-18 0-33 15-33 32l0 32-48 0 0-32c0-11 3-22 7-32 13-28 41-48 74-48l112 0c44 0 79 36 79 80l0 32c0 45-35 80-79 80z m-39-48c-12 28-40 48-73 48l-112 0c-45 0-81-35-81-80l0-32c0-44 36-80 81-80l47 0c0 0-26 17-32 48l-15 0c-18 0-33 15-33 32l0 32c0 18 15 32 33 32l112 0c17 0 31-14 31-32l0-32c0 0 0 0 0 0l48 0c0 0 0 0 0 0l0 32c0 12-2 22-6 32z"/>
<glyph glyph-name="photo-grid" unicode="&#57378;" d="M0 512l224 0 0-224-224 0z m0-288l224 0 0-224-224 0z m288 288l224 0 0-224-224 0z m0-288l224 0 0-224-224 0z"/>
<glyph glyph-name="photo-quilt" unicode="&#57379;" d="M0 461l281 0 0-180-281 0z m333 0l179 0 0-180-179 0z m-179-230l358 0 0-180-358 0z m-154 0l103 0 0-180-103 0z"/>
<glyph glyph-name="link-external" unicode="&#57380;" d="M384 128l-256 0 0 255 64 1 0 64-128 0 0-384 384 0 0 160-64 0z m-128 320l64-64-96-96 64-64 96 96 64-64 0 192z"/>
</font>
</defs>
</svg>
