<?xml version="1.0" encoding="UTF-8" standalone="no"?>
<svg width="194px" height="58px" viewBox="0 0 194 58" version="1.1" xmlns="http://www.w3.org/2000/svg" xmlns:xlink="http://www.w3.org/1999/xlink">
    <!-- Generator: Sketch 3.7 (28169) - http://www.bohemiancoding.com/sketch -->
    <title>Page 1</title>
    <desc>Created with Sketch.</desc>
    <defs>
        <polygon id="path-1" points="144.892332 47.9047704 144.892332 0.393511111 0.48318825 0.393511111 0.48318825 47.9047704"></polygon>
    </defs>
    <g id="Slides" stroke="none" stroke-width="1" fill="none" fill-rule="evenodd">
        <g id="Header" transform="translate(-1547.000000, -28.000000)">
            <g id="Page-1" transform="translate(1547.000000, 28.000000)">
                <path d="M0,58 L39,58 L39,0 L0,0 L0,58 Z M5.61958871,52.1607374 L33.3559428,52.1607374 L33.3559428,5.84204715 L5.61958871,5.84204715 L5.61958871,52.1607374 Z" id="Fill-1" fill="#FEFEFE"></path>
                <g id="Group-4" transform="translate(49.000000, 6.000000)">
                    <mask id="mask-2" fill="white">
                        <use xlink:href="#path-1"></use>
                    </mask>
                    <g id="Clip-3"></g>
                    <path d="M14.9521239,15.2923259 L14.8969095,15.2923259 C11.7386454,10.0455111 8.54725257,5.41232593 5.33101329,0.745362963 L2.87673285,0.745362963 L2.87673285,21.1527704 L5.58499957,21.1527704 L5.58499957,6.51854815 L5.61260678,6.51854815 C8.80399957,11.7963259 11.9898709,16.4604741 15.2088709,21.1527704 L17.6631514,21.1527704 L17.6631514,0.745362963 L14.9521239,0.745362963 L14.9521239,15.2923259 Z M34.5063066,21.1527704 L28.2146248,0.745362963 L25.3931685,0.745362963 L18.5659069,21.1527704 L21.497792,21.1527704 L23.2204816,15.5850667 L29.1725948,15.5850667 L30.7268804,21.1527704 L34.5063066,21.1527704 Z M24.0956299,13.0770667 C24.885196,10.3945481 25.674762,7.92032593 26.3815064,4.76773333 L26.4367208,4.76773333 C27.2290476,7.91751111 27.9330313,10.3945481 28.6673829,13.0770667 L24.0956299,13.0770667 Z M37.6949387,21.1527704 L41.0795819,21.1527704 L41.0795819,3.48699259 L46.272497,3.48699259 L46.272497,0.745362963 L32.5047843,0.745362963 L32.5047843,3.48699259 L37.6949387,3.48699259 L37.6949387,21.1527704 Z M47.3740244,21.1527704 L50.7310605,21.1527704 L50.7310605,0.745362963 L47.3740244,0.745362963 L47.3740244,21.1527704 Z M61.1721051,21.5018074 C66.337413,21.5018074 69.5536522,16.7504 69.5536522,10.6563259 C69.5536522,4.94225185 65.9978443,0.393511111 61.1721051,0.393511111 C56.3463658,0.393511111 52.7877972,4.94225185 52.7877972,10.6563259 C52.7877972,16.7504 56.0067972,21.5018074 61.1721051,21.5018074 L61.1721051,21.5018074 Z M61.1721051,3.31247407 C64.5319018,3.31247407 65.9398692,6.89573333 65.9398692,10.6591407 C65.9398692,14.5632889 64.7003057,18.5856593 61.1721051,18.5856593 C57.6466651,18.5856593 56.4043409,14.5661037 56.4043409,10.6591407 C56.4043409,6.89573333 57.815069,3.31247407 61.1721051,3.31247407 L61.1721051,3.31247407 Z M74.3186557,6.51854815 L74.3490236,6.51854815 C77.5376557,11.7963259 80.7262877,16.4604741 83.942527,21.1527704 L86.3968075,21.1527704 L86.3968075,0.745362963 L83.6885407,0.745362963 L83.6885407,15.2923259 L83.6305656,15.2923259 C80.4723015,10.0455111 77.2836694,5.41232593 74.0646694,0.745362963 L71.6131497,0.745362963 L71.6131497,21.1527704 L74.3186557,21.1527704 L74.3186557,6.51854815 Z M91.9541377,15.5850667 L97.9090116,15.5850667 L99.4605364,21.1527704 L103.239963,21.1527704 L96.9510416,0.745362963 L94.1295853,0.745362963 L87.2968023,21.1527704 L90.2342088,21.1527704 L91.9541377,15.5850667 Z M95.1179232,4.76773333 L95.1731377,4.76773333 C95.9627037,7.91751111 96.6666874,10.3945481 97.4037997,13.0770667 L92.829286,13.0770667 C93.6216128,10.3945481 94.4084181,7.91751111 95.1179232,4.76773333 L95.1179232,4.76773333 Z M114.271801,18.4111407 L107.588097,18.4111407 L107.588097,0.745362963 L104.228301,0.745362963 L104.228301,21.1527704 L114.274562,21.1527704 L114.274562,18.4111407 L114.271801,18.4111407 Z M12.1914035,44.4932148 C11.4846591,44.8732148 10.725461,44.991437 9.8227054,44.991437 C6.91566681,44.991437 4.09421055,42.1315852 4.09421055,37.2929185 C4.09421055,32.6597333 6.54849099,29.7126222 10.162274,29.7126222 C11.4598126,29.7126222 12.8705407,30.2080296 13.7732963,30.7906963 L14.872063,28.3727704 C13.7456891,27.497363 11.90981,26.7964741 10.0766917,26.7964741 C4.14942496,26.7964741 0.48318825,31.6661037 0.48318825,37.2338074 C0.48318825,43.2406222 4.14942496,47.9047704 9.96074142,47.9047704 C11.8794421,47.9047704 13.7705356,47.3840296 15.5788075,46.6521778 L15.5788075,38.2246222 L12.1914035,38.2246222 L12.1914035,44.4932148 Z M22.0388932,38.2246222 L27.5686162,38.2246222 L27.5686162,35.4858074 L22.0388932,35.4858074 L22.0388932,29.8899556 L27.6818057,29.8899556 L27.6818057,27.1483259 L18.65425,27.1483259 L18.65425,47.5557333 L28.6977509,47.5557333 L28.6977509,44.8141037 L22.0388932,44.8141037 L22.0388932,38.2246222 Z M38.1228503,26.7964741 C33.2971111,26.7964741 29.7440639,31.3452148 29.7440639,37.0621037 C29.7440639,43.153363 32.9603032,47.9047704 38.1228503,47.9047704 C43.2853975,47.9047704 46.5016368,43.153363 46.5016368,37.0621037 C46.5016368,31.3452148 42.9485896,26.7964741 38.1228503,26.7964741 L38.1228503,26.7964741 Z M38.1228503,44.991437 C34.5946497,44.991437 33.3523255,40.9662519 33.3523255,37.0592889 C33.3523255,33.2986963 34.7630536,29.7126222 38.1228503,29.7126222 C41.4798864,29.7126222 42.8906145,33.2958815 42.8906145,37.0592889 C42.8906145,40.9662519 41.651051,44.991437 38.1228503,44.991437 L38.1228503,44.991437 Z M59.3693546,44.4932148 C58.6653709,44.8732148 57.9034121,44.991437 57.0006565,44.991437 C54.0936179,44.991437 51.2721617,42.1315852 51.2721617,37.2929185 C51.2721617,32.6597333 53.7264421,29.7126222 57.3402251,29.7126222 C58.6377637,29.7126222 60.0484919,30.2080296 60.9484867,30.7906963 L62.0500142,28.3727704 C60.9208795,27.497363 59.0877611,26.7964741 57.2518821,26.7964741 C51.3273761,26.7964741 47.6611394,31.6661037 47.6611394,37.2338074 C47.6611394,43.2406222 51.3273761,47.9047704 57.1414533,47.9047704 C59.0573932,47.9047704 60.9484867,47.3840296 62.7567586,46.6521778 L62.7567586,38.2246222 L59.3693546,38.2246222 L59.3693546,44.4932148 Z M77.2588229,33.0397333 C77.2588229,29.0708444 74.917732,27.1483259 71.1383057,27.1483259 L65.8598083,27.1483259 L65.8598083,47.5557333 L69.2444515,47.5557333 L69.2444515,39.8600296 L70.7683692,39.8600296 L73.9570013,47.5557333 L77.8220099,47.5557333 L73.8465725,39.1000296 C76.0164987,37.9037333 77.2588229,35.4858074 77.2588229,33.0397333 L77.2588229,33.0397333 Z M70.6551797,37.2366222 C70.3183718,37.2647704 69.526045,37.2957333 69.2444515,37.3238815 L69.2444515,29.8899556 L70.7435227,29.8899556 C72.7422843,29.8899556 73.871419,31.083437 73.871419,33.1832889 C73.871419,35.9221037 72.2646797,37.149363 70.6551797,37.2366222 L70.6551797,37.2366222 Z M84.7072466,27.1483259 L77.879985,47.5557333 L80.8118701,47.5557333 L82.5345596,41.9852148 L88.4866728,41.9852148 L90.0437191,47.5557333 L93.8231454,47.5557333 L87.5287028,27.1483259 L84.7072466,27.1483259 Z M83.4124687,39.4828444 C84.2020347,36.7975111 84.9916008,34.3204741 85.6955845,31.1735111 L85.7535596,31.1735111 C86.5431256,34.3204741 87.2471093,36.7975111 87.9842217,39.4828444 L83.4124687,39.4828444 Z M118.59785,34.9904 L111.569056,34.9904 L111.569056,27.1483259 L108.21202,27.1483259 L108.21202,47.5557333 L111.569056,47.5557333 L111.569056,37.7292148 L118.59785,37.7292148 L118.59785,47.5557333 L121.982494,47.5557333 L121.982494,27.2046222 L118.59785,27.2046222 L118.59785,34.9904 Z M125.22634,47.5557333 L128.583376,47.5557333 L128.583376,27.1511407 L125.22634,27.1511407 L125.22634,47.5557333 Z M140.435149,44.991437 C137.160934,44.991437 134.394693,42.1315852 134.394693,37.2929185 C134.394693,32.6597333 136.909709,29.7126222 140.349566,29.7126222 C141.647105,29.7126222 143.002619,30.3262519 143.822553,30.8498074 L144.893712,28.3755852 C143.73697,27.5564741 142.102624,26.7964741 140.352327,26.7964741 C134.452668,26.7964741 130.814038,31.6661037 130.814038,37.2366222 C130.814038,43.2406222 134.483036,47.9047704 140.297113,47.9047704 C141.931459,47.9047704 143.73697,47.2348444 144.752916,46.5086222 L143.822553,43.9696593 C142.947404,44.5523259 141.732687,44.991437 140.435149,44.991437 L140.435149,44.991437 Z M100.170042,27.1483259 L94.8970656,27.1483259 L94.8970656,47.5557333 L98.2817088,47.5557333 L98.2817088,39.8600296 L99.8028658,39.8600296 C103.8418,39.8600296 106.293319,36.4766222 106.293319,33.0397333 C106.293319,29.0708444 103.954989,27.1483259 100.170042,27.1483259 L100.170042,27.1483259 Z M99.692437,37.2366222 C99.3528684,37.2619556 98.5356951,37.2901037 98.2817088,37.3182519 L98.2817088,29.8899556 L99.8028658,29.8899556 C101.779542,29.8899556 102.908676,31.0806222 102.908676,33.1832889 C102.905916,35.9221037 101.299176,37.149363 99.692437,37.2366222 L99.692437,37.2366222 Z" id="Fill-2" fill="#FEFEFE" mask="url(#mask-2)"></path>
                </g>
            </g>
        </g>
    </g>
</svg>