<?xml version="1.0" encoding="UTF-8" standalone="no"?>
<svg width="97px" height="58px" viewBox="0 0 97 58" version="1.1" xmlns="http://www.w3.org/2000/svg" xmlns:xlink="http://www.w3.org/1999/xlink">
    <!-- Generator: Sketch 3.7 (28169) - http://www.bohemiancoding.com/sketch -->
    <title>logo-nps</title>
    <desc>Created with Sketch.</desc>
    <defs></defs>
    <g id="Slides" stroke="none" stroke-width="1" fill="none" fill-rule="evenodd">
        <g id="Header" transform="translate(-1775.000000, -27.000000)" fill="#FFFFFF">
            <g id="logo-nps" transform="translate(1775.000000, 27.000000)">
                <g id="Primary.NPSCentennialLogo.FullColor-Copy">
                    <path d="M42.7996932,2.28219643 C42.9558222,2.39060119 43.2039033,2.81455357 43.2965456,2.87704167 C43.5447993,3.04310119 43.9341728,3.05414881 44.1719029,3.23591667 C44.1532709,3.44789286 44.1332588,3.59444643 44.0407891,3.8126369 C43.9421087,4.0373869 43.864993,4.0499881 43.7449204,4.28250595 C43.6860917,4.39850595 43.6063883,4.43182143 43.5694694,4.563875 C43.5242696,4.74253571 43.6200172,4.91843452 43.5429016,5.09122619 C43.4964942,5.19790476 43.4043695,5.27092262 43.3384675,5.3658631 C43.2905075,5.43974405 43.3250111,5.54072619 43.2773961,5.61633333 C43.2518634,5.65689881 43.2185674,5.69228571 43.1980377,5.73181548 C43.1549082,5.81225595 43.1329984,5.91013095 43.1459372,5.9985119 C43.1518028,6.06393452 43.1711249,6.1089881 43.1537005,6.17389286 C43.1216122,6.31992857 42.9984342,6.49910714 43.1329984,6.63340476 C43.1621539,6.65877976 43.2409947,6.66861905 43.286367,6.6908869 C43.3348446,6.72506548 43.3769391,6.77408929 43.4314548,6.80274405 C43.5670541,6.87248214 43.6560735,6.82656548 43.7732134,6.74422619 C43.8346298,6.70279762 43.8894906,6.69468452 43.9590155,6.68242857 C44.0499325,6.66861905 44.1241154,6.65877976 44.2076142,6.62304762 C44.305432,6.58230952 44.4160161,6.56867262 44.5117637,6.5096369 C44.6444302,6.43230357 44.7565671,6.31992857 44.8769848,6.23033929 C44.9199418,6.19840476 44.9877414,6.16560714 45.0241428,6.1234881 C45.0917699,6.05495833 45.0883195,5.9985119 45.1323117,5.94517262 C45.2948238,5.73716667 45.5982833,5.68417262 45.7932289,5.50516667 C45.9108863,5.39192857 45.9493578,5.33064881 46.0913403,5.28231548 C46.2209015,5.23933333 46.4106715,5.18754762 46.5428204,5.2082619 C46.5864675,5.21689286 46.5887103,5.22569643 46.6206261,5.2481369 C46.6663434,5.27920833 46.6960166,5.30492857 46.7577781,5.31718452 C46.8618066,5.34204167 46.9689404,5.34514881 47.0690009,5.36931548 C47.240484,5.41505952 47.3917824,5.4583869 47.539113,5.568 C47.6229568,5.62841667 47.6020821,5.67933929 47.6981747,5.71179167 C47.8122093,5.75477381 47.8879448,5.69780952 48.0009442,5.77117262 C48.17467,5.88441071 48.3259684,6.03061905 48.5124606,6.1234881 C48.7144794,6.22826786 48.9128753,6.13695238 49.0407113,6.35307143 C49.1445673,6.52793452 49.2784414,6.89578571 49.2622247,7.10758929 C49.2120219,7.75318452 49.0652089,8.25775 49.1243826,8.91094048 C49.137494,9.08528571 49.1899396,9.29432738 49.0950545,9.45244643 C48.9704964,9.66217857 48.8518039,9.8047619 48.8573245,10.0647262 C48.8614649,10.434994 49.0212168,10.7911071 49.0015497,11.1653452 C48.9893009,11.4108095 48.9499667,11.6840655 48.8901029,11.9222798 C48.8799244,11.9504167 48.8311017,12.0280952 48.8252361,12.0474286 C48.8112621,12.1037024 48.8186804,12.1710238 48.8076392,12.2323036 C48.7739982,12.4161429 48.6497851,12.4898512 48.6746277,12.6830119 C48.7034383,12.8856667 48.8131598,13.087631 48.7553662,13.2901131 C48.7193099,13.4093929 48.658411,13.5224583 48.6168341,13.6426012 C48.5652512,13.8041726 48.5818129,13.8576845 48.6044128,14.0061369 C48.653408,14.3684643 48.1895066,14.5914881 48.0256143,14.8621548 C47.946946,14.9971429 47.8879448,15.1562976 47.8727632,15.3071667 C47.8530961,15.4746071 47.8786288,15.625994 47.9041615,15.7827321 C47.9195156,15.8793988 47.922966,16.1219286 48.0099151,16.1778571 C48.1103207,16.2474226 48.1311954,16.4129643 48.1425816,16.5208512 C48.1651815,16.7616548 47.9909381,17.0775476 47.9195156,17.3159345 C47.8562014,17.5201429 47.7513104,17.7088155 47.7328509,17.927006 C47.7074907,18.156244 47.7250876,18.4477976 47.5494641,18.6261131 C47.4735561,18.7055179 47.3810863,18.750744 47.307076,18.8394702 C47.2337558,18.9323393 47.1771698,19.0353929 47.1154083,19.1325774 C47.0445033,19.2471964 47.0269065,19.3757976 46.9542763,19.4943869 C46.89493,19.590881 46.8495578,19.7600476 46.8285105,19.862756 C46.8057381,19.9721964 46.8505929,20.1218571 46.8057381,20.2235298 C46.7577781,20.3229583 46.6147605,20.46675 46.5407502,20.5480536 C46.3552931,20.7546786 46.429476,20.9264345 46.3461497,21.1617143 C46.3111285,21.2640774 46.2272846,21.3051607 46.1532743,21.3792143 C46.1163554,21.417881 46.0913403,21.4568929 46.0587344,21.5014286 C46.0231956,21.555631 46.0083591,21.6219167 45.9745455,21.6737024 C45.941077,21.7225536 45.8770727,21.7575952 45.8439492,21.8033393 C45.8147936,21.8351012 45.7961617,21.8922381 45.7744244,21.929869 C45.6596998,22.1264821 45.6788493,22.397494 45.495635,22.542494 C45.3878111,22.6277679 45.2948238,22.730994 45.215983,22.842506 C45.1625024,22.9129345 45.0959103,22.9797381 45.0322511,23.0456786 C44.968937,23.1109286 44.9437493,23.1527024 44.8985495,23.2305536 C44.8431712,23.3241131 44.7412129,23.3828036 44.6918727,23.4855119 C44.5814611,23.7182024 44.5912946,24.0458333 44.5604139,24.304244 C44.5473025,24.4352619 44.5247026,24.5697321 44.4710495,24.6897024 C44.4280924,24.7811905 44.396004,24.8245179 44.3112976,24.8895952 C44.0407891,25.1095119 44.1166971,25.2284464 44.0861614,25.5284583 C44.0740851,25.637381 44.0473448,25.6717321 43.9797176,25.7576964 C43.8417031,25.9294524 43.7262884,26.1024167 43.5767151,26.2600179 C43.4719966,26.3711845 43.3702109,26.4837321 43.262732,26.5921369 C43.1837187,26.6725774 43.134551,26.7642381 43.134551,26.8804107 C43.1385189,27.0217857 43.1792332,27.1151726 43.1031527,27.2510238 C43.0298325,27.3780714 42.9213185,27.4638631 42.8184977,27.5651905 C42.6444268,27.7455774 42.5071024,27.9489226 42.3028408,28.090125 C42.1096204,28.2239048 41.7763153,28.3566488 41.7230072,28.614369 C41.6941966,28.7460774 41.7076531,28.7909583 41.5915483,28.8915952 C41.5049442,28.9632321 41.422308,29.0227857 41.337429,29.0944226 C41.2482371,29.1724464 41.2623836,29.1986845 41.2258097,29.2982857 C41.1963091,29.3788988 41.1248866,29.4387976 41.0852074,29.5083631 C41.0210306,29.6207381 40.9967056,29.755381 40.9290785,29.8729345 C40.8690421,29.9715 40.8271202,30.096994 40.7503496,30.187619 C40.6470112,30.3112143 40.5219355,30.3719762 40.3913392,30.4348095 C40.1727587,30.5449405 40.0048985,30.6961548 39.8301376,30.8592798 C39.6507186,31.0310357 39.4459396,31.1693036 39.2987815,31.3669524 C39.2109698,31.4860595 39.1183275,31.6022321 39.0196471,31.7121905 C38.9083729,31.8292262 38.7946834,31.956619 38.6577039,32.0424107 C38.5198619,32.126994 38.43067,32.1287202 38.274541,32.1817143 C38.022492,32.26975 37.8335845,32.2807976 37.5768775,32.2260774 C37.3681305,32.1836131 37.1944046,32.1616905 37.0049797,32.0555298 C36.8045135,31.9359048 36.6092229,31.8038512 36.3999584,31.697 C36.2591835,31.6205298 36.0947737,31.604131 35.9545164,31.5205833 C35.79925,31.4294405 35.7021223,31.3055 35.571871,31.185875 C35.4181573,31.0436369 35.2354606,30.9366131 35.0631149,30.8083571 C34.9680574,30.731369 34.8591984,30.676994 34.7677637,30.595 C34.6138775,30.4541429 34.4869041,30.2858393 34.3407812,30.1358333 C34.2714289,30.0697202 34.2041468,30.0276012 34.1765439,29.9421548 C34.1341044,29.8094107 34.2051819,29.661994 34.1508387,29.52925 C34.0759658,29.3492083 33.779407,29.2183631 33.6200002,29.1277381 C33.4702544,29.0419464 33.4129784,28.9364762 33.3042919,28.8104643 C33.2042314,28.6944643 33.0650092,28.6095357 33.0223972,28.4607381 C32.9744371,28.307625 32.9904813,28.128619 32.9238893,27.9875893 C32.8445309,27.8153155 32.6080085,27.7429881 32.5043251,27.5871131 C32.3913256,27.4174286 32.4052996,27.1885357 32.3005811,27.0181607 C32.1922397,26.8365655 32.025242,26.7098631 31.8585895,26.5816071 C31.7578388,26.5032381 31.588771,26.4433393 31.5140706,26.3316548 C31.4436832,26.2242857 31.4497214,26.0162798 31.4105597,25.8845714 C31.3532837,25.6934821 31.2456323,25.5194821 31.1510924,25.3411667 C31.0643157,25.182875 30.953559,25.0323512 30.8326238,24.8989167 C30.7436044,24.8012143 30.5312345,24.6871131 30.4749936,24.5747381 C30.4178901,24.4589107 30.4975935,24.2923333 30.4349694,24.1992917 C30.4120244,24.1880714 30.388907,24.176506 30.3659621,24.1645952 C30.2938495,24.0879524 30.2379536,23.9937024 30.1656685,23.919131 C30.0792368,23.832131 29.962442,23.6755655 29.857896,23.6137679 C29.8038978,23.5814881 29.7293699,23.590119 29.6736466,23.5569762 C29.5420152,23.4756726 29.5226932,23.287 29.4700751,23.1556369 C29.4048632,23.0161607 29.3187767,22.8906667 29.2476992,22.7517083 C29.2000841,22.6619464 29.1143426,22.542494 29.0637948,22.4511786 C28.9368214,22.2381667 28.7798298,22.0030595 28.687015,21.7736488 C28.6578595,21.6990774 28.6090368,21.6455655 28.5650447,21.5711667 C28.5389944,21.5219702 28.5286433,21.4655238 28.4986252,21.4165 C28.4660192,21.3593631 28.3845906,21.309131 28.3744121,21.2364583 C28.3680289,21.2029702 28.4146088,21.0964643 28.40236,21.0241369 C28.378725,20.91625 28.3305924,20.8126786 28.297814,20.7106607 C28.2796996,20.6461012 28.2546844,20.5480536 28.2289792,20.4917798 C28.1717032,20.3697381 28.1044211,20.2508036 28.0775083,20.1106369 C28.0380016,19.9414702 28.0445573,19.775756 28.0183345,19.6164286 C27.9872812,19.395994 27.9386311,19.1781488 27.8958466,18.9615119 C27.8501293,18.7522976 27.7944059,18.5484345 27.7605923,18.3390476 C27.6834767,17.8992143 27.6087763,17.4535119 27.4188338,17.0471667 C27.2623598,16.7077976 26.9601079,16.4642321 26.8669481,16.0860238 C26.7630922,15.6674226 26.8961037,15.1100357 26.9237066,14.6845298 C26.9425111,14.381756 26.9980619,14.0594762 26.8697084,13.7693036 C26.8296842,13.6726369 26.781034,13.5833929 26.7365244,13.483619 C26.6357737,13.2768214 26.443761,13.1366548 26.4327198,12.8896369 C26.4244389,12.6555655 26.529675,12.4270179 26.462738,12.1907024 C26.4113276,12.0167024 26.3716484,11.8357976 26.2985007,11.668875 C26.2272507,11.4964286 26.0890636,11.3524643 26.0526622,11.166381 C26.017296,10.9868571 26.0780224,10.7928333 26.0909613,10.6143452 C26.1265,10.159494 26.3545691,9.61505357 26.1839486,9.174875 C26.1042452,8.96635119 25.8977409,8.8422381 25.8052712,8.64061905 C25.7100411,8.43278571 25.7961277,8.2025119 25.8518511,7.99364286 C25.9165454,7.77079167 25.8052712,7.22220833 25.8052712,7.14349405 C25.8052712,7.12657738 25.8454679,7.0079881 25.8454679,7.00004762 C25.8518511,6.94066667 25.8235581,6.88422024 25.8692754,6.83502381 C25.9374201,6.75078571 26.0404134,6.73576786 26.1380587,6.6908869 C26.2638245,6.63340476 26.3782041,6.55261905 26.4970691,6.48270833 C26.6252501,6.40520238 26.7770661,6.36032143 26.8961037,6.26710714 C27.0248023,6.16992262 27.1417696,6.04615476 27.2630499,5.93550595 C27.5071631,5.71351786 28.2386403,5.5761131 28.5358891,5.69591071 C28.6595846,5.745625 28.7843153,5.81881548 28.8862735,5.91013095 C28.9199146,5.94517262 28.9469999,5.9985119 28.9840914,6.03355357 C29.0291186,6.07222024 29.1033014,6.0093869 29.1571271,6.03700595 C29.2099177,6.0618631 29.2364855,6.11641071 29.2835829,6.14489286 C29.3334407,6.17095833 29.4048632,6.17889881 29.4607591,6.19080952 C29.5868699,6.2141131 29.7174662,6.23258333 29.8396091,6.27435714 C29.9300086,6.30611905 30.0160952,6.34961905 30.0885528,6.4117619 C30.1297847,6.45060119 30.1491067,6.5060119 30.1884409,6.54381548 C30.2379536,6.58904167 30.2947121,6.583 30.3538858,6.60095238 C30.4749936,6.64030952 30.5543519,6.74474405 30.6752872,6.782375 C30.7822485,6.81897024 30.9000784,6.72903571 31.0111801,6.738875 C31.2456323,6.75734524 31.7041857,6.94791667 31.7516282,6.54381548 C31.7633594,6.42332738 31.5773848,5.86231548 31.5471941,5.745625 C31.4916433,5.54780357 31.5182111,5.31718452 31.4140101,5.12972024 C31.3532837,5.01302976 31.1816281,4.92430357 31.0955415,4.82021429 C30.9209531,4.59805357 30.9337194,4.32842262 30.7936347,4.10539881 C30.7046153,3.96143452 30.635608,3.94641667 30.5897182,3.77690476 C30.5543519,3.64053571 30.5688435,3.44789286 30.5655656,3.30789881 C30.5710862,3.25922024 31.2635742,3.15081548 31.3362044,3.12906548 C31.7461076,2.9970119 32.02921,2.64400595 32.4297972,2.5040119 C32.5693644,2.45619643 32.7185927,2.5166131 32.8488439,2.47155952 C32.9545975,2.43703571 33.0829511,2.38266071 33.1648972,2.30981548 C33.2061291,2.27080357 33.2282114,2.23248214 33.28635,2.21988095 C33.3576,2.19933929 33.4347157,2.2031369 33.5080359,2.18570238 C33.6055087,2.16516071 33.7009112,2.12010714 33.7928634,2.08817262 C34.1813744,1.93954762 34.5955906,1.97545238 34.9904847,1.845125 C35.2325278,1.77020833 35.5208057,1.75881548 35.7595708,1.69632738 C35.9276035,1.6574881 36.097879,1.60725595 36.2752277,1.57480357 C36.4306666,1.54528571 36.5930062,1.56410119 36.7505153,1.53044048 C36.8636873,1.50454762 36.9716836,1.45172619 37.0903762,1.45172619 C37.2061359,1.44672024 37.312062,1.49936905 37.4273042,1.50454762 C37.6962601,1.52146429 37.9546923,1.61122619 38.2205428,1.6574881 C38.4865659,1.6973631 38.7205006,1.6574881 38.9778977,1.57031548 C39.1795715,1.50144048 39.3938391,1.33106548 39.6193203,1.35868452 C39.7435334,1.37352976 39.8422138,1.45327976 39.9502102,1.50972619 C40.0740783,1.57480357 40.1863876,1.57929167 40.3250923,1.61122619 C40.5139997,1.65886905 40.6823774,1.76071429 40.863004,1.82579167 C41.0179253,1.88292857 41.1871657,1.87878571 41.3419145,1.9366131 C41.5843025,2.0255119 41.7808008,2.11648214 42.0447536,2.1504881 C42.3325139,2.18708333 42.6163064,2.16119048 42.7996932,2.28219643" id="Fill-1"></path>
                    <path d="M0.964549211,7.434875 C2.32157731,3.08988095 6.30174452,0.102017857 10.9614609,0.102017857 C16.3892282,0.102017857 21.0936268,4.176 21.0936268,9.87829762 C21.0936268,13.726494 19.1488292,16.5325893 17.02237,18.9753214 L10.2829468,26.8051488 L21.3194531,26.8051488 L21.3194531,32.2372976 L0.73855038,32.2372976 L0.73855038,28.6154048 L11.8656287,15.9881488 C14.3084863,13.2274524 14.9870004,11.4171964 14.9870004,9.7875 C14.9870004,7.57020833 13.2685467,5.53295833 10.8707163,5.53295833 C8.74494715,5.53295833 7.20677495,6.98157738 6.57363319,9.10910714 L0.964549211,7.434875" id="Fill-2"></path>
                    <polyline id="Fill-3" points="53.7506305 5.08035119 61.4404564 0.554797619 65.738057 0.554797619 65.738057 32.2372976 59.6310856 32.2372976 59.6310856 7.61595238 53.7506305 10.8741369 53.7506305 5.08035119"></polyline>
                    <path d="M77.2398449,21.8722143 C77.2398449,24.8600774 79.7741371,27.258619 82.8501365,27.258619 C85.9709906,27.258619 88.1861242,24.7685893 88.1861242,21.7367083 C88.1861242,18.7044821 85.9244107,16.0786012 82.532703,16.0786012 C81.4027089,16.0786012 80.3158443,16.3054226 79.1392702,16.8481369 C78.2801296,18.024881 77.2398449,19.7448571 77.2398449,21.8722143 L77.2398449,21.8722143 Z M88.6847018,0.554797619 L82.7138471,10.6471429 L83.1209901,10.6471429 C89.1366994,10.6471429 94.2035587,15.2193036 94.2035587,21.555631 C94.2035587,27.7103631 89.0918447,32.6895595 82.939846,32.6895595 C77.0138461,32.6895595 71.3604249,28.480244 71.3604249,21.8722143 C71.3604249,18.7493631 72.8078526,15.9430952 74.481279,13.1380357 L81.944416,0.554797619 L88.6847018,0.554797619 L88.6847018,0.554797619 Z" id="Fill-4"></path>
                    <path d="M5.77659914,57.3816786 C5.24179274,57.7263988 4.31467998,57.8979821 3.44484326,57.8979821 C1.09428289,57.8979821 0.137669517,56.4536786 0.137669517,54.282994 C0.137669517,52.2459167 1.29492155,50.7355 3.62684995,50.7355 C4.44889913,50.7355 5.26076975,50.9357381 5.75779466,51.2607798 L5.75779466,52.9353571 L4.94540649,52.8773571 L4.78254932,51.9490119 C4.77323334,51.8633929 4.74494035,51.8155774 4.64936527,51.7872679 C4.35263398,51.691119 3.97982217,51.6151667 3.57837234,51.6151667 C2.19270622,51.6151667 1.30371998,52.5331548 1.30371998,54.282994 C1.30371998,56.1094762 2.14491868,57.027119 3.5116078,57.027119 C3.90374165,57.027119 4.38144452,56.9894881 4.69698029,56.8657202 C4.79238285,56.8365476 4.83085441,56.8084107 4.84965889,56.6836071 L5.00268253,55.8039405 L5.77659914,55.8039405 L5.77659914,57.3816786" id="Fill-5"></path>
                    <path d="M10.0008796,57.7831905 L10.0008796,57.1714286 L10.6024505,57.1042798 C10.7370147,57.0849464 10.7559917,57.0562917 10.7559917,56.9128452 L10.7559917,51.7392798 C10.7559917,51.5954881 10.7370147,51.5576845 10.6024505,51.5483631 L10.0008796,51.480869 L10.0008796,50.8596131 L14.9136801,50.8596131 L14.9136801,52.5807976 L14.1011195,52.5424762 L13.9674179,51.8064286 C13.9482683,51.7111429 13.9097968,51.6817976 13.8043882,51.6817976 L11.8745997,51.6817976 L11.8745997,53.8814821 L14.3017581,53.8814821 L14.3017581,54.7133333 L11.8745997,54.7133333 L11.8745997,56.9710179 L14.0152054,56.9710179 C14.1204415,56.9710179 14.1487345,56.9613512 14.167539,56.8657202 L14.3212527,56.0236845 L15.1236348,56.0236845 L15.1236348,57.7831905 L10.0008796,57.7831905" id="Fill-6"></path>
                    <path d="M24.2796928,57.7831905 L20.9630305,52.3132381 L20.9630305,56.9033512 C20.9630305,57.0562917 20.972519,57.0759702 21.1157091,57.0944405 L21.7557516,57.1714286 L21.7557516,57.7831905 L19.2997827,57.7831905 L19.2997827,57.1714286 L19.9023887,57.1042798 C20.0359178,57.0849464 20.0545497,57.0562917 20.0545497,56.9128452 L20.0545497,51.7294405 C20.0545497,51.5863393 20.0359178,51.5483631 19.9023887,51.538006 L19.2997827,51.4718929 L19.2997827,50.850119 L21.3739689,50.850119 L24.613343,56.301256 L24.613343,51.7294405 C24.613343,51.5863393 24.595056,51.5483631 24.4608369,51.538006 L23.8590934,51.4718929 L23.8590934,50.8596131 L26.3152349,50.8596131 L26.3152349,51.4718929 L25.6746749,51.5483631 C25.5318298,51.5668333 25.5221688,51.5863393 25.5221688,51.7294405 L25.5221688,57.7831905 L24.2796928,57.7831905" id="Fill-7"></path>
                    <path d="M31.4657655,57.7831905 L31.4657655,57.1621071 L32.4503269,57.0944405 C32.5840285,57.0849464 32.603523,57.0469702 32.603523,56.9033512 L32.603523,51.6817976 L31.3229205,51.6817976 C31.2171668,51.6817976 31.1890464,51.691119 31.1693793,51.7872679 L31.0167007,52.619119 L30.213801,52.619119 L30.213801,50.8596131 L36.1109904,50.8596131 L36.1109904,52.619119 L35.3174067,52.619119 L35.1649006,51.7872679 C35.1462687,51.691119 35.1169406,51.6817976 35.0120495,51.6817976 L33.7214409,51.6817976 L33.7214409,56.9033512 C33.7214409,57.0373036 33.7309294,57.0759702 33.8746371,57.0849464 L34.9254454,57.1621071 L34.9254454,57.7831905 L31.4657655,57.7831905" id="Fill-8"></path>
                    <path d="M40.0956431,57.7831905 L40.0956431,57.1714286 L40.6980766,57.1042798 C40.8317782,57.0849464 40.8507552,57.0562917 40.8507552,56.9128452 L40.8507552,51.7392798 C40.8507552,51.5954881 40.8317782,51.5576845 40.6980766,51.5483631 L40.0956431,51.480869 L40.0956431,50.8596131 L45.0086161,50.8596131 L45.0086161,52.5807976 L44.1967455,52.5424762 L44.0618363,51.8064286 C44.0432043,51.7111429 44.0050778,51.6817976 43.9001868,51.6817976 L41.9690181,51.6817976 L41.9690181,53.8814821 L44.3973842,53.8814821 L44.3973842,54.7133333 L41.9690181,54.7133333 L41.9690181,56.9710179 L44.1108315,56.9710179 C44.2148599,56.9710179 44.2447056,56.9613512 44.2629925,56.8657202 L44.4168787,56.0236845 L45.2189158,56.0236845 L45.2189158,57.7831905 L40.0956431,57.7831905" id="Fill-9"></path>
                    <path d="M54.3742837,57.7831905 L51.0579665,52.3132381 L51.0579665,56.9033512 C51.0579665,57.0562917 51.0672825,57.0759702 51.2106451,57.0944405 L51.8517227,57.1714286 L51.8517227,57.7831905 L49.3945461,57.7831905 L49.3945461,57.1714286 L49.9964621,57.1042798 C50.1305087,57.0849464 50.1501758,57.0562917 50.1501758,56.9128452 L50.1501758,51.7294405 C50.1501758,51.5863393 50.1305087,51.5483631 49.9964621,51.538006 L49.3945461,51.4718929 L49.3945461,50.850119 L51.4690774,50.850119 L54.7091416,56.301256 L54.7091416,51.7294405 C54.7091416,51.5863393 54.6898195,51.5483631 54.5559454,51.538006 L53.9538569,51.4718929 L53.9538569,50.8596131 L56.4098259,50.8596131 L56.4098259,51.4718929 L55.7697834,51.5483631 C55.6264208,51.5668333 55.6172773,51.5863393 55.6172773,51.7294405 L55.6172773,57.7831905 L54.3742837,57.7831905" id="Fill-10"></path>
                    <path d="M65.5467344,57.7831905 L62.2300721,52.3132381 L62.2300721,56.9033512 C62.2300721,57.0562917 62.2395606,57.0759702 62.3827507,57.0944405 L63.0229657,57.1714286 L63.0229657,57.7831905 L60.5669968,57.7831905 L60.5669968,57.1714286 L61.1694303,57.1042798 C61.3029594,57.0849464 61.3224539,57.0562917 61.3224539,56.9128452 L61.3224539,51.7294405 C61.3224539,51.5863393 61.3029594,51.5483631 61.1694303,51.538006 L60.5669968,51.4718929 L60.5669968,50.850119 L62.6408379,50.850119 L65.8812471,56.301256 L65.8812471,51.7294405 C65.8812471,51.5863393 65.8622701,51.5483631 65.7289136,51.538006 L65.1264801,51.4718929 L65.1264801,50.8596131 L67.5822765,50.8596131 L67.5822765,51.4718929 L66.942234,51.5483631 C66.7990439,51.5668333 66.7886928,51.5863393 66.7886928,51.7294405 L66.7886928,57.7831905 L65.5467344,57.7831905" id="Fill-11"></path>
                    <path d="M71.7296139,57.7831905 L71.7296139,57.1714286 L72.4283125,57.1042798 C72.5611515,57.0944405 72.5801285,57.0562917 72.5801285,56.9128452 L72.5801285,51.7294405 C72.5801285,51.5863393 72.5611515,51.5483631 72.4283125,51.538006 L71.7296139,51.4718929 L71.7296139,50.8596131 L74.5865151,50.8596131 L74.5865151,51.4718929 L73.8515876,51.5483631 C73.7083975,51.5668333 73.6980464,51.5863393 73.6980464,51.7294405 L73.6980464,56.9033512 C73.6980464,57.0562917 73.7083975,57.0759702 73.8515876,57.0944405 L74.5865151,57.1714286 L74.5865151,57.7831905 L71.7296139,57.7831905" id="Fill-12"></path>
                    <path d="M81.7080661,51.9212202 L81.678738,51.9212202 L80.6557051,54.9524107 L82.7207479,54.9524107 L81.7080661,51.9212202 L81.7080661,51.9212202 Z M82.6155118,57.7831905 L82.6155118,57.1714286 L83.3987444,57.0849464 L82.9605481,55.7939286 L80.4072789,55.7939286 L79.9673575,57.0849464 L80.7316131,57.1714286 L80.7316131,57.7831905 L78.3422362,57.7831905 L78.3422362,57.1805774 L78.7545546,57.0759702 C78.8684166,57.0469702 78.9546757,57.008994 78.9926297,56.8933393 L81.0956265,50.8596131 L82.4429936,50.8596131 L84.5563414,56.9128452 C84.5925702,57.027119 84.6702034,57.0469702 84.7840654,57.0759702 L85.225712,57.1805774 L85.225712,57.7831905 L82.6155118,57.7831905 L82.6155118,57.7831905 Z" id="Fill-13"></path>
                    <path d="M89.028013,57.7831905 L89.028013,57.1714286 L89.6301015,57.1042798 C89.7646656,57.0849464 89.7819175,57.0562917 89.7819175,56.9128452 L89.7819175,51.7392798 C89.7819175,51.5954881 89.7646656,51.5576845 89.6301015,51.5483631 L89.028013,51.480869 L89.028013,50.8596131 L91.8469602,50.8596131 L91.8469602,51.480869 L91.0533765,51.5576845 C90.9101864,51.5668333 90.9015605,51.6055 90.9015605,51.7392798 L90.9015605,56.9710179 L93.0425113,56.9710179 C93.1477474,56.9710179 93.1753503,56.9613512 93.1943273,56.8657202 L93.3478685,55.9567083 L94.1518033,55.9567083 L94.1518033,57.7831905 L89.028013,57.7831905" id="Fill-14"></path>
                    <polyline id="Fill-15" points="4.70457109 47.2152798 2.26050587 42.0676071 2.26050587 47.2152798 0.75856249 47.2152798 0.75856249 39.501625 2.71750656 39.501625 5.10912625 44.672256 5.10912625 39.501625 6.60020099 39.501625 6.60020099 47.2152798 4.70457109 47.2152798"></polyline>
                    <path d="M16.2412076,47.0179762 C15.9531022,47.1978452 15.4471064,47.3426726 14.7344337,47.3426726 C13.5735588,47.3426726 12.9657772,46.8217083 12.9657772,45.5434643 L12.9657772,42.8371429 L12.1356197,42.8371429 L12.1356197,41.664369 L12.9657772,41.664369 L12.9657772,40.0237976 L14.5743369,39.8104405 L14.5743369,41.664369 L15.9087651,41.664369 L15.9087651,42.8371429 L14.5743369,42.8371429 L14.5743369,45.3195774 C14.5743369,45.8201726 14.7125239,46.065119 15.2238678,46.065119 C15.5535501,46.065119 15.8043916,46.0057381 16.0171065,45.878 L16.2412076,47.0179762" id="Fill-16"></path>
                    <path d="M17.4966225,41.1323571 C16.9309354,41.1323571 16.6243705,40.8149107 16.6243705,40.249756 C16.6243705,39.6837381 16.9309354,39.376994 17.4966225,39.376994 C18.0431601,39.376994 18.368702,39.6837381 18.368702,40.249756 C18.368702,40.8149107 18.0431601,41.1323571 17.4966225,41.1323571 L17.4966225,41.1323571 Z M16.6925152,47.2152798 L18.3002122,47.2152798 L18.3002122,41.664369 L16.6925152,41.664369 L16.6925152,47.2152798 Z" id="Fill-17"></path>
                    <path d="M18.9133419,44.4668393 C18.9133419,42.6873095 19.8395921,41.5471607 21.7671378,41.5471607 C23.6843325,41.5471607 24.4406523,42.7087143 24.4406523,44.349631 C24.4406523,46.1726607 23.6101497,47.3426726 21.6184272,47.3426726 C19.6047948,47.3426726 18.9133419,46.1395179 18.9133419,44.4668393 M22.7679159,44.4029702 C22.7679159,43.1987798 22.4382336,42.7620536 21.7245258,42.7620536 C21.000467,42.7620536 20.5969469,43.2198393 20.5969469,44.4242024 C20.5969469,45.6610179 20.8940233,46.1507381 21.6924375,46.1507381 C22.3951041,46.1507381 22.7679159,45.7031369 22.7679159,44.4029702" id="Fill-18"></path>
                    <path d="M30.0930383,47.2152798 L28.4846512,47.2152798 L28.4846512,43.7004107 C28.4846512,43.1024583 28.2507165,42.8469821 27.7505863,42.8469821 C27.3146328,42.8469821 26.8774717,43.0820893 26.6640667,43.284744 L26.6640667,47.2152798 L25.0555071,47.2152798 L25.0555071,41.664369 L26.4832676,41.664369 L26.5684916,42.2184762 C26.9837429,41.8457917 27.5701323,41.5471607 28.336113,41.5471607 C29.5727234,41.5471607 30.0930383,42.14425 30.0930383,43.4226667 L30.0930383,47.2152798" id="Fill-19"></path>
                    <polygon id="Fill-20" points="36.4180728 47.2152798 38.0250797 47.2152798 38.0250797 39.5012798 36.4180728 39.5012798"></polygon>
                    <path d="M10.2462005,45.8229345 C10.0760975,45.9927917 9.70397578,46.1850893 9.31977777,46.1850893 C8.80808881,46.1850893 8.67076433,45.9076905 8.67076433,45.5772976 C8.67076433,45.0131786 9.21350656,44.8737024 9.99070101,44.8429762 L10.2462005,44.8429762 L10.2462005,45.8229345 L10.2462005,45.8229345 Z M12.2527595,46.2278988 C12.2103201,46.2349762 12.172021,46.2396369 12.1421754,46.2396369 C11.8547601,46.2396369 11.8112855,46.1103452 11.8112855,45.8115417 L11.8112855,43.489125 C11.8112855,42.0929821 11.0770481,41.5286905 9.58614585,41.5286905 C8.07436894,41.5286905 7.41310671,42.1361369 7.24283125,43.1917024 L8.60676008,43.4568452 C8.72303734,42.914131 8.904699,42.6895536 9.44795878,42.6895536 C10.1507979,42.6895536 10.2356768,43.0732857 10.2356768,43.7024821 L10.2356768,43.9053095 C8.81982005,43.9053095 7.0516811,44.1392083 7.0516811,45.8446845 C7.0516811,46.3984464 7.31770415,47.3254107 8.70199012,47.3254107 C9.46848845,47.3254107 10.0020872,47.0702798 10.3526442,46.6114583 C10.4704741,47.1338036 10.8534645,47.314881 11.4922994,47.314881 C11.7276142,47.314881 12.0217577,47.268619 12.2527595,47.2016429 L12.2527595,46.2278988 L12.2527595,46.2278988 Z" id="Fill-21"></path>
                    <path d="M33.9127636,45.8229345 C33.7424881,45.9927917 33.3705389,46.1850893 32.9859959,46.1850893 C32.4743069,46.1850893 32.3368099,45.9076905 32.3368099,45.5772976 C32.3368099,45.0131786 32.8800697,44.8737024 33.6572641,44.8429762 L33.9127636,44.8429762 L33.9127636,45.8229345 L33.9127636,45.8229345 Z M35.9193227,46.2278988 C35.8770557,46.2349762 35.8378941,46.2396369 35.808221,46.2396369 C35.5208057,46.2396369 35.4776761,46.1103452 35.4776761,45.8115417 L35.4776761,43.489125 C35.4776761,42.0929821 34.7436112,41.5286905 33.2525365,41.5286905 C31.740242,41.5286905 31.0793248,42.1361369 30.9090493,43.1917024 L32.2733232,43.4568452 C32.3889104,42.914131 32.5712621,42.6895536 33.1143494,42.6895536 C33.8171885,42.6895536 33.9018949,43.0732857 33.9018949,43.7024821 L33.9018949,43.9053095 C32.4862107,43.9053095 30.7182442,44.1392083 30.7182442,45.8446845 C30.7182442,46.3984464 30.9839222,47.3254107 32.3682082,47.3254107 C33.1348791,47.3254107 33.6679603,47.0702798 34.0190348,46.6114583 C34.1368647,47.1338036 34.5193375,47.314881 35.1588625,47.314881 C35.3934872,47.314881 35.6881483,47.268619 35.9193227,47.2016429 L35.9193227,46.2278988 L35.9193227,46.2278988 Z" id="Fill-22"></path>
                    <path d="M42.3706405,43.4318155 C43.2128743,43.4318155 43.88328,43.1972262 43.88328,42.0570774 C43.88328,41.0660714 43.2974082,40.8527143 42.498994,40.8527143 L41.3498503,40.8527143 L41.3498503,43.4318155 L42.3706405,43.4318155 L42.3706405,43.4318155 Z M41.3498503,47.2475595 L39.7209336,47.2475595 L39.7209336,39.5311429 L42.9986067,39.5311429 C44.9697995,39.5311429 45.5661949,40.7033988 45.5661949,41.9393512 C45.5661949,43.8051905 44.5650719,44.7530417 42.5519571,44.7530417 L41.3498503,44.7530417 L41.3498503,47.2475595 L41.3498503,47.2475595 Z" id="Fill-23"></path>
                    <path d="M55.0438268,43.1551071 C54.3183878,43.0800179 53.5615505,43.2823274 53.0924736,43.6557024 L53.0924736,47.2475595 L51.4854666,47.2475595 L51.4854666,41.6942321 L52.8590565,41.6942321 L52.9753337,42.5688929 C53.3478005,42.0247976 53.9264265,41.5775417 54.7781488,41.5775417 C54.8640629,41.5775417 54.9472167,41.5889345 55.0438268,41.5889345 L55.0438268,43.1551071" id="Fill-24"></path>
                    <polyline id="Fill-25" points="57.2653436 43.6349881 59.0973143 41.6942321 60.8768394 41.6942321 59.0336551 43.6874643 61.0155441 47.2475595 59.2358464 47.2475595 57.7984248 44.71075 57.2653436 45.2330952 57.2653436 47.2475595 55.6573015 47.2475595 55.6573015 39.5311429 57.2653436 39.5311429 57.2653436 43.6349881"></polyline>
                    <path d="M48.9629056,45.8724762 C48.7931477,46.042506 48.4206809,46.2348036 48.0364829,46.2348036 C47.5246214,46.2348036 47.3869519,45.9574048 47.3869519,45.6268393 C47.3869519,45.0627202 47.9302117,44.923244 48.7074062,44.8923452 L48.9629056,44.8923452 L48.9629056,45.8724762 L48.9629056,45.8724762 Z M50.9696372,46.2774405 C50.9271977,46.2845179 50.8890712,46.2891786 50.858708,46.2891786 C50.5716378,46.2891786 50.5281632,46.1598869 50.5281632,45.861256 L50.5281632,43.5383214 C50.5281632,42.1421786 49.7940983,41.5775417 48.3026785,41.5775417 C46.7905565,41.5775417 46.1292943,42.1851607 45.9586738,43.2410714 L47.3232927,43.5060417 C47.4390524,42.9631548 47.6212316,42.7385774 48.1646639,42.7385774 C48.8675031,42.7385774 48.952382,43.1224821 48.952382,43.7516786 L48.952382,43.954506 C47.5363527,43.954506 45.7676962,44.1885774 45.7676962,45.8943988 C45.7676962,46.4481607 46.0342368,47.3752976 47.4185228,47.3752976 C48.1853661,47.3752976 48.7184473,47.1198214 49.0691768,46.6611726 C49.1868342,47.1835179 49.5699971,47.3649405 50.2093496,47.3649405 C50.4443193,47.3649405 50.7388079,47.3183333 50.9696372,47.2513571 L50.9696372,46.2774405 L50.9696372,46.2774405 Z" id="Fill-26"></path>
                    <path d="M66.4091528,41.344506 L66.2262835,40.4211667 C66.2055813,40.3251905 66.1952303,40.2601131 66.1624518,40.217994 C66.0865438,40.1208095 65.6473125,39.9813333 65.0038196,39.9813333 C63.770142,39.9813333 63.1801298,40.507994 63.1801298,41.355381 C63.1801298,43.5238214 67.1820343,42.2675 67.1820343,45.1766488 C67.1820343,46.7975417 65.9053997,47.366494 64.4131173,47.366494 C63.4266583,47.366494 62.5362919,47.1193036 62.2359377,46.9694702 L62.2359377,45.3484048 L62.7617732,45.3484048 L62.9655172,46.2615595 C62.9977781,46.4 63.0088192,46.4433274 63.1475239,46.4971845 C63.319007,46.5615714 63.8022304,46.7221071 64.5104176,46.7221071 C65.7011382,46.7221071 66.4195039,46.2720893 66.4195039,45.2306786 C66.4195039,42.9336369 62.418462,44.2536548 62.418462,41.4308155 C62.418462,39.9383512 63.5986589,39.3269345 65.0471217,39.3269345 C65.9381781,39.3269345 66.6351516,39.5627321 66.9577607,39.6809762 L66.9577607,41.3976726 L66.4091528,41.344506" id="Fill-27"></path>
                    <path d="M71.9573379,46.916131 C71.4725617,47.1943929 70.8618473,47.366494 70.1113932,47.366494 C68.2119679,47.366494 67.6116046,46.0894583 67.6116046,44.467875 C67.6116046,42.546625 68.6622404,41.6450357 69.9716535,41.6450357 C71.237937,41.6450357 72.1281309,42.3427619 72.1281309,44.1785655 C72.1281309,44.328744 72.1160546,44.47875 72.1074287,44.6401488 L68.3620587,44.6401488 C68.393112,45.8633274 68.8658119,46.7122679 70.1648739,46.7122679 C70.8290689,46.7122679 71.1723801,46.5933333 71.6882095,46.3148988 L71.9573379,46.916131 L71.9573379,46.916131 Z M71.3880278,44.060494 C71.3656005,42.729256 70.7324587,42.2787202 69.9820046,42.2787202 C69.1677187,42.2787202 68.4810963,42.729256 68.3844861,44.060494 L71.3880278,44.060494 L71.3880278,44.060494 Z" id="Fill-28"></path>
                    <path d="M72.4283125,47.2382381 L72.4283125,46.7550774 L72.9872715,46.69 C73.1373623,46.6689405 73.1580645,46.6361429 73.1580645,46.4752619 L73.1580645,42.6332798 C73.1580645,42.5146905 73.1270112,42.440119 73.0183247,42.407494 L72.3972593,42.2032857 L72.4817932,41.75275 L73.7049472,41.75275 L73.8015573,42.440119 C74.1552196,42.1069643 74.7141786,41.6450357 75.4646327,41.6450357 C75.7113337,41.6450357 75.9804621,41.6883631 76.1736825,41.741875 L76.1736825,43.2334762 L75.6250746,43.2015417 L75.4853349,42.3862619 C75.4749838,42.3103095 75.4646327,42.28925 75.3576714,42.28925 C74.7883614,42.28925 74.1552196,42.8045179 73.8757402,43.0832976 L73.8757402,46.4752619 C73.8757402,46.6471905 73.8878164,46.6689405 74.0482584,46.69 L75.0143602,46.7652619 L75.0143602,47.2382381 L72.4283125,47.2382381" id="Fill-29"></path>
                    <path d="M79.0374845,47.2382381 L77.1811887,42.5043333 C77.1380592,42.3750417 77.0845785,42.3534643 76.9569151,42.3206667 L76.4945663,42.2252083 L76.6032528,41.75275 L78.6303415,41.75275 L78.6303415,42.2252083 L77.8678111,42.3103095 L79.4670548,46.5721012 L81.0662984,42.3103095 L80.3365464,42.2252083 L80.4435077,41.75275 L82.2998035,41.75275 L82.2998035,42.2252083 L81.9547671,42.28925 C81.8046763,42.3206667 81.7408445,42.3427619 81.6873639,42.4720536 L79.8534955,47.2382381 L79.0374845,47.2382381" id="Fill-30"></path>
                    <path d="M82.4912987,47.2382381 L82.4912987,46.7550774 L83.2659053,46.69 C83.414271,46.6689405 83.4366984,46.6361429 83.4366984,46.4752619 L83.4366984,42.6332798 C83.4366984,42.5146905 83.4039199,42.440119 83.2969586,42.407494 L82.674168,42.2032857 L82.760427,41.75275 L84.154374,41.75275 L84.154374,46.4752619 C84.154374,46.6471905 84.1664503,46.6689405 84.3268922,46.69 L85.0773464,46.7652619 L85.0773464,47.2382381 L82.4912987,47.2382381 L82.4912987,47.2382381 Z M83.6506209,40.4211667 C83.2866075,40.4211667 83.0709598,40.217994 83.0709598,39.8529048 C83.0709598,39.4874702 83.2866075,39.2837798 83.6506209,39.2837798 C84.0163595,39.2837798 84.230282,39.4874702 84.230282,39.8529048 C84.230282,40.217994 84.0163595,40.4211667 83.6506209,40.4211667 L83.6506209,40.4211667 Z" id="Fill-31"></path>
                    <path d="M89.3264694,46.9480655 C88.9503798,47.1943929 88.2430552,47.366494 87.5667839,47.366494 C85.776045,47.366494 85.0238657,46.2071845 85.0238657,44.5538393 C85.0238657,42.5043333 86.183188,41.6450357 87.7807064,41.6450357 C88.5535879,41.6450357 89.1004706,41.849244 89.3040421,41.9343452 L89.3040421,43.2553988 L88.7571594,43.2227738 L88.6294959,42.5146905 C88.6191448,42.4499583 88.6070686,42.407494 88.5104584,42.3750417 C88.3603676,42.3206667 88.0274074,42.2675 87.6961725,42.2675 C86.6213842,42.2675 85.776045,42.8797798 85.776045,44.5219048 C85.776045,46.0677083 86.5161481,46.7221071 87.6633941,46.7221071 C88.1999256,46.7221071 88.6933277,46.5721012 89.04699,46.3464881 L89.3264694,46.9480655" id="Fill-32"></path>
                    <path d="M93.9396059,46.916131 C93.4565549,47.1943929 92.8458405,47.366494 92.0936612,47.366494 C90.1959611,47.366494 89.5955978,46.0894583 89.5955978,44.467875 C89.5955978,42.546625 90.6462336,41.6450357 91.9556467,41.6450357 C93.220205,41.6450357 94.1103989,42.3427619 94.1103989,44.1785655 C94.1103989,44.328744 94.101773,44.47875 94.0896967,44.6401488 L90.3460519,44.6401488 C90.3771052,45.8633274 90.8498051,46.7122679 92.1471419,46.7122679 C92.8130621,46.7122679 93.1563733,46.5933333 93.6722027,46.3148988 L93.9396059,46.916131 L93.9396059,46.916131 Z M93.372021,44.060494 C93.3495937,42.729256 92.7164519,42.2787202 91.9659978,42.2787202 C91.1499867,42.2787202 90.4633643,42.729256 90.3684793,44.060494 L93.372021,44.060494 L93.372021,44.060494 Z" id="Fill-33"></path>
                    <polyline id="Fill-34" points="95.2610952 47.2394464 95.2610952 46.3459702 94.9574632 46.3459702 94.9574632 46.2353214 95.6906655 46.2353214 95.6906655 46.3459702 95.3887587 46.3459702 95.3887587 47.2394464 95.2610952 47.2394464"></polyline>
                    <polyline id="Fill-35" points="96.8172093 47.2394464 96.6964466 47.2394464 96.6964466 46.3725536 96.6947214 46.3725536 96.3928146 47.2394464 96.2582504 47.2394464 95.9615191 46.3711726 95.9580687 46.3711726 95.9580687 47.2394464 95.8407564 47.2394464 95.8407564 46.2353214 96.0339767 46.2353214 96.3289828 47.0894405 96.330708 47.0894405 96.6257141 46.2353214 96.8172093 46.2353214 96.8172093 47.2394464"></polyline>
                </g>
            </g>
        </g>
    </g>
</svg>