<?xml version="1.0" encoding="UTF-8" standalone="no"?>
<svg width="237px" height="48px" viewBox="0 0 237 48" version="1.1" xmlns="http://www.w3.org/2000/svg" xmlns:xlink="http://www.w3.org/1999/xlink">
    <!-- Generator: Sketch 3.7 (28169) - http://www.bohemiancoding.com/sketch -->
    <title>Group</title>
    <desc>Created with Sketch.</desc>
    <defs>
        <polygon id="path-1" points="20.8911111 0.312238095 0.000660362125 0.312238095 0.000660362125 47.5348016 20.8911111 47.5348016 20.8911111 0.312238095"></polygon>
    </defs>
    <g id="Slides" stroke="none" stroke-width="1" fill="none" fill-rule="evenodd">
        <g id="Header" transform="translate(-47.000000, -32.000000)">
            <g id="Group" transform="translate(47.000000, 32.000000)">
                <path d="M28.5421984,29.4839286 L30.9792857,32.8276349 C31.836373,33.9957063 32.6790397,35.1468492 33.5091667,36.2779286 C34.3374127,37.4121429 35.1869762,38.5708095 36.0591111,39.7558095 C36.930619,40.9414365 37.8171746,42.1709524 38.7212857,43.4468651 C39.6222619,44.7202698 40.5752778,46.0845873 41.5790794,47.5348016 C42.0543333,47.4294683 42.5709683,47.321627 43.132119,47.2162937 C43.6932698,47.1109603 44.3152381,47.0570397 44.9961429,47.0570397 C45.6450714,47.0570397 46.2965079,47.1009286 46.9479444,47.1893333 C47.596873,47.2771111 48.1599048,47.3924762 48.6326508,47.5348016 C48.5718333,46.1190714 48.5273175,44.7033413 48.4984762,43.2876111 C48.4690079,41.871881 48.4539603,40.4561508 48.4539603,39.0385397 C48.4539603,35.393881 48.4834286,31.8181905 48.5423651,28.3158571 C48.6038095,24.8110159 48.6915873,21.2353254 48.8094603,17.5912937 C48.8677698,16.2464127 48.941754,14.8996508 49.0295317,13.5547698 C49.1204444,12.2105159 49.1938016,10.8656349 49.2527381,9.51887302 C48.8094603,9.69756349 48.3806032,9.8198254 47.9667937,9.8906746 C47.5529841,9.96215079 47.0946587,9.99851587 46.5924444,9.99851587 C46.058881,9.99851587 45.5717143,9.96215079 45.1284365,9.8906746 C44.6851587,9.8198254 44.1678968,9.69756349 43.5753968,9.51887302 C43.6343333,10.6524603 43.688254,11.7496825 43.7321429,12.8130476 C43.7760317,13.8732778 43.8205476,14.9535714 43.8644365,16.0507937 C43.9083254,17.1480159 43.9453175,18.2721984 43.9747857,19.4208333 C44.004254,20.5719762 44.0330952,21.8014921 44.0650714,23.1112619 C44.0945397,24.7031746 44.1315317,26.2537063 44.1754206,27.7578413 C44.2193095,29.2613492 44.241254,30.811881 44.241254,32.4037937 C43.648754,31.6589365 43.1026508,30.9510714 42.6004365,30.2801984 C42.0963413,29.6068175 41.6016508,28.9428413 41.1138571,28.2888968 C40.6266905,27.6324444 40.1244762,26.9690952 39.6078413,26.2975952 C39.0886984,25.6242143 38.5206508,24.8994206 37.8980556,24.1207063 C37.249127,23.2705159 36.4948651,22.2811349 35.6377778,21.1475476 C34.7806905,20.0158413 33.8790873,18.8107778 32.9310873,17.537373 C31.9862222,16.2614603 31.0306984,14.9335079 30.0707857,13.5547698 C29.110873,12.1760317 28.2167937,10.8292698 27.3891746,9.51887302 C26.8255159,9.66057143 26.2649921,9.77593651 25.7013333,9.86434127 C25.1408095,9.95211905 24.5652381,9.99851587 23.9721111,9.99851587 C23.3526508,9.99851587 22.7231587,9.95211905 22.0886508,9.86434127 C21.4522619,9.77593651 20.8252778,9.66057143 20.2033095,9.51887302 C20.3500238,12.6337302 20.4478333,15.643881 20.4923492,18.5461905 C20.5362381,21.4485 20.5581825,24.4561429 20.5581825,27.571627 C20.5581825,29.0920635 20.5362381,30.7040397 20.4923492,32.4037937 C20.4478333,34.1010397 20.3870159,35.8177222 20.3130317,37.5519603 C20.2396746,39.2880794 20.1518968,41.002881 20.0490714,42.7026349 C19.9437381,44.4017619 19.8333889,46.0137381 19.7155159,47.5348016 C20.2766667,47.3924762 20.7958095,47.2771111 21.2685556,47.1893333 C21.7413016,47.1009286 22.2284683,47.0570397 22.7306825,47.0570397 C23.2937143,47.0570397 23.7739841,47.1009286 24.173373,47.1893333 C24.5721349,47.2771111 24.9790476,47.3924762 25.3928571,47.5348016 C25.3339206,46.2244048 25.2680873,44.7741905 25.1922222,43.1797698 C25.1182381,41.5878571 25.0524048,39.9934365 24.9934683,38.4015238 C24.9351587,36.8096111 24.883746,35.2860397 24.8392302,33.8364524 C24.7953413,32.3837302 24.7708889,31.164246 24.7708889,30.1723571 L24.7708889,24.6517619 C25.3928571,25.4649603 26.029873,26.2706349 26.6788016,27.0669048 C27.3302381,27.8631746 27.9496984,28.6688492 28.5421984,29.4839286 L28.5421984,29.4839286 Z M61.934119,39.3056349 C61.934119,38.4554444 61.9786349,37.7576111 62.0664127,37.209 C62.1548175,36.6603889 62.3385238,36.1725952 62.6200397,35.746873 C62.9015556,35.3230317 63.3084683,34.9437063 63.8395238,34.6051349 C64.3737143,34.2696984 65.0665317,33.9073016 65.924246,33.5179444 L65.924246,40.3144524 C65.924246,41.0223175 65.7405397,41.6054127 65.370619,42.065619 C65.0006984,42.5258254 64.4765397,42.7559286 63.7956349,42.7559286 C63.0557937,42.7559286 62.5611032,42.4110873 62.3115635,41.7201508 C62.0588889,41.0298413 61.934119,40.2260476 61.934119,39.3056349 L61.934119,39.3056349 Z M53.1513254,40.4737063 C53.1513254,41.7815952 53.3306429,42.898254 53.6855159,43.8167857 C54.0385079,44.7378254 54.5350794,45.4989841 55.1695873,46.0990079 C55.8066032,46.7015397 56.5583571,47.1278889 57.433,47.3755476 C58.3045079,47.6225794 59.2424762,47.7473492 60.2494127,47.7473492 C61.3710873,47.7473492 62.487746,47.517246 63.5975079,47.0570397 C64.7041349,46.5962063 65.6596587,45.9058968 66.4578095,44.9848571 C66.6929286,45.3403571 66.9600238,45.6952302 67.2565873,46.0475952 C67.5525238,46.4005873 67.8904683,46.7115714 68.2754365,46.9761587 C68.6597778,47.243254 69.1174762,47.4363651 69.6516667,47.5617619 C70.1833492,47.6840238 70.8172302,47.7473492 71.5570714,47.7473492 C72.5025635,47.7473492 73.5383413,47.5416984 74.6625238,47.1354127 C75.7841984,46.7285 76.7616667,46.1529286 77.5892857,45.4112063 C77.5598175,45.1635476 77.5303492,44.9234127 77.500881,44.6933095 C77.4714127,44.4632063 77.4569921,44.2255794 77.4569921,43.9785476 C77.4569921,43.6945238 77.4714127,43.4274286 77.500881,43.1797698 C77.5303492,42.9327381 77.5598175,42.6681508 77.5892857,42.3866349 C77.026254,42.7734841 76.4795238,42.9691032 75.9484683,42.9691032 C75.564127,42.9691032 75.2675635,42.8543651 75.0619127,42.6242619 C74.853754,42.3935317 74.6995159,42.065619 74.5966905,41.6417778 C74.4913571,41.2179365 74.4324206,40.7307698 74.417373,40.1821587 C74.4029524,39.6335476 74.3954286,39.0410476 74.3954286,38.4015238 C74.3954286,37.7651349 74.4104762,36.9958254 74.4399444,36.0923413 C74.4687857,35.1907381 74.4913571,34.2527698 74.5057778,33.2803175 C74.5201984,32.3053571 74.5427698,31.3504603 74.5722381,30.4124921 C74.6010794,29.4745238 74.616127,28.6688492 74.616127,27.9948413 C74.616127,26.8637619 74.4248968,25.7834683 74.0405556,24.7570952 C73.6562143,23.7313492 73.0655952,22.8372698 72.2674444,22.0754841 C71.4686667,21.3136984 70.4548333,20.7042698 69.2278254,20.2434365 C68.0008175,19.7832302 66.5462143,19.553127 64.860881,19.553127 C63.0263254,19.553127 61.3491429,19.8026667 59.8280794,20.2973571 C58.3045079,20.7945556 56.7445714,21.5538333 55.1476429,22.5802063 L56.0341984,27.3045317 L57.3201429,27.412373 C57.8248651,26.3490079 58.5176825,25.6072857 59.406746,25.1809365 C60.2933016,24.7570952 61.223746,24.5445476 62.1987063,24.5445476 C62.7303889,24.5445476 63.2344841,24.5884365 63.7072302,24.6768413 C64.1799762,24.764619 64.5937857,24.9433095 64.9492857,25.2078968 C65.3041587,25.4749921 65.5762698,25.8474206 65.769381,26.3245556 C65.9606111,26.8023175 66.0584206,27.412373 66.0584206,28.1566032 C66.0584206,28.6512937 66.0001111,29.0582063 65.8797302,29.3767143 C65.7624841,29.6945952 65.532381,29.979246 65.1938095,30.2262778 C64.8539841,30.4739365 64.3636825,30.7134444 63.7298016,30.9441746 C63.0927857,31.1742778 62.2576429,31.4482698 61.223746,31.7667778 C60.0707222,32.153627 58.9979524,32.5630476 58.0085714,32.9862619 C57.0185635,33.4126111 56.1614762,33.9417857 55.4366825,34.5781746 C54.7118889,35.2151905 54.1507381,36.0039365 53.7513492,36.9419048 C53.3525873,37.879873 53.1513254,39.0579762 53.1513254,40.4737063 L53.1513254,40.4737063 Z M89.9283333,40.2605317 L89.9283333,24.2799603 C90.6092381,24.2799603 91.2725873,24.2968889 91.9240238,24.333881 C92.5729524,24.3677381 93.2394365,24.4216587 93.9203413,24.4931349 C93.890873,24.2084841 93.853881,23.8906032 93.8099921,23.5376111 C93.7661032,23.1827381 93.7441587,22.8272381 93.7441587,22.474873 C93.7441587,21.6961587 93.8024683,21.0052222 93.9203413,20.4051984 C93.3278413,20.4735397 92.7008571,20.5274603 92.034373,20.5644524 C91.3703968,20.5989365 90.6675476,20.6158651 89.9283333,20.6158651 C89.9283333,20.0503254 89.9352302,19.2709841 89.9502778,18.2790952 C89.9646984,17.2872063 89.9941667,16.2269762 90.0380556,15.0927619 C90.0825714,13.9616825 90.1433889,12.8299762 90.217373,11.6957619 C90.2907302,10.5646825 90.3860317,9.58972222 90.5039048,8.77652381 L89.7076349,8.14013492 C88.2868889,9.27121429 86.8297778,10.3000952 85.3381825,11.218627 C83.8447063,12.1390397 82.3286587,12.9723016 80.7900397,13.7140238 L80.7900397,20.6158651 C80.2884524,20.6158651 79.6978333,20.5989365 79.0169286,20.5644524 C78.3385317,20.5274603 77.8049683,20.4735397 77.42,20.4051984 C77.4789365,20.6867143 77.5234524,21.0246587 77.5548016,21.4140159 C77.5842698,21.803373 77.5993175,22.1563651 77.5993175,22.474873 C77.5993175,22.8272381 77.576746,23.1896349 77.5328571,23.5620635 C77.4889683,23.9344921 77.4519762,24.2429683 77.42,24.4931349 C77.9247222,24.4216587 78.4639286,24.3677381 79.038873,24.333881 C79.6169524,24.2968889 80.2000476,24.2799603 80.7900397,24.2799603 L80.7900397,31.3404286 C80.7900397,32.6508254 80.7611984,33.9781508 80.7022619,35.3230317 C80.6433254,36.6679127 80.6138571,37.9776825 80.6138571,39.2517143 C80.6138571,42.0486905 81.1994603,44.1716587 82.3650238,45.624381 C83.5330952,47.0739683 85.4046429,47.7987619 87.9759048,47.7987619 C89.1295556,47.7987619 90.2756825,47.6664683 91.4149127,47.4025079 C92.5510079,47.1354127 93.6682937,46.7730159 94.7630079,46.3121825 C94.7040714,46.0306667 94.6601825,45.7566746 94.6282063,45.4895794 C94.5987381,45.2249921 94.5836905,44.8970794 94.5836905,44.5070952 C94.5836905,43.9415556 94.642627,43.3929444 94.7630079,42.8612619 C94.4075079,43.0380714 94.0526349,43.1898016 93.6971349,43.3145714 C93.3422619,43.4368333 92.9748492,43.5007857 92.5905079,43.5007857 C90.8148889,43.5007857 89.9283333,42.4204921 89.9283333,40.2605317 L89.9283333,40.2605317 Z M96.6753095,30.5447857 L96.6753095,32.4552063 C96.6753095,33.1285873 96.6684127,33.8264206 96.6533651,34.5537222 C96.6389444,35.2791429 96.6314206,35.9964127 96.6314206,36.7017698 L96.6314206,38.5607778 C96.6314206,41.4286032 97.2364603,43.6406032 98.4490476,45.1980317 C99.6610079,46.7554603 101.480516,47.5348016 103.90569,47.5348016 C104.792246,47.5348016 105.560929,47.4733571 106.209857,47.3485873 C106.861921,47.2256984 107.459437,46.9955952 108.008048,46.6576508 C108.554151,46.3222143 109.085206,45.8889683 109.602468,45.3572857 C110.121611,44.8256032 110.675238,44.1892143 111.267738,43.4468651 C111.208802,44.791746 111.118516,46.1529286 111.000643,47.5348016 C111.740484,47.4294683 112.484714,47.321627 113.238976,47.2162937 C113.993238,47.1109603 114.740603,47.0570397 115.480444,47.0570397 C116.278595,47.0570397 117.113738,47.1109603 117.985873,47.2162937 C118.857381,47.321627 119.634214,47.4294683 120.315119,47.5348016 C120.16527,45.940381 120.069968,44.1791825 120.026079,42.2518333 C119.981563,40.3219762 119.959619,37.9776825 119.959619,35.2176984 L119.959619,31.1297619 C119.959619,29.9961746 119.967143,28.8719921 119.981563,27.7578413 C119.996611,26.6430635 120.018556,25.5728016 120.048024,24.5445476 C120.077492,23.5181746 120.121381,22.5896111 120.180317,21.7569762 C120.238627,20.9268492 120.297563,20.2459444 120.359008,19.7142619 C118.762079,20.0327698 117.180198,20.1895159 115.612738,20.1895159 C114.755024,20.1895159 113.919881,20.145627 113.106683,20.0597302 C112.294111,19.9719524 111.458968,19.8565873 110.601254,19.7142619 C110.748595,21.8378571 110.831984,24.1301111 110.846405,26.5891429 C110.860825,29.0481746 110.868349,31.4457619 110.868349,33.7825317 C110.868349,34.6320952 110.853929,35.4923175 110.82446,36.3588095 C110.792484,37.2259286 110.704079,38.0121667 110.557365,38.7200317 C110.408143,39.4304048 110.1655,40.012873 109.825048,40.4737063 C109.484595,40.9339127 109.004325,41.1640159 108.384865,41.1640159 C107.762897,41.1640159 107.282627,40.9784286 106.942175,40.606 C106.601722,40.2335714 106.359706,39.7489127 106.209857,39.146381 C106.063143,38.5438492 105.974738,37.8359841 105.945897,37.0227857 C105.916429,36.2070794 105.901381,35.3769524 105.901381,34.5267619 C105.901381,32.509127 105.908905,30.809373 105.923325,29.4306349 C105.935865,28.0487619 105.95781,26.8098413 105.989786,25.712619 C106.019254,24.6179048 106.055619,23.6084603 106.100135,22.6880476 C106.144024,21.7670079 106.195437,20.777627 106.254373,19.7142619 C105.487571,19.8565873 104.73331,19.9719524 103.993468,20.0597302 C103.254254,20.145627 102.499365,20.1895159 101.730683,20.1895159 C100.873595,20.1895159 100.008984,20.1381032 99.1368492,20.0327698 C98.2653413,19.9249286 97.4007302,19.8195952 96.5430159,19.7142619 C96.6608889,21.2014683 96.7123016,22.7664206 96.697881,24.412254 C96.6828333,26.0580873 96.6753095,28.1026825 96.6753095,30.5447857 L96.6753095,30.5447857 Z M134.169587,26.9346111 L134.525087,19.7142619 C133.755778,19.8910714 133.02346,20.0133333 132.330643,20.0841825 C131.63469,20.1556587 130.902373,20.1895159 130.13369,20.1895159 C129.337421,20.1895159 128.55369,20.1556587 127.785008,20.0841825 C127.015698,20.0133333 126.173032,19.8910714 125.257008,19.7142619 C125.315944,21.1299921 125.367357,22.3325476 125.411246,23.3244365 C125.455762,24.3138175 125.492127,25.3057063 125.521595,26.2975952 C125.551063,27.2876032 125.573008,28.3773016 125.588056,29.5623016 C125.602476,30.7479286 125.612508,32.2269841 125.612508,33.9957063 L125.612508,37.446627 C125.612508,39.2172302 125.573008,41.0198095 125.499651,42.8612619 C125.426294,44.7033413 125.301524,46.2607698 125.122206,47.5348016 C125.920984,47.4294683 126.719135,47.321627 127.517913,47.2162937 C128.316063,47.1109603 129.114841,47.0570397 129.912992,47.0570397 C130.770079,47.0570397 131.63469,47.1009286 132.506825,47.1893333 C133.378333,47.2771111 134.245452,47.3924762 135.10254,47.5348016 C134.982786,45.4112063 134.894381,43.3315 134.836071,41.2963095 C134.777135,39.261119 134.747667,37.1820397 134.747667,35.0584444 C134.747667,34.1718889 134.791556,33.3417619 134.87996,32.5630476 C134.968365,31.7837063 135.147056,31.1034286 135.414151,30.5178254 C135.678111,29.9347302 136.0775,29.4745238 136.609183,29.1390873 C137.142746,28.8011429 137.850611,28.6343651 138.737167,28.6343651 C139.388603,28.6343651 139.971698,28.7321746 140.490841,28.9259127 C141.007476,29.1190238 141.517214,29.4839286 142.021937,30.0131032 L142.597508,29.6406746 C142.597508,28.5434524 142.604405,27.5885556 142.619452,26.7753571 C142.633873,25.9596508 142.663341,25.200373 142.70723,24.4931349 C142.751746,23.7827619 142.810056,23.067373 142.886548,22.3425794 C142.959905,21.6177857 143.070254,20.8114841 143.219476,19.9274365 C142.863976,19.748746 142.552992,19.6434127 142.286524,19.6070476 C142.021937,19.5725635 141.695905,19.553127 141.311563,19.553127 C140.39554,19.553127 139.542841,19.7757063 138.761619,20.2164762 C137.977889,20.659754 137.290087,21.2428492 136.699468,21.9701508 C136.106968,22.6949444 135.612278,23.4937222 135.212889,24.3608413 C134.814127,25.2273333 134.525087,26.0850476 134.348278,26.9346111 L134.169587,26.9346111 Z M153.059992,39.3056349 C153.059992,38.4554444 153.103881,37.7576111 153.192286,37.209 C153.28069,36.6603889 153.464397,36.1725952 153.745913,35.746873 C154.027429,35.3230317 154.433714,34.9437063 154.965397,34.6051349 C155.499587,34.2696984 156.192405,33.9073016 157.049492,33.5179444 L157.049492,40.3144524 C157.049492,41.0223175 156.865786,41.6054127 156.496492,42.065619 C156.126571,42.5258254 155.602413,42.7559286 154.921508,42.7559286 C154.181667,42.7559286 153.686976,42.4110873 153.437437,41.7201508 C153.184762,41.0298413 153.059992,40.2260476 153.059992,39.3056349 L153.059992,39.3056349 Z M144.277198,40.4737063 C144.277198,41.7815952 144.455889,42.898254 144.808881,43.8167857 C145.163754,44.7378254 145.658444,45.4989841 146.29546,46.0990079 C146.932476,46.7015397 147.68423,47.1278889 148.556365,47.3755476 C149.427873,47.6225794 150.368349,47.7473492 151.375286,47.7473492 C152.49696,47.7473492 153.613619,47.517246 154.722754,47.0570397 C155.830008,46.5962063 156.783024,45.9058968 157.583683,44.9848571 C157.818802,45.3403571 158.085897,45.6952302 158.381833,46.0475952 C158.675889,46.4005873 159.016341,46.7115714 159.400683,46.9761587 C159.785651,47.243254 160.243349,47.4363651 160.775032,47.5617619 C161.308595,47.6840238 161.943103,47.7473492 162.682944,47.7473492 C163.628437,47.7473492 164.664214,47.5416984 165.788397,47.1354127 C166.910071,46.7285 167.88754,46.1529286 168.715159,45.4112063 C168.68569,45.1635476 168.656222,44.9234127 168.626754,44.6933095 C168.597286,44.4632063 168.582865,44.2255794 168.582865,43.9785476 C168.582865,43.6945238 168.597286,43.4274286 168.626754,43.1797698 C168.656222,42.9327381 168.68569,42.6681508 168.715159,42.3866349 C168.1515,42.7734841 167.605397,42.9691032 167.074341,42.9691032 C166.689373,42.9691032 166.393437,42.8543651 166.187786,42.6242619 C165.979627,42.3935317 165.824762,42.065619 165.719429,41.6417778 C165.616603,41.2179365 165.558294,40.7307698 165.543246,40.1821587 C165.528825,39.6335476 165.521302,39.0410476 165.521302,38.4015238 C165.521302,37.7651349 165.536349,36.9958254 165.56519,36.0923413 C165.594659,35.1907381 165.616603,34.2527698 165.631651,33.2803175 C165.646071,32.3053571 165.668016,31.3504603 165.697484,30.4124921 C165.726952,29.4745238 165.742,28.6688492 165.742,27.9948413 C165.742,26.8637619 165.55077,25.7834683 165.166429,24.7570952 C164.78146,23.7313492 164.191468,22.8372698 163.393317,22.0754841 C162.59454,21.3136984 161.580706,20.7042698 160.353698,20.2434365 C159.12669,19.7832302 157.672087,19.553127 155.984246,19.553127 C154.152198,19.553127 152.475016,19.8026667 150.953952,20.2973571 C149.430381,20.7945556 147.870444,21.5538333 146.273516,22.5802063 L147.160071,27.3045317 L148.446016,27.412373 C148.950111,26.3490079 149.643556,25.6072857 150.530111,25.1809365 C151.419175,24.7570952 152.349619,24.5445476 153.324579,24.5445476 C153.856262,24.5445476 154.360357,24.5884365 154.833103,24.6768413 C155.305849,24.764619 155.719659,24.9433095 156.075159,25.2078968 C156.430032,25.4749921 156.702143,25.8474206 156.895254,26.3245556 C157.086484,26.8023175 157.184294,27.412373 157.184294,28.1566032 C157.184294,28.6512937 157.123476,29.0582063 157.005603,29.3767143 C156.888357,29.6945952 156.657627,29.979246 156.317175,30.2262778 C155.97923,30.4739365 155.489556,30.7134444 154.855048,30.9441746 C154.218659,31.1742778 153.383516,31.4482698 152.349619,31.7667778 C151.195968,32.153627 150.123825,32.5630476 149.133817,32.9862619 C148.141929,33.4126111 147.284841,33.9417857 146.562556,34.5781746 C145.837762,35.2151905 145.274103,36.0039365 144.877222,36.9419048 C144.47846,37.879873 144.277198,39.0579762 144.277198,40.4737063 L144.277198,40.4737063 Z M171.475143,19.9274365 L171.475143,36.7556905 C171.475143,38.5607778 171.431254,40.3827937 171.340341,42.224873 C171.252563,44.0663254 171.164159,45.8350476 171.075754,47.5348016 C171.901492,47.4294683 172.736635,47.321627 173.58181,47.2162937 C174.423849,47.1109603 175.258992,47.0570397 176.08473,47.0570397 C176.914857,47.0570397 177.735579,47.1009286 178.548151,47.1893333 C179.361349,47.2771111 180.167024,47.3924762 180.965802,47.5348016 C180.933825,46.7924524 180.904357,45.8889683 180.874889,44.8256032 C180.846048,43.765373 180.816579,42.6336667 180.787111,41.4286032 C180.757643,40.2260476 180.735698,39.0140873 180.720651,37.7914683 C180.70623,36.5719841 180.698706,35.4114365 180.698706,34.3142143 L180.698706,21.0961349 C180.698706,18.6515238 180.735698,16.2539365 180.809056,13.9002381 C180.882413,11.5465397 180.950754,9.30820635 181.00969,7.18210317 C180.182071,7.36079365 179.361349,7.48368254 178.548151,7.55453175 C177.735579,7.62538095 176.900437,7.66237302 176.042722,7.66237302 C175.215103,7.66237302 174.384976,7.62538095 173.55673,7.55453175 C172.729111,7.48368254 171.901492,7.36079365 171.075754,7.18210317 C171.164159,8.81351587 171.237516,10.192254 171.296452,11.3264683 C171.355389,12.4575476 171.391754,13.4939524 171.406802,14.4319206 C171.421222,15.3698889 171.43627,16.2639683 171.453198,17.1110238 C171.467619,17.9612143 171.475143,18.8991825 171.475143,19.9274365 L171.475143,19.9274365 Z M186.287643,32.7737143 C186.287643,34.8283413 186.278238,36.5180635 186.26319,37.8453889 C186.24877,39.1733413 186.233722,40.3414127 186.219302,41.3477222 C186.204254,42.3571667 186.167889,43.3220952 186.108952,44.2431349 C186.050016,45.1610397 185.976659,46.2607698 185.888254,47.5348016 C186.655056,47.4294683 187.438786,47.321627 188.237563,47.2162937 C189.035714,47.1109603 189.819444,47.0570397 190.588754,47.0570397 C191.445841,47.0570397 192.310452,47.1009286 193.18196,47.1893333 C194.054095,47.2771111 194.921214,47.3924762 195.778302,47.5348016 C195.746325,46.7924524 195.70996,45.9692222 195.665444,45.0657381 C195.621556,44.1647619 195.592087,43.2336905 195.577667,42.2787937 C195.562619,41.3232698 195.548198,40.3658651 195.533151,39.4109683 C195.51873,38.4554444 195.511206,37.5713968 195.511206,36.7556905 L195.511206,33.890373 C195.511206,32.190619 195.533151,30.1284683 195.577667,27.7039206 C195.621556,25.281254 195.731905,22.6165714 195.910595,19.7142619 C194.284198,20.0327698 192.613913,20.1895159 190.89723,20.1895159 C190.040143,20.1895159 189.205,20.1556587 188.391802,20.0841825 C187.578603,20.0133333 186.757881,19.8910714 185.930262,19.7142619 C185.991706,20.7042698 186.043119,21.5638651 186.087008,22.2886587 C186.130897,23.0159603 186.167889,23.819127 186.197357,24.7056825 C186.226825,25.5903571 186.24877,26.6505873 186.26319,27.8901349 C186.280119,29.1290556 186.287643,30.7579603 186.287643,32.7737143 L186.287643,32.7737143 Z M203.050063,39.1977937 L201.320841,39.1977937 C201.229929,40.4028571 201.127103,41.5878571 201.009857,42.7559286 C200.891984,43.924627 200.757183,45.109627 200.610468,46.3121825 C201.764119,46.7730159 203.035016,47.1278889 204.423786,47.3755476 C205.815063,47.6225794 207.129849,47.7473492 208.371905,47.7473492 C209.67227,47.7473492 210.93627,47.5880952 212.163278,47.2677063 C213.390286,46.9491984 214.477476,46.3930635 215.422968,45.5974206 C216.36846,44.8011508 217.137143,43.7747778 217.73027,42.5164206 C218.320262,41.2599444 218.616825,39.7489127 218.616825,37.9776825 C218.616825,33.7656032 216.872556,31.0225476 213.382762,29.7485159 L210.323706,28.6343651 C209.25846,28.2450079 208.423317,27.8801032 207.818278,27.5446667 C207.21073,27.2092302 206.90727,26.6336587 206.90727,25.8204603 C206.90727,25.3941111 207.012603,25.041746 207.218254,24.7570952 C207.426413,24.4730714 207.683476,24.2429683 207.99446,24.0667857 C208.305444,23.8906032 208.623952,23.7677143 208.947476,23.6968651 C209.272881,23.6260159 209.569444,23.5890238 209.83654,23.5890238 C211.166373,23.5890238 212.207167,23.9075317 212.961429,24.5445476 C213.71569,25.1809365 214.254897,26.2443016 214.580302,27.730881 L216.265635,27.730881 C216.355921,26.5991746 216.473794,25.4825159 216.620508,24.3852937 C216.767222,23.2880714 216.94654,22.1908492 217.154698,21.0961349 C216.118294,20.6353016 214.994111,20.262873 213.782151,19.9788492 C212.569563,19.6948254 211.404,19.553127 210.279817,19.553127 C209.008294,19.553127 207.766865,19.7393413 206.554278,20.1111429 C205.342317,20.4835714 204.262024,21.0835952 203.316532,21.9162302 C202.369159,22.7488651 201.61427,23.8021984 201.053746,25.0756032 C200.492595,26.3490079 200.211079,27.8901349 200.211079,29.6945952 C200.211079,31.996881 200.727714,33.7656032 201.764119,35.0045238 C202.797389,36.2440714 204.188667,37.1989683 205.93231,37.8698413 L209.126167,39.0924603 C210.071659,39.4473333 210.730619,39.775873 211.098032,40.0743175 C211.467325,40.3758968 211.65354,40.8630635 211.65354,41.5339365 C211.65354,41.9602857 211.558238,42.3226825 211.3645,42.621754 C211.173897,42.9227063 210.928746,43.1528095 210.632183,43.3120635 C210.338754,43.4713175 210.020246,43.5866825 209.679794,43.6575317 C209.339341,43.728381 209.020833,43.765373 208.726778,43.765373 C207.27719,43.765373 206.072127,43.4274286 205.112214,42.7559286 C204.151675,42.0825476 203.463873,40.8975476 203.050063,39.1977937 L203.050063,39.1977937 Z M231.986635,40.2605317 L231.986635,24.2799603 C232.66754,24.2799603 233.330889,24.2968889 233.982952,24.333881 C234.634389,24.3677381 235.297738,24.4216587 235.978643,24.4931349 C235.949175,24.2084841 235.91281,23.8906032 235.868294,23.5376111 C235.824405,23.1827381 235.80246,22.8272381 235.80246,22.474873 C235.80246,21.6961587 235.861397,21.0052222 235.978643,20.4051984 C235.386143,20.4735397 234.759159,20.5274603 234.092675,20.5644524 C233.429325,20.5989365 232.726476,20.6158651 231.986635,20.6158651 C231.986635,20.0503254 231.994159,19.2709841 232.008579,18.2790952 C232.023,17.2872063 232.052468,16.2269762 232.096984,15.0927619 C232.143381,13.9616825 232.202317,12.8299762 232.275675,11.6957619 C232.349032,10.5646825 232.444333,9.58972222 232.562206,8.77652381 L231.765937,8.14013492 C230.345817,9.27121429 228.890587,10.3000952 227.397111,11.218627 C225.903008,12.1390397 224.38696,12.9723016 222.851476,13.7140238 L222.851476,20.6158651 C222.346754,20.6158651 221.756762,20.5989365 221.075857,20.5644524 C220.39746,20.5274603 219.865778,20.4735397 219.481437,20.4051984 C219.539746,20.6867143 219.584262,21.0246587 219.61373,21.4140159 C219.642571,21.803373 219.657619,22.1563651 219.657619,22.474873 C219.657619,22.8272381 219.635675,23.1896349 219.591159,23.5620635 C219.54727,23.9344921 219.510278,24.2429683 219.481437,24.4931349 C219.983024,24.4216587 220.52223,24.3677381 221.10031,24.333881 C221.675881,24.2968889 222.258349,24.2799603 222.851476,24.2799603 L222.851476,31.3404286 C222.851476,32.6508254 222.822008,33.9781508 222.760563,35.3230317 C222.701627,36.6679127 222.672159,37.9776825 222.672159,39.2517143 C222.672159,42.0486905 223.257762,44.1716587 224.425833,45.624381 C225.592024,47.0739683 227.462944,47.7987619 230.034833,47.7987619 C231.187857,47.7987619 232.334611,47.6664683 233.473214,47.4025079 C234.611817,47.1354127 235.726595,46.7730159 236.82131,46.3121825 C236.762373,46.0306667 236.718484,45.7566746 236.689016,45.4895794 C236.65704,45.2249921 236.642619,44.8970794 236.642619,44.5070952 C236.642619,43.9415556 236.700929,43.3929444 236.82131,42.8612619 C236.46581,43.0380714 236.110937,43.1898016 235.756063,43.3145714 C235.403071,43.4368333 235.033151,43.5007857 234.64881,43.5007857 C232.87319,43.5007857 231.986635,42.4204921 231.986635,40.2605317 L231.986635,40.2605317 Z" id="Fill-1" fill="#FFFFFF"></path>
                <path d="M196.461714,12.0706984 C196.461714,13.5597857 195.913103,14.853254 194.813373,15.9504762 C193.750635,17.0495794 192.457167,17.5981905 190.933595,17.5981905 C189.410651,17.5981905 188.100254,17.0495794 187.003032,15.9504762 C185.939667,14.853254 185.408611,13.5597857 185.408611,12.0706984 C185.408611,10.5132698 185.939667,9.20287302 187.003032,8.14013492 C188.063262,7.07676984 189.376167,6.54571429 190.933595,6.54571429 C192.457167,6.54571429 193.750635,7.07676984 194.813373,8.14013492 C195.913103,9.20287302 196.461714,10.5132698 196.461714,12.0706984" id="Fill-2" fill="#FFFFFF"></path>
                <mask id="mask-2" fill="white">
                    <use xlink:href="#path-1"></use>
                </mask>
                <g id="Clip-4"></g>
                <path d="M5.48360317,32.7737143 C5.48360317,34.8283413 5.46918254,36.5255873 5.43971429,37.8698413 C5.43971429,39.1802381 5.42466667,40.3489365 5.39519841,41.3746825 C5.39519841,42.3665714 5.36635714,43.3220952 5.30742063,44.2431349 C5.24848413,45.1635476 5.17512698,46.2607698 5.08672222,47.5348016 C5.85352381,47.4294683 6.63725397,47.321627 7.43540476,47.2162937 C8.23418254,47.1084524 9.0179127,47.0570397 9.78659524,47.0570397 C10.6443095,47.0570397 11.5013968,47.1084524 12.3584841,47.2162937 C13.2450397,47.2871429 14.1196825,47.3924762 14.9767698,47.5348016 C14.9473016,46.7899444 14.9009048,45.976746 14.8419683,45.0926984 C14.8125,44.1716587 14.7830317,43.2336905 14.7535635,42.2787937 C14.7535635,41.3232698 14.7391429,40.3658651 14.7096746,39.4109683 L14.7096746,33.890373 C14.7096746,32.190619 14.7240952,30.137873 14.7535635,27.730881 C14.8125,25.2887778 14.932254,22.6165714 15.1090635,19.7142619 C13.4826667,20.0327698 11.812381,20.1920238 10.0975794,20.1920238 C9.24049206,20.1920238 8.39845238,20.1556587 7.57020635,20.0841825 C6.77205556,20.0133333 5.95885714,19.8910714 5.1312381,19.7142619 C5.18954762,20.7042698 5.23406349,21.5707619 5.26353175,22.315619 C5.32184127,23.0234841 5.36635714,23.819127 5.39519841,24.7031746 C5.42466667,25.5903571 5.43971429,26.6505873 5.43971429,27.8901349 C5.46918254,29.1290556 5.48360317,30.7579603 5.48360317,32.7737143" id="Fill-3" fill="#FFFFFF" mask="url(#mask-2)"></path>
                <path d="M0.0909126984,15.5360397 C1.41573016,15.3792937 2.67722222,14.8626587 3.9380873,14.4438333 C5.02339683,13.7729603 5.71119841,15.2325794 6.71562698,15.3749048 C8.03793651,15.8181825 9.4956746,15.9943651 10.8424365,15.5291429 C12.2531508,15.1786587 13.507119,14.3410079 14.3616984,13.1603968 C15.4984206,11.7133175 16.0125476,9.89318254 16.1228968,8.07869048 C16.2990794,6.20714286 16.8602302,4.29233333 18.0358254,2.79572222 C18.8289603,1.95305556 19.9606667,1.57874603 20.8911111,0.927309524 C20.0779127,0.12602381 18.8195556,0.33418254 17.7781349,0.339198413 C14.6432143,0.662722222 11.256246,0.368666667 8.44484921,2.05149206 C6.42157143,3.19260317 5.0992619,5.33061905 4.78827778,7.60845238 C4.4597381,9.085 4.05345238,10.5496349 3.57819841,11.9804127 C2.88036508,13.4958333 1.16305556,14.0275159 0.0539206349,15.1347698 C-0.0733571429,15.2545238 0.063952381,15.4162857 0.0909126984,15.5360397 L0.0909126984,15.5360397 Z" id="Fill-5" fill="#FFFFFF" mask="url(#mask-2)"></path>
            </g>
        </g>
    </g>
</svg>