<?xml version="1.0" encoding="UTF-8" standalone="no"?>
<!-- Created with Inkscape (http://www.inkscape.org/) -->

<svg
   xmlns:dc="http://purl.org/dc/elements/1.1/"
   xmlns:cc="http://creativecommons.org/ns#"
   xmlns:rdf="http://www.w3.org/1999/02/22-rdf-syntax-ns#"
   xmlns:svg="http://www.w3.org/2000/svg"
   xmlns="http://www.w3.org/2000/svg"
   version="1.1"
   width="472.14233"
   height="94.67511"
   id="svg10163">
  <defs
     id="defs10165" />
  <metadata
     id="metadata10168">
    <rdf:RDF>
      <cc:Work
         rdf:about="">
        <dc:format>image/svg+xml</dc:format>
        <dc:type
           rdf:resource="http://purl.org/dc/dcmitype/StillImage" />
        <dc:title></dc:title>
      </cc:Work>
    </rdf:RDF>
  </metadata>
  <g
     transform="translate(-44.583853,-322.85209)"
     id="layer1">
    <path
       d="m 101.4859,381.00885 4.86242,6.66731 c 1.70893,2.33013 3.38909,4.62417 5.04051,6.88211 1.65135,2.25798 3.34636,4.56871 5.08504,6.93219 1.73859,2.3635 3.5069,4.81582 5.30494,7.35697 1.79795,2.54116 3.69893,5.25782 5.70295,8.15001 0.94258,-0.21105 1.9738,-0.42263 3.09366,-0.63475 1.11976,-0.21212 2.35785,-0.31819 3.71427,-0.31819 1.29695,0 2.59395,0.0883 3.89102,0.26488 1.29694,0.17659 2.41676,0.40595 3.35944,0.68806 -0.11879,-2.82327 -0.20739,-5.646 -0.26579,-8.46819 -0.0585,-2.82218 -0.0877,-5.64491 -0.0876,-8.46819 -7e-5,-7.26811 0.0589,-14.39518 0.17674,-21.38124 0.11776,-6.98599 0.29451,-14.11306 0.53023,-21.38125 0.11686,-2.68107 0.26392,-5.36274 0.44118,-8.04502 0.17712,-2.68214 0.32508,-5.36381 0.44387,-8.04502 -0.88512,0.35325 -1.74004,0.60037 -2.56477,0.74135 -0.82486,0.14114 -1.73825,0.21166 -2.74017,0.21159 -1.06141,7e-5 -2.03416,-0.0705 -2.91827,-0.21159 -0.88421,-0.14098 -1.91632,-0.3881 -3.09635,-0.74135 0.11868,2.25912 0.22211,4.44709 0.31031,6.56393 0.0881,2.11698 0.17624,4.2689 0.26444,6.45572 0.0881,2.18696 0.16185,4.42717 0.22127,6.72061 0.0593,2.29356 0.11867,4.74642 0.17808,7.35859 0.0593,3.17433 0.13307,6.2614 0.22128,9.26122 0.0881,2.99989 0.13215,6.08697 0.13221,9.26122 -1.18013,-1.48159 -2.27116,-2.89269 -3.27309,-4.23329 -1.00204,-1.34053 -1.98918,-2.66386 -2.96144,-3.97001 -0.97235,-1.30607 -1.97434,-2.62942 -3.00595,-3.97002 -1.03171,-1.34052 -2.16637,-2.78715 -3.40397,-4.33989 -1.29705,-1.69262 -2.80002,-3.66793 -4.50893,-5.92595 -1.70899,-2.25792 -3.50699,-4.65747 -5.394,-7.19869 -1.88707,-2.54109 -3.78806,-5.18722 -5.70296,-7.93842 -1.91494,-2.75105 -3.6981,-5.43273 -5.349465,-8.04502 -1.120729,0.28219 -2.240991,0.51154 -3.360788,0.68805 -1.119833,0.17667 -2.268876,0.26496 -3.447138,0.26489 -1.237652,7e-5 -2.490129,-0.0882 -3.757448,-0.26489 -1.267328,-0.17651 -2.519809,-0.40586 -3.757442,-0.68805 0.293213,6.21083 0.484345,12.20946 0.573398,17.99591 0.08904,5.78657 0.133561,11.78412 0.133568,17.99268 -7e-6,3.03435 -0.04453,6.24524 -0.133568,9.6327 -0.08906,3.38751 -0.20688,6.81 -0.353483,10.26745 -0.146617,3.4575 -0.323359,6.87999 -0.530225,10.26746 -0.20688,3.3875 -0.428144,6.59839 -0.663794,9.63271 1.120707,-0.28211 2.152374,-0.51147 3.095004,-0.68806 0.942616,-0.17658 1.914917,-0.26488 2.916913,-0.26488 1.120701,0 2.079064,0.0883 2.875089,0.26488 0.795989,0.17659 1.605943,0.40595 2.429853,0.68806 -0.116942,-2.61007 -0.249156,-5.50332 -0.396651,-8.67978 -0.147532,-3.17643 -0.280194,-6.35233 -0.398004,-9.52771 -0.117846,-3.17535 -0.220831,-6.20967 -0.308965,-9.10295 -0.0882,-2.89322 -0.132232,-5.32724 -0.132223,-7.30204 l 0,-11.00881 c 1.237625,1.6238 2.504953,3.22924 3.801976,4.81634 1.296986,1.58719 2.534623,3.19264 3.712923,4.81636 l 0,0 z m 66.57359,19.58198 c -2e-5,-1.69265 0.0881,-3.08598 0.26444,-4.17999 0.17626,-1.09397 0.54459,-2.06466 1.10497,-2.91211 0.56033,-0.84738 1.37119,-1.60596 2.43256,-2.27572 1.06133,-0.66972 2.44647,-1.39331 4.15545,-2.17076 l 0,13.55105 c -3e-5,1.41057 -0.36835,2.57454 -1.10497,3.49193 -0.73668,0.91741 -1.78318,1.37611 -3.13953,1.3761 -1.47332,10e-6 -2.46046,-0.68804 -2.96143,-2.06416 -0.50102,-1.37608 -0.75151,-2.98153 -0.75149,-4.81634 l 0,0 z m -17.50687,2.32903 c -1e-5,2.61008 0.35348,4.83251 1.06045,6.66731 0.70697,1.8348 1.69411,3.35195 2.96144,4.55146 1.26731,1.19952 2.77029,2.04639 4.50893,2.54062 1.73863,0.49424 3.61082,0.74135 5.61661,0.74135 2.23961,0 4.46439,-0.4587 6.67436,-1.3761 2.20991,-0.9174 4.1109,-2.2935 5.70295,-4.1283 0.47128,0.70636 1.00196,1.41217 1.59202,2.11745 0.59001,0.70528 1.2682,1.3228 2.03456,1.85256 0.76629,0.52977 1.67969,0.91795 2.74017,1.16452 1.06041,0.24658 2.32728,0.36987 3.80062,0.36987 1.88699,0 3.95033,-0.40594 6.19,-1.21781 2.23958,-0.81188 4.18509,-1.95864 5.83653,-3.44026 -0.0594,-0.49315 -0.11834,-0.96908 -0.17675,-1.42778 -0.0585,-0.4587 -0.0877,-0.93463 -0.0877,-1.42779 -5e-5,-0.56637 0.0292,-1.09614 0.0877,-1.5893 0.0584,-0.49314 0.11733,-1.02183 0.17675,-1.58607 -1.12077,0.77529 -2.21179,1.16292 -3.2731,1.16291 -0.76637,1e-5 -1.35551,-0.22935 -1.76742,-0.68805 -0.41199,-0.4587 -0.7214,-1.11121 -0.92823,-1.95755 -0.20691,-0.84633 -0.32474,-1.81649 -0.35348,-2.91049 -0.0288,-1.09398 -0.0432,-2.27626 -0.0431,-3.54686 -4e-5,-1.27055 0.0291,-2.80547 0.0877,-4.60476 0.0584,-1.79924 0.10249,-3.66904 0.13221,-5.60938 0.0296,-1.9403 0.0737,-3.84563 0.13223,-5.71599 0.0584,-1.8703 0.0876,-3.47629 0.0876,-4.81797 -4e-5,-2.25685 -0.3832,-4.40875 -1.1495,-6.45572 -0.76636,-2.04688 -1.94509,-3.82892 -3.53617,-5.34612 -1.59117,-1.5171 -3.60997,-2.73438 -6.05644,-3.65184 -2.44653,-0.91734 -5.34995,-1.37604 -8.71026,-1.37609 -3.65358,5e-5 -6.99817,0.49428 -10.0338,1.48269 -3.03565,0.98852 -6.14549,2.50568 -9.32953,4.55147 l 1.77011,9.41951 2.56343,0.2132 c 1.00198,-2.11687 2.38713,-3.59903 4.15545,-4.44649 1.7683,-0.84737 3.62476,-1.27107 5.56939,-1.27112 1.06133,5e-5 2.06377,0.0883 3.0073,0.2649 0.94351,0.17662 1.76875,0.5298 2.47574,1.05952 0.70694,0.52982 1.25201,1.27116 1.6352,2.22406 0.38314,0.95297 0.57471,2.17025 0.57474,3.65183 -3e-5,0.98635 -0.11785,1.79715 -0.35347,2.4324 -0.23569,0.63533 -0.69261,1.20009 -1.37077,1.69429 -0.67821,0.49426 -1.65096,0.97073 -2.91826,1.4294 -1.26735,0.45873 -2.93267,1.00572 -4.99599,1.64097 -2.29901,0.77531 -4.43564,1.58664 -6.40992,2.43403 -1.9743,0.84743 -3.6837,1.90589 -5.1282,3.17536 -1.44453,1.26953 -2.56433,2.83945 -3.35944,4.70976 -0.79512,1.87036 -1.19268,4.21715 -1.19267,7.0404 l 0,0 z m 73.31945,-0.42317 0,-31.86028 c 1.35454,5e-5 2.68033,0.035 3.97736,0.10493 1.29698,0.07 2.62367,0.17609 3.98006,0.31819 -0.0594,-0.56418 -0.13315,-1.19947 -0.22126,-1.90588 -0.0882,-0.7063 -0.13225,-1.41158 -0.13222,-2.11583 -3e-5,-1.55263 0.1178,-2.92874 0.35348,-4.1283 -1.18011,0.14003 -2.43303,0.24555 -3.75879,0.31657 -1.32581,0.0711 -2.72536,0.10668 -4.19863,0.10657 -3e-5,-1.13054 0.0143,-2.68377 0.0431,-4.65968 0.0288,-1.9758 0.0876,-4.0927 0.17674,-6.35074 0.089,-2.2579 0.20685,-4.51586 0.35348,-6.7739 0.14659,-2.2579 0.33772,-4.19875 0.5734,-5.82258 l -1.58933,-1.26951 c -2.82968,2.25912 -5.7331,4.30604 -8.71025,6.14078 -2.97719,1.83486 -5.99843,3.49307 -9.06375,4.97463 l 0,13.761 c -1.00199,5e-5 -2.18072,-0.0354 -3.53618,-0.10657 -1.35547,-0.071 -2.41637,-0.17654 -3.1827,-0.31657 0.11693,0.56427 0.20507,1.23456 0.26443,2.01085 0.0594,0.7764 0.089,1.48222 0.089,2.11745 0,0.70425 -0.044,1.42675 -0.13221,2.16752 -0.0882,0.74086 -0.1619,1.35891 -0.22127,1.85419 1.00199,-0.1421 2.07773,-0.24815 3.22722,-0.31819 1.14949,-0.0699 2.31338,-0.10493 3.49167,-0.10493 l 0,14.07758 c -1e-5,2.61009 -0.059,5.25623 -0.17674,7.93842 -0.11784,2.68223 -0.17676,5.29283 -0.17675,7.83182 -1e-5,5.57548 1.16433,9.80984 3.49301,12.70309 2.32866,2.89325 6.05732,4.33988 11.18599,4.33988 2.29897,0 4.58312,-0.26488 6.85245,-0.79465 2.26928,-0.52976 4.49406,-1.25335 6.67436,-2.17075 -0.11696,-0.56422 -0.20511,-1.11068 -0.26444,-1.63936 -0.0594,-0.52869 -0.0891,-1.18175 -0.089,-1.95918 -3e-5,-1.12843 0.11779,-2.22242 0.35349,-3.28197 -0.707,0.35319 -1.41397,0.65361 -2.1209,0.90125 -0.707,0.24767 -1.44365,0.3715 -2.20994,0.37149 -3.53666,1e-5 -5.30498,-2.15243 -5.30495,-6.45734 l 0,0 z m 13.45126,-19.372 c -1e-5,1.13063 -1e-5,2.4012 0,3.81173 -1e-5,1.33952 -0.0148,2.73285 -0.0445,4.17999 -0.0297,1.44719 -0.0445,2.87604 -0.0445,4.28658 -1e-5,1.34166 -1e-5,2.5767 0,3.70513 -1e-5,5.71546 1.2084,10.12587 3.62522,13.23125 2.41681,3.10538 6.04204,4.65807 10.87569,4.65807 1.76829,0 3.30095,-0.1233 4.59798,-0.36987 1.29698,-0.24658 2.49055,-0.70528 3.5807,-1.3761 1.0901,-0.67083 2.15101,-1.53547 3.1827,-2.59392 1.03164,-1.05845 2.13751,-2.32849 3.31762,-3.81012 -0.11876,2.68114 -0.29595,5.39781 -0.53157,8.15001 1.47326,-0.21105 2.96139,-0.42263 4.46441,-0.63475 1.50294,-0.21212 2.99107,-0.31819 4.46441,-0.31819 1.59199,0 3.25776,0.10602 4.99734,0.31819 1.73948,0.21212 3.28653,0.4237 4.64116,0.63475 -0.29508,-3.17644 -0.48666,-6.68722 -0.57475,-10.53235 -0.0882,-3.8451 -0.13228,-8.51985 -0.13222,-14.02426 l 0,-8.15001 c -6e-5,-2.25901 0.0148,-4.49974 0.0445,-6.72222 0.0296,-2.2224 0.0737,-4.35707 0.13222,-6.40404 0.0584,-2.04687 0.14655,-3.89944 0.26444,-5.5577 0.11777,-1.65816 0.23606,-3.01595 0.35483,-4.07339 -3.1841,0.63319 -6.33756,0.94976 -9.4604,0.9497 -1.70899,6e-5 -3.37432,-0.0877 -4.99598,-0.26326 -1.62175,-0.17546 -3.28708,-0.40427 -4.996,-0.68644 0.29499,4.23388 0.45734,8.80257 0.48706,13.7061 0.0296,4.9036 0.0445,9.68442 0.0445,14.34245 -4e-5,1.69485 -0.0297,3.40635 -0.089,5.13453 -0.0594,1.72822 -0.23659,3.29815 -0.53157,4.70976 -0.29505,1.41165 -0.78121,2.57616 -1.45845,3.49355 -0.67732,0.91741 -1.63478,1.37611 -2.8724,1.3761 -1.23947,1e-5 -2.19782,-0.37039 -2.87509,-1.11122 -0.67731,-0.74079 -1.16345,-1.71095 -1.45845,-2.91048 -0.29504,-1.1995 -0.47178,-2.61113 -0.53022,-4.23491 -0.0585,-1.62373 -0.0877,-3.28194 -0.0877,-4.97463 -2e-5,-4.02275 0.0144,-7.41024 0.0431,-10.16247 0.0288,-2.75216 0.0728,-5.22171 0.13222,-7.40865 0.0593,-2.18686 0.13309,-4.19771 0.22126,-6.03256 0.0881,-1.83474 0.19156,-3.8106 0.31031,-5.92757 -1.53268,0.28217 -3.03611,0.51098 -4.51029,0.68644 -1.47421,0.17557 -2.97763,0.26332 -4.51027,0.26326 -1.70897,6e-5 -3.43277,-0.10547 -5.17139,-0.31657 -1.73864,-0.21098 -3.46243,-0.42203 -5.17137,-0.63313 0.23564,2.96331 0.33863,6.08537 0.30895,9.3662 -0.0297,3.28095 -0.0445,7.35594 -0.0445,12.22502 l 0,0 z m 74.75227,-7.19708 0.70696,-14.39414 c -1.53268,0.35108 -2.99159,0.59713 -4.37672,0.73813 -1.38516,0.1411 -2.84407,0.21163 -4.37672,0.21157 -1.59023,6e-5 -3.15167,-0.0705 -4.68432,-0.21157 -1.53267,-0.141 -3.21284,-0.38705 -5.04052,-0.73813 0.11693,2.82117 0.21992,5.21966 0.30897,7.19546 0.089,1.9759 0.1628,3.95176 0.22126,5.92757 0.0585,1.97589 0.10254,4.1461 0.13222,6.51064 0.0297,2.36459 0.0445,5.31061 0.0445,8.83805 l 0,6.8805 c 0,3.52748 -0.0737,7.12602 -0.22126,10.7956 -0.14751,3.66962 -0.39846,6.77499 -0.75284,9.31615 1.59203,-0.21105 3.18404,-0.42263 4.77608,-0.63475 1.592,-0.21212 3.18313,-0.31819 4.77337,-0.31819 1.71073,0 3.43542,0.0883 5.17407,0.26488 1.73862,0.17659 3.46241,0.40595 5.17139,0.68806 -0.23569,-4.23383 -0.41243,-8.37935 -0.53023,-12.43659 -0.11785,-4.05722 -0.17676,-8.20275 -0.17674,-12.43659 -2e-5,-1.76587 0.0886,-3.42462 0.26579,-4.97625 0.17716,-1.55159 0.53109,-2.90993 1.06179,-4.07501 0.53065,-1.16502 1.32622,-2.08242 2.38669,-2.7522 1.06043,-0.66971 2.4748,-1.00458 4.24316,-1.00462 1.29696,4e-5 2.4613,0.19386 3.493,0.58145 1.03163,0.38768 2.04846,1.11125 3.05048,2.17075 l 1.1495,-0.74296 c -4e-5,-2.18794 0.0148,-4.09327 0.0445,-5.71599 0.0296,-1.62264 0.0886,-3.13979 0.17674,-4.55147 0.0881,-1.41159 0.20593,-2.84044 0.35348,-4.28658 0.14747,-1.44604 0.36874,-3.05095 0.66379,-4.81474 -0.707,-0.35312 -1.32582,-0.56524 -1.85645,-0.63636 -0.53072,-0.071 -1.17922,-0.10657 -1.94551,-0.10657 -1.82772,5e-5 -3.52273,0.44099 -5.08503,1.3228 -1.56238,0.88192 -2.93268,2.04644 -4.11094,3.49354 -1.1783,1.44723 -2.16544,3.03545 -2.96143,4.76467 -0.79603,1.72933 -1.37123,3.4403 -1.72559,5.13293 l -0.35348,0 z m 37.65811,24.66322 c -2e-5,-1.69265 0.0881,-3.08598 0.26443,-4.17999 0.17628,-1.09397 0.5446,-2.06466 1.10498,-2.91211 0.56034,-0.84738 1.37119,-1.60596 2.43255,-2.27572 1.06133,-0.66972 2.44648,-1.39331 4.15546,-2.17076 l 0,13.55105 c -2e-5,1.41057 -0.36835,2.57454 -1.10498,3.49193 -0.73667,0.91741 -1.78318,1.37611 -3.13952,1.3761 -1.47332,10e-6 -2.46047,-0.68804 -2.96144,-2.06416 -0.501,-1.37608 -0.7515,-2.98153 -0.75148,-4.81634 l 0,0 z m -17.50687,2.32903 c 0,2.61008 0.35348,4.83251 1.06045,6.66731 0.70696,1.8348 1.69411,3.35195 2.96143,4.55146 1.26732,1.19952 2.7703,2.04639 4.50894,2.54062 1.73862,0.49424 3.61082,0.74135 5.6166,0.74135 2.23961,0 4.4644,-0.4587 6.67436,-1.3761 2.20993,-0.9174 4.11091,-2.2935 5.70296,-4.1283 0.47128,0.70636 1.00196,1.41217 1.59202,2.11745 0.59001,0.70528 1.2682,1.3228 2.03455,1.85256 0.76631,0.52977 1.67969,0.91795 2.74017,1.16452 1.06042,0.24658 2.32729,0.36987 3.80063,0.36987 1.887,0 3.95034,-0.40594 6.19,-1.21781 2.23959,-0.81188 4.18508,-1.95864 5.83652,-3.44026 -0.0594,-0.49315 -0.11833,-0.96908 -0.17674,-1.42778 -0.0585,-0.4587 -0.0877,-0.93463 -0.0877,-1.42779 -6e-5,-0.56637 0.0292,-1.09614 0.0877,-1.5893 0.0584,-0.49314 0.11733,-1.02183 0.17674,-1.58607 -1.12076,0.77529 -2.21179,1.16292 -3.27309,1.16291 -0.76638,1e-5 -1.35552,-0.22935 -1.76741,-0.68805 -0.412,-0.4587 -0.72141,-1.11121 -0.92824,-1.95755 -0.20691,-0.84633 -0.32474,-1.81649 -0.35349,-2.91049 -0.0288,-1.09398 -0.0432,-2.27626 -0.0431,-3.54686 -5e-5,-1.27055 0.0292,-2.80547 0.0877,-4.60476 0.0584,-1.79924 0.10249,-3.66904 0.13221,-5.60938 0.0296,-1.9403 0.0737,-3.84563 0.13222,-5.71599 0.0584,-1.8703 0.0876,-3.47629 0.0876,-4.81797 -4e-5,-2.25685 -0.3832,-4.40875 -1.14949,-6.45572 -0.76638,-2.04688 -1.9451,-3.82892 -3.53619,-5.34612 -1.59116,-1.5171 -3.60997,-2.73438 -6.05643,-3.65184 -2.44654,-0.91734 -5.34995,-1.37604 -8.71026,-1.37609 -3.65359,5e-5 -6.99818,0.49428 -10.0338,1.48269 -3.03565,0.98852 -6.14549,2.50568 -9.32953,4.55147 l 1.77011,9.41951 2.56343,0.2132 c 1.00198,-2.11687 2.38712,-3.59903 4.15545,-4.44649 1.76831,-0.84737 3.62477,-1.27107 5.56939,-1.27112 1.06133,5e-5 2.06376,0.0883 3.00731,0.2649 0.94349,0.17662 1.76874,0.5298 2.47573,1.05952 0.70694,0.52982 1.252,1.27116 1.63519,2.22406 0.38314,0.95297 0.57473,2.17025 0.57476,3.65183 -3e-5,0.98635 -0.11786,1.79715 -0.35349,2.4324 -0.23568,0.63533 -0.6926,1.20009 -1.37076,1.69429 -0.6782,0.49426 -1.65096,0.97073 -2.91826,1.4294 -1.26734,0.45873 -2.93267,1.00572 -4.99599,1.64097 -2.299,0.77531 -4.43564,1.58664 -6.40992,2.43403 -1.9743,0.84743 -3.6837,1.90589 -5.1282,3.17536 -1.44452,1.26953 -2.56433,2.83945 -3.35945,4.70976 -0.79511,1.87036 -1.19266,4.21715 -1.19266,7.0404 l 0,0 z m 54.22056,-40.96322 0,33.55295 c -1e-5,3.59855 -0.0886,7.23262 -0.26579,10.90221 -0.1772,3.6696 -0.35394,7.19815 -0.53023,10.58564 1.64959,-0.21105 3.31446,-0.42263 4.99465,-0.63475 1.68015,-0.21212 3.34503,-0.31819 4.99463,-0.31819 1.65138,0 3.28747,0.0883 4.90829,0.26488 1.62079,0.17659 3.2272,0.40595 4.81925,0.68806 -0.0594,-1.48163 -0.1183,-3.28089 -0.17674,-5.39781 -0.0585,-2.11691 -0.11741,-4.37487 -0.17674,-6.7739 -0.0594,-2.39902 -0.10392,-4.8158 -0.13358,-7.25037 -0.0297,-2.43453 -0.0445,-4.7458 -0.0445,-6.93381 l 0,-26.35588 c -2e-5,-4.86906 0.0738,-9.6504 0.22126,-14.34407 0.14749,-4.69353 0.28061,-9.15723 0.39936,-13.39114 -1.65141,0.35327 -3.28751,0.60038 -4.90829,0.74136 -1.62082,0.14113 -3.2857,0.21166 -4.99463,0.21158 -1.65141,8e-5 -3.30234,-0.0705 -4.95282,-0.21158 -1.65049,-0.14098 -3.30053,-0.38809 -4.95012,-0.74136 0.17629,3.2476 0.32335,6.00032 0.44118,8.25823 0.11783,2.25803 0.19158,4.32217 0.22127,6.19245 0.0297,1.87039 0.0593,3.65189 0.089,5.34449 0.0297,1.69273 0.0445,3.56307 0.0445,5.61101 l 0,0 z m 29.53072,25.61291 c -10e-6,4.09388 -0.0149,7.46414 -0.0445,10.11079 -0.0297,2.64669 -0.0594,4.97519 -0.089,6.98549 -0.0297,2.01032 -0.10344,3.93287 -0.22126,5.76766 -0.11783,1.83482 -0.26489,4.02279 -0.44118,6.56395 1.53265,-0.21105 3.09454,-0.42263 4.68568,-0.63475 1.59112,-0.21212 3.15301,-0.31819 4.68568,-0.31819 1.70893,0 3.43318,0.0883 5.17273,0.26488 1.73951,0.17659 3.46375,0.40595 5.17272,0.68806 -0.0594,-1.48163 -0.13313,-3.12208 -0.22126,-4.92134 -0.0882,-1.79926 -0.14708,-3.65183 -0.17674,-5.5577 -0.0297,-1.90586 -0.0594,-3.81118 -0.089,-5.71599 -0.0297,-1.90477 -0.0445,-3.66904 -0.0445,-5.29282 l 0,-5.71437 c -3e-5,-3.38746 0.0445,-7.49799 0.13357,-12.3316 0.089,-4.83354 0.30983,-10.14359 0.66244,-15.93015 -3.24164,0.63319 -6.57229,0.94976 -9.99197,0.9497 -1.70897,6e-5 -3.37384,-0.0705 -4.99464,-0.21157 -1.62082,-0.141 -3.25691,-0.38705 -4.90829,-0.73813 0.11872,1.97484 0.22216,3.68581 0.31031,5.13292 0.0881,1.44722 0.16189,3.05267 0.22126,4.81636 0.0594,1.76377 0.10388,3.88068 0.13357,6.35073 0.0297,2.47013 0.0445,5.71548 0.0445,9.73607 l 0,0 z m 33.41901,12.80808 -3.44848,0 c -0.17631,2.40119 -0.38228,4.76576 -0.61793,7.0937 -0.23566,2.32796 -0.50099,4.69145 -0.79601,7.09047 2.29898,0.9174 4.83363,1.62322 7.60394,2.11745 2.77029,0.49424 5.39397,0.74135 7.87108,0.74135 2.59219,0 5.11153,-0.31764 7.55806,-0.95293 2.44647,-0.63529 4.61279,-1.74651 6.49897,-3.33365 1.88611,-1.58714 3.41877,-3.63353 4.59798,-6.13916 1.17914,-2.50561 1.76873,-5.52215 1.76876,-9.04963 -3e-5,-8.39871 -3.4782,-13.86758 -10.4345,-16.40661 l -6.10096,-2.22244 c -2.12092,-0.77738 -3.7858,-1.50096 -4.99464,-2.17075 -1.20887,-0.66971 -1.8133,-1.81645 -1.81328,-3.44025 -2e-5,-0.84629 0.2064,-1.55211 0.61926,-2.11745 0.41283,-0.56525 0.92867,-1.02396 1.54751,-1.3761 0.61879,-0.35205 1.25245,-0.59863 1.90098,-0.73974 0.64848,-0.141 1.23807,-0.21153 1.76877,-0.21158 2.65154,5e-5 4.72927,0.63479 6.23318,1.90425 1.50384,1.26955 2.57959,3.38699 3.22722,6.35235 l 3.35943,0 c 0.17806,-2.259 0.41417,-4.48251 0.70833,-6.67053 0.29407,-2.18794 0.648,-4.37483 1.06179,-6.56071 -2.06337,-0.91734 -4.30345,-1.6587 -6.72023,-2.22405 -2.41685,-0.56524 -4.74507,-0.84789 -6.98467,-0.84794 -2.53466,5e-5 -5.0104,0.37046 -7.4272,1.11121 -2.41683,0.74086 -4.56875,1.94038 -6.45578,3.59854 -1.88705,1.65826 -3.39049,3.75794 -4.51029,6.29905 -1.11982,2.5412 -1.67973,5.61104 -1.67972,9.20954 -10e-6,4.58703 1.03166,8.11557 3.095,10.58564 2.06333,2.47011 4.83363,4.37489 8.31091,5.71437 l 6.36809,2.43563 c 1.88522,0.70638 3.19617,1.35942 3.93284,1.95916 0.73662,0.59977 1.10495,1.5694 1.10498,2.90887 -3e-5,0.84635 -0.19161,1.5694 -0.57476,2.16914 -0.38318,0.59976 -0.86934,1.05847 -1.45845,1.37611 -0.58916,0.31765 -1.22282,0.547 -1.90098,0.68804 -0.67821,0.14106 -1.31142,0.21159 -1.89964,0.21159 -2.88905,0 -5.29148,-0.67028 -7.20728,-2.01086 -1.91584,-1.34055 -3.2866,-3.70458 -4.11228,-7.09208 l 0,0 z m 57.69333,2.11906 0,-31.86028 c 1.35455,5e-5 2.68034,0.035 3.97737,0.10493 1.29697,0.07 2.62366,0.17609 3.98006,0.31819 -0.0594,-0.56418 -0.13316,-1.19947 -0.22127,-1.90588 -0.0882,-0.7063 -0.13225,-1.41158 -0.13222,-2.11583 -3e-5,-1.55263 0.1178,-2.92874 0.35349,-4.1283 -1.18011,0.14003 -2.43304,0.24555 -3.7588,0.31657 -1.32581,0.0711 -2.72536,0.10668 -4.19863,0.10657 -2e-5,-1.13054 0.0143,-2.68377 0.0431,-4.65968 0.0288,-1.9758 0.0876,-4.0927 0.17674,-6.35074 0.089,-2.2579 0.20685,-4.51586 0.35349,-6.7739 0.14658,-2.2579 0.33772,-4.19875 0.57339,-5.82258 l -1.58933,-1.26951 c -2.82968,2.25912 -5.73309,4.30604 -8.71025,6.14078 -2.97719,1.83486 -5.99843,3.49307 -9.06374,4.97463 l 0,13.761 c -1.002,5e-5 -2.18072,-0.0354 -3.53619,-0.10657 -1.35547,-0.071 -2.41636,-0.17654 -3.18269,-0.31657 0.11692,0.56427 0.20507,1.23456 0.26443,2.01085 0.0594,0.7764 0.089,1.48222 0.089,2.11745 0,0.70425 -0.044,1.42675 -0.13222,2.16752 -0.0881,0.74086 -0.1619,1.35891 -0.22126,1.85419 1.00198,-0.1421 2.07772,-0.24815 3.22722,-0.31819 1.14949,-0.0699 2.31338,-0.10493 3.49166,-0.10493 l 0,14.07758 c -10e-6,2.61009 -0.059,5.25623 -0.17674,7.93842 -0.11784,2.68223 -0.17676,5.29283 -0.17675,7.83182 -1e-5,5.57548 1.16433,9.80984 3.49301,12.70309 2.32866,2.89325 6.05732,4.33988 11.18599,4.33988 2.29897,0 4.58312,-0.26488 6.85245,-0.79465 2.26928,-0.52976 4.49406,-1.25335 6.67436,-2.17075 -0.11696,-0.56422 -0.2051,-1.11068 -0.26444,-1.63936 -0.0594,-0.52869 -0.0891,-1.18175 -0.089,-1.95918 -2e-5,-1.12843 0.1178,-2.22242 0.35349,-3.28197 -0.707,0.35319 -1.41397,0.65361 -2.1209,0.90125 -0.707,0.24767 -1.44365,0.3715 -2.20994,0.37149 -3.53666,1e-5 -5.30498,-2.15243 -5.30495,-6.45734 l 0,0 z"
       id="path2410"
       style="font-size:96.74288177px;font-style:normal;font-variant:normal;font-weight:normal;font-stretch:normal;text-align:start;line-height:100%;writing-mode:lr-tb;text-anchor:start;fill:#ffffff;fill-opacity:1;stroke:none;font-family:Optima" />
    <path
       d="m 436.26218,346.29664 c 0,2.96651 -1.09476,5.54461 -3.28427,7.73397 -2.11903,2.18968 -4.69695,3.28444 -7.73395,3.28428 -3.03719,1.6e-4 -5.65063,-1.0946 -7.84014,-3.28428 -2.11883,-2.18936 -3.17827,-4.76746 -3.17827,-7.73397 0,-3.10766 1.05944,-5.72092 3.17827,-7.83995 2.11888,-2.11887 4.73231,-3.17831 7.84014,-3.17847 3.037,1.6e-4 5.61492,1.0596 7.73395,3.17847 2.18951,2.11903 3.28427,4.73229 3.28427,7.83995"
       id="path2412"
       style="font-size:899.56732178px;font-style:normal;font-variant:normal;font-weight:normal;font-stretch:normal;text-align:start;line-height:125%;writing-mode:lr-tb;text-anchor:start;fill:#ffffff;fill-opacity:1;stroke:none;font-family:Hoefler Text" />
    <path
       d="m 55.518905,387.57086 c 0,4.09279 -0.02956,7.48004 -0.08847,10.16158 0,2.61104 -0.02936,4.93965 -0.08832,6.98612 0,1.97583 -0.05907,3.88117 -0.17689,5.71585 -0.11788,1.83469 -0.26526,4.02231 -0.44205,6.5627 1.5325,-0.21163 3.0947,-0.42342 4.68627,-0.63505 1.59151,-0.2118 3.15357,-0.31761 4.68617,-0.31761 1.70944,0 3.41883,0.10581 5.12823,0.31761 1.7685,0.14114 3.5073,0.35277 5.21684,0.63505 -0.05906,-1.4819 -0.14738,-3.10495 -0.26521,-4.86915 -0.05906,-1.83469 -0.11798,-3.7047 -0.17694,-5.61003 0,-1.90518 -0.02956,-3.81052 -0.08842,-5.71585 0,-1.90534 0,-3.66938 0,-5.29243 l 0,-5.71601 c 0,-3.38709 0.02951,-7.48004 0.08842,-12.27855 0.11788,-4.869 0.35368,-10.19675 0.70741,-15.98325 -3.24204,0.63506 -6.57255,0.95267 -9.99139,0.95251 -1.70954,1.6e-4 -3.38942,-0.0705 -5.0399,-0.21163 -1.59157,-0.14115 -3.21264,-0.3881 -4.86311,-0.74088 0.11797,1.97583 0.20629,3.7047 0.26536,5.18661 0.11782,1.41142 0.20614,2.99915 0.26521,4.76318 0.05896,1.76419 0.08832,3.88116 0.08832,6.35107 0.05891,2.46975 0.08847,5.71585 0.08847,9.73816"
       id="path2414"
       style="font-size:610.71813965px;font-style:normal;font-variant:normal;font-weight:normal;font-stretch:normal;text-align:start;line-height:100%;writing-mode:lr-tb;text-anchor:start;fill:#74ac00;fill-opacity:1;stroke:none;font-family:Optima" />
    <path
       d="m 44.766445,353.20162 c 2.63939,-0.30953 5.15653,-1.33998 7.67107,-2.17495 2.16277,-1.33871 3.53095,1.57331 5.53737,1.85417 2.63652,0.88408 5.54187,1.23733 8.22518,0.30811 2.81287,-0.69732 5.31489,-2.37011 7.01731,-4.72153 2.26587,-2.88667 3.29174,-6.51327 3.50846,-10.13116 0.35338,-3.73353 1.46968,-7.55086 3.81605,-10.53115 1.58089,-1.68293 3.83568,-2.4265 5.69111,-3.72973 -1.61972,-1.592 -4.12765,-1.17713 -6.20565,-1.1681 -6.24838,0.64409 -13.00359,0.0594 -18.60994,3.41338 -4.03151,2.27221 -6.66934,6.53451 -7.28567,11.07845 -0.65807,2.94086 -1.46467,5.86143 -2.414,8.71547 -1.39038,3.01943 -4.81402,4.07918 -7.02778,6.28993 -0.25394,0.23793 0.02044,0.55871 0.07649,0.79711 z"
       id="path2416"
       style="fill:#74ac00;fill-opacity:1" />
  </g>
</svg>
