<?xml version="1.0" encoding="UTF-8"?><svg xmlns="http://www.w3.org/2000/svg" viewBox="0 0 112.71 71.33"><defs><style>.d{font-size:10.56px;}.d,.e{fill:#fff;font-family:Helvetica-Bold, Helvetica;}.f{fill:#cccacc;}.g{fill:#231f20;}.e{font-size:17.69px;}</style></defs><g id="a"/><g id="b"><g id="c"><rect class="f" width="112.71" height="32.73"/><path class="g" d="M14.82,10.42l.06,.06-7.2,3.32,14.87,14.87h10.53l-.06-.06v-10.53L18.14,3.22l-3.32,7.2Zm14.45,14.45c-.76,.76-2,.76-2.76,0s-.76-2,0-2.76,2-.76,2.76,0,.76,2,0,2.76Z"/><rect class="f" x="0" y="37.4" width="112.71" height="33.92"/><path class="g" d="M14.82,48.46l.06,.06-7.2,3.32,14.87,14.87h10.53l-.06-.06v-10.53l-14.87-14.87-3.32,7.2Zm14.45,14.45c-.76,.76-2,.76-2.76,0s-.76-2,0-2.76,2-.76,2.76,0,.76,2,0,2.76Z"/><text class="d" transform="translate(18.16 19.65)"><tspan x="0" y="0">1</tspan></text><text class="d" transform="translate(18.11 57.76)"><tspan x="0" y="0">2</tspan></text><circle class="g" cx="57.39" cy="54.45" r="12.67"/><text class="e" transform="translate(50.98 60.25)"><tspan x="0" y="0">E</tspan></text><circle class="g" cx="56.41" cy="16.36" r="12.67"/><text class="e" transform="translate(50 22.17)"><tspan x="0" y="0">B </tspan></text></g></g></svg>