<?xml version="1.0" encoding="UTF-8"?><svg xmlns="http://www.w3.org/2000/svg" viewBox="0 0 71.15 173.78"><defs><style>.d{fill:#cccacc;}.e,.f,.g{fill:#231f20;}.f{font-family:Helvetica-Bold, Helvetica;font-size:12.12px;}.h{letter-spacing:-.07em;}.g{font-family:Helvetica, Helvetica;font-size:12px;}.i{fill:none;stroke:#231f20;stroke-miterlimit:10;}.j{letter-spacing:0em;}</style></defs><g id="a"/><g id="b"><g id="c"><rect class="d" width="71.15" height="42.91"/><text class="f" transform="translate(19.12 33.03)"><tspan class="h" x="0" y="0">T</tspan><tspan class="j" x="6.51" y="0">axon B</tspan></text><path class="e" d="M9.23,9.99v.04l-4.19-1.54v11.83l4.19,4.19v-.04l4.19-4.19V8.45l-4.19,1.54Zm0,11.49c-.61,0-1.1-.49-1.1-1.1s.49-1.1,1.1-1.1,1.1,.49,1.1,1.1-.49,1.1-1.1,1.1Z"/><rect class="d" y="48.13" width="71.15" height="42.91"/><text class="g" transform="translate(15.39 65.59)"><tspan x="0" y="0">ID 2</tspan></text><path class="e" d="M8.23,59.18v.04l-4.19-1.54v11.83l4.19,4.19v-.04l4.19-4.19v-11.83l-4.19,1.54Zm0,11.49c-.61,0-1.1-.49-1.1-1.1s.49-1.1,1.1-1.1,1.1,.49,1.1,1.1-.49,1.1-1.1,1.1Z"/><text class="f" transform="translate(16.56 83.12)"><tspan class="h" x="0" y="0">T</tspan><tspan class="j" x="6.51" y="0">axon E</tspan></text><text class="g" transform="translate(2.31 106.57)"><tspan x="0" y="0">ID 2 will </tspan><tspan x="0" y="14.4">disagree </tspan><tspan x="0" y="28.8">(clash) with </tspan><tspan x="0" y="43.2">ID1 post </tspan><tspan x="0" y="57.6">swap</tspan></text><path class="i" d="M65.39,94.08c.56,12.9-4.9,23.6-12.21,23.92"/><polygon class="e" points="65.14 91.72 63.41 98.43 67.44 98.26 65.14 91.72"/><text class="g" transform="translate(18.12 16.25)"><tspan x="0" y="0">ID 1</tspan></text></g></g></svg>