<?xml version="1.0" encoding="UTF-8"?><svg xmlns="http://www.w3.org/2000/svg" viewBox="0 0 113.62 118.93"><defs><style>.d,.e{fill:#fff;font-family:Helvetica-Bold, Helvetica;font-size:20.37px;}.f{fill:#a9a8a9;}.g{fill:#231f20;}.e{letter-spacing:-.04em;}.h{fill:none;stroke:#231f20;stroke-miterlimit:10;}</style></defs><g id="a"/><g id="b"><g id="c"><rect class="g" x="32.47" y="57.61" width="10.29" height="46.77" transform="translate(95.68 148.85) rotate(164.36)"/><circle class="f" cx="68.63" cy="101.11" r="14.59"/><rect class="f" x="70.05" y="59.58" width="10.29" height="46.77" transform="translate(25.15 -17.2) rotate(15.64)"/><circle class="g" cx="45.47" cy="102.11" r="14.59"/><text class="d" transform="translate(38.1 108.79)"><tspan x="0" y="0">E</tspan></text><text class="d" transform="translate(62.03 108.34)"><tspan x="0" y="0">F</tspan></text><rect class="g" x="92.3" y="56.29" width="10.29" height="46.77" transform="translate(-15.84 24.82) rotate(-13.43)"/><rect class="g" x="68.67" y="12.03" width="10.29" height="46.77" transform="translate(-7.94 39.73) rotate(-28.65)"/><rect class="g" x="30.85" y="14.03" width="10.29" height="46.77" transform="translate(49.64 87.51) rotate(-151.35)"/><rect class="g" x="10.36" y="62.6" width="10.29" height="46.77" transform="translate(10.61 173.22) rotate(-166.57)"/><circle class="g" cx="56.4" cy="14.59" r="14.59"/><circle class="g" cx="24.49" cy="61.55" r="14.59"/><circle class="g" cx="87.61" cy="58.2" r="14.59"/><circle class="g" cx="99.03" cy="98.91" r="14.59"/><circle class="g" cx="14.59" cy="101.91" r="14.59"/><text class="e" transform="translate(48.69 20.43)"><tspan x="0" y="0">A</tspan></text><text class="d" transform="translate(16.31 68.01)"><tspan x="0" y="0">B</tspan></text><text class="d" transform="translate(79.72 65.19)"><tspan x="0" y="0">C</tspan></text><text class="d" transform="translate(8.35 109.14)"><tspan x="0" y="0">D</tspan></text><text class="d" transform="translate(91.1 105.6)"><tspan x="0" y="0">G</tspan></text><path class="h" d="M64.81,66.71c-5.18-5.18-13.56-5.18-18.73,0"/><polygon class="g" points="66.49 68.94 60.37 65.68 63.22 62.83 66.49 68.94"/></g></g></svg>