<?xml version="1.0" encoding="UTF-8"?><svg xmlns="http://www.w3.org/2000/svg" viewBox="0 0 113.62 118.93"><defs><style>.d,.e{fill:#fff;font-family:Helvetica-Bold, Helvetica;font-size:20.37px;}.f{fill:#a9a8a9;}.g{fill:#231f20;}.e{letter-spacing:-.04em;}.h{fill:none;stroke:#231f20;stroke-miterlimit:10;}</style></defs><g id="a"/><g id="b"><g id="c"><rect class="g" x="92.3" y="59.29" width="10.29" height="46.77" transform="translate(-16.54 24.9) rotate(-13.43)"/><rect class="g" x="36.67" y="61.15" width="10.29" height="46.77" transform="translate(-35.41 30.4) rotate(-28.65)"/><rect class="f" x="65.49" y="61.32" width="10.29" height="46.77" transform="translate(92.01 192.9) rotate(-151.35)"/><circle class="g" cx="56.06" cy="101.8" r="14.59"/><rect class="g" x="68.67" y="12.03" width="10.29" height="46.77" transform="translate(-7.94 39.73) rotate(-28.65)"/><rect class="g" x="30.85" y="14.03" width="10.29" height="46.77" transform="translate(49.64 87.51) rotate(-151.35)"/><rect class="g" x="10.36" y="62.6" width="10.29" height="46.77" transform="translate(10.61 173.22) rotate(-166.57)"/><circle class="g" cx="56.4" cy="14.59" r="14.59"/><circle class="g" cx="24.49" cy="61.55" r="14.59"/><circle class="g" cx="87.61" cy="58.2" r="14.59"/><circle class="g" cx="99.03" cy="101.91" r="14.59"/><circle class="g" cx="14.59" cy="101.91" r="14.59"/><text class="e" transform="translate(48.69 20.43)"><tspan x="0" y="0">A</tspan></text><text class="d" transform="translate(16.31 68.01)"><tspan x="0" y="0">B</tspan></text><text class="d" transform="translate(79.72 65.19)"><tspan x="0" y="0">C</tspan></text><text class="d" transform="translate(8.35 109.14)"><tspan x="0" y="0">D</tspan></text><text class="d" transform="translate(91.1 108.6)"><tspan x="0" y="0">F</tspan></text><text class="d" transform="translate(48.45 108.33)"><tspan x="0" y="0">E</tspan></text><path class="h" d="M64.94,68.83c-5.18-5.18-13.56-5.18-18.73,0"/><polygon class="g" points="66.61 71.06 60.49 67.8 63.34 64.95 66.61 71.06"/></g></g></svg>