<?xml version="1.0" encoding="UTF-8" standalone="no"?>
<svg
   xmlns:dc="http://purl.org/dc/elements/1.1/"
   xmlns:cc="http://creativecommons.org/ns#"
   xmlns:rdf="http://www.w3.org/1999/02/22-rdf-syntax-ns#"
   xmlns:svg="http://www.w3.org/2000/svg"
   xmlns="http://www.w3.org/2000/svg"
   id="svg933"
   version="1.1"
   viewBox="0 0 361.24445 359.0502"
   height="359.0502mm"
   width="361.24445mm">
  <defs
     id="defs927" />
  <metadata
     id="metadata930">
    <rdf:RDF>
      <cc:Work
         rdf:about="">
        <dc:format>image/svg+xml</dc:format>
        <dc:type
           rdf:resource="http://purl.org/dc/dcmitype/StillImage" />
        <dc:title></dc:title>
      </cc:Work>
    </rdf:RDF>
  </metadata>
  <g
     transform="translate(-19.705161,257.38819)"
     id="layer1">
    <path
       d="m 380.9496,-76.76597 c 0,-99.75497 -80.86725,-180.62222 -180.62222,-180.62222 -99.75497,0 -180.622219,80.86725 -180.622219,180.62222 0,90.15377 66.050935,164.87771 152.399999,178.42797 V -24.55486 h -45.86111 v -52.21111 h 45.86111 v -39.79334 c 0,-45.26844 26.96562,-70.27333 68.22369,-70.27333 19.76155,0 40.43186,3.52778 40.43186,3.52778 v 44.45 h -22.77604 c -22.43772,0 -29.43507,13.92308 -29.43507,28.20705 v 33.88184 h 50.09444 l -8.00805,52.21111 H 228.5496 V 101.662 c 86.34907,-13.55026 152.4,-88.2742 152.4,-178.42797"
       style="fill:#ffffff;fill-opacity:1;fill-rule:nonzero;stroke:none;stroke-width:0.0352777"
       id="path1508" />
  </g>
</svg>
