<?xml version="1.0" standalone="no"?>
<!DOCTYPE svg PUBLIC "-//W3C//DTD SVG 20010904//EN"
 "http://www.w3.org/TR/2001/REC-SVG-20010904/DTD/svg10.dtd">
<svg version="1.0" xmlns="http://www.w3.org/2000/svg"
 width="420.000000pt" height="420.000000pt" viewBox="0 0 420.000000 420.000000"
 preserveAspectRatio="xMidYMid meet">

<g transform="translate(0.000000,420.000000) scale(0.100000,-0.100000)"
fill="#74ac00" stroke="none">
<path d="M102 4179 c-26 -13 -55 -39 -70 -62 l-27 -41 -3 -1964 -2 -1965 21
-44 c13 -27 37 -55 62 -71 l41 -27 990 -3 c713 -2 1002 0 1031 8 34 10 182
153 1033 1003 776 776 996 1001 1007 1032 14 35 15 166 13 1036 l-3 995 -27
41 c-16 24 -44 49 -70 62 l-44 21 -1955 0 -1954 0 -43 -21z m3313 -1052 c113
-64 113 -240 0 -304 l-40 -23 -1275 0 -1275 0 -40 23 c-113 64 -113 240 0 304
l40 23 1275 0 1275 0 40 -23z m-1410 -1027 l0 -175 -591 0 -590 0 -42 28
c-126 83 -99 273 46 317 15 5 286 8 602 7 l575 -2 0 -175z m1665 -88 c0 -7
-722 -745 -1181 -1207 l-129 -130 0 673 0 672 655 0 c360 0 655 -4 655 -8z
m-1660 -787 l0 -175 -592 0 -593 0 -40 23 c-113 64 -113 240 0 304 l40 23 593
0 592 0 0 -175z"/>
</g>
</svg>
