<?xml version="1.0" encoding="UTF-8" standalone="no"?>
<svg
   xmlns:sketch="http://www.bohemiancoding.com/sketch/ns"
   xmlns:dc="http://purl.org/dc/elements/1.1/"
   xmlns:cc="http://creativecommons.org/ns#"
   xmlns:rdf="http://www.w3.org/1999/02/22-rdf-syntax-ns#"
   xmlns:svg="http://www.w3.org/2000/svg"
   xmlns="http://www.w3.org/2000/svg"
   id="svg65"
   version="1.1"
   viewBox="0 0 25 25"
   height="25"
   width="25">
  <metadata
     id="metadata69">
    <rdf:RDF>
      <cc:Work
         rdf:about="">
        <dc:format>image/svg+xml</dc:format>
        <dc:type
           rdf:resource="http://purl.org/dc/dcmitype/StillImage" />
        <dc:title>btn_google_dark_focus_ios</dc:title>
      </cc:Work>
    </rdf:RDF>
  </metadata>
  <!-- Generator: Sketch 3.3.3 (12081) - http://www.bohemiancoding.com/sketch -->
  <title
     id="title2">btn_google_dark_focus_ios</title>
  <desc
     id="desc4">Created with Sketch.</desc>
  <defs
     id="defs29">
    <filter
       id="filter-1"
       filterUnits="objectBoundingBox"
       height="2"
       width="2"
       y="-0.5"
       x="-0.5">
      <feOffset
         id="feOffset6"
         result="shadowOffsetOuter1"
         in="SourceAlpha"
         dy="1"
         dx="0" />
      <feGaussianBlur
         id="feGaussianBlur8"
         result="shadowBlurOuter1"
         in="shadowOffsetOuter1"
         stdDeviation="0.5" />
      <feColorMatrix
         id="feColorMatrix10"
         result="shadowMatrixOuter1"
         type="matrix"
         in="shadowBlurOuter1"
         values="0 0 0 0 0   0 0 0 0 0   0 0 0 0 0  0 0 0 0.168 0" />
      <feOffset
         id="feOffset12"
         result="shadowOffsetOuter2"
         in="SourceAlpha"
         dy="0"
         dx="0" />
      <feGaussianBlur
         id="feGaussianBlur14"
         result="shadowBlurOuter2"
         in="shadowOffsetOuter2"
         stdDeviation="0.5" />
      <feColorMatrix
         id="feColorMatrix16"
         result="shadowMatrixOuter2"
         type="matrix"
         in="shadowBlurOuter2"
         values="0 0 0 0 0   0 0 0 0 0   0 0 0 0 0  0 0 0 0.084 0" />
      <feMerge
         id="feMerge24">
        <feMergeNode
           id="feMergeNode18"
           in="shadowMatrixOuter1" />
        <feMergeNode
           id="feMergeNode20"
           in="shadowMatrixOuter2" />
        <feMergeNode
           id="feMergeNode22"
           in="SourceGraphic" />
      </feMerge>
    </filter>
    <rect
       rx="2"
       height="40"
       width="40"
       y="0"
       x="0"
       id="path-2" />
    <rect
       rx="1"
       height="38"
       width="38"
       y="5"
       x="5"
       id="path-3" />
  </defs>
  <g
     id="9-PATCH"
     sketch:type="MSArtboardGroup"
     transform="translate(-668,-240)"
     style="fill:none;fill-rule:evenodd;stroke:none;stroke-width:1" />
  <g
     transform="scale(1.3888889)"
     sketch:type="MSLayerGroup"
     id="logo_googleg_48dp"
     style="fill:none;fill-rule:evenodd;stroke:none;stroke-width:1">
    <path
       style="fill:#4285f4"
       sketch:type="MSShapeGroup"
       id="Shape"
       d="m 17.64,9.2045455 c 0,-0.6381819 -0.05727,-1.2518182 -0.163636,-1.8409091 H 9 V 10.845 h 4.843636 C 13.635,11.97 13.000909,12.923182 12.047727,13.561364 v 2.258182 h 2.908637 C 16.658182,14.252727 17.64,11.945455 17.64,9.2045455 Z" />
    <path
       style="fill:#34a853"
       sketch:type="MSShapeGroup"
       id="path53"
       d="m 9,18 c 2.43,0 4.467273,-0.805909 5.956364,-2.180454 L 12.047727,13.561364 C 11.241818,14.101364 10.210909,14.420455 9,14.420455 6.6559091,14.420455 4.6718182,12.837273 3.9640909,10.71 H 0.95727273 v 2.331818 C 2.4381818,15.983182 5.4818182,18 9,18 Z" />
    <path
       style="fill:#fbbc05"
       sketch:type="MSShapeGroup"
       id="path55"
       d="M 3.9640909,10.71 C 3.7840909,10.17 3.6818182,9.5931818 3.6818182,9 c 0,-0.5931818 0.1022727,-1.17 0.2822727,-1.71 V 4.9581818 H 0.95727273 C 0.34772727,6.1731818 0,7.5477273 0,9 c 0,1.452273 0.34772727,2.826818 0.95727273,4.041818 z" />
    <path
       style="fill:#ea4335"
       sketch:type="MSShapeGroup"
       id="path57"
       d="m 9,3.5795455 c 1.321364,0 2.507727,0.4540909 3.440455,1.3459091 L 15.021818,2.3440909 C 13.463182,0.89181818 11.425909,0 9,0 5.4818182,0 2.4381818,2.0168182 0.95727273,4.9581818 L 3.9640909,7.29 C 4.6718182,5.1627273 6.6559091,3.5795455 9,3.5795455 Z" />
    <path
       sketch:type="MSShapeGroup"
       id="path59"
       d="M 0,0 H 18 V 18 H 0 Z" />
  </g>
  <g
     transform="translate(6.9939021,-22)"
     sketch:type="MSLayerGroup"
     id="handles_square"
     style="fill:none;fill-rule:evenodd;stroke:none;stroke-width:1" />
</svg>
