<?xml version="1.0" encoding="utf-8"?>
<!-- Generator: Adobe Illustrator 19.0.0, SVG Export Plug-In . SVG Version: 6.00 Build 0)  -->
<svg version="1.1" id="Layer_1" xmlns="http://www.w3.org/2000/svg" xmlns:xlink="http://www.w3.org/1999/xlink" x="0px" y="0px"
	 viewBox="0 0 88.77 71.354" enable-background="new 0 0 88.77 71.354" xml:space="preserve">
<g id="XMLID_5_">
	<path fill="none" d="M18.628,52.886h-1.171c-0.565,0-1.021,0.477-1.021,1.067c0,0.591,0.456,1.069,1.021,1.069h1.171
		c0.564,0,1.02-0.477,1.02-1.069C19.648,53.363,19.192,52.886,18.628,52.886z"/>
	<path fill="none" d="M70.913,52.886h-1.172c-0.564,0-1.02,0.477-1.02,1.067c0,0.591,0.456,1.069,1.02,1.069h1.172
		c0.565,0,1.02-0.477,1.02-1.069C71.933,53.363,71.478,52.886,70.913,52.886z"/>
	<g id="XMLID_20_">
		<path id="XMLID_269_" fill="#73AB42" d="M73.859,51.563c-2.071-0.871-4.496-1.386-7.209-1.532
			c-1.076-0.057-2.148-0.085-3.209-0.085c-4.145,0-8.402,0.43-12.313,1.247c-0.833,0.175-1.673,0.401-2.518,0.63
			c-1.421,0.386-2.889,0.784-4.168,0.891c-1.394-0.107-2.864-0.506-4.284-0.891c-0.843-0.229-1.685-0.456-2.517-0.63
			c-3.911-0.817-8.168-1.247-12.313-1.247c-1.061,0-2.133,0.028-3.209,0.085c-2.714,0.146-5.137,0.661-7.209,1.532l-0.594,0.251
			l0.133,0.655c0.089,0.429,0.127,0.866,0.167,1.299c0.077,0.818,0.157,1.662,0.512,2.473c0.257,0.591,0.633,0.906,0.933,1.16
			c0.214,0.179,0.338,0.288,0.416,0.44c0.454,0.896,0.716,1.911,0.968,2.893c0.148,0.578,0.295,1.143,0.472,1.669
			c1.026,3.052,2.09,5.695,4.743,7.162c2.348,1.297,7.288,2.029,10.139,1.385c4.938-1.113,8.471-4.931,10.497-11.347
			c0.049-0.156,0.098-0.339,0.149-0.53c0.081-0.311,0.252-0.96,0.371-1.081c0.055-0.033,0.249-0.098,0.541-0.11
			c0.344,0.013,0.537,0.077,0.57,0.095c0.141,0.136,0.312,0.785,0.393,1.096c0.051,0.191,0.1,0.374,0.149,0.53
			c2.026,6.416,5.559,10.234,10.497,11.346c0.756,0.17,1.627,0.258,2.586,0.258c2.651,0,5.828-0.691,7.554-1.642
			c2.653-1.466,3.717-4.11,4.743-7.162c0.177-0.526,0.323-1.091,0.472-1.669c0.252-0.981,0.513-1.997,0.969-2.893
			c0.078-0.153,0.201-0.261,0.415-0.44c0.301-0.253,0.677-0.569,0.934-1.16c0.354-0.811,0.435-1.655,0.512-2.473
			c0.04-0.432,0.078-0.87,0.168-1.299l0.133-0.655L73.859,51.563z M18.628,55.021h-1.171c-0.565,0-1.021-0.477-1.021-1.069
			c0-0.589,0.456-1.067,1.021-1.067h1.171c0.564,0,1.02,0.477,1.02,1.067C19.648,54.544,19.192,55.021,18.628,55.021z
			 M38.479,61.343c-1.069,4.224-4.253,6.457-9.277,6.457c-2.118-0.01-4.471-0.606-5.597-1.418c-1.12-0.809-1.719-3.015-2.115-4.845
			c-0.855-3.981-0.384-5.538-0.026-6.114c0.771-1.238,3.663-2.071,7.195-2.071c0.515,0,1.021,0.018,1.503,0.054
			c0.948,0.069,1.877,0.142,2.791,0.244c2.777,0.307,5.11,1.282,5.669,2.372C39.137,57.021,39.084,58.96,38.479,61.343z
			 M67.28,61.536c-0.396,1.831-0.995,4.038-2.117,4.846c-1.124,0.813-3.476,1.408-5.662,1.418c-4.956,0-8.141-2.234-9.21-6.459
			c-0.605-2.381-0.658-4.32-0.144-5.319c0.56-1.09,2.892-2.065,5.672-2.372c0.913-0.103,1.84-0.176,2.788-0.244
			c0.481-0.036,0.983-0.053,1.498-0.053c3.537,0,6.431,0.833,7.201,2.072C67.663,55.999,68.135,57.556,67.28,61.536z M70.913,55.021
			h-1.172c-0.564,0-1.02-0.477-1.02-1.069c0-0.589,0.456-1.067,1.02-1.067h1.172c0.565,0,1.02,0.477,1.02,1.067
			C71.933,54.544,71.478,55.021,70.913,55.021z"/>
	</g>
	<g id="XMLID_15_">
		<path fill="#73AB42" d="M87.339,32.809c-0.764,0-1.432,0.7-1.432,1.5c0,3.3-2.577,6-5.727,6H67.294v-4.5
			c0-10.2-6.204-32.3-15.368-35.7c-0.382-0.1-0.859-0.1-1.241,0.1c-0.382,0.2-0.573,0.6-0.668,1c-0.477,2.9-2.864,5-5.632,5
			c-2.768,0-5.154-2.1-5.632-5c-0.095-0.4-0.286-0.8-0.668-1c-0.382-0.2-0.764-0.3-1.241-0.1c-9.163,3.4-15.368,25.6-15.368,35.7
			v4.5H8.591c-3.15,0-5.727-2.7-5.727-6c0-0.8-0.668-1.5-1.432-1.5S0,33.509,0,34.309c0,5,3.818,9,8.591,9H80.18
			c4.773,0,8.591-4,8.591-9C88.77,33.509,88.102,32.809,87.339,32.809z M36.367,3.609c1.241,3.4,4.391,5.7,8.018,5.7
			s6.777-2.3,8.018-5.7c6.873,3.1,11.454,23,12.027,30.7H24.436C24.913,26.609,29.59,6.709,36.367,3.609z M24.34,40.409v-3h40.09v3
			H24.34z"/>
	</g>
</g>
</svg>
