<?xml version="1.0" encoding="utf-8"?>
<!-- Generator: Adobe Illustrator 19.0.0, SVG Export Plug-In . SVG Version: 6.00 Build 0)  -->
<svg version="1.1" id="Layer_1" xmlns="http://www.w3.org/2000/svg" xmlns:xlink="http://www.w3.org/1999/xlink" x="0px" y="0px"
	 viewBox="0 0 255 247" enable-background="new 0 0 255 247" xml:space="preserve">
<g id="XMLID_1_">
	<circle id="XMLID_38_" fill="#EFEFEF" cx="127.5" cy="123.5" r="117.696"/>
	<g>
		
			<line id="XMLID_37_" fill="none" stroke="#74AC00" stroke-width="2" stroke-miterlimit="10" stroke-dasharray="10,6" x1="119.338" y1="50.779" x2="211.072" y2="109.593"/>
		
			<line id="XMLID_36_" fill="none" stroke="#74AC00" stroke-width="2" stroke-miterlimit="10" stroke-dasharray="10,6" x1="101.711" y1="49.173" x2="173.301" y2="141.129"/>
		<g>
			<g>
				<g id="mobile_1_">
					<g id="XMLID_177_">
						
							<path id="XMLID_178_" fill-rule="evenodd" clip-rule="evenodd" fill="#FFFFFF" stroke="#A8A8A8" stroke-width="2" stroke-miterlimit="10" d="
							M38.119,27.416h70.578c5.795,0,10.402,4.697,10.402,10.492v158.583c0,5.794-4.607,10.154-10.402,10.154H38.119
							c-5.794,0-10.306-4.228-10.306-10.022l0.009-158.665C27.822,32.163,32.325,27.416,38.119,27.416z"/>
					</g>
					<g id="XMLID_102_">
						<path id="XMLID_103_" fill-rule="evenodd" clip-rule="evenodd" fill="none" stroke="#C6C5C5" stroke-miterlimit="10" d="
							M73.456,184.02c3.246,0,5.877,2.631,5.877,5.877c0,3.246-2.631,5.877-5.877,5.877c-3.246,0-5.877-2.631-5.877-5.877
							C67.579,186.652,70.21,184.02,73.456,184.02z"/>
					</g>
					<g id="XMLID_88_">
						<path id="XMLID_89_" fill-rule="evenodd" clip-rule="evenodd" fill="none" stroke="#C6C5C5" stroke-miterlimit="10" d="
							M33.577,50.833l79.695-0.028l0.062,124.217l-79.757-0.013V50.833z"/>
					</g>
					<g id="XMLID_31_">
						<g id="XMLID_72_">
							<path id="XMLID_73_" fill-rule="evenodd" clip-rule="evenodd" fill="#C6C5C5" d="M65.214,40.337h16.484
								c0.641,0,1.161,0.476,1.161,1.117s-0.52,0.986-1.161,0.986H65.214c-0.641,0-1.161-0.345-1.161-0.986
								S64.573,40.337,65.214,40.337z"/>
						</g>
						<g id="XMLID_34_">
							<path id="XMLID_39_" fill-rule="evenodd" clip-rule="evenodd" fill="#C6C5C5" d="M73.456,32.186
								c0.641,0,1.161,0.52,1.161,1.161c0,0.641-0.52,1.161-1.161,1.161s-1.161-0.52-1.161-1.161
								C72.295,32.706,72.815,32.186,73.456,32.186z"/>
						</g>
					</g>
				</g>
			</g>
		</g>
		<g>
			<g>
				
					<line id="XMLID_35_" fill="none" stroke="#9B9B9B" stroke-width="2" stroke-linecap="round" stroke-miterlimit="10" x1="207.82" y1="160.813" x2="207.82" y2="164.27"/>
				<path id="XMLID_33_" fill="#9B9B9B" d="M208.687,165.151h-1.629c-0.231,0-0.42-0.189-0.42-0.42l0,0
					c0-0.231,0.189-0.42,0.42-0.42h1.629c0.231,0,0.42,0.189,0.42,0.42l0,0C209.107,164.962,208.918,165.151,208.687,165.151z"/>
			</g>
			<g>
				
					<line id="XMLID_32_" fill="none" stroke="#9B9B9B" stroke-width="2" stroke-linecap="round" stroke-miterlimit="10" x1="204.313" y1="160.393" x2="204.313" y2="163.85"/>
				<path id="XMLID_30_" fill="#9B9B9B" d="M205.18,164.731h-1.629c-0.231,0-0.42-0.189-0.42-0.42l0,0c0-0.231,0.189-0.42,0.42-0.42
					h1.629c0.231,0,0.42,0.189,0.42,0.42l0,0C205.6,164.542,205.411,164.731,205.18,164.731z"/>
			</g>
			<g>
				
					<line id="XMLID_29_" fill="none" stroke="#9B9B9B" stroke-width="2" stroke-linecap="round" stroke-miterlimit="10" x1="217.898" y1="157.797" x2="217.898" y2="161.254"/>
				<path id="XMLID_28_" fill="#9B9B9B" d="M218.765,162.134h-1.629c-0.231,0-0.42-0.189-0.42-0.42l0,0
					c0-0.231,0.189-0.42,0.42-0.42h1.629c0.231,0,0.42,0.189,0.42,0.42l0,0C219.185,161.946,218.996,162.134,218.765,162.134z"/>
			</g>
			<g>
				
					<line id="XMLID_27_" fill="none" stroke="#9B9B9B" stroke-width="2" stroke-linecap="round" stroke-miterlimit="10" x1="214.392" y1="157.377" x2="214.392" y2="160.834"/>
				<path id="XMLID_26_" fill="#9B9B9B" d="M215.259,161.715h-1.629c-0.231,0-0.42-0.189-0.42-0.42l0,0
					c0-0.231,0.189-0.42,0.42-0.42h1.629c0.231,0,0.42,0.189,0.42,0.42l0,0C215.678,161.526,215.489,161.715,215.259,161.715z"/>
			</g>
			<g>
				
					<line id="XMLID_25_" fill="none" stroke="#9B9B9B" stroke-width="2" stroke-linecap="round" stroke-miterlimit="10" x1="224.894" y1="155.415" x2="224.894" y2="158.872"/>
				<path id="XMLID_24_" fill="#9B9B9B" d="M225.761,159.752h-1.629c-0.231,0-0.42-0.189-0.42-0.42l0,0
					c0-0.231,0.189-0.42,0.42-0.42h1.629c0.231,0,0.42,0.189,0.42,0.42l0,0C226.181,159.563,225.992,159.752,225.761,159.752z"/>
			</g>
			<g>
				
					<line id="XMLID_23_" fill="none" stroke="#9B9B9B" stroke-width="2" stroke-linecap="round" stroke-miterlimit="10" x1="221.874" y1="155.481" x2="221.874" y2="158.939"/>
				<path id="XMLID_22_" fill="#9B9B9B" d="M222.741,159.819h-1.629c-0.231,0-0.42-0.189-0.42-0.42l0,0
					c0-0.231,0.189-0.42,0.42-0.42h1.629c0.231,0,0.42,0.189,0.42,0.42l0,0C223.161,159.63,222.972,159.819,222.741,159.819z"/>
			</g>
			<g>
				
					<line id="XMLID_21_" fill="none" stroke="#9B9B9B" stroke-width="2" stroke-linecap="round" stroke-miterlimit="10" x1="198.399" y1="160.352" x2="198.399" y2="163.809"/>
				<path id="XMLID_20_" fill="#9B9B9B" d="M199.266,164.69h-1.629c-0.231,0-0.42-0.189-0.42-0.42l0,0c0-0.231,0.189-0.42,0.42-0.42
					h1.629c0.231,0,0.42,0.189,0.42,0.42l0,0C199.685,164.501,199.497,164.69,199.266,164.69z"/>
			</g>
			<g>
				
					<line id="XMLID_19_" fill="none" stroke="#9B9B9B" stroke-width="2" stroke-linecap="round" stroke-miterlimit="10" x1="194.892" y1="159.932" x2="194.892" y2="163.39"/>
				<path id="XMLID_18_" fill="#9B9B9B" d="M195.759,164.27h-1.629c-0.231,0-0.42-0.189-0.42-0.42l0,0c0-0.231,0.189-0.42,0.42-0.42
					h1.629c0.231,0,0.42,0.189,0.42,0.42l0,0C196.179,164.081,195.99,164.27,195.759,164.27z"/>
			</g>
			<g>
				
					<line id="XMLID_17_" fill="none" stroke="#9B9B9B" stroke-width="2" stroke-linecap="round" stroke-miterlimit="10" x1="187.604" y1="157.323" x2="187.604" y2="160.78"/>
				<path id="XMLID_16_" fill="#9B9B9B" d="M188.471,161.661h-1.629c-0.231,0-0.42-0.189-0.42-0.42l0,0
					c0-0.231,0.189-0.42,0.42-0.42h1.629c0.231,0,0.42,0.189,0.42,0.42l0,0C188.89,161.472,188.701,161.661,188.471,161.661z"/>
			</g>
			<g>
				
					<line id="XMLID_15_" fill="none" stroke="#9B9B9B" stroke-width="2" stroke-linecap="round" stroke-miterlimit="10" x1="184.097" y1="156.903" x2="184.097" y2="160.361"/>
				<path id="XMLID_14_" fill="#9B9B9B" d="M184.964,161.241h-1.629c-0.231,0-0.42-0.189-0.42-0.42l0,0
					c0-0.231,0.189-0.42,0.42-0.42h1.629c0.231,0,0.42,0.189,0.42,0.42l0,0C185.384,161.052,185.195,161.241,184.964,161.241z"/>
			</g>
			<g>
				
					<line id="XMLID_13_" fill="none" stroke="#9B9B9B" stroke-width="2" stroke-linecap="round" stroke-miterlimit="10" x1="205.548" y1="134.739" x2="205.548" y2="138.196"/>
				<path id="XMLID_12_" fill="#9B9B9B" d="M206.415,139.076h-1.629c-0.231,0-0.42-0.189-0.42-0.42l0,0
					c0-0.231,0.189-0.42,0.42-0.42h1.629c0.231,0,0.42,0.189,0.42,0.42l0,0C206.834,138.888,206.645,139.076,206.415,139.076z"/>
			</g>
			<g>
				
					<line id="XMLID_11_" fill="none" stroke="#9B9B9B" stroke-width="2" stroke-linecap="round" stroke-miterlimit="10" x1="202.041" y1="135.292" x2="202.041" y2="138.749"/>
				<path id="XMLID_10_" fill="#9B9B9B" d="M202.908,139.63h-1.629c-0.231,0-0.42-0.189-0.42-0.42l0,0c0-0.231,0.189-0.42,0.42-0.42
					h1.629c0.231,0,0.42,0.189,0.42,0.42l0,0C203.328,139.441,203.139,139.63,202.908,139.63z"/>
			</g>
			<g>
				
					<line id="XMLID_9_" fill="none" stroke="#9B9B9B" stroke-width="2" stroke-linecap="round" stroke-miterlimit="10" x1="197.95" y1="138.092" x2="197.95" y2="141.549"/>
				<path id="XMLID_8_" fill="#9B9B9B" d="M198.817,142.43h-1.629c-0.231,0-0.42-0.189-0.42-0.42l0,0c0-0.231,0.189-0.42,0.42-0.42
					h1.629c0.231,0,0.42,0.189,0.42,0.42l0,0C199.237,142.241,199.048,142.43,198.817,142.43z"/>
			</g>
			<g>
				
					<line id="XMLID_7_" fill="none" stroke="#9B9B9B" stroke-width="2" stroke-linecap="round" stroke-miterlimit="10" x1="194.444" y1="137.672" x2="194.444" y2="141.129"/>
				<path id="XMLID_6_" fill="#9B9B9B" d="M195.311,142.01h-1.629c-0.231,0-0.42-0.189-0.42-0.42l0,0c0-0.231,0.189-0.42,0.42-0.42
					h1.629c0.231,0,0.42,0.189,0.42,0.42l0,0C195.73,141.821,195.542,142.01,195.311,142.01z"/>
			</g>
			<path id="XMLID_5_" fill="none" stroke="#9B9B9B" stroke-width="2" stroke-linecap="round" stroke-miterlimit="10" d="
				M212.987,123.76c0-5.525,3.473-9.996,7.766-9.996"/>
			<path id="XMLID_4_" fill="none" stroke="#9B9B9B" stroke-width="2" stroke-linecap="round" stroke-miterlimit="10" d="
				M211.537,124.393c-1.476-5.324,0.677-10.56,4.814-11.707"/>
			<path id="XMLID_3_" fill="#FFFFFF" stroke="#9B9B9B" stroke-width="2" stroke-miterlimit="10" d="M227.107,153.164l-0.083-0.434
				c-0.479-2.519-2.932-4.187-5.45-3.708l-0.345,0.066c-0.818,0.156-1.498,0.616-1.969,1.233c-1.005-0.842-2.31-1.332-3.715-1.272
				l-0.409,0.018c-1.36,0.058-2.519,0.838-3.146,1.948c-1.258-1.252-3.008-2.003-4.911-1.922l-0.495,0.021
				c-1.272,0.054-2.404,0.628-3.202,1.505c-1.028-1.511-2.76-2.508-4.715-2.508c-1.651,0-3.172,0.581-4.375,1.544
				c-0.462-1.259-1.364-2.346-2.581-3.023c-0.147-0.427-0.337-0.84-0.601-1.221c0.212-0.12,0.419-0.252,0.621-0.396l0.44-0.313
				c1.069-0.762,1.734-1.877,1.981-3.076h0.367c2.424,0,4.458-1.742,4.919-4.035c1.216,0.431,2.567,0.515,3.901,0.157l0.48-0.129
				c1.797-0.482,3.056-1.979,3.35-3.709c0.564,0.195,1.173,0.283,1.803,0.236h0c3.064-0.228,5.384-2.922,5.156-5.986l-0.04-0.538
				c-0.233-3.125-2.981-5.492-6.106-5.259l-0.428,0.032c-1.727,0.129-3.107,1.36-3.539,2.946c-1.229-0.856-2.799-1.208-4.351-0.792
				h0c-1.559,0.418-2.83,1.384-3.672,2.631c-0.665-0.274-1.391-0.427-2.152-0.427h0c-3.249,0-5.994,2.238-6.788,5.247
				c-1.388-0.188-2.845,0.114-4.068,0.987c-2.628,1.874-3.568,5.257-2.503,8.155c-0.433,0.268-0.847,0.574-1.207,0.967
				c-2.612,2.848-2.419,7.315,0.429,9.928l0.5,0.459c0.332,0.304,0.687,0.566,1.056,0.796c-0.104,3.055,1.773,5.971,4.802,7.026
				l0.51,0.178c2.127,0.741,4.414-0.064,5.685-1.795c1.116,2.516,3.636,4.284,6.553,4.284h0.54c1.728,0,3.259-0.886,4.163-2.226
				c1.009,1.248,2.563,2.034,4.28,1.96c2.35-0.1,4.356-1.468,5.4-3.41c0.799,0.667,1.828,1.063,2.944,1.016
				c1.848-0.079,3.44-1.104,4.335-2.584c0.818,0.657,1.898,0.98,3.003,0.769C225.94,158.038,227.576,155.633,227.107,153.164z"/>
		</g>
		<path id="XMLID_2_" fill="#74AC00" d="M101.291,134.149c0.001-0.02,0.012-0.037,0.012-0.058v-1.937
			c1.249-1.245,1.884-3.067,1.531-4.92l-0.099-0.521c-0.576-3.026-3.522-5.03-6.548-4.455l-0.414,0.079
			c-0.983,0.187-1.8,0.74-2.366,1.481c-1.208-1.012-2.774-1.601-4.463-1.528l-0.492,0.021c-1.634,0.07-3.026,1.007-3.78,2.34
			c-1.511-1.504-3.614-2.407-5.899-2.309l-0.594,0.025c-1.498,0.064-2.834,0.728-3.79,1.748c-1.194-1.777-3.222-2.952-5.512-2.952
			H68.41c-1.866,0-3.586,0.64-4.966,1.701c-0.56-1.457-1.628-2.706-3.061-3.474c-0.183-0.52-0.416-1.025-0.748-1.484
			c0.164-0.1,0.328-0.198,0.487-0.311l0.892-0.636c1.108-0.79,1.852-1.904,2.206-3.124h0.036c0.109,0.035,0.219,0.068,0.339,0.068
			s0.23-0.034,0.339-0.068h0.738c0.258,0,0.469-0.211,0.469-0.469v-0.071c0-0.023-0.01-0.043-0.013-0.066
			c0.55-0.122,1.073-0.32,1.554-0.587v0.639c0,0.029,0.014,0.053,0.016,0.081c-0.179,0.066-0.31,0.235-0.31,0.436v0.071
			c0,0.258,0.211,0.469,0.469,0.469h0.608c0.11,0.036,0.221,0.069,0.343,0.069s0.233-0.034,0.343-0.069h0.734
			c0.258,0,0.469-0.211,0.469-0.469v-0.071c0-0.244-0.191-0.44-0.43-0.461c0.001-0.02,0.011-0.037,0.011-0.057v-2.859
			c0.317-0.55,0.547-1.153,0.671-1.795c0.637,0.216,1.306,0.346,1.989,0.388v0.902c0,0.029,0.014,0.053,0.016,0.081
			c-0.179,0.066-0.31,0.235-0.31,0.436v0.071c0,0.258,0.211,0.469,0.469,0.469h0.608c0.11,0.036,0.221,0.069,0.343,0.069
			s0.233-0.034,0.343-0.069h0.734c0.258,0,0.469-0.211,0.469-0.469v-0.071c0-0.244-0.191-0.44-0.43-0.461
			c0.001-0.02,0.011-0.037,0.011-0.057v-1.1c0.066-0.016,0.132-0.025,0.198-0.042l0.974-0.261c0.275-0.074,0.535-0.173,0.787-0.286
			v1.024c0,0.029,0.014,0.053,0.017,0.082c-0.179,0.066-0.31,0.235-0.31,0.436v0.071c0,0.258,0.211,0.469,0.469,0.469h0.612
			c0.109,0.035,0.219,0.068,0.34,0.068s0.231-0.034,0.34-0.068h0.737c0.258,0,0.469-0.211,0.469-0.469v-0.071
			c0-0.244-0.191-0.44-0.431-0.461c0.001-0.02,0.012-0.037,0.012-0.057v-2.905c0.444-0.651,0.745-1.396,0.874-2.182
			c0.614,0.192,1.268,0.284,1.946,0.233l0.37-0.028c3.568-0.266,6.271-3.403,6.005-6.972l-0.079-1.059
			c-0.092-1.24-0.531-2.373-1.205-3.323c0.573-0.053,1.026-0.519,1.026-1.106c0-5.999,3.68-10.881,8.203-10.881
			c0.622,0,1.127-0.504,1.127-1.127s-0.504-1.127-1.127-1.127c-5.358,0-9.783,5.092-10.381,11.626
			c-0.29-2.195-0.052-4.349,0.716-6.216c0.957-2.326,2.618-3.921,4.679-4.492c0.6-0.166,0.951-0.787,0.785-1.386
			s-0.788-0.948-1.387-0.786c-2.746,0.76-4.934,2.823-6.161,5.807c-0.896,2.177-1.195,4.663-0.892,7.184
			c-0.784-0.25-1.625-0.362-2.493-0.298l-0.868,0.065c-1.999,0.149-3.601,1.566-4.114,3.397c-1.424-0.973-3.246-1.349-5.032-0.87
			l-0.415,0.111c-1.795,0.482-3.263,1.585-4.244,3.013c-0.723-0.272-1.501-0.427-2.315-0.427h-0.467
			c-3.817,0-7.036,2.652-7.929,6.202c-1.6-0.203-3.276,0.161-4.685,1.166l-0.38,0.271c-3.095,2.207-4.18,6.212-2.871,9.612
			c-0.443,0.292-0.861,0.635-1.234,1.042l-0.315,0.344c-3.042,3.317-2.818,8.52,0.499,11.562l0.984,0.903
			c0.321,0.295,0.664,0.55,1.017,0.784c-0.126,2.335,0.745,4.609,2.343,6.267v2.222c0,0.029,0.014,0.054,0.017,0.082
			c-0.179,0.066-0.31,0.235-0.31,0.436v0.071c0,0.258,0.211,0.469,0.469,0.469h0.612c0.109,0.035,0.219,0.068,0.34,0.068
			s0.231-0.034,0.34-0.068h0.738c0.258,0,0.469-0.211,0.469-0.469v-0.071c0-0.244-0.192-0.441-0.431-0.461
			c0.001-0.02,0.012-0.037,0.012-0.057v-0.565c0.316,0.158,0.641,0.305,0.983,0.424l0.976,0.34v0.305
			c0,0.029,0.014,0.054,0.017,0.082c-0.179,0.066-0.31,0.235-0.31,0.436v0.071c0,0.258,0.211,0.469,0.469,0.469h0.613
			c0.108,0.035,0.218,0.068,0.338,0.068s0.23-0.034,0.338-0.068h0.739c0.258,0,0.469-0.211,0.469-0.469v-0.071
			c0-0.244-0.192-0.441-0.431-0.461c0.001-0.01,0.006-0.019,0.006-0.029c1.749-0.085,3.396-0.953,4.443-2.373
			c0.482,1.087,1.192,2.05,2.065,2.836v2.643c0,0.029,0.014,0.054,0.017,0.082c-0.18,0.066-0.31,0.235-0.31,0.436v0.071
			c0,0.258,0.211,0.469,0.469,0.469h0.613c0.108,0.035,0.218,0.068,0.338,0.068c0.12,0,0.23-0.034,0.338-0.068h0.739
			c0.258,0,0.469-0.211,0.469-0.469v-0.071c0-0.244-0.191-0.44-0.431-0.461c0.001-0.02,0.012-0.037,0.012-0.058v-1.183
			c0.618,0.27,1.276,0.46,1.959,0.573v1.115c0,0.029,0.014,0.053,0.016,0.081c-0.179,0.066-0.31,0.235-0.31,0.436v0.071
			c0,0.258,0.211,0.469,0.469,0.469h0.609c0.11,0.036,0.221,0.069,0.342,0.069s0.233-0.034,0.342-0.069h0.735
			c0.258,0,0.469-0.211,0.469-0.469v-0.071c0-0.244-0.191-0.44-0.43-0.461c0.001-0.02,0.011-0.037,0.011-0.057v-0.994h0.196
			c1.897,0,3.586-0.92,4.656-2.332v3.376c0,0.029,0.014,0.053,0.016,0.082c-0.179,0.066-0.31,0.235-0.31,0.436v0.071
			c0,0.258,0.211,0.469,0.469,0.469h0.609c0.109,0.035,0.221,0.069,0.342,0.069s0.232-0.034,0.342-0.069h0.735
			c0.258,0,0.469-0.211,0.469-0.469v-0.071c0-0.244-0.191-0.44-0.431-0.461c0.001-0.02,0.012-0.037,0.012-0.057v-2.013
			c0.606,0.302,1.267,0.504,1.959,0.596v1.922c0,0.029,0.014,0.053,0.017,0.082c-0.179,0.066-0.31,0.235-0.31,0.436v0.071
			c0,0.258,0.211,0.469,0.469,0.469h0.611c0.109,0.035,0.22,0.069,0.34,0.069c0.121,0,0.231-0.034,0.34-0.069h0.737
			c0.258,0,0.469-0.211,0.469-0.469v-0.071c0-0.244-0.191-0.44-0.431-0.461c0.001-0.02,0.012-0.037,0.012-0.057v-2.015
			c2.315-0.457,4.247-1.944,5.324-3.948c0.102,0.085,0.209,0.163,0.318,0.24v1.595c0,0.029,0.014,0.053,0.017,0.082
			c-0.18,0.066-0.31,0.235-0.31,0.436v0.071c0,0.258,0.211,0.469,0.469,0.469h0.612c0.109,0.035,0.219,0.068,0.339,0.068
			c0.12,0,0.231-0.034,0.339-0.068h0.738c0.258,0,0.469-0.211,0.469-0.469v-0.071c0-0.244-0.191-0.44-0.431-0.461
			c0.001-0.02,0.012-0.037,0.012-0.058v-0.672c0.315,0.046,0.636,0.071,0.965,0.057h0c0.34-0.015,0.67-0.063,0.994-0.129v1.249
			c0,0.029,0.014,0.053,0.016,0.081c-0.18,0.066-0.31,0.235-0.31,0.436v0.071c0,0.258,0.211,0.469,0.469,0.469h0.608
			c0.11,0.036,0.221,0.069,0.343,0.069s0.233-0.034,0.343-0.069h0.734c0.258,0,0.469-0.211,0.469-0.469v-0.071
			c0-0.244-0.191-0.44-0.43-0.461c0.001-0.02,0.011-0.037,0.011-0.057v-2.183c0.796-0.528,1.469-1.224,1.962-2.039
			c0.178,0.142,0.363,0.27,0.56,0.384v1.056c0,0.029,0.014,0.054,0.017,0.082c-0.179,0.066-0.31,0.235-0.31,0.436v0.071
			c0,0.258,0.211,0.469,0.469,0.469h0.613c0.108,0.035,0.218,0.068,0.338,0.068s0.23-0.034,0.338-0.068h0.739
			c0.258,0,0.469-0.211,0.469-0.469v-0.071c0-0.244-0.192-0.441-0.431-0.461c0.001-0.02,0.012-0.037,0.012-0.058v-0.449
			c0.262-0.002,0.526-0.018,0.792-0.069c0.199-0.038,0.393-0.088,0.583-0.146v0.584c0,0.029,0.014,0.054,0.017,0.082
			c-0.18,0.066-0.31,0.235-0.31,0.436v0.071c0,0.258,0.211,0.469,0.469,0.469h0.613c0.108,0.035,0.218,0.068,0.338,0.068
			s0.23-0.034,0.338-0.068h0.739c0.258,0,0.469-0.211,0.469-0.469v-0.071C101.721,134.365,101.53,134.169,101.291,134.149z"/>
	</g>
</g>
</svg>
