<?xml version="1.0" encoding="utf-8"?>
<!-- Generator: Adobe Illustrator 19.0.0, SVG Export Plug-In . SVG Version: 6.00 Build 0)  -->
<svg version="1.1" id="Layer_1" xmlns="http://www.w3.org/2000/svg" xmlns:xlink="http://www.w3.org/1999/xlink" x="0px" y="0px"
	 viewBox="0 0 82 78" enable-background="new 0 0 82 78" xml:space="preserve">
<g id="XMLID_1649_">
	<path id="XMLID_1764_" fill="#FFFFFF" d="M40.3,9.506l0.233-0.212c1.142-1.036,1.795-2.513,1.795-4.053s-0.653-3.018-1.795-4.053
		L40.3,0.974l-0.234,0.213C38.925,2.222,38.27,3.7,38.27,5.24s0.655,3.017,1.796,4.053L40.3,9.506z"/>
	<path id="XMLID_1763_" fill="#FFFFFF" d="M26.737,15.552l0.314,0.036l0.067-0.308c0.325-1.506,0-3.088-0.895-4.342
		c-0.896-1.253-2.285-2.074-3.817-2.255l-0.314-0.037l-0.066,0.308c-0.327,1.506,0,3.088,0.893,4.342
		C23.816,14.55,25.207,15.373,26.737,15.552z"/>
	<path id="XMLID_1762_" fill="#FFFFFF" d="M10.966,22.143c0.848,0.505,1.815,0.773,2.797,0.773c0.544,0,1.083-0.082,1.605-0.24
		l0.301-0.093l-0.061-0.307c-0.307-1.512-1.242-2.829-2.565-3.618c-1.317-0.784-2.938-0.978-4.402-0.533l-0.302,0.092l0.063,0.309
		C8.709,20.037,9.644,21.355,10.966,22.143z"/>
	<path id="XMLID_1761_" fill="#FFFFFF" d="M6.627,31.585c0.527,0.118,1.065,0.16,1.6,0.12l0,0c0.985-0.073,1.935-0.414,2.748-0.984
		l0.258-0.183l-0.156-0.275c-0.761-1.34-2.059-2.301-3.563-2.639c-1.5-0.337-3.095-0.017-4.348,0.867l-0.257,0.181l0.155,0.275
		C3.824,30.286,5.123,31.248,6.627,31.585z"/>
	<path id="XMLID_1760_" fill="#FFFFFF" d="M12.576,41.155l-0.241-0.203c-1.182-0.991-2.729-1.438-4.26-1.231
		c-1.527,0.206-2.902,1.055-3.775,2.326l-0.178,0.261l0.242,0.202c1.043,0.876,2.366,1.331,3.723,1.278
		c0.178-0.007,0.358-0.022,0.535-0.047c1.526-0.207,2.901-1.055,3.775-2.326L12.576,41.155z"/>
	<path id="XMLID_1759_" fill="#FFFFFF" d="M23.524,48.71c-1.319,0.795-2.246,2.119-2.545,3.631l-0.061,0.311l0.303,0.09
		c0.845,0.253,1.747,0.299,2.608,0.132l0,0c0.632-0.121,1.235-0.352,1.791-0.688c1.319-0.794,2.247-2.119,2.545-3.631l0.062-0.311
		l-0.303-0.09C26.458,47.717,24.838,47.92,23.524,48.71z"/>
	<path id="XMLID_1758_" fill="#FFFFFF" d="M39.583,26.718l-0.253-0.122l-0.144,0.24c-0.979,1.618-1.232,3.586-0.691,5.398
		c0.54,1.811,1.828,3.32,3.533,4.139l0.253,0.121l0.144-0.24c0.978-1.617,1.232-3.585,0.69-5.397
		C42.576,29.045,41.289,27.537,39.583,26.718z"/>
	<path id="XMLID_1757_" fill="#FFFFFF" d="M41.839,13.717l-0.144-0.234l-0.245,0.121c-1.664,0.822-2.912,2.314-3.423,4.098
		c-0.51,1.783-0.243,3.71,0.735,5.287l0.144,0.236l0.245-0.123c1.665-0.821,2.912-2.313,3.423-4.097
		C43.084,17.222,42.816,15.295,41.839,13.717z"/>
	<path id="XMLID_1756_" fill="#FFFFFF" d="M32.272,40.728c0.867-0.069,1.714-0.259,2.517-0.566l0.307-0.118L35,39.766
		c-0.657-1.871-2.197-3.405-4.227-4.207c-2.018-0.799-4.398-0.8-6.451-0.016l-0.307,0.117l0.097,0.276
		c0.657,1.872,2.197,3.407,4.226,4.208C29.564,40.633,30.925,40.834,32.272,40.728L32.272,40.728z"/>
	<path id="XMLID_1755_" fill="#FFFFFF" d="M20.772,45.83c0.107-0.006,0.215-0.013,0.324-0.025c1.898-0.188,3.639-1.175,4.776-2.708
		l0.189-0.253l-0.235-0.212c-1.426-1.289-3.28-1.907-5.215-1.717c-1.898,0.189-3.639,1.175-4.776,2.708l-0.188,0.253l0.233,0.212
		C17.227,45.305,18.964,45.922,20.772,45.83L20.772,45.83z"/>
	<path id="XMLID_1754_" fill="#FFFFFF" d="M23.366,30.895l0.284-0.134l-0.106-0.298c-0.645-1.796-2.024-3.246-3.786-3.976
		c-1.353-0.562-2.819-0.672-4.236-0.316c-0.429,0.107-0.852,0.258-1.252,0.448l-0.285,0.133l0.105,0.297
		c0.645,1.795,2.024,3.246,3.785,3.978c1.355,0.562,2.82,0.67,4.237,0.316C22.542,31.234,22.963,31.084,23.366,30.895z"/>
	<path id="XMLID_1746_" fill="#FFFFFF" d="M20.073,36.76l0.224-0.21l-0.188-0.243c-1.137-1.475-2.852-2.407-4.705-2.557
		c-1.423-0.116-2.818,0.222-4.026,0.975c-0.367,0.229-0.714,0.495-1.03,0.79l-0.223,0.211l0.187,0.243
		c1.135,1.474,2.851,2.408,4.706,2.558c1.423,0.116,2.815-0.222,4.026-0.976C19.411,37.322,19.758,37.056,20.073,36.76z"/>
	<path id="XMLID_1744_" fill="#FFFFFF" d="M19.822,21.325c1.231,1.093,2.814,1.702,4.457,1.713c0.001,0,0.001,0,0.001,0
		c0.254,0.003,0.515-0.011,0.768-0.038l0.314-0.034l-0.004-0.315c-0.019-1.909-0.847-3.73-2.272-4.998
		c-1.231-1.094-2.814-1.704-4.459-1.715c-0.255-0.002-0.514,0.012-0.767,0.038l-0.314,0.034l0.003,0.315
		C17.567,18.233,18.395,20.055,19.822,21.325z"/>
	<path id="XMLID_1743_" fill="#FFFFFF" d="M34.245,16.944l0.267,0.165l0.193-0.242c1.17-1.461,1.651-3.342,1.32-5.161
		c-0.331-1.821-1.446-3.429-3.059-4.416l-0.267-0.163l-0.193,0.24c-1.169,1.461-1.651,3.342-1.321,5.162
		C31.515,14.35,32.63,15.958,34.245,16.944z"/>
	<path id="XMLID_1741_" fill="#FFFFFF" d="M26.713,26.947l-0.281,0.033l0.007,0.237c0.055,1.596,0.916,3.1,2.367,4.126
		c1.4,0.988,3.182,1.449,5.019,1.296l0,0c0.085-0.007,0.169-0.016,0.253-0.023l0.281-0.034l-0.009-0.237
		c-0.052-1.597-0.915-3.101-2.365-4.125C30.52,27.185,28.623,26.733,26.713,26.947z"/>
	<path id="XMLID_1740_" fill="#FFFFFF" d="M28.61,18.205l-0.264-0.027l-0.041,0.216c-0.28,1.47,0.199,3.022,1.314,4.257
		c1.076,1.191,2.608,1.977,4.321,2.215l0,0c0.077,0.012,0.156,0.02,0.236,0.028l0.263,0.029l0.042-0.218
		c0.279-1.469-0.2-3.021-1.315-4.257C32.039,19.206,30.399,18.403,28.61,18.205z"/>
	<path id="XMLID_1739_" fill="#FFFFFF" d="M55.26,15.552l-0.313,0.036l-0.066-0.308c-0.328-1.506,0-3.088,0.894-4.342
		c0.896-1.253,2.285-2.074,3.816-2.255l0.314-0.037l0.066,0.308c0.327,1.506,0.001,3.088-0.894,4.342
		C58.181,14.55,56.791,15.373,55.26,15.552z"/>
	<path id="XMLID_1738_" fill="#FFFFFF" d="M71.032,22.143c-0.847,0.505-1.815,0.773-2.798,0.773c-0.543,0-1.083-0.082-1.605-0.24
		l-0.3-0.093l0.062-0.307c0.306-1.512,1.241-2.829,2.565-3.618c1.315-0.784,2.936-0.978,4.401-0.533l0.302,0.092l-0.063,0.309
		C73.291,20.037,72.355,21.355,71.032,22.143z"/>
	<path id="XMLID_1737_" fill="#FFFFFF" d="M75.372,31.585c-0.527,0.118-1.066,0.16-1.6,0.12l0,0
		c-0.986-0.073-1.936-0.414-2.75-0.984l-0.258-0.183l0.157-0.275c0.762-1.34,2.06-2.301,3.563-2.639
		c1.499-0.337,3.094-0.017,4.347,0.867l0.259,0.181l-0.157,0.275C78.173,30.286,76.876,31.248,75.372,31.585z"/>
	<path id="XMLID_1736_" fill="#FFFFFF" d="M69.423,41.155l0.241-0.203c1.181-0.991,2.729-1.438,4.26-1.231
		c1.526,0.206,2.9,1.055,3.774,2.326l0.178,0.261l-0.241,0.202c-1.045,0.876-2.366,1.331-3.724,1.278
		c-0.177-0.007-0.358-0.022-0.535-0.047c-1.527-0.207-2.902-1.055-3.776-2.326L69.423,41.155z"/>
	<path id="XMLID_1735_" fill="#FFFFFF" d="M58.475,48.71c1.318,0.795,2.246,2.119,2.543,3.631l0.061,0.311l-0.302,0.09
		c-0.845,0.253-1.747,0.299-2.609,0.132l0,0c-0.633-0.121-1.234-0.352-1.789-0.688c-1.32-0.794-2.247-2.119-2.547-3.631
		l-0.061-0.311l0.303-0.09C55.54,47.717,57.161,47.92,58.475,48.71z"/>
	<path id="XMLID_1733_" fill="#FFFFFF" d="M49.725,40.728c-0.866-0.069-1.712-0.259-2.516-0.566l-0.307-0.118l0.097-0.277
		c0.657-1.871,2.197-3.405,4.226-4.207c2.018-0.799,4.399-0.8,6.45-0.016l0.307,0.117l-0.096,0.276
		c-0.657,1.872-2.197,3.407-4.226,4.208C52.435,40.633,51.073,40.834,49.725,40.728L49.725,40.728z"/>
	<path id="XMLID_1731_" fill="#FFFFFF" d="M61.226,45.83c-0.107-0.006-0.216-0.013-0.324-0.025
		c-1.898-0.188-3.639-1.175-4.776-2.708l-0.189-0.253l0.234-0.212c1.428-1.289,3.281-1.907,5.217-1.717
		c1.898,0.189,3.638,1.175,4.776,2.708l0.188,0.253l-0.234,0.212C64.771,45.305,63.035,45.922,61.226,45.83
		C61.227,45.83,61.227,45.83,61.226,45.83z"/>
	<path id="XMLID_1730_" fill="#FFFFFF" d="M58.634,30.895l-0.284-0.134l0.105-0.298c0.646-1.796,2.024-3.246,3.785-3.976
		c1.354-0.562,2.82-0.672,4.236-0.316c0.431,0.107,0.852,0.258,1.254,0.448l0.284,0.133l-0.105,0.297
		c-0.644,1.795-2.023,3.246-3.786,3.978c-1.353,0.562-2.819,0.67-4.235,0.316C59.457,31.234,59.035,31.084,58.634,30.895z"/>
	<path id="XMLID_1671_" fill="#FFFFFF" d="M61.924,36.76l-0.222-0.21l0.187-0.243c1.136-1.475,2.852-2.407,4.706-2.557
		c1.423-0.116,2.816,0.222,4.026,0.975c0.366,0.229,0.712,0.495,1.029,0.79l0.224,0.211l-0.188,0.243
		c-1.135,1.474-2.851,2.408-4.705,2.558c-1.424,0.116-2.816-0.222-4.027-0.976C62.588,37.322,62.24,37.056,61.924,36.76z"/>
	<path id="XMLID_1670_" fill="#FFFFFF" d="M62.177,21.325c-1.231,1.093-2.814,1.702-4.457,1.713l0,0
		c-0.258,0.003-0.516-0.011-0.77-0.038l-0.315-0.034l0.004-0.315c0.02-1.909,0.848-3.73,2.273-4.998
		c1.231-1.094,2.814-1.704,4.459-1.715c0.256-0.002,0.514,0.012,0.768,0.038l0.314,0.034l-0.004,0.315
		C64.431,18.233,63.602,20.055,62.177,21.325z"/>
	<path id="XMLID_1667_" fill="#FFFFFF" d="M47.754,16.944l-0.267,0.165l-0.193-0.242c-1.17-1.461-1.651-3.342-1.32-5.161
		c0.331-1.821,1.446-3.429,3.058-4.416L49.3,7.128l0.193,0.24c1.169,1.461,1.65,3.342,1.32,5.162
		C50.484,14.35,49.367,15.958,47.754,16.944z"/>
	<path id="XMLID_1666_" fill="#FFFFFF" d="M55.286,26.947l0.281,0.033l-0.007,0.237c-0.055,1.596-0.916,3.1-2.368,4.126
		c-1.399,0.988-3.181,1.449-5.017,1.296l0,0c-0.087-0.007-0.17-0.016-0.255-0.023l-0.28-0.034l0.008-0.237
		c0.054-1.597,0.916-3.101,2.366-4.125C51.477,27.185,53.375,26.733,55.286,26.947z"/>
	<path id="XMLID_1665_" fill="#FFFFFF" d="M52.11,19.062l0.289,0.005l0.017,0.24c0.111,1.631-0.612,3.249-1.984,4.439
		c-1.323,1.149-3.087,1.801-4.974,1.833l0,0c-0.085,0.001-0.173,0.001-0.26,0l-0.289-0.004l-0.018-0.24
		c-0.108-1.63,0.616-3.249,1.987-4.44C48.261,19.694,50.144,19.042,52.11,19.062z"/>
	<path id="XMLID_1656_" fill="#FFFFFF" d="M51.168,43.649c-0.143,0.026-0.305,0.078-0.472,0.144
		c-1.469,0.475-5.913,2.233-9.695,6.516c-3.784-4.283-8.228-6.04-9.695-6.516c-0.169-0.066-0.331-0.118-0.472-0.144
		c-0.635-0.235-1.471,1.094-0.674,1.643c2.744,1.809,5.414,4.023,6.246,8.326c0.509,2.633,0.424,6.18,0.354,9.558
		c-0.12,5.795-1.147,11.439-5.928,13.642c1.331,0.348,5.193,0.669,10.171-2.709c4.976,3.378,8.839,3.056,10.171,2.709
		c-4.783-2.202-5.811-7.847-5.93-13.642c-0.067-3.378-0.155-6.925,0.354-9.558c0.832-4.302,3.501-6.517,6.247-8.326
		C52.639,44.745,51.803,43.415,51.168,43.649z"/>
	<circle id="XMLID_1654_" fill="#FFFFFF" cx="41" cy="42.76" r="2.767"/>
</g>
</svg>
