<?xml version="1.0" encoding="utf-8"?>
<!-- Generator: Adobe Illustrator 19.0.0, SVG Export Plug-In . SVG Version: 6.00 Build 0)  -->
<svg version="1.1" id="Layer_1" xmlns="http://www.w3.org/2000/svg" xmlns:xlink="http://www.w3.org/1999/xlink" x="0px" y="0px"
	 viewBox="0 0 75 66" enable-background="new 0 0 75 66" xml:space="preserve">
<g id="XMLID_592_">
	<path id="XMLID_602_" fill="#74AC00" d="M51.83,15.607c-0.075-0.013-0.152-0.017-0.228-0.028L51.293,4.888
		c-0.062-2.102-1.546-3.882-3.529-4.232c-0.944-0.167-1.89,0.004-2.737,0.495L41.72,3.153c-6.994,4.398-10.187,6.404-18.696,6.674
		l-11.746,0.371C5.21,10.392,0.422,15.72,0.606,22.078l0.171,5.926c0.154,5.365,3.928,9.906,8.974,10.798
		c0.699,0.123,1.416,0.174,2.129,0.152l0.504-0.016l1.207,21.782c0.305,1.539,1.164,2.861,2.419,3.722
		c0.66,0.453,1.388,0.75,2.143,0.884c0.682,0.12,1.385,0.108,2.081-0.042c1.468-0.321,2.73-1.221,3.551-2.536
		c0.822-1.316,1.106-2.886,0.805-4.397l0.14-19.79c7.69-0.105,11.309,1.751,18.179,5.497l1.844,1.003l1.564,0.781
		c0.361,0.18,0.74,0.306,1.128,0.374c1.243,0.219,2.508-0.158,3.469-1.035c0.953-0.871,1.478-2.133,1.44-3.464l-0.308-10.691
		c1.516-0.315,2.901-1.105,3.982-2.309c1.372-1.525,2.092-3.519,2.032-5.614C57.954,19.378,55.334,16.226,51.83,15.607z
		 M21.698,61.313c-0.457,0.731-1.157,1.23-1.973,1.408c-0.815,0.18-1.65,0.015-2.346-0.466c-0.697-0.479-1.174-1.212-1.357-2.126
		L14.834,38.86l7.447-0.236l-0.138,20.232C22.313,59.71,22.155,60.584,21.698,61.313z M23.777,35.961L11.805,36.34
		c-0.551,0.017-1.101-0.022-1.639-0.117c-3.876-0.685-6.775-4.174-6.895-8.3l-0.171-5.926c-0.142-4.914,3.561-9.036,8.253-9.185
		l11.746-0.371c1.24-0.039,2.375-0.121,3.44-0.237l0.687,23.778C26.15,35.934,25.02,35.922,23.777,35.961z M31.188,36.392
		c-0.475-0.084-0.964-0.151-1.46-0.211l-0.703-24.339c5.155-0.968,8.572-3.05,13.554-6.179l1.035,35.831
		C38.854,38.899,35.593,37.17,31.188,36.392z M49.277,43.209c-0.521,0.475-1.251,0.586-1.884,0.272l-1.244-0.651L45.031,4.138
		l1.206-0.7c0.349-0.202,0.732-0.272,1.114-0.205c0.678,0.12,1.42,0.712,1.45,1.733l0.305,10.573h-0.001l0.453,15.681h0
		l0.305,10.574C49.885,42.539,49.506,43,49.277,43.209z"/>
	<path id="XMLID_609_" fill="#74AC00" d="M74.38,22.586c-0.212-7.32-2.921-14.233-7.434-18.97L65.18,5.463
		c4.07,4.27,6.514,10.541,6.706,17.203C72.078,29.328,70,35.74,66.185,40.261l1.869,1.731C72.284,36.98,74.592,29.906,74.38,22.586z
		"/>
	<path id="XMLID_610_" fill="#74AC00" d="M60.643,7.315l-1.636,1.974c3.507,3.189,5.608,8.147,5.766,13.602
		c0.158,5.457-1.655,10.539-4.972,13.945l1.746,1.867c3.814-3.915,5.899-9.706,5.721-15.891
		C67.088,16.629,64.674,10.982,60.643,7.315z"/>
</g>
</svg>
