<?xml version="1.0" encoding="UTF-8"?>
<svg viewBox="0 0 1778 935" version="1.1" xmlns="http://www.w3.org/2000/svg" xmlns:xlink="http://www.w3.org/1999/xlink">
    <g id="Brand-Refresh-Assets" stroke="none" stroke-width="1" fill="none" fill-rule="evenodd">
        <g id="iNaturalist-HomePageDevices" transform="translate(-113.000000, -35.000000)">
            <g id="download" transform="translate(113.000000, 35.000000)">
                <g id="XMLID_333_" transform="translate(335.000000, 0.000000)" fill="#FFFFFF">
                    <g id="computer_1_">
                        <g id="XMLID_334_" transform="translate(49.000000, 51.000000)" opacity="0.28999999">
                            <g id="XMLID_335_">
                                <polygon id="XMLID_336_" opacity="0.6" points="0.563043478 0.337671642 1014.45554 0.337671642 1014.45554 574.857831 0.563043478 574.857831"></polygon>
                            </g>
                        </g>
                        <path d="M391,226.810526 C480.615114,235.935705 551.058451,268.611128 602.330009,324.836796 C604.331252,327.031408 609.888372,333.236842 614.134884,331.7 C618.381395,330.163158 623.563752,320.544744 625.830482,317.195923 C629.38995,311.937235 640.386047,293.278947 664.32093,285.594737 C688.255814,277.910526 718.584286,286.461582 719.685522,286.839998 C721.75527,287.551222 723.844388,288.48382 722.651805,290.149627 C721.459223,291.815434 711.32636,295.824786 704.442054,308.918875 C697.077036,322.927287 692.748349,350.029054 691.68627,356.001926 C687.503161,380.599377 677.47212,403.406759 662.964233,422.789981 C637.438905,456.893025 598.055388,480.396498 552.281028,484.400655 C527.257143,486.589644 503.102111,482.708027 481.269933,473.975929 C507.726041,471.393419 539.746239,458.901006 565.467433,428.991145 C597.92093,391.252632 562.404651,410.847368 531.906977,405.852632 C510.539679,402.353216 493.148269,391.43127 463.959215,354.492966 C473.32285,351.889319 491.781729,348.713125 506.671146,348.079867 C479.130797,341.789285 442.594747,324.462941 426.42956,297.770281 C439.420768,293.287824 456.515527,294.915412 470.173621,295.505211 C418.153153,264.364673 395.717922,247.5894 391,226.810526 Z M515.306977,193 C518.381278,194.490613 564.728554,214.507026 587.111628,244.484211 C618.381395,286.363158 619.539535,326.705263 611.046512,317.484211 C591.088998,295.815921 572.741188,281.940778 550.051163,266.384211 C532.67907,254.473684 521.069201,220.526765 515.306977,193 Z M676.302796,295.030922 C671.901596,295.415978 668.645867,299.296004 669.030922,303.697204 C669.415978,308.098404 673.296004,311.354133 677.697204,310.969078 C682.098404,310.584022 685.354133,306.703996 684.969078,302.302796 C684.584022,297.901596 680.703996,294.645867 676.302796,295.030922 Z" id="iNaturalist-Logomark-Copy-2"></path>
                        <path d="M405.423696,806.670368 C401.285326,806.670368 398.285109,803.916736 398.285109,800.12195 C398.285109,799.036577 398.285109,797.022607 450.451087,748.044139 L450.451087,672.333333 L19.5740217,672.333333 C9.68858696,672.333333 0.0163043478,659.682706 0.0163043478,650.23996 L0.0163043478,10.3682786 C0.0163043478,7.67494527 0.812608696,5.52027861 2.38108696,3.97663682 C5.5823913,0.821014925 11.0680435,0.901412935 16.8673913,0.985830846 L19.5740217,1.00995025 L1092.67054,1.00995025 C1093.63174,1.00995025 1094.52457,0.993870647 1095.34098,0.981810945 C1099.21391,0.917492537 1102.01707,0.869253731 1103.93141,2.74252736 C1105.39533,4.18567164 1105.99859,6.39661692 1105.99859,10.3642587 L1105.99859,650.23594 C1105.99859,661.230368 1101.88033,672.329313 1092.67457,672.329313 L655.559783,672.329313 L655.559783,743.762945 C711.204565,799.764179 711.204565,800.849552 711.204565,801.902766 C711.204565,803.249433 710.802391,804.326766 710.018152,805.102607 C708.674891,806.429174 706.740435,806.401035 704.81,806.364856 L703.905109,806.356816 L405.423696,806.670368 Z M402.339022,800.560119 C402.572283,802.091701 404.040217,802.650468 405.423696,802.650468 L703.905109,802.340935 L704.874348,802.352995 C705.55,802.352995 706.495109,802.381134 706.993804,802.280637 C702.718696,797.203502 672.414891,766.431164 652.121196,746.01007 L651.538043,745.423164 L651.538043,668.313433 L1092.67054,668.313433 C1100.03033,668.313433 1101.97283,656.490905 1101.97283,650.23996 L1101.97283,10.3682786 C1101.97283,7.77544279 1101.68326,6.17552239 1101.10815,5.60871642 C1100.40435,4.91729353 1098.19641,4.94543284 1095.40533,5.00171144 C1094.56478,5.01377114 1093.65185,5.02985075 1092.66652,5.02985075 L19.5740217,5.02985075 L16.8070652,5.00573134 C12.093587,4.93337313 7.20717391,4.86503483 5.20434783,6.83880597 C4.4201087,7.61062687 4.03804348,8.76433831 4.03804348,10.3682786 L4.03804348,650.23996 C4.03804348,657.5401 12.2222826,668.313433 19.5740217,668.313433 L454.472826,668.313433 L454.472826,749.788776 L453.837391,750.379701 C435.281087,767.80195 405.496087,796.258826 402.339022,800.560119 L402.339022,800.560119 Z" id="XMLID_21_" fill-rule="nonzero" opacity="0.6"></path>
                    </g>
                </g>
                <g id="XMLID_287_" transform="translate(0.000000, 328.000000)">
                    <g id="tablet_1_">
                        <g id="XMLID_317_">
                            <g id="XMLID_325_">
                                <path d="M22.8173504,2.85273684 L444.18641,2.85273684 C455.550769,2.85273684 464.573162,12.0699934 464.573162,23.4458487 L464.637436,584.263454 C464.637436,595.635289 455.554786,604.080757 444.18641,604.080757 L22.8173504,604.048599 C11.4529915,604.048599 2.5591453,595.828237 2.5591453,584.456401 L2.65957265,23.4418289 C2.65957265,12.0699934 11.4529915,2.85273684 22.8173504,2.85273684 Z" id="XMLID_331_" fill="#74AC00"></path>
                                <path d="M444.18641,606.090625 L22.8173504,606.058467 C10.1233333,606.058467 0.554615385,596.768855 0.554615385,584.452382 L0.651025641,23.4418289 C0.651025641,10.7675987 10.3884615,0.838848684 22.8213675,0.838848684 L444.190427,0.838848684 C456.538974,0.838848684 466.585726,10.976625 466.585726,23.4418289 L466.65,584.259434 C466.65,596.499533 456.784017,606.090625 444.18641,606.090625 L444.18641,606.090625 Z M22.8173504,4.85858553 C12.6380342,4.85858553 4.66410256,13.0226711 4.66410256,23.4458487 L4.5717094,584.452382 C4.5717094,594.477605 12.417094,602.03873 22.8173504,602.03873 L444.18641,602.070888 C454.699145,602.070888 462.628889,594.417309 462.628889,584.259434 L462.564615,23.4418289 C462.564615,13.1955197 454.321538,4.85858553 444.18641,4.85858553 L22.8173504,4.85858553 L22.8173504,4.85858553 Z" id="XMLID_328_" fill="#C7DD99" fill-rule="nonzero"></path>
                            </g>
                        </g>
                        <g id="XMLID_306_" transform="translate(48.205128, 58.296053)" fill="#FFFFFF" opacity="0.28999999">
                            <g id="XMLID_307_">
                                <polygon id="XMLID_308_" opacity="0.6" points="0.201111111 0.133565789 370.589231 0.0933684211 370.557094 496.370079 0.201111111 496.382138 0.201111111 0.133565789"></polygon>
                            </g>
                        </g>
                        <g id="XMLID_301_" transform="translate(227.974359, 28.138158)" fill="#FFFFFF" opacity="0.6">
                            <path d="M5.62393162,0.919243421 C8.66487179,0.919243421 11.1273504,3.38334211 11.1273504,6.42628289 C11.1273504,9.46922368 8.66487179,11.9333224 5.62393162,11.9333224 C2.58299145,11.9333224 0.120512821,9.46922368 0.120512821,6.42628289 C0.120512821,3.38334211 2.58700855,0.919243421 5.62393162,0.919243421 Z" id="XMLID_304_"></path>
                        </g>
                        <g id="XMLID_288_" transform="translate(218.923077, 563.782895)">
                            <g id="XMLID_290_">
                                <path d="M14.6752137,1.85711842 C21.311453,1.85711842 26.694359,7.23954605 26.694359,13.8841711 C26.694359,20.5247763 21.3154701,25.9112237 14.6752137,25.9112237 C8.03897436,25.9112237 2.65606838,20.5287961 2.65606838,13.8841711 C2.66008547,7.23954605 8.03897436,1.85711842 14.6752137,1.85711842 Z" id="XMLID_298_" fill="#74AC00"></path>
                                <path d="M14.6792308,27.6638289 C7.08692308,27.6638289 0.908632479,21.4854934 0.908632479,13.8841711 C0.908632479,6.28284868 7.08692308,0.100493421 14.6792308,0.100493421 C22.2715385,0.100493421 28.4498291,6.28284868 28.4498291,13.8841711 C28.4498291,21.4854934 22.2675214,27.6638289 14.6792308,27.6638289 L14.6792308,27.6638289 Z M14.6792308,3.60972368 C9.0191453,3.60972368 4.41555556,8.21634211 4.41555556,13.8841711 C4.41555556,19.5479803 9.0191453,24.1545987 14.6792308,24.1545987 C20.3393162,24.1545987 24.942906,19.5479803 24.942906,13.8841711 C24.942906,8.21634211 20.3352991,3.60972368 14.6792308,3.60972368 Z" id="XMLID_293_" fill="#FFFFFF" fill-rule="nonzero" opacity="0.6"></path>
                            </g>
                        </g>
                    </g>
                </g>
                <g id="XMLID_252_" transform="translate(1289.000000, 525.000000)">
                    <g id="mobile_3_">
                        <g id="XMLID_279_" transform="translate(0.000000, 0.000000)" fill-rule="nonzero">
                            <path d="M187.927143,410 L26.857842,410 C12.1153196,410 1,400.074671 1,386.9037 L1.01869692,24.1753261 C1.01869692,10.8459265 12.610788,0 26.857842,0 L187.927143,0 C202.305076,0 214,10.7988261 214,24.0725617 L214,386.629662 C214,399.732123 202.548136,410 187.927143,410 L187.927143,410 Z" id="XMLID_281_-path" fill="#C7DD99"></path>
                            <path d="M26.2198582,5 C14.3316808,5 5.01872891,13.729758 5.01872891,24.8718548 L5,387.205999 C5,397.920376 14.1209805,406 26.2198582,406 L187.564759,406 C199.584039,406 209,397.625249 209,386.932258 L209,24.7692021 C209,13.8666283 199.382703,5 187.564759,5 L26.2198582,5 L26.2198582,5 Z" id="XMLID_281_-path" fill="#74AC00"></path>
                        </g>
                        <g id="XMLID_273_" transform="translate(92.526938, 357.538051)" fill="#FFFFFF" fill-rule="nonzero" opacity="0.6">
                            <path d="M14.7801229,29.7242307 C6.8204017,29.7242307 0.342953686,23.2509807 0.342953686,15.3006995 C0.342953686,7.34613698 6.8204017,0.872886982 14.7801229,0.872886982 C22.73556,0.872886982 29.213008,7.34613698 29.213008,15.3006995 C29.213008,23.2509807 22.73556,29.7242307 14.7801229,29.7242307 Z M14.7801229,5.15413698 C9.18090028,5.15413698 4.62698015,9.70510573 4.62698015,15.3006995 C4.62698015,20.8962932 9.18090028,25.4429807 14.7801229,25.4429807 C20.3793455,25.4429807 24.9289816,20.8962932 24.9289816,15.3006995 C24.9289816,9.70510573 20.3750614,5.15413698 14.7801229,5.15413698 Z" id="XMLID_276_"></path>
                        </g>
                        <g id="XMLID_268_" transform="translate(20.000000, 50.000000)" fill="#FFFFFF" opacity="0.28999999">
                            <g id="XMLID_269_" transform="translate(-0.000000, -0.375000)">
                                <polygon id="XMLID_270_" opacity="0.6" points="1.06083929 0.75778125 173.024714 0.69784375 173.16448 291.369031 1.06083929 291.343344"></polygon>
                            </g>
                        </g>
                        <path d="M45,154.505263 C78.2007803,157.880329 104.298763,169.96576 123.293949,190.761555 C124.035373,191.573261 126.094186,193.868421 127.667442,193.3 C129.240698,192.731579 131.160667,189.174083 132.00045,187.935478 C133.319168,185.990484 137.393023,179.089474 146.260465,176.247368 C155.127907,173.405263 166.364058,176.567982 166.772046,176.707944 C167.53885,176.971 168.31283,177.315934 167.871,177.932054 C167.42917,178.548174 163.675127,180.031085 161.124616,184.874105 C158.39601,190.055298 156.79231,200.079239 156.398829,202.288384 C154.849063,211.386071 151.132743,219.821678 145.757833,226.990815 C136.30116,239.60427 121.710279,248.297335 104.751706,249.778324 C95.4808091,250.58795 86.531806,249.152284 78.4433789,245.922604 C88.2448886,244.967429 100.107794,240.346947 109.637031,229.284396 C121.660465,215.326316 108.502326,222.573684 97.2034884,220.726316 C89.2872908,219.432012 82.8440875,215.392387 72.0300706,201.730275 C75.499128,200.767282 82.3378091,199.592526 87.8540693,199.358307 C77.6508677,197.031653 64.1149213,190.62328 58.1260118,180.750652 C62.9390195,179.092757 69.2723189,179.694742 74.3323959,179.912886 C55.0597525,168.395153 46.747905,162.1906 45,154.505263 Z M91.0534884,142 C92.1924614,142.551323 109.36329,149.954654 117.655814,161.042105 C129.240698,176.531579 129.669767,191.452632 126.523256,188.042105 C119.129358,180.027806 112.331826,174.895904 103.925581,169.142105 C97.4895349,164.736842 93.1882883,152.181132 91.0534884,142 Z M150.738549,180.011596 C149.088099,180.155992 147.8672,181.611001 148.011596,183.261451 C148.155992,184.911901 149.611001,186.1328 151.261451,185.988404 C152.911901,185.844008 154.1328,184.388999 153.988404,182.738549 C153.844008,181.088099 152.388999,179.8672 150.738549,180.011596 Z" id="iNaturalist-Logomark-Copy-2" fill="#FFFFFF"></path>
                        <g id="XMLID_253_" transform="translate(87.177694, 11.843750)" fill="#FFFFFF" opacity="0.6">
                            <g id="XMLID_261_" transform="translate(0.000000, 17.125000)">
                                <path d="M2.88616021,0.222625 L37.3640052,0.222625 C38.7049055,0.222625 39.7930482,1.215875 39.7930482,2.55590625 C39.7930482,3.8959375 38.7049055,4.6151875 37.3640052,4.6151875 L2.88616021,4.6151875 C1.54525992,4.6151875 0.457117202,3.8959375 0.457117202,2.55590625 C0.457117202,1.215875 1.54525992,0.222625 2.88616021,0.222625 Z" id="XMLID_262_"></path>
                            </g>
                            <g id="XMLID_256_" transform="translate(17.136106, 0.000000)">
                                <path d="M2.98897684,0.30825 C4.32987713,0.30825 5.41801985,1.3956875 5.41801985,2.73571875 C5.41801985,4.07575 4.32987713,5.1631875 2.98897684,5.1631875 C1.64807656,5.1631875 0.559933837,4.07575 0.559933837,2.73571875 C0.559933837,1.3956875 1.64807656,0.30825 2.98897684,0.30825 Z" id="XMLID_259_"></path>
                            </g>
                        </g>
                    </g>
                </g>
                <path d="M1672.22413,935 C1627.63759,935 1573.40398,929.888132 1566.16264,922.855395 C1565.20115,921.9224 1565,920.989406 1565,920.373943 L1565.02011,540.092554 C1565.02011,538.175603 1565.02011,533.679198 1599.4205,529.265116 C1620.56924,526.556297 1646.82714,525 1671.46782,525 C1671.48391,525 1671.49598,525 1671.51207,525 C1709.73025,525 1778,530.013864 1778,539.978869 L1778,920.072092 C1778,929.770528 1711.46415,934.862795 1674.2155,934.99216 C1673.55171,935 1672.8839,935 1672.22413,935 L1672.22413,935 Z M1569.02011,540.379798 L1569,920.302049 C1572.01258,924.377459 1619.16,931 1671.98266,931 C1672.70664,931 1673.4266,931 1674.15461,931 C1728.34478,930.807985 1771.32126,923.511434 1774,919.631958 L1773.91151,540.054549 C1770.97938,535.900766 1723.85206,529.007837 1671.46782,529 C1671.45576,529 1671.43565,529 1671.42358,529 C1619.3048,529 1572.55154,535.845905 1569.02011,540.379798 L1569.02011,540.379798 Z" id="XMLID_24_" fill="#FFFFFF" fill-rule="nonzero" opacity="0.6"></path>
                <g id="XMLID_235_" transform="translate(1663.000000, 897.000000)" fill="#FFFFFF" fill-rule="nonzero" opacity="0.6">
                    <g id="XMLID_68_">
                        <g id="XMLID_69_">
                            <path d="M9.464,17.708 C4.696,17.708 0.816,13.828 0.816,9.06 C0.816,4.292 4.696,0.412 9.464,0.412 C14.232,0.412 18.112,4.292 18.112,9.06 C18.112,13.828 14.236,17.708 9.464,17.708 Z M9.464,4.412 C6.9,4.412 4.816,6.496 4.816,9.06 C4.816,11.624 6.9,13.708 9.464,13.708 C12.028,13.708 14.112,11.624 14.112,9.06 C14.112,6.496 12.028,4.412 9.464,4.412 Z" id="XMLID_70_"></path>
                        </g>
                    </g>
                </g>
                <g id="XMLID_150_" opacity="0.6" transform="translate(1580.000000, 565.000000)" fill="#FFFFFF" fill-rule="nonzero">
                    <g id="XMLID_152_" opacity="0.28999999">
                        <polygon id="XMLID_155_" points="182.608478 320.62103 0.588586957 320.593544 0.588586957 0.0746041219 182.463696 0.00785306546 182.608478 320.62103"></polygon>
                    </g>
                </g>
                <path d="M1610,684.505263 C1643.20078,687.880329 1669.29876,699.96576 1688.29395,720.761555 C1689.03537,721.573261 1691.09419,723.868421 1692.66744,723.3 C1694.2407,722.731579 1696.16067,719.174083 1697.00045,717.935478 C1698.31917,715.990484 1702.39302,709.089474 1711.26047,706.247368 C1720.12791,703.405263 1731.36406,706.567982 1731.77205,706.707944 C1732.53885,706.971 1733.31283,707.315934 1732.871,707.932054 C1732.42917,708.548174 1728.67513,710.031085 1726.12462,714.874105 C1723.39601,720.055298 1721.79231,730.079239 1721.39883,732.288384 C1719.84906,741.386071 1716.13274,749.821678 1710.75783,756.990815 C1701.30116,769.60427 1686.71028,778.297335 1669.75171,779.778324 C1660.48081,780.58795 1651.53181,779.152284 1643.44338,775.922604 C1653.24489,774.967429 1665.10779,770.346947 1674.63703,759.284396 C1686.66047,745.326316 1673.50233,752.573684 1662.20349,750.726316 C1654.28729,749.432012 1647.84409,745.392387 1637.03007,731.730275 C1640.49913,730.767282 1647.33781,729.592526 1652.85407,729.358307 C1642.65087,727.031653 1629.11492,720.62328 1623.12601,710.750652 C1627.93902,709.092757 1634.27232,709.694742 1639.3324,709.912886 C1620.05975,698.395153 1611.7479,692.1906 1610,684.505263 Z M1656.05349,672 C1657.19246,672.551323 1674.36329,679.954654 1682.65581,691.042105 C1694.2407,706.531579 1694.66977,721.452632 1691.52326,718.042105 C1684.12936,710.027806 1677.33183,704.895904 1668.92558,699.142105 C1662.48953,694.736842 1658.18829,682.181132 1656.05349,672 Z M1715.73855,710.011596 C1714.0881,710.155992 1712.8672,711.611001 1713.0116,713.261451 C1713.15599,714.911901 1714.611,716.1328 1716.26145,715.988404 C1717.9119,715.844008 1719.1328,714.388999 1718.9884,712.738549 C1718.84401,711.088099 1717.389,709.8672 1715.73855,710.011596 Z" id="iNaturalist-Logomark-Copy-2" fill="#FFFFFF"></path>
                <g id="XMLID_140_" transform="translate(1669.000000, 549.000000)" fill="#FFFFFF" opacity="0.6">
                    <g id="XMLID_141_">
                        <path d="M4.788,0.388 C7.236,0.388 9.224,2.372 9.224,4.824 C9.224,7.272 7.24,9.26 4.788,9.26 C2.336,9.26 0.352,7.276 0.352,4.824 C0.352,2.372 2.34,0.388 4.788,0.388 Z" id="XMLID_142_"></path>
                    </g>
                </g>
                <g id="XMLID_20_" transform="translate(1605.000000, 551.000000)" fill="#FFFFFF" opacity="0.6">
                    <g id="XMLID_28_">
                        <path d="M2.788,0.94 C3.828,0.94 4.672,1.784 4.672,2.824 C4.672,3.864 3.828,4.708 2.788,4.708 C1.748,4.708 0.904,3.864 0.904,2.824 C0.904,1.784 1.748,0.94 2.788,0.94 Z" id="XMLID_29_"></path>
                    </g>
                </g>
                <path d="M115,552.084211 C178.70231,558.584338 228.776489,581.859981 265.222536,621.911142 C266.645106,623.474428 270.595349,627.894737 273.613953,626.8 C276.632558,625.705263 280.316402,618.85379 281.927692,616.468329 C284.457916,612.722414 292.274419,599.431579 309.288372,593.957895 C326.302326,588.484211 347.861119,594.575373 348.643926,594.84493 C350.115192,595.351555 351.600227,596.015872 350.752488,597.202474 C349.904749,598.389077 342.701871,601.245053 337.808207,610.57235 C332.572833,620.550944 329.495814,639.856312 328.740843,644.110961 C325.767307,661.632433 318.636808,677.878787 308.323973,691.686014 C290.179462,715.978593 262.18395,732.720793 229.64555,735.573069 C211.857487,737.132349 194.687042,734.367362 179.167784,728.147237 C197.973933,726.307641 220.735279,717.408936 239.019019,696.103281 C262.088372,669.221053 236.84186,683.178947 215.162791,679.621053 C199.973989,677.128318 187.61142,669.348302 166.862574,643.036085 C173.518652,641.181432 186.640024,638.918939 197.224068,638.46785 C177.647193,633.986888 151.675784,621.644835 140.184868,602.630885 C149.419582,599.437902 161.571278,600.59728 171.280044,601.017411 C134.301639,578.83511 118.353704,566.8856 115,552.084211 Z M203.362791,528 C205.548137,529.061807 238.493791,543.320073 254.404651,564.673684 C276.632558,594.505263 277.455814,623.242105 271.418605,616.673684 C257.231938,601.238738 244.189519,591.355075 228.060465,580.273684 C215.711628,571.789474 207.45883,547.608106 203.362791,528 Z M317.477097,600.023192 C314.176197,600.311983 311.7344,603.222003 312.023192,606.522903 C312.311983,609.823803 315.222003,612.2656 318.522903,611.976808 C321.823803,611.688017 324.2656,608.777997 323.976808,605.477097 C323.688017,602.176197 320.777997,599.7344 317.477097,600.023192 Z" id="iNaturalist-Logomark-Copy-2" fill="#FFFFFF"></path>
                <g id="XMLID_13_" opacity="0.6" transform="translate(1717.000000, 897.000000)" fill="#FFFFFF" fill-rule="nonzero">
                    <path d="M18,18 L1,18 L1,1 L18,1 L18,18 Z M4.93063584,14.0684551 L14.0693642,14.0684551 L14.0693642,4.93154487 L4.93063584,4.93154487 L4.93063584,14.0684551 Z" id="XMLID_10_"></path>
                </g>
                <g id="XMLID_9_" opacity="0.6" transform="translate(1606.000000, 896.000000)" fill="#FFFFFF" fill-rule="nonzero">
                    <path d="M17,19 L0,10 L17,1 L17,19 L17,19 Z M8.16444756,10.0037768 L13.0289652,12.5795216 L13.0289652,7.43180864 L8.16444756,10.0037768 Z" id="XMLID_6_"></path>
                </g>
            </g>
        </g>
    </g>
</svg>