<?xml version="1.0" encoding="utf-8"?>
<!-- Generator: Adobe Illustrator 19.0.0, SVG Export Plug-In . SVG Version: 6.00 Build 0)  -->
<svg version="1.1" id="Layer_1" xmlns="http://www.w3.org/2000/svg" xmlns:xlink="http://www.w3.org/1999/xlink" x="0px" y="0px"
	 viewBox="0 0 80 76" enable-background="new 0 0 80 76" xml:space="preserve">
<g id="XMLID_47_">
	<path id="XMLID_58_" fill="#73AB42" d="M61.437,75.742H21.879c-0.91,0-1.648-0.742-1.648-1.648V31.239
		c0-0.91,0.738-1.648,1.648-1.648h39.558c0.91,0,1.648,0.738,1.648,1.648v42.855C63.085,75,62.347,75.742,61.437,75.742z
		 M23.527,72.446h36.262V32.888H23.527L23.527,72.446z"/>
	<path id="XMLID_57_" fill="#73AB42" d="M27.203,37.184h6.852v6.852h-6.852V37.184z"/>
	<path id="XMLID_56_" fill="#73AB42" d="M27.203,48.954h6.852v6.852h-6.852V48.954z"/>
	<path id="XMLID_55_" fill="#73AB42" d="M27.203,61.13h6.852v6.852h-6.852V61.13z"/>
	<path id="XMLID_54_" fill="#73AB42" d="M37.417,38.039H56.58v1.938H37.417V38.039z"/>
	<path id="XMLID_53_" fill="#73AB42" d="M37.417,41.672h12.83v1.938h-12.83V41.672z"/>
	<path id="XMLID_52_" fill="#73AB42" d="M37.417,49.539H56.58v1.938H37.417V49.539z"/>
	<path id="XMLID_51_" fill="#73AB42" d="M37.417,53.172h12.83v1.938h-12.83V53.172z"/>
	<path id="XMLID_50_" fill="#73AB42" d="M37.417,61.372H56.58v1.938H37.417V61.372z"/>
	<path id="XMLID_49_" fill="#73AB42" d="M37.417,65.005h12.83v1.938h-12.83V65.005z"/>
	<path id="XMLID_48_" fill="#73AB42" d="M13.634,55.508c-0.162,0-0.33-0.023-0.491-0.076C5.545,53.052,0.442,46.1,0.442,38.142
		c0-9.86,7.925-17.907,17.748-18.111C21.78,8.315,32.596,0.249,44.948,0.249c15.451,0,28.017,12.57,28.017,28.02
		c0,0.3-0.01,0.6-0.026,0.897c4.107,2.743,6.619,7.355,6.619,12.273c0,6.122-3.679,11.531-9.375,13.786
		c-0.844,0.336-1.803-0.076-2.136-0.926c-0.336-0.844,0.076-1.797,0.926-2.133c4.427-1.75,7.289-5.963,7.289-10.72
		c0-4.144-2.189-7.872-5.851-9.965c-0.547-0.313-0.87-0.913-0.824-1.543c0.049-0.752,0.082-1.203,0.082-1.665
		c0-13.631-11.089-24.724-24.721-24.724c-11.304,0-21.147,7.655-23.936,18.622c-0.191,0.755-0.874,1.279-1.671,1.239
		c-0.181-0.01-0.356-0.03-0.534-0.059c-0.016,0-0.036,0-0.053,0c-8.39,0-15.019,6.639-15.019,14.791
		c0,6.517,4.177,12.197,10.391,14.145c0.87,0.274,1.352,1.197,1.081,2.064C14.986,55.06,14.337,55.508,13.634,55.508z"/>
</g>
</svg>
