<?xml version="1.0" encoding="utf-8"?>
<!-- Generator: Adobe Illustrator 19.0.0, SVG Export Plug-In . SVG Version: 6.00 Build 0)  -->
<svg version="1.1" id="Layer_1" xmlns="http://www.w3.org/2000/svg" xmlns:xlink="http://www.w3.org/1999/xlink" x="0px" y="0px"
	 viewBox="0 0 106 92" enable-background="new 0 0 106 92" xml:space="preserve">
<g id="XMLID_577_">
	<path id="XMLID_584_" fill="#FFFFFF" d="M105.32,91H80.947l-0.019-1.702c-0.045-4.212-0.164-15.399-0.37-16.742
		c-0.023-0.159-0.044-0.324-0.064-0.5c-0.253-2.107-0.723-6.03-11.789-10.241c-1.732-0.661-3.168-1.185-4.398-1.618l-2.296-0.808
		l2.201-1.04c2.964-1.399,2.941-2.047,2.867-4.193c-0.013-0.371-0.026-0.77-0.026-1.203c0-1.688-0.323-2.224-0.911-3.198
		c-0.748-1.24-1.772-2.939-2.535-7.568c-0.209-1.29-0.365-1.536-0.6-1.909c-0.37-0.586-0.83-1.315-1.477-4.296
		c-0.431-1.957-0.117-2.875,0.111-3.546c0.118-0.345,0.169-0.509,0.146-0.77l-0.113-1.188c-0.093-0.942-0.203-2.062-0.347-3.909
		c-0.182-2.189,0.809-5.842,3.416-8.675c1.812-1.969,5.145-4.316,10.732-4.316c5.589,0,8.922,2.348,10.734,4.318
		c2.605,2.833,3.596,6.485,3.412,8.679c-0.149,1.732-0.251,2.831-0.335,3.744l-0.123,1.348c-0.029,0.276,0.019,0.43,0.14,0.783
		c0.229,0.671,0.544,1.589,0.115,3.537c-0.646,2.982-1.106,3.714-1.476,4.303c-0.235,0.375-0.391,0.622-0.598,1.896
		c-0.764,4.631-1.797,6.326-2.551,7.563c-0.593,0.972-0.919,1.508-0.919,3.205l-0.004,1.079c-0.011,2.113,0.001,3.068,0.404,3.566
		c0.467,0.578,1.752,1.034,4.085,1.861c1.039,0.369,2.286,0.812,3.781,1.378l0.002,0.001c10.78,4.113,12.533,6.476,12.821,8.417
		c0.345,2.159,0.354,18.848,0.354,20.744V91z M82.926,89h20.394c-0.007-5.69-0.075-17.838-0.33-19.439
		c-0.256-1.722-4.145-4.024-11.558-6.853c-1.479-0.561-2.712-0.998-3.739-1.363c-5.436-1.929-5.848-2.197-5.82-7.323l0.004-1.068
		c0-2.258,0.562-3.179,1.211-4.246c0.706-1.159,1.585-2.601,2.285-6.846c0.253-1.556,0.512-2.054,0.877-2.636
		c0.287-0.457,0.644-1.024,1.216-3.667c0.31-1.402,0.133-1.917-0.054-2.461c-0.14-0.409-0.313-0.917-0.237-1.627l0.121-1.336
		c0.084-0.911,0.186-2.006,0.335-3.729c0.123-1.477-0.545-4.604-2.893-7.155c-2.241-2.437-5.357-3.672-9.262-3.672
		c-3.903,0-7.02,1.235-9.262,3.671c-2.348,2.551-3.017,5.68-2.894,7.16c0.144,1.833,0.252,2.942,0.344,3.874
		c0.041,0.421,0.079,0.807,0.115,1.206c0.062,0.694-0.108,1.193-0.245,1.593c-0.186,0.545-0.361,1.061-0.05,2.474
		c0.572,2.64,0.928,3.204,1.214,3.657c0.367,0.582,0.627,1.081,0.882,2.653c0.699,4.247,1.572,5.695,2.274,6.858
		c0.643,1.066,1.198,1.987,1.198,4.231c0,0.408,0.013,0.784,0.025,1.134c0.072,2.095-0.004,3.521-2.052,4.963
		c0.731,0.269,1.524,0.565,2.391,0.896c12.197,4.641,12.76,9.345,13.062,11.872c0.02,0.157,0.036,0.303,0.057,0.44
		C82.733,73.544,82.844,81.4,82.926,89z"/>
	<path id="XMLID_585_" fill="#FFFFFF" d="M77.14,91H0.68v-1c0-0.608,0.006-14.938,0.473-17.759c0.361-2.294,2.587-5.354,16.346-10.6
		l1.4-0.53c4.769-1.804,7.396-2.797,8.501-3.966c0.94-0.993,0.981-2.259,0.962-5.775l-0.005-1.419c0-2.128-0.381-2.582-1.072-3.407
		c-1.002-1.196-2.376-2.834-3.382-8.94c-0.282-1.708-0.507-2.066-0.818-2.562c-0.464-0.74-1.042-1.662-1.875-5.45
		c-0.546-2.454-0.147-3.596,0.143-4.431c0.152-0.438,0.244-0.703,0.205-1.119c-0.172-1.562-0.335-3.051-0.621-6.59
		c-0.224-2.785,1.041-7.415,4.348-10.998C28.577,2.887,33.289,1,38.91,1c7.126,0,11.365,2.991,13.667,5.5
		c3.299,3.596,4.544,8.202,4.306,10.959c-0.221,2.743-0.368,4.247-0.501,5.601l-0.096,0.984c-0.04,0.417,0.053,0.685,0.206,1.127
		c0.29,0.838,0.687,1.986,0.141,4.425c-0.819,3.788-1.394,4.708-1.854,5.447c-0.31,0.497-0.534,0.856-0.815,2.562
		c-1.007,6.109-2.389,7.748-3.398,8.944c-0.695,0.824-1.078,1.278-1.078,3.403l-0.005,1.399c-0.031,6.01-0.033,6.37,6.419,8.656
		c1.271,0.462,2.716,0.99,4.437,1.632c13.765,5.247,15.991,8.307,16.354,10.61c0.268,1.706,0.367,7.483,0.402,10.775
		C77.14,86.764,77.14,90,77.14,90V91z M2.681,89h72.457c-0.003-1.237-0.014-3.484-0.044-5.953c-0.06-5.511-0.197-9.333-0.378-10.488
		c-0.367-2.329-5.442-5.374-15.085-9.049c-1.708-0.638-3.149-1.164-4.406-1.622c-7.545-2.673-7.777-3.992-7.743-10.548l0.005-1.389
		c0-2.664,0.586-3.55,1.55-4.693c0.859-1.019,2.036-2.414,2.954-7.979c0.322-1.958,0.627-2.551,1.091-3.295
		c0.379-0.607,0.851-1.364,1.599-4.818c0.424-1.893,0.169-2.629-0.077-3.341c-0.183-0.526-0.389-1.122-0.307-1.972l0.096-0.988
		c0.132-1.346,0.278-2.841,0.498-5.573c0.169-1.955-0.7-6.077-3.786-9.441C48.15,4.632,44.048,3,38.91,3
		c-5.12,0-9.211,1.619-12.157,4.812c-3.095,3.354-3.982,7.507-3.823,9.481c0.283,3.511,0.444,4.985,0.616,6.547
		c0.083,0.864-0.123,1.457-0.306,1.98c-0.246,0.708-0.501,1.441-0.078,3.342c0.759,3.451,1.234,4.209,1.616,4.818
		c0.467,0.744,0.773,1.337,1.097,3.3c0.918,5.565,2.088,6.961,2.942,7.98c0.958,1.143,1.539,2.028,1.539,4.691l0.005,1.408
		c0.041,7.539-0.568,7.769-10.756,11.622l-1.396,0.529c-9.641,3.675-14.716,6.72-15.082,9.049C2.795,74.564,2.692,83.672,2.681,89z"
		/>
</g>
</svg>
