<?xml version="1.0" encoding="utf-8"?>
<!-- Generator: Adobe Illustrator 19.0.0, SVG Export Plug-In . SVG Version: 6.00 Build 0)  -->
<svg version="1.1" id="Layer_1" xmlns="http://www.w3.org/2000/svg" xmlns:xlink="http://www.w3.org/1999/xlink" x="0px" y="0px"
	 viewBox="0 0 93 90" enable-background="new 0 0 93 90" xml:space="preserve">
<path id="XMLID_19_" fill="#FFFFFF" d="M87.093,66.992V52.058c0-0.346-0.03-0.633-0.091-0.887l-6.561-29.873
	c-0.214-0.982-0.807-1.856-1.674-2.473c-0.785-0.793-1.82-1.229-2.926-1.229h-1.057V6.156c0-2.292-1.87-4.156-4.168-4.156H57.222
	c-2.294,0-4.16,1.864-4.16,4.156v11.448c-2.255,0.041-4.079,1.887-4.079,4.158v0.109h-4.959v-0.109c0-2.274-1.832-4.121-4.097-4.159
	V6.156C39.927,3.864,38.064,2,35.775,2h-13.39c-2.292,0-4.157,1.864-4.157,4.156v11.44h-1.07c-1.106,0-2.144,0.438-2.936,1.235
	c-0.869,0.608-1.46,1.482-1.668,2.465L6,51.168c-0.066,0.309-0.098,0.596-0.098,0.879v14.946c-1.855,0.417-3.248,2.072-3.248,4.052
	v12.789c0,2.292,1.864,4.157,4.156,4.157h24.612c2.292,0,4.157-1.865,4.157-4.157V71.046c0-1.11-0.431-2.154-1.215-2.94
	c-0.564-0.565-1.265-0.94-2.026-1.11V59.68h7.522c2.296,0,4.165-1.87,4.165-4.168v-0.664h4.959v0.674
	c0,2.293,1.863,4.158,4.153,4.158h7.527l-0.001,7.315c-1.854,0.419-3.246,2.073-3.246,4.051v12.789c0,2.297,1.866,4.166,4.16,4.166
	h24.607c2.294,0,4.16-1.869,4.16-4.166V71.045C90.345,69.065,88.951,67.409,87.093,66.992z M55.062,6.156
	c0-1.188,0.969-2.156,2.16-2.156h13.396c1.195,0,2.168,0.967,2.168,2.156v9.861H55.062V6.156z M20.229,6.156
	C20.229,4.967,21.196,4,22.386,4h13.39c1.186,0,2.151,0.967,2.151,2.156v9.861H20.229V6.156z M33.58,71.045v12.789
	c0,1.189-0.967,2.157-2.157,2.157H6.811c-1.189,0-2.156-0.968-2.156-2.157V71.045c0-1.19,0.967-2.159,2.156-2.159h24.612
	c0.577,0,1.119,0.225,1.526,0.633S33.58,70.468,33.58,71.045z M53.137,57.68c-1.188,0-2.153-0.968-2.153-2.158v-2.674h-8.959v2.664
	c0,1.195-0.971,2.168-2.165,2.168h-9.522v7.361H7.902V52.047c0-0.142,0.018-0.293,0.052-0.457l6.555-29.871
	c0.108-0.51,0.433-0.967,0.914-1.286l0.175-0.147c0.419-0.445,0.974-0.69,1.561-0.69h22.7c1.193,0,2.165,0.972,2.165,2.166v2.109
	h8.959v-2.109c0-1.194,0.966-2.166,2.153-2.166h22.706c0.585,0,1.134,0.241,1.546,0.68l0.169,0.144
	c0.488,0.33,0.819,0.794,0.932,1.306l6.564,29.893c0.027,0.114,0.04,0.254,0.04,0.439v12.983H62.665V57.68H53.137z M88.345,83.834
	c0,1.194-0.969,2.166-2.16,2.166H61.578c-1.191,0-2.16-0.972-2.16-2.166V71.045c0-1.19,0.969-2.159,2.16-2.159h24.607
	c1.171,0,2.16,0.989,2.16,2.159V83.834z"/>
</svg>
