<?xml version="1.0" encoding="utf-8"?>
<!-- Generator: Adobe Illustrator 19.0.0, SVG Export Plug-In . SVG Version: 6.00 Build 0)  -->
<svg version="1.1" id="Layer_1" xmlns="http://www.w3.org/2000/svg" xmlns:xlink="http://www.w3.org/1999/xlink" x="0px" y="0px"
	 viewBox="0 0 80 72" enable-background="new 0 0 80 72" xml:space="preserve">
<g id="XMLID_593_">
	<path id="XMLID_595_" fill="#FFFFFF" d="M68.788,46.088c-7.04-2.67-6.615-1.598-6.615-6.546c0-3.197,1.581-2.023,2.585-8.111
		c0.391-2.398,0.714-0.799,1.547-4.642c0.442-2.006-0.306-2.159-0.204-3.112c0.085-0.952,0.17-1.819,0.34-3.775
		c0.204-2.449-1.972-8.842-9.76-8.842s-9.964,6.393-9.76,8.842c0.153,1.972,0.255,2.823,0.34,3.775
		c0.085,0.952-0.646,1.105-0.204,3.112c0.833,3.843,1.156,2.228,1.547,4.642c1.003,6.087,2.568,4.931,2.568,8.111
		c0,2.279,0.527,3.231-2.534,4.676c0.918,0.323,1.989,0.714,3.282,1.207c9.25,3.52,9.029,6.938,9.267,8.553
		c0.17,1.105,0.255,13.152,0.289,16.298h16.613c0,0,0-16.927-0.255-18.525C77.647,50.492,75.963,48.825,68.788,46.088z"/>
	<path id="XMLID_594_" fill="#FFFFFF" d="M57.174,70.275c0,0,0-2.398-0.034-5.169c-0.034-3.163-0.119-10.04-0.289-11.129
		c-0.255-1.615-2.432-3.775-11.665-7.295c-1.275-0.476-2.347-0.867-3.282-1.207c-5.662-2.006-5.254-2.67-5.254-8.162
		c0-4.132,2.04-1.445,3.333-9.284c0.51-3.095,0.918-1.037,1.989-5.985c0.578-2.585-0.391-2.789-0.272-4.03
		c0.119-1.241,0.238-2.347,0.442-4.88c0.272-3.146-2.534-11.41-12.6-11.41s-12.855,8.247-12.6,11.41
		c0.204,2.534,0.323,3.639,0.459,4.88c0.119,1.241-0.85,1.428-0.272,4.03c1.088,4.948,1.496,2.891,2.006,5.985
		c1.292,7.839,3.316,5.152,3.316,9.284c0,6.393,0.561,5.917-8.536,9.369c-9.233,3.52-11.41,5.679-11.665,7.295
		c-0.34,2.057-0.34,16.298-0.34,16.298h27.631H57.174z"/>
</g>
</svg>
