<?xml version="1.0" encoding="utf-8"?>
<!-- Generator: Adobe Illustrator 19.0.0, SVG Export Plug-In . SVG Version: 6.00 Build 0)  -->
<svg version="1.1" id="Layer_1" xmlns="http://www.w3.org/2000/svg" xmlns:xlink="http://www.w3.org/1999/xlink" x="0px" y="0px"
	 viewBox="0 0 116 112" enable-background="new 0 0 116 112" xml:space="preserve">
<g id="XMLID_582_">
	<path id="XMLID_611_" fill="#FFFFFF" d="M57.021,16.425l-0.999-0.908c-1.799-1.633-2.831-3.962-2.831-6.39
		c0-2.429,1.032-4.758,2.832-6.39l1.002-0.91l0.997,0.916c1.794,1.625,2.826,3.954,2.826,6.386c0,2.43-1.032,4.759-2.831,6.39
		L57.021,16.425z M57.021,4.558c-1.168,1.228-1.829,2.867-1.829,4.57s0.662,3.343,1.83,4.571c1.167-1.227,1.827-2.866,1.827-4.569
		C58.849,7.423,58.188,5.782,57.021,4.558z"/>
	<path id="XMLID_610_" fill="#FFFFFF" d="M39.34,24.649l-1.338-0.155c-2.411-0.282-4.604-1.578-6.019-3.556
		c-1.41-1.979-1.923-4.474-1.409-6.846l0.285-1.318l1.34,0.159c2.412,0.285,4.604,1.581,6.016,3.555
		c1.41,1.975,1.925,4.469,1.412,6.844L39.34,24.649z M32.443,14.993c-0.235,1.676,0.18,3.395,1.168,4.783
		c0.991,1.387,2.483,2.338,4.146,2.658c0.236-1.678-0.18-3.397-1.169-4.783C35.598,16.265,34.106,15.314,32.443,14.993z"/>
	<path id="XMLID_609_" fill="#FFFFFF" d="M20.035,34.764c-1.548,0-3.073-0.421-4.41-1.218h-0.001
		c-2.086-1.245-3.56-3.323-4.042-5.702l-0.269-1.321l1.29-0.394c2.327-0.707,4.855-0.401,6.938,0.839
		c2.086,1.243,3.56,3.321,4.044,5.703l0.262,1.317l-1.28,0.396C21.736,34.637,20.886,34.764,20.035,34.764z M16.649,31.828
		c1.455,0.868,3.203,1.147,4.863,0.769c-0.458-1.629-1.53-3.038-2.994-3.91c-1.462-0.871-3.21-1.142-4.862-0.769
		C14.114,29.548,15.185,30.955,16.649,31.828L16.649,31.828z"/>
	<path id="XMLID_608_" fill="#FFFFFF" d="M11.769,47.035c-0.634,0-1.271-0.071-1.898-0.212l0,0
		c-2.372-0.532-4.419-2.048-5.617-4.159l-0.662-1.173l1.097-0.773c1.986-1.4,4.488-1.898,6.856-1.366
		c2.371,0.532,4.418,2.048,5.616,4.16l0.666,1.169l-1.099,0.778c-1.287,0.901-2.784,1.438-4.334,1.552
		C12.186,47.027,11.977,47.035,11.769,47.035z M10.308,44.872c0.643,0.144,1.294,0.193,1.938,0.146
		c1.031-0.076,2.031-0.396,2.923-0.928c-0.942-1.408-2.398-2.412-4.062-2.786c-1.664-0.371-3.407-0.086-4.86,0.785
		C7.186,43.493,8.643,44.498,10.308,44.872L10.308,44.872z"/>
	<path id="XMLID_607_" fill="#FFFFFF" d="M11.824,63.86c-2.02,0-3.973-0.711-5.533-2.021L5.26,60.977l0.759-1.112
		c1.379-2.007,3.548-3.344,5.954-3.669c2.404-0.321,4.854,0.381,6.714,1.94l1.033,0.87l-0.768,1.11
		c-1.375,2.001-3.544,3.338-5.948,3.665c-0.275,0.039-0.561,0.063-0.842,0.074C12.05,63.858,11.937,63.86,11.824,63.86z
		 M7.958,60.605c1.199,0.867,2.634,1.305,4.126,1.25c0.215-0.009,0.432-0.027,0.646-0.057c1.69-0.23,3.227-1.106,4.286-2.429
		c-1.372-0.988-3.088-1.419-4.775-1.192C10.554,58.406,9.018,59.282,7.958,60.605z"/>
	<path id="XMLID_606_" fill="#FFFFFF" d="M32.628,76.656c-0.839,0-1.678-0.122-2.485-0.363l-1.292-0.385l0.26-1.325
		c0.474-2.387,1.937-4.472,4.013-5.724l0.001,0c2.078-1.251,4.604-1.572,6.934-0.875l1.297,0.386l-0.267,1.328
		c-0.469,2.382-1.932,4.468-4.012,5.72c-0.869,0.526-1.82,0.891-2.823,1.083C33.719,76.605,33.174,76.656,32.628,76.656z
		 M31.185,74.499c0.884,0.197,1.806,0.21,2.69,0.039c0.771-0.148,1.5-0.428,2.168-0.833c1.461-0.879,2.524-2.292,2.973-3.927
		c-1.654-0.364-3.401-0.084-4.859,0.794l0,0C32.698,71.451,31.635,72.864,31.185,74.499z"/>
	<path id="XMLID_605_" fill="#FFFFFF" d="M60.17,53.986l-1.174-0.564c-2.631-1.266-4.617-3.593-5.448-6.385
		c-0.835-2.795-0.446-5.831,1.065-8.328l0.67-1.114l1.175,0.567c2.631,1.264,4.615,3.591,5.446,6.386
		c0.834,2.791,0.446,5.826-1.065,8.324L60.17,53.986z M56.062,40.21c-1,1.921-1.221,4.171-0.599,6.255
		c0.621,2.083,2.037,3.845,3.925,4.907c1.001-1.923,1.221-4.172,0.599-6.253C59.367,43.033,57.951,41.271,56.062,40.21z"/>
	<path id="XMLID_604_" fill="#FFFFFF" d="M54.704,35.5l-0.681-1.113c-1.508-2.431-1.922-5.409-1.134-8.166
		c0.79-2.754,2.718-5.062,5.29-6.333l1.159-0.571l0.679,1.099c1.51,2.441,1.923,5.419,1.133,8.171
		c-0.79,2.756-2.718,5.063-5.29,6.331L54.704,35.5z M58.587,21.939c-1.828,1.059-3.189,2.794-3.774,4.833
		c-0.583,2.04-0.347,4.232,0.644,6.096c1.829-1.06,3.188-2.793,3.772-4.831C59.812,25.999,59.576,23.807,58.587,21.939z"/>
	<path id="XMLID_603_" fill="#FFFFFF" d="M44.852,59.628c-1.678,0-3.343-0.313-4.872-0.921c-3.095-1.222-5.452-3.578-6.465-6.463
		l-0.453-1.305l1.332-0.509c3.123-1.193,6.665-1.183,9.717,0.027c3.098,1.222,5.455,3.578,6.467,6.462l0.455,1.303l-1.334,0.512
		c-1.206,0.461-2.48,0.748-3.787,0.853l0,0C45.558,59.615,45.204,59.628,44.852,59.628z M35.613,52.12
		c0.912,2.091,2.744,3.797,5.103,4.729c1.569,0.624,3.312,0.881,5.037,0.745c0.936-0.074,1.851-0.258,2.727-0.547
		c-0.912-2.092-2.744-3.798-5.104-4.729C40.981,51.369,38.119,51.304,35.613,52.12z"/>
	<path id="XMLID_602_" fill="#FFFFFF" d="M29.312,66.714c-2.591,0-5.057-0.947-6.996-2.699l-1-0.908l0.806-1.08
		c1.751-2.359,4.435-3.88,7.36-4.171c2.973-0.29,5.828,0.649,8.038,2.647l1.004,0.906l-0.811,1.083
		c-1.752,2.359-4.436,3.881-7.359,4.17c-0.16,0.017-0.326,0.028-0.491,0.038l-0.008,0C29.673,66.709,29.492,66.714,29.312,66.714z
		 M24.022,62.845c1.618,1.306,3.627,1.958,5.727,1.858c0.133-0.008,0.266-0.016,0.4-0.031c2.212-0.219,4.248-1.303,5.663-2.999
		c-1.73-1.4-3.888-2.044-6.135-1.827C27.473,60.066,25.437,61.151,24.022,62.845z"/>
	<path id="XMLID_601_" fill="#FFFFFF" d="M29.376,46.794c-1.359,0-2.709-0.269-3.993-0.801c-2.713-1.128-4.839-3.362-5.834-6.13
		l-0.451-1.275l1.222-0.569c0.607-0.289,1.258-0.521,1.925-0.688c2.185-0.548,4.442-0.379,6.53,0.488
		c2.712,1.124,4.839,3.357,5.834,6.127l0.452,1.272l-1.218,0.573c-0.617,0.29-1.266,0.521-1.926,0.689
		C31.075,46.689,30.224,46.794,29.376,46.794z M21.607,39.637c0.862,2.029,2.496,3.659,4.542,4.509
		c1.687,0.699,3.512,0.835,5.279,0.394c0.379-0.096,0.755-0.22,1.121-0.367c-0.862-2.031-2.496-3.659-4.542-4.507
		c-1.689-0.701-3.514-0.839-5.278-0.395C22.347,39.367,21.971,39.489,21.607,39.637z"/>
	<path id="XMLID_600_" fill="#FFFFFF" d="M22.549,56.554c-0.28,0-0.562-0.011-0.845-0.035c-2.865-0.232-5.516-1.673-7.271-3.952
		l-0.812-1.055l0.969-0.915c0.489-0.458,1.024-0.869,1.592-1.223c1.869-1.167,4.03-1.688,6.222-1.507
		c2.863,0.231,5.513,1.67,7.27,3.949l0.817,1.056l-0.976,0.915c-0.482,0.453-1.017,0.864-1.587,1.222
		C26.293,56.027,24.449,56.554,22.549,56.554z M16.33,51.729c1.404,1.612,3.396,2.624,5.536,2.798
		c1.768,0.142,3.495-0.275,5.002-1.212c0.317-0.199,0.621-0.419,0.907-0.657c-1.405-1.612-3.396-2.623-5.533-2.795
		c-1.778-0.142-3.501,0.274-5.002,1.21C16.923,51.27,16.618,51.49,16.33,51.729z"/>
	<path id="XMLID_599_" fill="#FFFFFF" d="M34.787,34.935c-0.035,0-0.07,0-0.104,0c-2.528-0.016-4.968-0.954-6.867-2.639
		l-0.001-0.001c-2.199-1.958-3.476-4.768-3.503-7.707L24.3,23.241l1.339-0.143c0.391-0.042,0.787-0.062,1.183-0.059
		c2.533,0.016,4.974,0.955,6.872,2.642c2.197,1.955,3.474,4.763,3.503,7.704l0.015,1.347l-1.341,0.144
		C35.509,34.915,35.145,34.935,34.787,34.935z M29.145,30.801c1.536,1.363,3.508,2.121,5.554,2.134
		c0.156,0.004,0.32-0.001,0.479-0.009c-0.148-2.203-1.157-4.276-2.813-5.75c-1.535-1.365-3.508-2.124-5.557-2.137
		c-0.157-0.001-0.318,0.002-0.478,0.01C26.477,27.25,27.486,29.324,29.145,30.801L29.145,30.801z"/>
	<path id="XMLID_598_" fill="#FFFFFF" d="M49.181,26.987l-1.124-0.695c-2.491-1.523-4.213-4.011-4.724-6.826
		c-0.511-2.819,0.234-5.734,2.044-7.998l0.822-1.021l1.121,0.684c2.493,1.526,4.216,4.015,4.728,6.83
		c0.512,2.821-0.233,5.736-2.045,7.997L49.181,26.987z M46.66,13.087c-1.244,1.751-1.739,3.921-1.358,6.022
		c0.382,2.109,1.619,3.992,3.419,5.23c1.246-1.751,1.74-3.92,1.358-6.021C49.696,16.21,48.46,14.327,46.66,13.087z"/>
	<path id="XMLID_597_" fill="#FFFFFF" d="M47.038,48.356c-2.423,0-4.737-0.706-6.612-2.029c-2.279-1.612-3.635-3.994-3.722-6.534
		l-0.037-1.253l1.307-0.151c2.931-0.331,5.789,0.363,8.037,1.952c2.28,1.61,3.636,3.991,3.719,6.533l0.045,1.247l-1.689,0.191
		C47.734,48.341,47.385,48.356,47.038,48.356z M38.756,40.329c0.241,1.682,1.247,3.249,2.824,4.365
		c1.699,1.2,3.864,1.778,6.098,1.643c-0.24-1.685-1.245-3.249-2.821-4.362C43.177,40.788,40.982,40.204,38.756,40.329z"/>
	<path id="XMLID_596_" fill="#FFFFFF" d="M49.662,37.66l-1.286-0.142c-0.118-0.012-0.244-0.026-0.367-0.045
		c-2.606-0.362-4.96-1.573-6.616-3.406c-1.766-1.957-2.521-4.432-2.072-6.791l0.226-1.202l1.291,0.13
		c2.764,0.305,5.243,1.531,6.981,3.452c1.768,1.959,2.522,4.435,2.074,6.792L49.662,37.66z M41.206,28.275
		c-0.102,1.55,0.489,3.141,1.671,4.451c1.281,1.418,3.094,2.379,5.13,2.723c0.103-1.548-0.489-3.141-1.672-4.453
		C45.068,29.597,43.224,28.624,41.206,28.275z"/>
	<path id="XMLID_595_" fill="#FFFFFF" d="M76.65,24.65l-0.284-1.318c-0.516-2.369-0.002-4.863,1.409-6.843
		c1.413-1.976,3.605-3.271,6.016-3.556l1.34-0.159l0.285,1.319c0.515,2.373,0.001,4.868-1.409,6.844
		c-1.415,1.979-3.608,3.275-6.019,3.557L76.65,24.65z M83.547,14.993c-1.662,0.322-3.152,1.272-4.144,2.658
		c-0.99,1.389-1.405,3.108-1.168,4.782c1.661-0.32,3.151-1.271,4.144-2.659C83.368,18.389,83.783,16.67,83.547,14.993z"/>
	<path id="XMLID_594_" fill="#FFFFFF" d="M95.956,34.764c-0.852,0-1.702-0.127-2.527-0.377l-1.289-0.399l0.267-1.315
		c0.481-2.38,1.955-4.459,4.044-5.703c2.081-1.241,4.609-1.547,6.937-0.84l1.289,0.393l-0.266,1.321
		c-0.482,2.381-1.956,4.459-4.044,5.703C99.03,34.343,97.505,34.764,95.956,34.764z M94.48,32.598
		c1.651,0.375,3.407,0.098,4.862-0.77l0,0c1.464-0.873,2.536-2.28,2.993-3.91c-1.655-0.374-3.402-0.102-4.862,0.769
		C96.009,29.56,94.937,30.968,94.48,32.598z"/>
	<path id="XMLID_593_" fill="#FFFFFF" d="M104.226,47.035c-0.209,0-0.417-0.008-0.625-0.023c-1.55-0.114-3.048-0.65-4.331-1.549
		l-1.104-0.782l0.669-1.171c1.198-2.109,3.246-3.625,5.614-4.158c2.372-0.532,4.869-0.034,6.855,1.366l1.105,0.773l-0.672,1.175
		c-1.198,2.108-3.245,3.624-5.614,4.156l0,0C105.495,46.964,104.859,47.035,104.226,47.035z M100.825,44.089
		c0.89,0.532,1.892,0.851,2.923,0.928c0.646,0.046,1.295-0.002,1.938-0.146l0,0c1.662-0.374,3.117-1.377,4.06-2.783
		c-1.454-0.872-3.194-1.156-4.858-0.785C103.225,41.677,101.768,42.682,100.825,44.089z"/>
	<path id="XMLID_592_" fill="#FFFFFF" d="M104.167,63.86c-0.112,0-0.225-0.002-0.337-0.007c-0.28-0.011-0.566-0.035-0.846-0.074
		c-2.401-0.326-4.571-1.663-5.948-3.666l-0.759-1.111l1.028-0.865c1.86-1.56,4.312-2.267,6.715-1.941
		c2.403,0.325,4.572,1.661,5.95,3.666l0.761,1.114l-1.03,0.864C108.139,63.149,106.185,63.86,104.167,63.86z M98.975,59.371
		c1.059,1.321,2.596,2.198,4.283,2.427c0.219,0.03,0.437,0.048,0.65,0.057c1.49,0.055,2.925-0.383,4.125-1.25
		c-1.059-1.323-2.595-2.199-4.28-2.427C102.06,57.949,100.347,58.382,98.975,59.371z"/>
	<path id="XMLID_591_" fill="#FFFFFF" d="M83.362,76.656c-0.546,0-1.091-0.051-1.626-0.155c-0.999-0.192-1.948-0.557-2.821-1.084
		c-2.077-1.249-3.541-3.335-4.014-5.722l-0.26-1.326l1.292-0.386c2.327-0.694,4.855-0.376,6.936,0.875l0.001,0
		c2.078,1.254,3.54,3.34,4.01,5.723l0.26,1.325l-1.29,0.386C85.042,76.535,84.201,76.656,83.362,76.656z M76.975,69.778
		c0.45,1.636,1.515,3.049,2.974,3.926c0.672,0.406,1.399,0.686,2.166,0.833c0.886,0.171,1.808,0.156,2.692-0.039
		c-0.447-1.633-1.511-3.047-2.97-3.927C80.378,69.694,78.63,69.414,76.975,69.778z"/>
	<path id="XMLID_590_" fill="#FFFFFF" d="M71.14,59.628c-0.354,0-0.707-0.014-1.061-0.042l0,0c-1.305-0.104-2.578-0.391-3.785-0.852
		l-1.337-0.513l0.458-1.303c1.013-2.884,3.37-5.239,6.467-6.462c3.052-1.208,6.594-1.219,9.715-0.026l1.333,0.508l-0.452,1.302
		c-1.013,2.889-3.37,5.245-6.468,6.468C74.483,59.315,72.817,59.628,71.14,59.628z M70.237,57.593
		c1.732,0.137,3.47-0.121,5.036-0.744c2.36-0.932,4.191-2.637,5.104-4.729c-2.506-0.817-5.367-0.752-7.761,0.196
		c-2.359,0.932-4.19,2.637-5.104,4.729C68.389,57.335,69.304,57.519,70.237,57.593L70.237,57.593z"/>
	<path id="XMLID_589_" fill="#FFFFFF" d="M86.681,66.714c-0.181,0-0.361-0.005-0.543-0.014l-0.008,0
		c-0.165-0.009-0.334-0.021-0.5-0.039c-2.918-0.289-5.602-1.81-7.354-4.173l-0.806-1.079l1.001-0.906
		c2.213-1.999,5.072-2.938,8.039-2.647c2.926,0.291,5.608,1.812,7.362,4.173l0.803,1.08l-0.999,0.905
		C91.738,65.767,89.271,66.714,86.681,66.714z M86.243,64.703c2.099,0.108,4.107-0.552,5.727-1.859
		c-1.415-1.694-3.451-2.778-5.655-2.998c-2.247-0.22-4.402,0.428-6.135,1.827c1.415,1.696,3.45,2.78,5.655,2.998
		C85.976,64.687,86.11,64.695,86.243,64.703z"/>
	<path id="XMLID_588_" fill="#FFFFFF" d="M86.616,46.794c-0.847,0-1.696-0.104-2.536-0.314c-0.667-0.169-1.315-0.401-1.931-0.69
		l-1.218-0.573l0.451-1.269c0.998-2.774,3.124-5.007,5.835-6.131c2.087-0.866,4.348-1.035,6.529-0.487
		c0.659,0.164,1.311,0.396,1.933,0.691l1.216,0.567l-0.452,1.271c-0.994,2.771-3.12,5.005-5.835,6.132
		C89.324,46.526,87.975,46.794,86.616,46.794z M83.442,44.173c0.365,0.147,0.742,0.271,1.126,0.368
		c1.763,0.44,3.587,0.304,5.272-0.396c2.047-0.85,3.681-2.478,4.543-4.509c-0.367-0.149-0.742-0.271-1.121-0.366
		c-1.767-0.442-3.591-0.306-5.278,0.395C85.94,40.512,84.308,42.14,83.442,44.173z"/>
	<path id="XMLID_587_" fill="#FFFFFF" d="M93.444,56.554c-1.901,0-3.744-0.526-5.377-1.542c-0.57-0.358-1.104-0.769-1.59-1.223
		l-0.005-0.004l-0.966-0.914l0.812-1.054c1.754-2.279,4.404-3.718,7.271-3.949c2.198-0.18,4.349,0.341,6.22,1.506
		c0.56,0.35,1.093,0.759,1.586,1.218l0.978,0.921l-0.816,1.056c-1.754,2.277-4.404,3.718-7.269,3.95
		C94.007,56.543,93.725,56.554,93.444,56.554z M88.216,52.657c0.288,0.239,0.593,0.459,0.911,0.659c1.504,0.936,3.229,1.354,5,1.21
		c2.14-0.174,4.131-1.186,5.534-2.797c-0.29-0.241-0.595-0.461-0.909-0.658c-1.502-0.935-3.223-1.355-5-1.209
		C91.61,50.034,89.619,51.045,88.216,52.657z"/>
	<path id="XMLID_586_" fill="#FFFFFF" d="M81.205,34.935c-0.355,0-0.722-0.02-1.086-0.06l-1.34-0.143l0.015-1.349
		c0.031-2.94,1.309-5.748,3.503-7.702c1.899-1.688,4.34-2.626,6.874-2.643c0.406-0.003,0.79,0.018,1.182,0.059l1.343,0.144
		l-0.015,1.347c-0.029,2.938-1.306,5.746-3.501,7.705l-0.002,0.002c-1.9,1.686-4.34,2.623-6.87,2.639
		C81.273,34.935,81.239,34.935,81.205,34.935z M80.812,32.925c0.159,0.008,0.312,0.012,0.478,0.009
		c2.05-0.013,4.022-0.771,5.56-2.135c1.655-1.477,2.664-3.551,2.812-5.75c-0.159-0.008-0.321-0.012-0.478-0.01
		c-2.049,0.013-4.022,0.772-5.559,2.137C81.972,28.649,80.962,30.723,80.812,32.925z"/>
	<path id="XMLID_585_" fill="#FFFFFF" d="M66.81,26.987l-0.821-1.03c-1.81-2.261-2.555-5.176-2.042-7.996
		c0.511-2.814,2.232-5.303,4.724-6.829l1.126-0.685l0.817,1.019c1.811,2.263,2.556,5.178,2.046,7.999
		c-0.511,2.814-2.232,5.302-4.725,6.827L66.81,26.987z M69.332,13.087c-1.799,1.239-3.035,3.123-3.418,5.232
		c-0.382,2.1,0.112,4.269,1.358,6.021c1.8-1.24,3.036-3.123,3.418-5.23C71.071,17.008,70.576,14.838,69.332,13.087z"/>
	<path id="XMLID_584_" fill="#FFFFFF" d="M68.957,48.356c-0.346,0-0.694-0.014-1.044-0.043l-1.695-0.192l0.045-1.249
		c0.085-2.54,1.441-4.92,3.72-6.53c2.244-1.588,5.097-2.281,8.037-1.952l0.396,0.046l0.911,0.105l-0.036,1.248
		c-0.089,2.546-1.445,4.928-3.724,6.538C73.691,47.651,71.377,48.356,68.957,48.356z M68.314,46.336
		c2.241,0.141,4.397-0.442,6.098-1.643c1.576-1.114,2.582-2.68,2.824-4.364c-2.23-0.13-4.422,0.458-6.099,1.645
		C69.561,43.088,68.556,44.652,68.314,46.336z"/>
	<path id="XMLID_583_" fill="#FFFFFF" d="M63.836,38.476l-1.321-0.016l-0.091-1.25c-0.173-2.593,0.961-5.148,3.109-7.016
		c2.083-1.809,4.855-2.801,7.821-2.801c0.046,0,0.091,0,0.138,0l1.325,0.024l0.088,1.249c0.177,2.59-0.956,5.146-3.107,7.012
		c-2.022,1.756-4.711,2.75-7.571,2.799H63.836z M72.919,29.401c-2.293,0.094-4.481,0.919-6.073,2.302
		c-1.502,1.305-2.368,3.015-2.436,4.767c2.306-0.084,4.458-0.898,6.077-2.304C71.99,32.863,72.855,31.153,72.919,29.401z"/>
	<path id="XMLID_613_" fill="#FFFFFF" d="M46.386,110.173c-1.449,0-2.429-0.21-2.817-0.312l-2.702-0.707l2.536-1.169
		c6.54-3.013,7.541-11.27,7.683-18.127l0.006-0.271c0.096-4.595,0.194-9.346-0.48-12.841c-1.128-5.825-4.862-8.711-8.274-10.96
		c-0.931-0.64-1.169-1.786-0.609-2.863c0.512-0.986,1.482-1.49,2.351-1.231c0.227,0.046,0.479,0.125,0.77,0.238
		c1.729,0.559,7.759,2.832,13.15,8.531c5.396-5.708,11.425-7.976,13.206-8.551c0.236-0.095,0.485-0.172,0.716-0.219
		c0.858-0.255,1.838,0.247,2.351,1.234c0.558,1.076,0.32,2.221-0.591,2.849c-3.431,2.261-7.167,5.148-8.294,10.972
		c-0.669,3.461-0.575,8.163-0.483,12.709l0.008,0.402c0.142,6.857,1.144,15.115,7.684,18.126l2.542,1.17l-2.708,0.706
		c-1.086,0.282-6.784,1.409-14.429-3.544C53.087,109.498,48.982,110.173,46.386,110.173z M43.646,63.646
		c-0.121,0.108-0.246,0.369-0.212,0.471c4.029,2.655,7.925,5.976,9.139,12.25c0.716,3.704,0.615,8.563,0.518,13.262l-0.006,0.27
		c-0.134,6.47-1.017,14.108-6.208,18.277c2.389-0.083,6.082-0.848,10.56-3.886l0.562-0.381l0.562,0.381
		c4.473,3.036,8.166,3.801,10.557,3.885c-5.19-4.168-6.073-11.806-6.207-18.276l-0.008-0.403c-0.094-4.651-0.189-9.46,0.521-13.129
		c1.213-6.273,5.109-9.595,9.14-12.25c0.033-0.101-0.094-0.362-0.215-0.471l-0.002,0c-0.08,0.014-0.227,0.051-0.468,0.146
		c-1.801,0.583-7.892,2.881-13.13,8.813l-0.75,0.848l-0.749-0.848c-5.234-5.923-11.329-8.228-13.073-8.792
		c-0.224-0.085-0.384-0.142-0.526-0.167L43.646,63.646z"/>
	<path id="XMLID_614_" fill="#FFFFFF" d="M57.997,66.278c-2.678,0-4.856-2.178-4.856-4.856s2.179-4.856,4.856-4.856
		s4.856,2.178,4.856,4.856S60.675,66.278,57.997,66.278z M57.997,58.566c-1.575,0-2.856,1.281-2.856,2.856s1.281,2.856,2.856,2.856
		s2.856-1.281,2.856-2.856S59.572,58.566,57.997,58.566z"/>
</g>
</svg>
