<?xml version="1.0" encoding="utf-8"?>
<!-- Generator: Adobe Illustrator 19.0.0, SVG Export Plug-In . SVG Version: 6.00 Build 0)  -->
<svg version="1.1" id="Layer_1" xmlns="http://www.w3.org/2000/svg" xmlns:xlink="http://www.w3.org/1999/xlink" x="0px" y="0px"
	 viewBox="0 0 76 80" enable-background="new 0 0 76 80" xml:space="preserve">
<g id="XMLID_37_">
	<path id="XMLID_41_" fill="#74AC00" d="M29.381,35.06l9.118,2.367l-0.896-2.635c-0.506-1.487-1.793-5.272-1.994-6.317
		c1.599-2.842,2.442-6.033,2.442-9.245c0-10.361-8.429-18.79-18.791-18.79c-10.361,0-18.79,8.429-18.79,18.79
		S8.9,38.021,19.261,38.021C22.868,38.021,26.361,36.997,29.381,35.06z M3.471,19.229c0-8.707,7.083-15.79,15.79-15.79
		c8.707,0,15.791,7.083,15.791,15.79c0,2.767-0.748,5.52-2.159,7.953c-0.514,0.876-0.573,1.259,0.983,5.944l-3.781-0.981
		c-0.685-0.265-1.47-0.181-2.092,0.23c-2.593,1.73-5.616,2.645-8.741,2.645C10.554,35.021,3.471,27.937,3.471,19.229z"/>
	<path id="XMLID_71_" fill="#74AC00" d="M62.669,14.499c-7.092,0-12.861,5.77-12.861,12.86c0,2.128,0.541,4.242,1.575,6.152
		c-0.207,0.833-0.979,3.102-1.252,3.907l-0.896,2.634l6.7-1.738c2.024,1.248,4.343,1.906,6.735,1.906
		c7.091,0,12.86-5.77,12.86-12.861C75.529,20.269,69.76,14.499,62.669,14.499z M62.669,37.221c-1.952,0-3.839-0.571-5.466-1.656
		c-0.333-0.22-0.723-0.331-1.114-0.331c-0.234,0-0.469,0.04-0.692,0.121l-1.547,0.401c0.724-2.254,0.718-2.731,0.31-3.424
		c-0.885-1.525-1.352-3.245-1.352-4.973c0-5.438,4.424-9.86,9.861-9.86c5.437,0,9.86,4.423,9.86,9.86S68.106,37.221,62.669,37.221z"
		/>
	<path id="XMLID_72_" fill="#74AC00" d="M41.612,67.317c2.988,0,5.378-2.39,5.378-5.378H36.234
		C36.234,64.927,38.625,67.317,41.612,67.317z"/>
	<path id="XMLID_75_" fill="#74AC00" d="M67.635,65.102c0.344-1.046,0.54-2.169,0.54-3.349v-5.499c0-5.72-4.375-10.2-9.959-10.2
		c-2.169,0-4.244,0.7-5.934,1.963c-1.408-2.309-3.513-4.097-6.041-5.084c-0.006-0.003-0.013-0.005-0.019-0.007
		c-0.466-0.181-0.947-0.332-1.439-0.457c-0.118-0.03-0.234-0.064-0.353-0.091c-0.176-0.039-0.354-0.07-0.532-0.101
		c-0.216-0.039-0.434-0.072-0.654-0.099c-0.14-0.017-0.279-0.035-0.421-0.048c-0.375-0.034-0.753-0.057-1.136-0.057
		c-0.388,0-0.771,0.023-1.152,0.058c-0.128,0.011-0.254,0.028-0.381,0.043c-0.251,0.031-0.5,0.068-0.747,0.114
		c-0.143,0.026-0.286,0.051-0.426,0.081c-0.265,0.058-0.525,0.127-0.784,0.202c-0.211,0.061-0.417,0.129-0.623,0.2
		c-0.202,0.07-0.403,0.141-0.599,0.221c-0.168,0.068-0.332,0.142-0.496,0.218c-0.166,0.076-0.33,0.156-0.492,0.24
		c-0.158,0.081-0.315,0.162-0.469,0.249c-0.201,0.115-0.397,0.239-0.591,0.364c-0.168,0.109-0.333,0.22-0.495,0.337
		c-0.211,0.152-0.419,0.308-0.621,0.473c-0.106,0.087-0.208,0.178-0.31,0.268c-0.181,0.159-0.358,0.323-0.53,0.493
		c-0.088,0.087-0.176,0.173-0.261,0.262c-0.218,0.228-0.428,0.465-0.629,0.711c-0.029,0.036-0.061,0.068-0.089,0.104
		c-0.23,0.287-0.445,0.587-0.65,0.897c-0.054,0.082-0.104,0.167-0.157,0.25c-0.046,0.073-0.092,0.145-0.137,0.219
		c-1.703-1.301-3.805-2.022-6.015-2.022c-5.584,0-9.959,4.48-9.959,10.2v5.499c0,1.18,0.195,2.302,0.54,3.348
		c-0.12,0.07-0.243,0.136-0.343,0.242c-2.227,2.358-3.453,5.437-3.453,8.668c0,0.828,0.671,1.5,1.5,1.5s1.5-0.672,1.5-1.5
		c0-2.249,0.789-4.398,2.219-6.125c1.8,2.481,4.68,4.068,7.996,4.068c0.966,0,1.9-0.15,2.793-0.408
		c-0.898,2.039-1.382,4.257-1.382,6.513c0,0.828,0.671,1.5,1.5,1.5s1.5-0.672,1.5-1.5c0-2.771,0.939-5.569,2.579-7.801
		c0.039,0.048,0.083,0.091,0.122,0.138c0.175,0.212,0.357,0.418,0.545,0.617c0.059,0.062,0.116,0.126,0.176,0.187
		c0.259,0.263,0.528,0.514,0.808,0.752c0.023,0.02,0.049,0.038,0.072,0.058c0.259,0.216,0.528,0.419,0.804,0.613
		c0.067,0.047,0.134,0.093,0.202,0.139c0.283,0.19,0.572,0.37,0.87,0.536c0.025,0.014,0.049,0.03,0.074,0.044
		c0.321,0.176,0.651,0.334,0.988,0.481c0.085,0.037,0.171,0.07,0.257,0.105c0.266,0.109,0.536,0.208,0.811,0.298
		c0.091,0.03,0.181,0.062,0.274,0.09c0.346,0.105,0.697,0.197,1.055,0.272c0.075,0.016,0.152,0.026,0.228,0.041
		c0.299,0.057,0.602,0.103,0.908,0.138c0.106,0.012,0.212,0.024,0.319,0.034c0.38,0.034,0.763,0.058,1.152,0.058
		c0.382,0,0.76-0.023,1.134-0.057c0.12-0.011,0.238-0.024,0.357-0.038c0.265-0.032,0.528-0.072,0.788-0.12
		c0.127-0.023,0.254-0.042,0.38-0.069c0.301-0.065,0.597-0.143,0.89-0.229c0.194-0.057,0.384-0.122,0.575-0.188
		c0.12-0.042,0.239-0.086,0.358-0.132c0.744-0.285,1.451-0.639,2.116-1.056c0.006-0.004,0.012-0.008,0.019-0.012
		c1.379-0.867,2.57-2,3.515-3.338c0.376,0.32,0.775,0.606,1.192,0.864c1.559,2.186,2.415,4.789,2.415,7.502
		c0,0.828,0.671,1.5,1.5,1.5s1.5-0.672,1.5-1.5c0-2.115-0.423-4.176-1.215-6.088c0.332,0.033,0.667,0.057,1.006,0.057
		c3.316,0,6.196-1.587,7.996-4.068c1.43,1.728,2.219,3.876,2.219,6.125c0,0.828,0.671,1.5,1.5,1.5s1.5-0.672,1.5-1.5
		c0-3.231-1.227-6.31-3.453-8.668C67.878,65.239,67.755,65.173,67.635,65.102z M48.674,68.744c-0.572,0.638-1.223,1.189-1.935,1.644
		c-0.032,0.02-0.064,0.04-0.095,0.059c-0.349,0.217-0.711,0.415-1.087,0.584c-0.002,0.001-0.004,0.002-0.006,0.003
		c-0.381,0.172-0.776,0.315-1.18,0.434c-0.051,0.015-0.104,0.026-0.156,0.041c-0.333,0.092-0.672,0.163-1.017,0.219
		c-0.096,0.015-0.192,0.032-0.289,0.044c-0.402,0.052-0.808,0.086-1.222,0.086s-0.819-0.035-1.22-0.086
		c-0.115-0.015-0.228-0.034-0.342-0.052c-0.304-0.05-0.603-0.115-0.897-0.193c-0.102-0.027-0.206-0.049-0.306-0.079
		c-0.355-0.107-0.701-0.236-1.039-0.384c-0.131-0.058-0.257-0.125-0.385-0.189c-0.209-0.103-0.414-0.214-0.615-0.333
		c-0.151-0.09-0.302-0.18-0.448-0.278c-0.188-0.126-0.367-0.265-0.545-0.404c-0.226-0.177-0.442-0.365-0.651-0.562
		c-0.139-0.132-0.278-0.265-0.41-0.405c-0.132-0.141-0.259-0.287-0.383-0.436c-0.148-0.18-0.289-0.368-0.424-0.56
		c-0.099-0.139-0.199-0.276-0.29-0.421c-0.185-0.295-0.356-0.602-0.511-0.921c-0.059-0.12-0.113-0.241-0.167-0.364
		c-0.088-0.2-0.169-0.402-0.244-0.606c-0.045-0.123-0.089-0.246-0.129-0.371c-0.069-0.217-0.128-0.437-0.183-0.658
		c-0.031-0.125-0.065-0.248-0.091-0.374c-0.049-0.237-0.084-0.477-0.117-0.718c-0.015-0.114-0.037-0.225-0.049-0.34
		c-0.036-0.357-0.057-0.717-0.057-1.082v-7.151c0-0.339,0.016-0.673,0.047-1.002c0.007-0.079,0.023-0.157,0.032-0.236
		c0.029-0.252,0.061-0.503,0.107-0.747c0.012-0.061,0.029-0.12,0.042-0.18c0.055-0.263,0.115-0.525,0.19-0.779
		c0.005-0.016,0.011-0.031,0.016-0.047c0.093-0.309,0.2-0.612,0.32-0.906c0.134-0.333,0.292-0.65,0.458-0.96
		c0.092-0.17,0.189-0.336,0.29-0.499c0.12-0.194,0.249-0.38,0.382-0.563c0.163-0.225,0.334-0.443,0.515-0.652
		c0.158-0.182,0.319-0.362,0.49-0.531c0.125-0.124,0.254-0.245,0.386-0.362c0.24-0.212,0.489-0.414,0.749-0.6
		c0.096-0.069,0.193-0.135,0.291-0.2c0.289-0.19,0.589-0.364,0.898-0.522c0.099-0.05,0.198-0.099,0.299-0.146
		c0.375-0.174,0.758-0.333,1.156-0.457c0.005-0.001,0.01-0.002,0.014-0.004c0.396-0.123,0.805-0.211,1.22-0.281
		c0.1-0.017,0.2-0.032,0.301-0.046c0.426-0.058,0.857-0.098,1.297-0.098c0.44,0,0.872,0.039,1.298,0.098
		c0.087,0.012,0.174,0.026,0.261,0.04c0.873,0.146,1.712,0.406,2.494,0.779c0.025,0.012,0.05,0.025,0.075,0.037
		c0.797,0.389,1.534,0.89,2.192,1.488c0.036,0.033,0.072,0.067,0.108,0.101c0.623,0.584,1.168,1.258,1.623,2.006
		c0.05,0.083,0.099,0.167,0.147,0.252c0.208,0.366,0.401,0.744,0.562,1.143c0.002,0.006,0.006,0.012,0.008,0.018
		c0.12,0.298,0.225,0.602,0.316,0.91c0.064,0.217,0.112,0.442,0.162,0.666c0.021,0.095,0.05,0.187,0.068,0.283
		c0.048,0.248,0.079,0.502,0.109,0.757c0.009,0.077,0.025,0.151,0.032,0.228c0.032,0.332,0.048,0.67,0.048,1.012v7.151
		c0,0.372-0.022,0.74-0.061,1.104c-0.009,0.087-0.026,0.171-0.037,0.258c-0.038,0.286-0.082,0.571-0.143,0.852
		c-0.015,0.071-0.034,0.139-0.051,0.209c-0.075,0.31-0.161,0.618-0.265,0.921c-0.01,0.03-0.021,0.06-0.031,0.09
		c-0.123,0.346-0.263,0.687-0.424,1.021l0,0l0,0c-0.395,0.819-0.893,1.56-1.472,2.213C48.694,68.72,48.684,68.732,48.674,68.744z
		 M18.074,61.754v-5.499c0-4.037,3.057-7.2,6.959-7.2c1.819,0,3.475,0.657,4.742,1.867c-0.004,0.013-0.006,0.026-0.01,0.038
		c-0.018,0.059-0.035,0.119-0.052,0.179c-0.029,0.101-0.05,0.204-0.077,0.306c-0.057,0.216-0.111,0.433-0.157,0.652
		c-0.018,0.085-0.039,0.168-0.055,0.253c-0.015,0.081-0.025,0.164-0.039,0.245c-0.041,0.239-0.073,0.48-0.101,0.722
		c-0.011,0.095-0.028,0.188-0.037,0.284c-0.004,0.046-0.006,0.092-0.009,0.138c-0.032,0.381-0.052,0.765-0.052,1.152v7.151
		c0,0.429,0.022,0.854,0.061,1.275c0.004,0.045,0.01,0.089,0.014,0.134c0.013,0.121,0.036,0.239,0.052,0.359
		c0.003,0.02,0.006,0.039,0.008,0.059c0.03,0.225,0.056,0.451,0.098,0.673c0.019,0.103,0.042,0.203,0.063,0.305
		c0.024,0.114,0.056,0.226,0.083,0.339c0.01,0.044,0.021,0.088,0.032,0.132c0.033,0.131,0.06,0.264,0.097,0.395
		c0.049,0.175,0.106,0.346,0.162,0.517c0.029,0.089,0.062,0.177,0.093,0.265c0.017,0.05,0.034,0.1,0.052,0.149
		c0.019,0.052,0.032,0.106,0.052,0.158c-1.289,1.378-3.077,2.153-5.019,2.153C21.131,68.955,18.074,65.792,18.074,61.754z
		 M55.068,68.203c-0.317-0.407-0.653-0.802-1.012-1.182c-0.192-0.202-0.431-0.315-0.68-0.387c0.025-0.069,0.049-0.138,0.073-0.207
		c0.001-0.002,0.002-0.005,0.002-0.007c0.145-0.42,0.269-0.85,0.372-1.29c0.016-0.067,0.034-0.133,0.049-0.2
		c0.029-0.133,0.06-0.264,0.085-0.398c0.015-0.081,0.022-0.164,0.035-0.245c0.028-0.17,0.053-0.341,0.074-0.513
		c0.013-0.099,0.032-0.197,0.043-0.297c0.005-0.053,0.013-0.105,0.018-0.158c0.04-0.422,0.061-0.848,0.061-1.278v-7.151
		c0-0.398-0.021-0.791-0.055-1.182c-0.003-0.04-0.003-0.082-0.007-0.122c-0.01-0.101-0.029-0.198-0.041-0.297
		c-0.03-0.253-0.065-0.504-0.109-0.753c-0.012-0.068-0.017-0.138-0.03-0.206c-0.019-0.098-0.045-0.192-0.065-0.289
		c-0.044-0.202-0.095-0.403-0.148-0.603c-0.049-0.188-0.097-0.376-0.154-0.56c-0.004-0.014-0.007-0.028-0.012-0.042
		c1.257-1.155,2.878-1.782,4.647-1.782c0.488,0,0.962,0.049,1.419,0.144c3.199,0.661,5.54,3.524,5.54,7.056v5.499
		c0,3.533-2.34,6.397-5.54,7.057c-0.457,0.094-0.932,0.144-1.419,0.144C57.093,68.955,56.023,68.689,55.068,68.203z"/>
</g>
</svg>
