<?xml version="1.0" encoding="UTF-8" standalone="no"?>
<!-- Generator: Adobe Illustrator 19.0.0, SVG Export Plug-In . SVG Version: 6.00 Build 0)  -->

<svg
   xmlns:dc="http://purl.org/dc/elements/1.1/"
   xmlns:cc="http://creativecommons.org/ns#"
   xmlns:rdf="http://www.w3.org/1999/02/22-rdf-syntax-ns#"
   xmlns:svg="http://www.w3.org/2000/svg"
   xmlns="http://www.w3.org/2000/svg"
   xmlns:sodipodi="http://sodipodi.sourceforge.net/DTD/sodipodi-0.dtd"
   xmlns:inkscape="http://www.inkscape.org/namespaces/inkscape"
   version="1.1"
   id="Layer_1"
   x="0px"
   y="0px"
   viewBox="0 0 505 260"
   enable-background="new 0 0 505 260"
   xml:space="preserve"
   inkscape:version="0.91 r13725"
   sodipodi:docname="homepage-devices.svg"><metadata
     id="metadata4364"><rdf:RDF><cc:Work
         rdf:about=""><dc:format>image/svg+xml</dc:format><dc:type
           rdf:resource="http://purl.org/dc/dcmitype/StillImage" /></cc:Work></rdf:RDF></metadata><defs
     id="defs4362" /><sodipodi:namedview
     pagecolor="#ffffff"
     bordercolor="#666666"
     borderopacity="1"
     objecttolerance="10"
     gridtolerance="10"
     guidetolerance="10"
     inkscape:pageopacity="0"
     inkscape:pageshadow="2"
     inkscape:window-width="1229"
     inkscape:window-height="724"
     id="namedview4360"
     showgrid="false"
     inkscape:zoom="1.0641607"
     inkscape:cx="252.5"
     inkscape:cy="130"
     inkscape:window-x="0"
     inkscape:window-y="0"
     inkscape:window-maximized="0"
     inkscape:current-layer="Layer_1" /><g
     id="XMLID_333_"
     transform="translate(0,10)"><g
       id="computer_1_"><g
         id="XMLID_334_"><g
           id="XMLID_335_"
           style="opacity:0.28999999"><path
             id="XMLID_336_"
             d="m 99.14,7.084 252.103,0 0,142.919 -252.103,0 0,-142.919 z"
             inkscape:connector-curvature="0"
             style="clip-rule:evenodd;opacity:0.6;fill:#ffffff;fill-rule:evenodd" /></g></g><path
         id="XMLID_21_"
         d="m 187.554,194.918 c -1.029,0 -1.775,-0.685 -1.775,-1.629 0,-0.27 0,-0.771 12.971,-12.955 l 0,-18.834 -107.137,0 c -2.458,0 -4.863,-3.147 -4.863,-5.496 l 0,-159.176 c 0,-0.67 0.198,-1.206 0.588,-1.59 0.796,-0.785 2.16,-0.765 3.602,-0.744 l 0.673,0.006 266.824,0 c 0.239,0 0.461,-0.004 0.664,-0.007 0.963,-0.016 1.66,-0.028 2.136,0.438 0.364,0.359 0.514,0.909 0.514,1.896 l 0,159.176 c 0,2.735 -1.024,5.496 -3.313,5.496 l -108.688,0 0,17.77 c 13.836,13.931 13.836,14.201 13.836,14.463 0,0.335 -0.1,0.603 -0.295,0.796 -0.334,0.33 -0.815,0.323 -1.295,0.314 l -0.225,-0.002 -74.217,0.078 z m -0.767,-1.52 c 0.058,0.381 0.423,0.52 0.767,0.52 l 74.217,-0.077 0.241,0.003 c 0.168,0 0.403,0.007 0.527,-0.018 -1.063,-1.263 -8.598,-8.918 -13.644,-13.998 l -0.145,-0.146 0,-19.182 109.687,0 c 1.83,0 2.313,-2.941 2.313,-4.496 l 0,-159.176 c 0,-0.645 -0.072,-1.043 -0.215,-1.184 -0.175,-0.172 -0.724,-0.165 -1.418,-0.151 -0.209,0.003 -0.436,0.007 -0.681,0.007 l -266.823,0 -0.688,-0.006 c -1.172,-0.018 -2.387,-0.035 -2.885,0.456 -0.195,0.192 -0.29,0.479 -0.29,0.878 l 0,159.176 c 0,1.816 2.035,4.496 3.863,4.496 l 108.137,0 0,20.268 -0.158,0.147 c -4.614,4.334 -12.02,11.413 -12.805,12.483 z"
         inkscape:connector-curvature="0"
         style="opacity:0.6;fill:#ffffff" /></g></g><g
     id="XMLID_287_"
     transform="translate(0,10)"><g
       id="tablet_1_"><g
         id="XMLID_317_"><g
           id="XMLID_325_"><path
             id="XMLID_331_"
             d="m 8.929,76.456 104.894,0 c 2.829,0 5.075,2.293 5.075,5.123 l 0.016,139.516 c 0,2.829 -2.261,4.93 -5.091,4.93 L 8.929,226.017 c -2.829,0 -5.043,-2.045 -5.043,-4.874 L 3.911,81.578 c 0,-2.829 2.189,-5.122 5.018,-5.122 z"
             inkscape:connector-curvature="0"
             style="clip-rule:evenodd;fill:#74ac00;fill-rule:evenodd" /><path
             id="XMLID_328_"
             d="M 113.823,226.525 8.929,226.517 c -3.16,0 -5.542,-2.311 -5.542,-5.375 L 3.411,81.578 c 0,-3.153 2.424,-5.623 5.519,-5.623 l 104.894,0 c 3.074,0 5.575,2.522 5.575,5.623 l 0.016,139.516 c -0.001,3.045 -2.456,5.431 -5.592,5.431 z M 8.929,76.956 c -2.534,0 -4.519,2.03 -4.519,4.623 L 4.387,221.142 c 0,2.494 1.953,4.375 4.542,4.375 l 104.894,0.008 c 2.617,0 4.591,-1.904 4.591,-4.431 L 118.398,81.578 c 0,-2.549 -2.052,-4.623 -4.575,-4.623 l -104.894,0 z"
             inkscape:connector-curvature="0"
             style="opacity:0.6;fill:#ffffff" /></g></g><g
         id="XMLID_306_"><g
           id="XMLID_307_"
           style="opacity:0.28999999"><path
             id="XMLID_308_"
             d="m 15.299,90.282 92.203,-0.01 -0.008,123.46 -92.195,0.003 0,-123.453 z"
             inkscape:connector-curvature="0"
             style="clip-rule:evenodd;opacity:0.6;fill:#ffffff;fill-rule:evenodd" /></g></g><g
         id="XMLID_301_"><path
           id="XMLID_304_"
           d="m 61.4,82.975 c 0.757,0 1.37,0.613 1.37,1.37 0,0.757 -0.613,1.37 -1.37,1.37 -0.757,0 -1.37,-0.613 -1.37,-1.37 0,-0.757 0.614,-1.37 1.37,-1.37 z"
           inkscape:connector-curvature="0"
           style="clip-rule:evenodd;opacity:0.6;fill:#ffffff;fill-rule:evenodd" /></g><g
         id="XMLID_288_"><g
           id="XMLID_290_"><path
             id="XMLID_298_"
             d="m 61.4,216.462 c 1.652,0 2.992,1.339 2.992,2.992 0,1.652 -1.339,2.992 -2.992,2.992 -1.652,0 -2.992,-1.339 -2.992,-2.992 10e-4,-1.653 1.34,-2.992 2.992,-2.992 z"
             inkscape:connector-curvature="0"
             style="clip-rule:evenodd;fill:#74ac00;fill-rule:evenodd" /><path
             id="XMLID_293_"
             d="m 61.401,222.882 c -1.89,0 -3.428,-1.537 -3.428,-3.428 0,-1.891 1.538,-3.429 3.428,-3.429 1.89,0 3.428,1.538 3.428,3.429 0,1.891 -1.539,3.428 -3.428,3.428 z m 0,-5.984 c -1.409,0 -2.555,1.146 -2.555,2.556 0,1.409 1.146,2.555 2.555,2.555 1.409,0 2.555,-1.146 2.555,-2.555 0,-1.41 -1.147,-2.556 -2.555,-2.556 z"
             inkscape:connector-curvature="0"
             style="opacity:0.6;fill:#ffffff" /></g></g></g></g><g
     id="XMLID_252_"
     transform="translate(0,10)"><g
       id="mobile_3_"><g
         id="XMLID_279_"><path
           id="XMLID_281_"
           d="m 418.402,236.997 -34.459,0 c -3.154,0 -5.532,-2.318 -5.532,-5.394 l 0.004,-84.713 c 0,-3.113 2.48,-5.646 5.528,-5.646 l 34.459,0 c 3.076,0 5.578,2.522 5.578,5.622 l 0,84.673 c 0,3.06 -2.45,5.458 -5.578,5.458 z m -34.459,-94.753 c -2.539,0 -4.528,2.041 -4.528,4.646 l -0.004,84.713 c 0,2.505 1.948,4.394 4.532,4.394 l 34.459,0 c 2.567,0 4.578,-1.958 4.578,-4.458 l 0,-84.673 c 0,-2.549 -2.054,-4.622 -4.578,-4.622 l -34.459,0 z"
           inkscape:connector-curvature="0"
           style="opacity:0.6;fill:#ffffff" /></g><g
         id="XMLID_273_"><path
           id="XMLID_276_"
           d="m 401.196,231.689 c -1.858,0 -3.37,-1.512 -3.37,-3.369 0,-1.858 1.512,-3.37 3.37,-3.37 1.857,0 3.369,1.512 3.369,3.37 0,1.857 -1.512,3.369 -3.369,3.369 z m 0,-5.739 c -1.307,0 -2.37,1.063 -2.37,2.37 0,1.307 1.063,2.369 2.37,2.369 1.307,0 2.369,-1.062 2.369,-2.369 0,-1.307 -1.063,-2.37 -2.369,-2.37 z"
           inkscape:connector-curvature="0"
           style="opacity:0.6;fill:#ffffff" /></g><g
         id="XMLID_268_"><g
           id="XMLID_269_"
           style="opacity:0.28999999"><path
             id="XMLID_270_"
             d="m 382.725,153.177 36.911,-0.014 0.03,67.894 -36.941,-0.006 0,-67.874 z"
             inkscape:connector-curvature="0"
             style="clip-rule:evenodd;opacity:0.6;fill:#ffffff;fill-rule:evenodd" /></g></g><g
         id="XMLID_253_"><g
           id="XMLID_261_"><path
             id="XMLID_262_"
             d="m 397.171,148.052 8.048,0 c 0.313,0 0.567,0.232 0.567,0.545 0,0.313 -0.254,0.481 -0.567,0.481 l -8.048,0 c -0.313,0 -0.567,-0.168 -0.567,-0.481 0,-0.313 0.254,-0.545 0.567,-0.545 z"
             inkscape:connector-curvature="0"
             style="clip-rule:evenodd;opacity:0.6;fill:#ffffff;fill-rule:evenodd" /></g><g
           id="XMLID_256_"><path
             id="XMLID_259_"
             d="m 401.195,144.072 c 0.313,0 0.567,0.254 0.567,0.567 0,0.313 -0.254,0.567 -0.567,0.567 -0.313,0 -0.567,-0.254 -0.567,-0.567 0,-0.313 0.254,-0.567 0.567,-0.567 z"
             inkscape:connector-curvature="0"
             style="clip-rule:evenodd;opacity:0.6;fill:#ffffff;fill-rule:evenodd" /></g></g></g></g><path
     id="XMLID_24_"
     d="m 475.204,253.414 c -11.083,0 -24.564,-1.304 -26.364,-3.098 -0.239,-0.238 -0.289,-0.476 -0.289,-0.633 l 0.005,-97.007 c 0,-0.489 0,-1.636 8.551,-2.762 5.257,-0.691 11.784,-1.088 17.909,-1.088 0.004,0 0.007,0 0.011,0 9.5,0.001 26.47,1.279 26.47,3.821 l 0,96.959 c 0,2.474 -16.539,3.773 -25.798,3.806 -0.165,0.002 -0.331,0.002 -0.495,0.002 z m -25.648,-100.683 -0.005,96.952 c 0.749,1.04 12.471,2.73 25.604,2.73 0.18,0 0.359,0 0.54,-0.001 13.473,-0.048 24.158,-1.91 24.824,-2.9 l -0.022,-96.864 c -0.729,-1.06 -12.446,-2.819 -25.47,-2.821 -0.003,0 -0.008,0 -0.011,0 -12.958,0 -24.582,1.747 -25.46,2.904 z"
     inkscape:connector-curvature="0"
     style="opacity:0.6;fill:#ffffff" /><g
     id="XMLID_235_"
     transform="translate(0,10)"><g
       id="XMLID_68_"><g
         id="XMLID_69_"
         style="opacity:0.6"><path
           id="XMLID_70_"
           d="m 475.366,237.927 c -1.192,0 -2.162,-0.97 -2.162,-2.162 0,-1.192 0.97,-2.162 2.162,-2.162 1.192,0 2.162,0.97 2.162,2.162 0,1.192 -0.969,2.162 -2.162,2.162 z m 0,-3.324 c -0.641,0 -1.162,0.521 -1.162,1.162 0,0.641 0.521,1.162 1.162,1.162 0.641,0 1.162,-0.521 1.162,-1.162 0,-0.641 -0.521,-1.162 -1.162,-1.162 z"
           inkscape:connector-curvature="0"
           style="fill:#ffffff" /></g></g></g><g
     id="XMLID_150_"
     transform="translate(0,10)"
     style="opacity:0.6"><g
       id="XMLID_152_"
       style="opacity:0.28999999"><path
         id="XMLID_155_"
         d="m 497.654,230.655 -45.259,-0.007 0,-81.629 45.223,-0.017 0.036,81.653 z"
         inkscape:connector-curvature="0"
         style="fill:#ffffff" /></g></g><g
     id="XMLID_140_"
     transform="translate(0,10)"><g
       id="XMLID_141_"><path
         id="XMLID_142_"
         d="m 475.697,145.097 c 0.612,0 1.109,0.496 1.109,1.109 0,0.612 -0.496,1.109 -1.109,1.109 -0.613,0 -1.109,-0.496 -1.109,-1.109 0,-0.613 0.497,-1.109 1.109,-1.109 z"
         inkscape:connector-curvature="0"
         style="clip-rule:evenodd;opacity:0.6;fill:#ffffff;fill-rule:evenodd" /></g></g><g
     id="XMLID_20_"
     transform="translate(0,10)"><g
       id="XMLID_28_"><path
         id="XMLID_29_"
         d="m 459.197,145.735 c 0.26,0 0.471,0.211 0.471,0.471 0,0.26 -0.211,0.471 -0.471,0.471 -0.26,0 -0.471,-0.211 -0.471,-0.471 0,-0.26 0.211,-0.471 0.471,-0.471 z"
         inkscape:connector-curvature="0"
         style="clip-rule:evenodd;opacity:0.6;fill:#ffffff;fill-rule:evenodd" /></g></g><path
     id="path2348-7"
     d="m 208.819,30.894 c -0.944,6.78 -1.334,13.018 -1.261,18.751 0.679,0.531 1.357,1.071 2.049,1.624 8.258,7.362 11.522,14.995 22.466,24.508 0.385,0.299 0.571,0.788 0.487,1.268 -0.085,0.48 -0.427,0.872 -0.891,1.021 -0.464,0.149 -0.974,0.032 -1.323,-0.308 -11.271,-9.797 -14.658,-17.549 -22.487,-24.529 -0.069,-0.053 -0.137,-0.105 -0.206,-0.158 -0.315,-0.243 -0.627,-0.483 -0.939,-0.72 -0.06,-0.046 -0.118,-0.091 -0.178,-0.137 -0.32,-0.242 -0.635,-0.477 -0.953,-0.713 -0.05,-0.038 -0.1,-0.072 -0.151,-0.11 -0.323,-0.24 -0.647,-0.48 -0.966,-0.713 -0.044,-0.032 -0.086,-0.064 -0.13,-0.096 -0.328,-0.238 -0.656,-0.468 -0.98,-0.699 -0.035,-0.025 -0.068,-0.051 -0.103,-0.075 -0.334,-0.237 -0.663,-0.469 -0.994,-0.699 -0.025,-0.017 -0.051,-0.031 -0.075,-0.048 -0.337,-0.234 -0.668,-0.466 -1.001,-0.692 -0.018,-0.012 -0.037,-0.022 -0.055,-0.034 -0.194,-0.131 -0.383,-0.262 -0.576,-0.391 -0.156,-0.104 -0.311,-0.213 -0.466,-0.315 -0.346,-0.229 -0.693,-0.451 -1.035,-0.672 l 0,-0.087 c -8.397,-4.774 -20.847,-9.521 -41.341,-14.694 0.782,4.539 15.361,10.997 21.452,13.714 0,0 -18.312,-4.054 -27.03,-3.811 10.626,5.869 29.977,11.096 29.977,11.096 0,0 -13.717,-0.12 -22.651,-0.822 11.188,7.213 22.959,8.115 22.959,8.115 0,0 -8.125,2.522 -14.852,2.296 6.508,5.036 16.867,5.455 16.867,5.455 0,0 -6.685,0.935 -11.87,2.049 4.594,2.927 12.494,4.469 12.494,4.469 0,0 -4.519,1.384 -9.033,2.454 4.552,2.454 11.514,3.05 11.514,3.05 0,0 -3.365,0.706 -6.785,1.583 3.294,2.666 5.853,3.536 5.853,3.536 0,0 -0.06,1.279 -2.371,1.748 2.669,2.161 4.325,1.85 4.325,1.85 0,0 -0.314,1.509 -2.001,1.007 1.282,2.806 3.084,2.248 3.084,2.248 0,0 0.057,0.361 -0.212,0.891 0.003,0.003 0.004,0.005 0.007,0.007 0.09,0.065 0.184,0.127 0.274,0.192 0.349,0.251 0.7,0.503 1.055,0.747 0.007,0.005 0.014,0.009 0.021,0.014 0.32,0.219 0.648,0.431 0.973,0.644 0.1,0.065 0.195,0.134 0.295,0.199 0.029,0.019 0.06,0.036 0.089,0.055 0.029,0.019 0.06,0.036 0.089,0.055 0.352,0.226 0.704,0.453 1.062,0.672 0.033,0.02 0.07,0.035 0.103,0.055 0.051,0.031 0.1,0.065 0.151,0.096 0.377,0.227 0.761,0.451 1.145,0.672 0.318,0.182 0.637,0.364 0.959,0.541 0.022,0.012 0.046,0.022 0.069,0.034 0.182,0.1 0.364,0.203 0.548,0.302 0.342,0.183 0.688,0.364 1.035,0.541 0.102,0.052 0.206,0.099 0.308,0.151 0.414,0.209 0.832,0.416 1.254,0.617 0.476,0.227 0.96,0.447 1.446,0.665 0.199,0.089 0.403,0.173 0.603,0.26 0.138,0.06 0.273,0.126 0.411,0.185 0.16,0.068 0.319,0.138 0.48,0.206 0.034,0.014 0.069,0.027 0.103,0.041 0.055,0.023 0.11,0.046 0.164,0.069 0.279,0.115 0.561,0.23 0.843,0.343 0.21,0.084 0.419,0.165 0.631,0.247 0.102,0.04 0.206,0.077 0.308,0.117 0.278,0.106 0.555,0.212 0.836,0.315 0.236,0.087 0.475,0.175 0.713,0.26 0.276,0.099 0.55,0.199 0.829,0.295 0.364,0.125 0.734,0.242 1.103,0.363 0.21,0.069 0.419,0.138 0.631,0.206 0.035,0.011 0.068,0.023 0.103,0.034 0.5,0.158 1.005,0.315 1.515,0.466 0.598,0.177 1.198,0.347 1.809,0.514 0.61,0.166 1.227,0.324 1.85,0.48 0.624,0.156 1.254,0.307 1.892,0.452 0,0.003 0,0.005 0,0.007 4.047,0.925 8.365,1.638 12.981,2.159 0.723,0.081 1.246,0.737 1.165,1.46 -0.081,0.723 -0.737,1.24 -1.46,1.158 -4.727,-0.533 -9.17,-1.271 -13.351,-2.234 -1.023,3.834 -2.17,7.638 -3.447,11.384 -2.857,6.053 -9.892,8.179 -14.44,12.611 -0.522,0.477 -0.3,1.609 0.158,1.597 5.081,-0.131 10.958,-2.18 15.763,-4.359 4.805,-2.179 6.68,1.892 11.377,3.715 4.697,1.823 11.387,2.48 16.901,0.617 5.78,-1.398 10.922,-4.751 14.42,-9.465 4.656,-5.787 6.765,-13.054 7.21,-20.307 0.726,-7.485 1.016,-13.337 5.051,-18.011 4.035,-4.674 6.182,-7.056 14.488,-10.582 0.242,-2.899 -17.845,-3.615 -26.4,-2.961 -5.226,0.4 -8.95,0.589 -13.68,2.207 -4.738,-8.84 -6.445,-15.98 -10.047,-22.425 -3.716,-6.652 -9.516,-12.808 -23.007,-19.893 l 0,0 z m 48.263,44.788 c 2.499,0 4.53,2.024 4.53,4.523 0,2.499 -2.031,4.53 -4.53,4.53 -2.499,0 -4.523,-2.031 -4.523,-4.53 -0.001,-2.499 2.024,-4.523 4.523,-4.523 z"
     inkscape:connector-curvature="0"
     style="fill:#ffffff" /><path
     id="path2348-7_3_"
     d="m 56.913,136.891 c -0.408,2.934 -0.577,5.633 -0.546,8.114 0.294,0.23 0.587,0.463 0.887,0.703 3.573,3.186 4.986,6.489 9.722,10.605 0.167,0.13 0.247,0.341 0.211,0.549 -0.037,0.208 -0.185,0.377 -0.386,0.442 -0.201,0.065 -0.421,0.014 -0.572,-0.133 -4.877,-4.239 -6.343,-7.594 -9.73,-10.614 -0.03,-0.023 -0.059,-0.045 -0.089,-0.068 -0.136,-0.105 -0.271,-0.209 -0.406,-0.311 -0.026,-0.02 -0.051,-0.04 -0.077,-0.059 -0.139,-0.105 -0.275,-0.206 -0.412,-0.308 -0.022,-0.016 -0.043,-0.031 -0.065,-0.047 -0.14,-0.104 -0.28,-0.208 -0.418,-0.308 -0.019,-0.014 -0.037,-0.028 -0.056,-0.042 -0.142,-0.103 -0.284,-0.203 -0.424,-0.303 -0.015,-0.011 -0.029,-0.022 -0.044,-0.033 -0.144,-0.103 -0.287,-0.203 -0.43,-0.302 -0.011,-0.007 -0.022,-0.013 -0.033,-0.021 -0.146,-0.101 -0.289,-0.202 -0.433,-0.3 -0.008,-0.005 -0.016,-0.01 -0.024,-0.015 -0.084,-0.057 -0.166,-0.113 -0.249,-0.169 -0.067,-0.045 -0.135,-0.092 -0.202,-0.136 -0.15,-0.099 -0.3,-0.195 -0.448,-0.291 l 0,-0.039 c -3.634,-2.066 -9.021,-4.12 -17.889,-6.358 0.339,1.964 6.647,4.759 9.283,5.934 0,0 -7.924,-1.754 -11.697,-1.649 4.598,2.54 12.972,4.801 12.972,4.801 0,0 -5.936,-0.052 -9.802,-0.356 4.841,3.121 9.935,3.511 9.935,3.511 0,0 -3.516,1.091 -6.427,0.994 2.816,2.179 7.299,2.361 7.299,2.361 0,0 -2.893,0.405 -5.137,0.887 1.988,1.267 5.406,1.934 5.406,1.934 0,0 -1.956,0.599 -3.909,1.062 1.97,1.062 4.982,1.32 4.982,1.32 0,0 -1.456,0.305 -2.936,0.685 1.426,1.154 2.533,1.53 2.533,1.53 0,0 -0.026,0.554 -1.026,0.756 1.155,0.935 1.871,0.801 1.871,0.801 0,0 -0.136,0.653 -0.866,0.436 0.555,1.214 1.335,0.973 1.335,0.973 0,0 0.025,0.156 -0.092,0.386 10e-4,0.001 0.002,0.002 0.003,0.003 0.039,0.028 0.079,0.055 0.119,0.083 0.151,0.109 0.303,0.218 0.457,0.323 0.003,0.002 0.006,0.004 0.009,0.006 0.138,0.095 0.28,0.187 0.421,0.279 0.043,0.028 0.084,0.058 0.128,0.086 0.013,0.008 0.026,0.016 0.039,0.024 0.013,0.008 0.026,0.016 0.039,0.024 0.152,0.098 0.304,0.196 0.46,0.291 0.014,0.009 0.03,0.015 0.044,0.024 0.022,0.013 0.043,0.028 0.065,0.042 0.163,0.098 0.329,0.195 0.495,0.291 0.138,0.079 0.275,0.157 0.415,0.234 0.01,0.005 0.02,0.01 0.03,0.015 0.079,0.043 0.158,0.088 0.237,0.13 0.148,0.079 0.298,0.158 0.448,0.234 0.044,0.022 0.089,0.043 0.133,0.065 0.179,0.09 0.36,0.18 0.543,0.267 0.206,0.098 0.415,0.194 0.626,0.288 0.086,0.038 0.174,0.075 0.261,0.113 0.06,0.026 0.118,0.054 0.178,0.08 0.069,0.03 0.138,0.06 0.208,0.089 0.015,0.006 0.03,0.012 0.044,0.018 0.024,0.01 0.048,0.02 0.071,0.03 0.121,0.05 0.243,0.1 0.365,0.148 0.091,0.036 0.181,0.071 0.273,0.107 0.044,0.017 0.089,0.033 0.133,0.05 0.12,0.046 0.24,0.092 0.362,0.136 0.102,0.038 0.205,0.076 0.308,0.113 0.12,0.043 0.238,0.086 0.359,0.128 0.158,0.054 0.318,0.105 0.477,0.157 0.091,0.03 0.181,0.06 0.273,0.089 0.015,0.005 0.029,0.01 0.044,0.015 0.216,0.069 0.435,0.136 0.655,0.202 0.259,0.077 0.518,0.15 0.783,0.222 0.264,0.072 0.531,0.14 0.801,0.208 0.27,0.067 0.543,0.133 0.819,0.196 0,0.001 0,0.002 0,0.003 1.751,0.4 3.62,0.709 5.617,0.934 0.313,0.035 0.539,0.319 0.504,0.632 -0.035,0.313 -0.319,0.536 -0.632,0.501 -2.046,-0.231 -3.968,-0.55 -5.777,-0.967 -0.443,1.659 -0.939,3.305 -1.492,4.926 -1.236,2.619 -4.28,3.539 -6.249,5.457 -0.226,0.206 -0.13,0.696 0.068,0.691 2.199,-0.057 4.742,-0.943 6.821,-1.886 2.079,-0.943 2.89,0.819 4.923,1.607 2.033,0.788 4.928,1.073 7.313,0.267 2.501,-0.605 4.726,-2.056 6.24,-4.096 2.015,-2.504 2.927,-5.649 3.12,-8.787 0.314,-3.239 0.44,-5.771 2.186,-7.794 1.746,-2.023 2.675,-3.053 6.27,-4.579 0.105,-1.254 -7.722,-1.564 -11.424,-1.281 -2.261,0.173 -3.873,0.255 -5.92,0.955 -2.05,-3.825 -2.789,-6.915 -4.348,-9.704 -1.608,-2.881 -4.118,-5.545 -9.956,-8.611 l 0,0 z m 20.885,19.381 c 1.081,0 1.96,0.876 1.96,1.957 0,1.081 -0.879,1.96 -1.96,1.96 -1.081,0 -1.957,-0.879 -1.957,-1.96 -10e-4,-1.081 0.875,-1.957 1.957,-1.957 z"
     inkscape:connector-curvature="0"
     style="fill:#ffffff" /><path
     id="path2348-7_1_"
     d="m 399.003,187.793 c -0.172,1.232 -0.242,2.365 -0.229,3.407 0.123,0.096 0.247,0.195 0.372,0.295 1.501,1.338 2.094,2.725 4.082,4.453 0.07,0.054 0.104,0.143 0.088,0.23 -0.015,0.087 -0.078,0.158 -0.162,0.186 -0.084,0.027 -0.177,0.006 -0.24,-0.056 -2.048,-1.78 -2.663,-3.189 -4.086,-4.457 -0.013,-0.01 -0.025,-0.019 -0.037,-0.029 -0.057,-0.044 -0.114,-0.088 -0.171,-0.131 -0.011,-0.008 -0.021,-0.017 -0.032,-0.025 -0.058,-0.044 -0.115,-0.087 -0.173,-0.13 -0.009,-0.007 -0.018,-0.013 -0.027,-0.02 -0.059,-0.044 -0.117,-0.087 -0.176,-0.13 -0.008,-0.006 -0.016,-0.012 -0.024,-0.017 -0.06,-0.043 -0.119,-0.085 -0.178,-0.127 -0.006,-0.005 -0.012,-0.009 -0.019,-0.014 -0.061,-0.043 -0.121,-0.085 -0.181,-0.127 -0.005,-0.003 -0.009,-0.006 -0.014,-0.009 -0.061,-0.042 -0.121,-0.085 -0.182,-0.126 -0.003,-0.002 -0.007,-0.004 -0.01,-0.006 -0.035,-0.024 -0.07,-0.048 -0.105,-0.071 -0.028,-0.019 -0.057,-0.039 -0.085,-0.057 -0.063,-0.042 -0.126,-0.082 -0.188,-0.122 l 0,-0.016 c -1.526,-0.867 -3.788,-1.73 -7.512,-2.67 0.142,0.825 2.791,1.998 3.898,2.492 0,0 -3.327,-0.737 -4.911,-0.692 1.931,1.066 5.447,2.016 5.447,2.016 0,0 -2.492,-0.022 -4.116,-0.149 2.033,1.311 4.172,1.474 4.172,1.474 0,0 -1.476,0.458 -2.699,0.417 1.183,0.915 3.065,0.991 3.065,0.991 0,0 -1.215,0.17 -2.157,0.372 0.835,0.532 2.27,0.812 2.27,0.812 0,0 -0.821,0.251 -1.641,0.446 0.827,0.446 2.092,0.554 2.092,0.554 0,0 -0.612,0.128 -1.233,0.288 0.599,0.484 1.064,0.643 1.064,0.643 0,0 -0.011,0.232 -0.431,0.318 0.485,0.393 0.786,0.336 0.786,0.336 0,0 -0.057,0.274 -0.364,0.183 0.233,0.51 0.56,0.408 0.56,0.408 0,0 0.01,0.066 -0.039,0.162 0,0 0.001,0.001 0.001,0.001 0.016,0.012 0.033,0.023 0.05,0.035 0.063,0.046 0.127,0.091 0.192,0.136 10e-4,0.001 0.003,0.002 0.004,0.002 0.058,0.04 0.118,0.078 0.177,0.117 0.018,0.012 0.035,0.024 0.054,0.036 0.005,0.003 0.011,0.007 0.016,0.01 0.005,0.003 0.011,0.007 0.016,0.01 0.064,0.041 0.128,0.082 0.193,0.122 0.006,0.004 0.013,0.006 0.019,0.01 0.009,0.006 0.018,0.012 0.027,0.017 0.068,0.041 0.138,0.082 0.208,0.122 0.058,0.033 0.116,0.066 0.174,0.098 0.004,0.002 0.008,0.004 0.012,0.006 0.033,0.018 0.066,0.037 0.1,0.055 0.062,0.033 0.125,0.066 0.188,0.098 0.018,0.009 0.037,0.018 0.056,0.027 0.075,0.038 0.151,0.076 0.228,0.112 0.086,0.041 0.174,0.081 0.263,0.121 0.036,0.016 0.073,0.031 0.11,0.047 0.025,0.011 0.049,0.023 0.075,0.034 0.029,0.012 0.058,0.025 0.087,0.037 0.006,0.003 0.012,0.005 0.019,0.007 0.01,0.004 0.02,0.008 0.03,0.012 0.051,0.021 0.102,0.042 0.153,0.062 0.038,0.015 0.076,0.03 0.115,0.045 0.019,0.007 0.037,0.014 0.056,0.021 0.051,0.019 0.101,0.038 0.152,0.057 0.043,0.016 0.086,0.032 0.13,0.047 0.05,0.018 0.1,0.036 0.151,0.054 0.066,0.023 0.133,0.044 0.201,0.066 0.038,0.012 0.076,0.025 0.115,0.037 0.006,0.002 0.012,0.004 0.019,0.006 0.091,0.029 0.183,0.057 0.275,0.085 0.109,0.032 0.218,0.063 0.329,0.093 0.111,0.03 0.223,0.059 0.336,0.087 0.113,0.028 0.228,0.056 0.344,0.082 0,0 0,0.001 0,0.001 0.735,0.168 1.52,0.298 2.359,0.392 0.131,0.015 0.226,0.134 0.212,0.265 -0.015,0.131 -0.134,0.225 -0.265,0.21 -0.859,-0.097 -1.666,-0.231 -2.426,-0.406 -0.186,0.697 -0.394,1.388 -0.626,2.068 -0.519,1.1 -1.797,1.486 -2.624,2.291 -0.095,0.087 -0.055,0.292 0.029,0.29 0.923,-0.024 1.991,-0.396 2.864,-0.792 0.873,-0.396 1.214,0.344 2.067,0.675 0.854,0.331 2.069,0.451 3.071,0.112 1.05,-0.254 1.984,-0.863 2.62,-1.72 0.846,-1.051 1.229,-2.372 1.31,-3.69 0.132,-1.36 0.185,-2.423 0.918,-3.273 0.733,-0.849 1.123,-1.282 2.633,-1.923 0.044,-0.527 -3.243,-0.657 -4.797,-0.538 -0.95,0.073 -1.626,0.107 -2.486,0.401 -0.861,-1.606 -1.171,-2.904 -1.826,-4.075 -0.676,-1.198 -1.73,-2.316 -4.182,-3.604 l 0,0 z m 8.77,8.138 c 0.454,0 0.823,0.368 0.823,0.822 0,0.454 -0.369,0.823 -0.823,0.823 -0.454,0 -0.822,-0.369 -0.822,-0.823 0,-0.454 0.368,-0.822 0.822,-0.822 z"
     inkscape:connector-curvature="0"
     style="fill:#ffffff" /><path
     id="path2348-7_2_"
     d="m 472.654,185.298 c -0.236,1.694 -0.333,3.253 -0.315,4.685 0.17,0.133 0.339,0.268 0.512,0.406 2.063,1.84 2.879,3.747 5.614,6.124 0.096,0.075 0.143,0.197 0.122,0.317 -0.021,0.12 -0.107,0.218 -0.223,0.255 -0.116,0.037 -0.243,0.008 -0.331,-0.077 -2.816,-2.448 -3.663,-4.385 -5.619,-6.129 -0.017,-0.013 -0.034,-0.026 -0.051,-0.039 -0.079,-0.061 -0.157,-0.121 -0.235,-0.18 -0.015,-0.011 -0.029,-0.023 -0.045,-0.034 -0.08,-0.061 -0.159,-0.119 -0.238,-0.178 -0.013,-0.009 -0.025,-0.018 -0.038,-0.027 -0.081,-0.06 -0.162,-0.12 -0.241,-0.178 -0.011,-0.008 -0.022,-0.016 -0.033,-0.024 -0.082,-0.059 -0.164,-0.117 -0.245,-0.175 -0.009,-0.006 -0.017,-0.013 -0.026,-0.019 -0.083,-0.059 -0.166,-0.117 -0.248,-0.175 -0.006,-0.004 -0.013,-0.008 -0.019,-0.012 -0.084,-0.058 -0.167,-0.116 -0.25,-0.173 -0.005,-0.003 -0.009,-0.006 -0.014,-0.009 -0.048,-0.033 -0.096,-0.065 -0.144,-0.098 -0.039,-0.026 -0.078,-0.053 -0.116,-0.079 -0.087,-0.057 -0.173,-0.113 -0.259,-0.168 l 0,-0.022 c -2.098,-1.193 -5.209,-2.379 -10.33,-3.672 0.195,1.134 3.838,2.748 5.36,3.427 0,0 -4.576,-1.013 -6.754,-0.952 2.655,1.466 7.49,2.773 7.49,2.773 0,0 -3.427,-0.03 -5.66,-0.206 2.796,1.802 5.737,2.028 5.737,2.028 0,0 -2.03,0.63 -3.711,0.574 1.626,1.258 4.214,1.363 4.214,1.363 0,0 -1.67,0.234 -2.966,0.512 1.148,0.731 3.122,1.117 3.122,1.117 0,0 -1.129,0.346 -2.257,0.613 1.137,0.613 2.877,0.762 2.877,0.762 0,0 -0.841,0.176 -1.695,0.396 0.823,0.666 1.462,0.884 1.462,0.884 0,0 -0.015,0.32 -0.593,0.437 0.667,0.54 1.081,0.462 1.081,0.462 0,0 -0.079,0.377 -0.5,0.252 0.32,0.701 0.771,0.562 0.771,0.562 0,0 0.014,0.09 -0.053,0.223 10e-4,0.001 10e-4,0.001 0.002,0.002 0.022,0.016 0.046,0.032 0.069,0.048 0.087,0.063 0.175,0.126 0.264,0.187 0.002,0.001 0.003,0.002 0.005,0.003 0.08,0.055 0.162,0.108 0.243,0.161 0.025,0.016 0.049,0.033 0.074,0.05 0.007,0.005 0.015,0.009 0.022,0.014 0.007,0.005 0.015,0.009 0.022,0.014 0.088,0.056 0.176,0.113 0.265,0.168 0.008,0.005 0.017,0.009 0.026,0.014 0.013,0.008 0.025,0.016 0.038,0.024 0.094,0.057 0.19,0.113 0.286,0.168 0.079,0.046 0.159,0.091 0.24,0.135 0.006,0.003 0.012,0.005 0.017,0.009 0.046,0.025 0.091,0.051 0.137,0.075 0.085,0.046 0.172,0.091 0.259,0.135 0.025,0.013 0.052,0.025 0.077,0.038 0.103,0.052 0.208,0.104 0.313,0.154 0.119,0.057 0.24,0.112 0.361,0.166 0.05,0.022 0.101,0.043 0.151,0.065 0.034,0.015 0.068,0.031 0.103,0.046 0.04,0.017 0.08,0.035 0.12,0.051 0.009,0.004 0.017,0.007 0.026,0.01 0.014,0.006 0.027,0.011 0.041,0.017 0.07,0.029 0.14,0.057 0.211,0.086 0.052,0.021 0.105,0.041 0.158,0.062 0.026,0.01 0.051,0.019 0.077,0.029 0.069,0.027 0.139,0.053 0.209,0.079 0.059,0.022 0.119,0.044 0.178,0.065 0.069,0.025 0.137,0.05 0.207,0.074 0.091,0.031 0.183,0.061 0.276,0.091 0.052,0.017 0.105,0.035 0.158,0.051 0.009,0.003 0.017,0.006 0.026,0.009 0.125,0.04 0.251,0.079 0.378,0.116 0.149,0.044 0.299,0.087 0.452,0.128 0.153,0.042 0.307,0.081 0.462,0.12 0.156,0.039 0.313,0.077 0.473,0.113 0,0.001 0,0.001 0,0.002 1.011,0.231 2.09,0.409 3.243,0.539 0.181,0.02 0.311,0.184 0.291,0.365 -0.02,0.181 -0.184,0.31 -0.365,0.289 -1.181,-0.133 -2.291,-0.318 -3.336,-0.558 -0.256,0.958 -0.542,1.909 -0.861,2.844 -0.714,1.512 -2.472,2.044 -3.608,3.151 -0.13,0.119 -0.075,0.402 0.039,0.399 1.27,-0.033 2.738,-0.545 3.939,-1.089 1.201,-0.544 1.669,0.473 2.843,0.928 1.174,0.455 2.845,0.62 4.223,0.154 1.444,-0.349 2.729,-1.187 3.603,-2.365 1.163,-1.446 1.69,-3.262 1.802,-5.074 0.181,-1.87 0.254,-3.333 1.262,-4.5 1.008,-1.168 1.545,-1.763 3.62,-2.644 0.06,-0.724 -4.459,-0.903 -6.597,-0.74 -1.306,0.1 -2.236,0.147 -3.418,0.551 -1.184,-2.209 -1.61,-3.993 -2.511,-5.603 -0.928,-1.663 -2.377,-3.202 -5.748,-4.972 l 0,0 z m 12.059,11.191 c 0.624,0 1.132,0.506 1.132,1.13 0,0.624 -0.508,1.132 -1.132,1.132 -0.624,0 -1.13,-0.508 -1.13,-1.132 0,-0.624 0.506,-1.13 1.13,-1.13 z"
     inkscape:connector-curvature="0"
     style="fill:#ffffff" /><g
     id="XMLID_13_"
     transform="translate(0,10)"
     style="opacity:0.6"><path
       id="XMLID_10_"
       d="m 490.67,237.927 -4.325,0 0,-4.324 4.325,0 0,4.324 z m -3.325,-1 2.325,0 0,-2.324 -2.325,0 0,2.324 z"
       inkscape:connector-curvature="0"
       style="fill:#ffffff" /></g><g
     id="XMLID_9_"
     transform="translate(0,10)"
     style="opacity:0.6"><path
       id="XMLID_6_"
       d="m 463.045,238.147 -4.281,-2.383 4.281,-2.383 0,4.766 z m -2.225,-2.382 1.225,0.682 0,-1.363 -1.225,0.681 z"
       inkscape:connector-curvature="0"
       style="fill:#ffffff" /></g></svg>