<?xml version="1.0" encoding="utf-8"?>
<!-- Generator: Adobe Illustrator 19.0.0, SVG Export Plug-In . SVG Version: 6.00 Build 0)  -->
<svg version="1.1" id="Layer_1" xmlns="http://www.w3.org/2000/svg" xmlns:xlink="http://www.w3.org/1999/xlink" x="0px" y="0px"
	 viewBox="0 0 49 77" enable-background="new 0 0 49 77" xml:space="preserve">
<g id="XMLID_397_">
	<path id="XMLID_400_" fill="#74AC00" d="M12.733,28.327c4.456,0,8.082-3.626,8.082-8.082s-3.625-8.082-8.082-8.082
		s-8.081,3.626-8.081,8.082S8.277,28.327,12.733,28.327z M10.901,20.245c0,2.627,2.11,4.762,4.724,4.821
		c-0.868,0.523-1.854,0.821-2.892,0.821c-3.11,0-5.641-2.531-5.641-5.642s2.53-5.641,5.641-5.641c1.065,0,2.059,0.302,2.91,0.818
		C13.021,15.472,10.901,17.612,10.901,20.245z"/>
	<path id="XMLID_403_" fill="#74AC00" d="M47.639,0.734c-0.535-0.204-1.146-0.049-1.524,0.381L44.207,3.29l-1.4-1.699
		c-0.371-0.45-0.987-0.617-1.532-0.421c-0.546,0.197-0.913,0.72-0.913,1.3v2.871c-2.242-0.645-6.885-1.521-15.553-1.521h-0.615
		c-8.668,0-13.311,0.877-15.552,1.521V2.47c0-0.581-0.367-1.103-0.914-1.3C7.182,0.973,6.565,1.143,6.195,1.591L4.795,3.29
		L2.887,1.116C2.511,0.686,1.899,0.53,1.363,0.734c-0.534,0.2-0.894,0.72-0.894,1.292v40.489c0.007,0.277,0.219,6.857,5.384,13.438
		c3.019,3.846,7.11,6.904,12.159,9.089c0.31,0.134,0.625,0.266,0.945,0.394c-3.54,0.599-7.394,0.901-11.485,0.901
		c-0.52,0-0.99,0.287-1.228,0.749c-0.237,0.462-0.197,1.011,0.104,1.435c0.154,0.215,4.018,5.477,12.391,5.022
		c0.783,1.154,2.433,2.812,5.452,2.812h0.615c3.022,0,4.671-1.657,5.453-2.812c8.381,0.452,12.238-4.808,12.391-5.021
		c0.303-0.422,0.343-0.972,0.105-1.436c-0.238-0.462-0.708-0.749-1.228-0.749c-4.098,0-7.952-0.303-11.485-0.9
		c0.32-0.129,0.635-0.261,0.945-0.395c5.051-2.187,9.143-5.244,12.159-9.089c5.165-6.578,5.376-13.16,5.383-13.468V2.029
		C48.535,1.456,48.176,0.936,47.639,0.734z M37.995,69.005c-1.729,1.075-4.287,2.007-7.842,1.764l-2.545-3.143
		C30.534,68.134,34.713,68.785,37.995,69.005z M21.397,67.625l-2.545,3.143c-3.553,0.243-6.115-0.688-7.843-1.765
		C14.301,68.784,18.475,68.133,21.397,67.625z M27.99,71.976c-0.396,0.591-1.348,1.617-3.181,1.617h-0.616
		c-1.832,0-2.785-1.026-3.18-1.617l3.489-4.305L27.99,71.976z M39.973,36.305c2.167-3.131,4.351-5.223,5.8-6.425v12.583
		c-0.014,0.348-0.313,6.127-4.857,11.864c-2.186,2.762-5.034,5.088-8.475,6.926C32.822,49.105,36.725,40.998,39.973,36.305z
		 M24.5,64.368l-0.156-0.056c-0.037-0.012-3.492-1.105-5.316-1.869c-0.012-1.061-0.049-2.107-0.111-3.126l0.765,0.542
		c0.421,0.299,0.988,0.299,1.411,0l3.41-2.415l3.409,2.414c0.423,0.299,0.99,0.299,1.411,0l0.765-0.542
		c-0.061,1.009-0.098,2.056-0.111,3.126c-1.824,0.764-5.28,1.857-5.335,1.875L24.5,64.368z M24.501,54.731
		c-0.253,0-0.497,0.077-0.705,0.224l-3.41,2.412l-1.753-1.241c-0.21-1.812-0.504-3.589-0.875-5.302l1.923,1.36
		c0.423,0.301,0.99,0.3,1.411,0.001l3.41-2.411l3.409,2.413c0.423,0.299,0.99,0.299,1.411,0l1.924-1.362
		c-0.373,1.716-0.666,3.493-0.876,5.302l-1.753,1.24l-3.411-2.413C24.998,54.808,24.754,54.731,24.501,54.731z M6.601,8.558
		C7.048,8.8,7.589,8.778,7.988,8.513c0.033-0.02,3.495-1.934,16.206-1.934h0.615c12.715,0,16.171,1.913,16.187,1.921
		c0.423,0.277,0.962,0.301,1.406,0.059c0.445-0.239,0.722-0.707,0.722-1.221V6.315c0.257,0.301,0.631,0.478,1.026,0.485
		c0.4-0.014,0.791-0.162,1.063-0.47l0.561-0.64v21.119c-1.218,0.832-4.479,3.319-7.758,8.036c-2.502,3.598-4.462,7.743-5.827,12.322
		l-3.571,2.526l-3.411-2.412c-0.208-0.147-0.452-0.225-0.705-0.225c-0.255,0-0.499,0.078-0.705,0.225l-3.41,2.412l-3.571-2.526
		c-1.364-4.581-3.324-8.726-5.827-12.322c-3.286-4.726-6.542-7.207-7.759-8.037V5.69l0.563,0.642
		c0.271,0.307,0.637,0.476,1.06,0.469c0.399-0.008,0.773-0.186,1.029-0.487v1.024C5.881,7.851,6.157,8.318,6.601,8.558z
		 M16.562,61.254c-3.442-1.839-6.29-4.166-8.474-6.926C3.541,48.588,3.24,42.7,3.229,42.474V29.881
		c1.45,1.203,3.634,3.295,5.801,6.425C12.279,41.001,16.182,49.107,16.562,61.254z"/>
	<path id="XMLID_413_" fill="#74AC00" d="M36.269,28.327c4.456,0,8.081-3.626,8.081-8.082s-3.625-8.082-8.081-8.082
		c-4.456,0-8.081,3.626-8.081,8.082S31.813,28.327,36.269,28.327z M34.437,20.245c0,2.634,2.12,4.774,4.743,4.823
		c-0.851,0.516-1.845,0.819-2.911,0.819c-3.11,0-5.64-2.531-5.64-5.642s2.53-5.641,5.64-5.641c1.065,0,2.059,0.302,2.91,0.818
		C36.557,15.472,34.437,17.612,34.437,20.245z"/>
	<path id="XMLID_414_" fill="#74AC00" d="M19.567,30.998c0,2.683,2.182,4.865,4.864,4.865c2.683,0,4.865-2.183,4.863-4.82
		c0.042-0.455-0.097-0.882-0.39-1.202c-0.287-0.314-0.702-0.494-1.139-0.494c-0.911,0-1.652,0.741-1.652,1.651
		c0,0.879-0.743,1.622-1.622,1.622s-1.622-0.743-1.622-1.622c0-0.91-0.741-1.651-1.651-1.651
		C20.277,29.347,19.567,30.057,19.567,30.998z"/>
</g>
</svg>
