<?xml version="1.0" encoding="utf-8"?>
<!-- Generator: Adobe Illustrator 19.0.0, SVG Export Plug-In . SVG Version: 6.00 Build 0)  -->
<svg version="1.1" id="Layer_1" xmlns="http://www.w3.org/2000/svg" xmlns:xlink="http://www.w3.org/1999/xlink" x="0px" y="0px"
	 viewBox="0 0 255 247" enable-background="new 0 0 255 247" xml:space="preserve">
<circle fill="#EFEFEF" cx="639.673" cy="762.758" r="117.696"/>
<g>
	<g>
		<path fill="none" stroke="#9B9B9B" stroke-width="2" stroke-linecap="round" stroke-linejoin="round" stroke-miterlimit="10" d="
			M540.92,775.942"/>
		
			<path fill="#FFFFFF" stroke="#9B9B9B" stroke-width="2" stroke-linecap="round" stroke-linejoin="round" stroke-miterlimit="10" d="
			M566.688,799.992c14.969-23.213,3.898-41.027,0.601-47.24c-0.344-0.601-0.601-1.031-0.773-1.374
			c-0.258-0.515-0.773-0.859-1.288-0.945c-0.601-0.086-1.202,0.086-1.546,0.515c-1.288,1.46-4.38,1.89-7.558,2.405
			c-5.325,0.773-11.853,1.718-15.632,7.73c-4.638,7.301-3.951,18.552,2.061,38.909l-11.252,1.546
			c1.203-0.945,0.687-8.675,0.258-14.344c-0.945-13.657-2.233-32.467,6.957-42.344c4.123-4.38,9.792-6.614,17.092-6.614
			c9.362,0,16.233,2.405,20.957,7.301c8.503,8.761,8.074,23.792,7.644,37.105c-0.258,9.276-0.515,18.037,2.233,23.105
			L566.688,799.992z"/>
		
			<path fill="#FFFFFF" stroke="#9B9B9B" stroke-width="2" stroke-linecap="round" stroke-linejoin="round" stroke-miterlimit="10" d="
			M522.024,818.029c0-10.822,6.871-18.037,17.178-18.037h6.871v-5.841l20.614-1.031v6.871h6.871
			c10.307,0,17.178,7.215,17.178,18.037H522.024z"/>
		
			<path fill="#FFFFFF" stroke="#9B9B9B" stroke-width="2" stroke-linecap="round" stroke-linejoin="round" stroke-miterlimit="10" d="
			M574.847,775.942c0.041,13.169-8.246,22.332-18.896,22.332c-10.565,0-18.467-11.767-18.467-22.332c0,0-1.429-18.938,13.801-21.751
			c15.23-2.814,10.68-3.104,13.942-3.758C568.489,749.778,574.831,770.763,574.847,775.942z"/>
	</g>
	<g>
		
			<path fill="#FFFFFF" stroke="#9B9B9B" stroke-width="2" stroke-linecap="round" stroke-linejoin="round" stroke-miterlimit="10" d="
			M697.323,832.427c0-11.813,5.455-18.751,12.974-18.751l17.026,11.496c0.75,0-0.75,0,0,0l16.021-11.496
			c7.836,0,13.979,7.316,13.979,18.751H697.323z"/>
		
			<path fill="#FFFFFF" stroke="#9B9B9B" stroke-width="2" stroke-linecap="round" stroke-linejoin="round" stroke-miterlimit="10" d="
			M746.358,788.661c0-0.75,0.612-1.359,1.359-1.359c0.747,0,1.359,0.609,1.359,1.359v10.873c0.003,3.357-10.03,17.668-21.745,17.668
			c-11.712,0-21.745-14.314-21.745-17.668v-10.873c0-0.75,0.609-1.359,1.359-1.359s1.359,0.609,1.359,1.359"/>
		
			<path fill="#FFFFFF" stroke="#9B9B9B" stroke-width="2" stroke-linecap="round" stroke-linejoin="round" stroke-miterlimit="10" d="
			M711.022,795.456c-0.362,0-0.707-0.144-0.962-0.397c-6.284-6.284-5.27-9.886-3.691-13.039c0.296-0.595,0.579-1.158,0.579-1.517
			c0-3.534,4.295-9.513,20.386-9.513c3.161,0,6.04,0.239,8.57,0.709c2.463-2.126,6.572-2.435,8.701-0.31
			c0.389,0.394,0.506,0.973,0.291,1.487c-0.212,0.508-0.707,0.84-1.259,0.84c-0.313,0-0.636,0.044-0.897,0.264
			c3.642,1.99,4.974,4.618,4.974,6.532c0,0.432,0.334,1.245,0.658,2.03c0.753,1.854,1.699,4.161,0.663,6.409
			c-0.747,1.642-2.373,2.857-4.969,3.716c-0.139,0.052-0.283,0.068-0.43,0.068c-4.528,0-8.981-3.229-11.044-6.325
			C727.35,793.469,713.05,795.456,711.022,795.456z"/>
	</g>
	<g>
		
			<path fill="#FFFFFF" stroke="#9B9B9B" stroke-width="2" stroke-linecap="round" stroke-linejoin="round" stroke-miterlimit="10" d="
			M614.315,740.37c0-8.798,7.163-17.964,15.964-17.964c0.404,0,0.798,0.138,1.114,0.394l16.486,13.297l16.777-13.311
			c0.312-0.241,0.702-0.38,1.103-0.38c8.802,0,15.964,9.166,15.964,17.964H614.315z"/>
		
			<path fill="#FFFFFF" stroke="#9B9B9B" stroke-width="2" stroke-linecap="round" stroke-linejoin="round" stroke-miterlimit="10" d="
			M669.303,681.612v9.057c3.548,0.83,3.548,4.207,3.548,5.577v3.991c0,2.423-1.848,6.677-5.396,7.737
			c-0.93,9.291-10.097,17.979-19.437,17.979c-9.337,0-18.508-8.688-19.437-17.979c-3.548-1.061-5.396-5.314-5.396-7.737v-3.991
			c0-1.38,0-4.747,3.548-5.577v-9.057"/>
		
			<path fill="#FFFFFF" stroke="#9B9B9B" stroke-width="2" stroke-linecap="round" stroke-linejoin="round" stroke-miterlimit="10" d="
			M628.506,694.029"/>
		
			<path fill="#FFFFFF" stroke="#9B9B9B" stroke-width="2" stroke-linecap="round" stroke-linejoin="round" stroke-miterlimit="10" d="
			M628.637,680.186l7.095-17.738c0.199-0.497,0.61-0.869,1.121-1.032c0.514-0.153,1.064-0.075,1.511,0.224l9.66,6.435l9.66-6.435
			c0.443-0.302,0.997-0.369,1.508-0.224c0.514,0.163,0.922,0.536,1.121,1.032l7.095,17.738"/>
		
			<path fill="#FFFFFF" stroke="#9B9B9B" stroke-width="2" stroke-linecap="round" stroke-linejoin="round" stroke-miterlimit="10" d="
			M623.184,680.846h49.667"/>
	</g>
	<path fill="#74AC00" d="M666.709,788.197c-1.172-1.172-3.07-1.172-4.242,0c-1.172,1.171-1.172,3.071,0,4.242l1.974,1.974
		c-7.117,0.773-12.999,3.352-17.053,7.357v-1.968v-30.297l2.245,2.245c0.586,0.586,1.354,0.879,2.121,0.879s1.536-0.293,2.121-0.879
		c1.172-1.172,1.172-3.071,0-4.242l-9.487-9.486l-9.487,9.486c-1.172,1.171-1.172,3.07,0,4.242c1.171,1.171,3.071,1.173,4.243,0
		l2.245-2.244v18.06c-4.611-3.942-11.348-6.113-19.383-6.283l1.573-1.574c1.172-1.171,1.172-3.071,0-4.242
		c-1.171-1.172-3.071-1.172-4.242,0l-9.488,9.487l9.488,9.486c0.586,0.586,1.354,0.879,2.121,0.879s1.536-0.293,2.122-0.879
		c1.171-1.172,1.171-3.071,0-4.242l-2.932-2.932c7.455-0.061,13.506,1.745,17.255,5.209c2.281,2.107,3.487,4.641,3.487,7.327v3
		v11.011l-0.22,1.01l0.22,0.048v19.412c0,1.657,1.343,3,3,3c1.657,0,3-1.343,3-3V814.46l0.281-1.289
		c1.565-7.172,7.943-11.796,17.359-12.804l-2.561,2.561c-1.172,1.171-1.172,3.07,0,4.242c0.586,0.586,1.354,0.879,2.121,0.879
		s1.535-0.293,2.121-0.879l9.488-9.486L666.709,788.197z"/>
</g>
<g id="XMLID_1_">
	<circle id="XMLID_15_" fill="#EFEFEF" cx="127.5" cy="123.5" r="117.696"/>
	<g>
		<g>
			
				<path id="XMLID_14_" fill="none" stroke="#9B9B9B" stroke-width="2" stroke-linecap="round" stroke-linejoin="round" stroke-miterlimit="10" d="
				M28.747,136.684"/>
			
				<path id="XMLID_13_" fill="#FFFFFF" stroke="#9B9B9B" stroke-width="2" stroke-linecap="round" stroke-linejoin="round" stroke-miterlimit="10" d="
				M54.514,160.733c14.968-23.213,3.898-41.028,0.601-47.24c-0.344-0.601-0.601-1.031-0.773-1.374
				c-0.258-0.515-0.773-0.859-1.288-0.945c-0.601-0.086-1.202,0.086-1.546,0.515c-1.288,1.46-4.38,1.89-7.558,2.405
				c-5.325,0.773-11.853,1.718-15.632,7.73c-4.638,7.301-3.951,18.552,2.061,38.909l-11.252,1.546
				c1.202-0.945,0.687-8.675,0.258-14.344c-0.945-13.657-2.233-32.467,6.957-42.344c4.123-4.38,9.792-6.614,17.092-6.614
				c9.362,0,16.233,2.405,20.957,7.301c8.503,8.761,8.074,23.792,7.644,37.105c-0.258,9.276-0.515,18.037,2.233,23.105
				L54.514,160.733z"/>
			
				<path id="XMLID_12_" fill="#FFFFFF" stroke="#9B9B9B" stroke-width="2" stroke-linecap="round" stroke-linejoin="round" stroke-miterlimit="10" d="
				M9.851,178.771c0-10.822,6.871-18.037,17.178-18.037H33.9v-5.841l20.614-1.031v6.871h6.871c10.307,0,17.178,7.215,17.178,18.037
				H9.851z"/>
			
				<path id="XMLID_11_" fill="#FFFFFF" stroke="#9B9B9B" stroke-width="2" stroke-linecap="round" stroke-linejoin="round" stroke-miterlimit="10" d="
				M62.674,136.684c0.041,13.169-8.246,22.332-18.896,22.332c-10.565,0-18.467-11.767-18.467-22.332c0,0-1.429-18.938,13.801-21.751
				s10.68-3.104,13.942-3.758C56.316,110.52,62.658,131.504,62.674,136.684z"/>
		</g>
		<g>
			
				<path id="XMLID_10_" fill="#FFFFFF" stroke="#9B9B9B" stroke-width="2" stroke-linecap="round" stroke-linejoin="round" stroke-miterlimit="10" d="
				M185.149,193.169c0-11.813,5.455-18.751,12.974-18.751l17.026,11.496c0.75,0-0.75,0,0,0l16.021-11.496
				c7.836,0,13.979,7.316,13.979,18.751H185.149z"/>
			
				<path id="XMLID_9_" fill="#FFFFFF" stroke="#9B9B9B" stroke-width="2" stroke-linecap="round" stroke-linejoin="round" stroke-miterlimit="10" d="
				M234.184,149.402c0-0.75,0.612-1.359,1.359-1.359s1.359,0.609,1.359,1.359v10.873c0.003,3.357-10.03,17.668-21.745,17.668
				c-11.712,0-21.745-14.314-21.745-17.668v-10.873c0-0.75,0.609-1.359,1.359-1.359c0.75,0,1.359,0.609,1.359,1.359"/>
			
				<path fill="#FFFFFF" stroke="#9B9B9B" stroke-width="2" stroke-linecap="round" stroke-linejoin="round" stroke-miterlimit="10" d="
				M198.849,156.198c-0.362,0-0.707-0.144-0.962-0.397c-6.284-6.284-5.27-9.886-3.691-13.039c0.296-0.595,0.579-1.158,0.579-1.517
				c0-3.534,4.295-9.513,20.386-9.513c3.161,0,6.04,0.239,8.57,0.709c2.463-2.126,6.572-2.435,8.701-0.31
				c0.389,0.394,0.506,0.973,0.291,1.487c-0.212,0.508-0.707,0.84-1.258,0.84c-0.313,0-0.636,0.043-0.897,0.264
				c3.642,1.99,4.974,4.618,4.974,6.532c0,0.432,0.334,1.245,0.658,2.03c0.753,1.854,1.699,4.161,0.663,6.409
				c-0.747,1.642-2.373,2.857-4.969,3.716c-0.139,0.052-0.283,0.068-0.429,0.068c-4.528,0-8.981-3.229-11.044-6.325
				C215.176,154.211,200.876,156.198,198.849,156.198z"/>
		</g>
		<g>
			
				<path id="XMLID_7_" fill="#FFFFFF" stroke="#9B9B9B" stroke-width="2" stroke-linecap="round" stroke-linejoin="round" stroke-miterlimit="10" d="
				M102.142,101.112c0-8.798,7.163-17.964,15.964-17.964c0.404,0,0.798,0.138,1.114,0.394l16.486,13.296l16.777-13.311
				c0.312-0.241,0.702-0.38,1.103-0.38c8.802,0,15.964,9.166,15.964,17.964L102.142,101.112z"/>
			
				<path id="XMLID_6_" fill="#FFFFFF" stroke="#9B9B9B" stroke-width="2" stroke-linecap="round" stroke-linejoin="round" stroke-miterlimit="10" d="
				M157.13,42.353v9.057c3.548,0.83,3.548,4.207,3.548,5.577v3.991c0,2.423-1.848,6.677-5.396,7.737
				c-0.929,9.291-10.097,17.979-19.437,17.979c-9.337,0-18.508-8.688-19.437-17.979c-3.548-1.061-5.396-5.314-5.396-7.737v-3.991
				c0-1.38,0-4.747,3.548-5.577v-9.057"/>
			
				<path id="XMLID_5_" fill="#FFFFFF" stroke="#9B9B9B" stroke-width="2" stroke-linecap="round" stroke-linejoin="round" stroke-miterlimit="10" d="
				M116.332,54.77"/>
			
				<path id="XMLID_4_" fill="#FFFFFF" stroke="#9B9B9B" stroke-width="2" stroke-linecap="round" stroke-linejoin="round" stroke-miterlimit="10" d="
				M116.463,40.927l7.095-17.738c0.199-0.497,0.61-0.869,1.121-1.032c0.514-0.153,1.064-0.075,1.511,0.223l9.66,6.435l9.66-6.435
				c0.443-0.302,0.997-0.369,1.508-0.223c0.514,0.163,0.922,0.536,1.121,1.032l7.095,17.738"/>
			
				<path id="XMLID_3_" fill="#FFFFFF" stroke="#9B9B9B" stroke-width="2" stroke-linecap="round" stroke-linejoin="round" stroke-miterlimit="10" d="
				M111.011,41.587h49.667"/>
		</g>
		<path id="XMLID_2_" fill="#74AC00" d="M154.536,148.939c-1.172-1.172-3.07-1.172-4.242,0c-1.172,1.171-1.172,3.071,0,4.242
			l1.974,1.974c-7.117,0.773-12.999,3.352-17.053,7.357v-1.968v-30.297l2.245,2.245c0.586,0.586,1.354,0.879,2.121,0.879
			s1.536-0.293,2.121-0.879c1.172-1.172,1.172-3.071,0-4.242l-9.487-9.486l-9.487,9.486c-1.172,1.171-1.172,3.07,0,4.242
			c1.171,1.171,3.071,1.173,4.243,0l2.245-2.244v18.06c-4.611-3.942-11.348-6.113-19.383-6.283l1.573-1.574
			c1.172-1.171,1.172-3.071,0-4.242c-1.171-1.172-3.071-1.172-4.242,0l-9.488,9.487l9.488,9.486
			c0.586,0.586,1.354,0.879,2.121,0.879s1.536-0.293,2.122-0.879c1.171-1.172,1.171-3.071,0-4.242l-2.932-2.932
			c7.455-0.061,13.506,1.745,17.255,5.209c2.281,2.107,3.487,4.641,3.487,7.327v3v11.011l-0.22,1.01l0.22,0.048v19.412
			c0,1.657,1.343,3,3,3c1.657,0,3-1.343,3-3v-19.824l0.281-1.289c1.565-7.172,7.943-11.796,17.359-12.804l-2.561,2.561
			c-1.172,1.171-1.172,3.07,0,4.242c0.586,0.586,1.354,0.879,2.121,0.879s1.535-0.293,2.121-0.879l9.488-9.486L154.536,148.939z"/>
	</g>
</g>
</svg>
