<?xml version="1.0" encoding="utf-8"?>
<!-- Generator: Adobe Illustrator 19.0.0, SVG Export Plug-In . SVG Version: 6.00 Build 0)  -->
<svg version="1.1" id="Layer_1" xmlns="http://www.w3.org/2000/svg" xmlns:xlink="http://www.w3.org/1999/xlink" x="0px" y="0px"
	 viewBox="0 0 76 72" enable-background="new 0 0 76 72" xml:space="preserve">
<g id="XMLID_1473_">
	<path id="XMLID_1502_" fill="#FFFFFF" d="M25.413,55.106H4.865c-1.454,0-2.635,1.183-2.635,2.638V68.42
		c0,1.462,1.181,2.636,2.635,2.636h20.548c1.458,0,2.635-1.174,2.635-2.636V57.744C28.049,56.289,26.871,55.106,25.413,55.106z"/>
	<path id="XMLID_1489_" fill="#FFFFFF" d="M71.132,55.106H50.588c-1.463,0-2.638,1.193-2.638,2.638V68.42
		c0,1.462,1.175,2.644,2.638,2.644h20.544c1.45,0,2.638-1.181,2.638-2.644V57.744C73.77,56.3,72.582,55.106,71.132,55.106z"/>
	<path id="XMLID_1488_" fill="#FFFFFF" d="M50.66,53.566h20.396V41.892c0-0.197-0.014-0.383-0.056-0.56L65.522,16.39
		c-0.149-0.679-0.577-1.233-1.126-1.603c-0.479-0.51-1.143-0.83-1.899-0.83H43.541c-1.45,0-2.633,1.181-2.633,2.643v0.926h-5.81
		v-0.926c0-1.462-1.185-2.643-2.642-2.643H13.505c-0.748,0-1.422,0.32-1.911,0.838c-0.547,0.363-0.974,0.917-1.118,1.596
		L5.005,41.323c-0.039,0.186-0.063,0.372-0.063,0.56v11.683h20.401V47.42h7.115c1.458,0,2.642-1.191,2.642-2.645v-1.389h5.81v1.397
		c0,1.453,1.183,2.636,2.633,2.636h7.119L50.66,53.566L50.66,53.566z"/>
	<path id="XMLID_1480_" fill="#FFFFFF" d="M60.78,3.57c0-1.451-1.183-2.634-2.645-2.634H46.952c-1.442,0-2.638,1.183-2.638,2.634
		v9.067H60.78V3.57z"/>
	<path id="XMLID_1477_" fill="#FFFFFF" d="M31.678,3.57c0-1.451-1.175-2.634-2.631-2.634H17.868c-1.458,0-2.635,1.183-2.635,2.634
		v9.067h16.445V3.57z"/>
</g>
</svg>
