<?xml version="1.0" encoding="utf-8"?>
<!-- Generator: Adobe Illustrator 19.0.0, SVG Export Plug-In . SVG Version: 6.00 Build 0)  -->
<svg version="1.1" id="Layer_1" xmlns="http://www.w3.org/2000/svg" xmlns:xlink="http://www.w3.org/1999/xlink" x="0px" y="0px"
	 viewBox="0 0 90 68" enable-background="new 0 0 90 68" xml:space="preserve">
<g id="XMLID_1_">
	<g id="XMLID_2_">
		<g id="XMLID_3_">
			<ellipse fill="#74AC00" cx="16.468" cy="31.69" rx="3.597" ry="3.768"/>
			<path fill="#74AC00" d="M10.809,43.543c0-0.911,2.534-1.649,5.659-1.649s5.659,0.738,5.659,1.649
				c0.085,0.596,0.125,1.213,0.125,1.845c0,0.633-0.04,1.252-0.116,1.849c-0.024-0.907-2.552-1.641-5.668-1.641
				s-5.644,0.734-5.659,1.641c-0.085-0.597-0.126-1.216-0.126-1.849c0-0.632,0.04-1.25,0.116-1.846
				C10.805,44.07,10.809,44.07,10.809,43.543z"/>
			<path fill="#74AC00" d="M20.923,39.51c-0.42-0.761-2.254-1.337-4.455-1.337s-4.034,0.575-4.439,1.337
				c1.046-2.037,2.647-3.335,4.439-3.335S19.862,37.473,20.923,39.51z"/>
			<path fill="#74AC00" d="M11.945,50.981c0-0.914,2.025-1.655,4.523-1.655c2.498,0,4.523,0.741,4.523,1.655
				c0,0.107-0.027,0.211-0.08,0.312l-0.034,0.061c-1.061,1.987-2.642,3.248-4.408,3.248c-1.766,0-3.347-1.261-4.408-3.248
				l-0.034-0.06C11.973,51.192,11.945,51.088,11.945,50.981z"/>
			<path fill="#74AC00" d="M27.628,35.698h0.059c0.202,0.001,0.404,0.017,0.606,0.046c0.671,0.096,1.333,0.344,1.939,0.756
				c2.197,1.495,2.821,4.572,1.395,6.874c-1.427,2.302-4.365,2.956-6.561,1.461c-0.606-0.412-1.092-0.944-1.448-1.547
				c-0.107-0.181-0.202-0.368-0.286-0.561l-0.025-0.058l-2.974-6.979L27.628,35.698z"/>
			<path fill="#74AC00" d="M5.308,35.698H5.249c-0.202,0.001-0.404,0.017-0.607,0.046C3.972,35.839,3.31,36.088,2.704,36.5
				c-2.197,1.495-2.821,4.572-1.395,6.874c1.427,2.302,4.365,2.956,6.561,1.461c0.606-0.412,1.092-0.944,1.448-1.547
				c0.107-0.181,0.202-0.368,0.286-0.561l0.024-0.058l2.974-6.979L5.308,35.698z"/>
		</g>
	</g>
	<g id="XMLID_4_">
		<path fill="#74AC00" d="M83.609,30.871l5.847-10.61L83.609,9.651H71.916l-5.048,9.159H58.41l-5.048-9.159H43.287l-5.048-9.16
			H26.546l-5.846,10.609l5.846,10.61h10.075l4.132,7.496l-5.167,9.374l4.813,8.732l-5.284,9.587l5.846,10.609h11.693l4.912-8.911
			h10.919l5.847-10.609l-5.115-9.283l4.316-7.834L83.609,30.871L83.609,30.871z M73.53,12.58h8.466l4.234,7.682l-4.234,7.681H73.53
			l-4.232-7.681L73.53,12.58z M23.925,11.101L28.16,3.42h8.467l4.233,7.681l-4.233,7.681H28.16L23.925,11.101z M43.283,12.58h8.467
			l4.233,7.682l-4.233,7.681h-8.467l-4.232-7.681L43.283,12.58z M43.046,30.899h8.467l4.233,7.682l-4.233,7.68h-8.467l-4.233-7.68
			L43.046,30.899z M51.039,64.581h-8.466l-4.233-7.682l4.233-7.681h8.466l4.234,7.681L51.039,64.581z M66.874,55.671h-8.467
			l-4.234-7.683l4.234-7.682h8.467l4.232,7.682L66.874,55.671z M66.874,37.1h-8.468l-4.233-7.681l4.233-7.68h8.468l4.232,7.68
			L66.874,37.1z"/>
	</g>
</g>
</svg>
