<?xml version="1.0" encoding="utf-8"?>
<!-- Generator: Adobe Illustrator 19.0.0, SVG Export Plug-In . SVG Version: 6.00 Build 0)  -->
<svg version="1.1" id="Layer_1" xmlns="http://www.w3.org/2000/svg" xmlns:xlink="http://www.w3.org/1999/xlink" x="0px" y="0px"
	 viewBox="0 0 255 247" enable-background="new 0 0 255 247" xml:space="preserve">
<g>
	<circle id="XMLID_12_" fill="#EFEFEF" cx="127.5" cy="123.5" r="117.696"/>
	<g>
		<g>
			<path id="XMLID_11_" fill="#74AC00" d="M132.135,172.117H17.749c-5.668,0-10.305-4.637-10.305-10.305v-55.299
				c0-5.668,4.637-10.305,10.305-10.305h75.609c5.668,0,10.305,4.637,10.305,10.305v48.446
				C103.662,156.798,135.964,172.117,132.135,172.117z"/>
			<path id="XMLID_10_" fill="#FFFFFF" d="M89.799,121.607c0.158-2.134,9.327-13.279-5.217-9.801
				c-9.011,2.134-17.31,10.987-22.29,17.389v-4.822c0-1.818-0.869-3.478-2.292-4.426l3.083-10.829
				c0.079-0.395-0.079-0.79-0.474-0.949c-0.395-0.079-0.79,0.158-0.949,0.553l-3.083,10.592c-0.474-0.158-0.949-0.237-1.502-0.237
				c-0.395,0-0.79,0.079-1.186,0.158l-2.925-10.513c-0.079-0.395-0.553-0.632-0.949-0.553s-0.632,0.553-0.474,0.949l3.083,10.671
				c-1.581,0.949-2.608,2.608-2.608,4.584v4.505c-5.059-6.402-13.2-15.018-22.132-17.152c-14.544-3.399-5.375,7.746-5.217,9.88
				c0.158,2.134,1.818,18.654,11.935,18.496c0,0-4.268,1.265-5.77,6.086c-1.581,4.901,1.107,11.777,9.327,11.777
				c3.794,0,6.165-2.45,8.062-6.798c0.632-1.423,2.292-3.557,3.794-5.375v9.248c0,2.925,2.292,5.296,5.138,5.296
				c2.846,0,5.138-2.371,5.138-5.296v-9.485c1.581,1.818,3.32,4.11,3.952,5.612c1.897,4.347,4.189,6.798,8.062,6.798
				c8.22,0,10.908-6.877,9.327-11.777c-1.502-4.822-7.035-5.928-7.035-5.928C86.716,140.341,89.641,123.742,89.799,121.607z"/>
		</g>
		<g>
			<g>
				<path id="XMLID_9_" fill="#FFFFFF" stroke="#9B9B9B" stroke-width="2" stroke-miterlimit="10" d="M151.513,193.042h88.106
					c4.366,0,7.938-3.572,7.938-7.938V141.51c0-4.366-3.572-7.938-7.938-7.938h-58.238c-4.366,0-7.938,3.572-7.938,7.938v38.316
					C173.444,181.242,148.564,193.042,151.513,193.042z"/>
				<g>
					<g>
						<path fill="#9B9B9B" d="M228.676,176.166c-0.222-1.353-0.81-2.51-1.448-3.703c-1.467-2.739-3.092-5.396-4.715-8.044
							c-1.794-2.927-3.622-5.833-5.477-8.722c0.877,0.123,1.681,0.467,2.266,1.262c0.633,0.861,0.91,1.942,1.324,2.913
							c1.038,2.432,2.892,3.188,5.458,2.801c1.008-0.152,0.578-1.679-0.421-1.529c-2.987,0.45-3.421-1.649-4.4-3.907
							c-0.995-2.294-2.957-3.186-5.282-3.174c-0.096-0.147-0.19-0.294-0.286-0.441c1.073-0.11,2.102-0.424,2.81-1.32
							c0.315-0.4,0.554-0.848,0.836-1.271c0.502-0.756,1.308-1.183,2.118-1.533c0.937-0.403,0.128-1.769-0.8-1.369
							c-1.243,0.535-2.184,1.291-2.903,2.435c-0.794,1.262-1.555,1.501-3.085,1.528c-0.008,0-0.015,0.002-0.024,0.003
							c-0.056-0.072-0.112-0.145-0.169-0.216c-0.558-0.696-0.394-0.488-0.57-1.392c-0.101-0.515-0.278-0.944-0.522-1.299
							c0.217,0.01,0.433,0.024,0.655,0.041c0.647,0.045,1.412,0.075,2.203-0.144c0.789-0.212,1.515-0.675,2.031-1.252
							c0.52-0.581,0.882-1.257,1.03-2.027c-0.72,0.312-1.312,0.66-1.885,0.937c-0.571,0.285-1.094,0.49-1.647,0.645
							c-0.551,0.16-1.184,0.252-1.913,0.473c-0.359,0.115-0.734,0.271-1.064,0.5c-0.05,0.036-0.097,0.075-0.145,0.113
							c-0.3-0.186-0.653-0.312-1.051-0.387c-0.107-0.052-0.236-0.081-0.39-0.066c-0.057,0.005-0.108,0.017-0.164,0.024
							c-0.016,0.002-0.031,0.001-0.047,0.004c-0.005,0.001-0.01,0.002-0.015,0.003c-0.005,0.001-0.008,0.003-0.013,0.004
							c-0.532,0.077-0.977,0.239-1.342,0.5c-0.039-0.024-0.076-0.052-0.116-0.074c-0.383-0.211-0.798-0.332-1.183-0.421
							c-0.78-0.168-1.442-0.25-2.029-0.425c-0.589-0.168-1.144-0.424-1.738-0.775c-0.597-0.345-1.2-0.777-1.926-1.188
							c0.127,0.825,0.48,1.571,1.013,2.224c0.53,0.647,1.296,1.185,2.158,1.431c0.862,0.256,1.723,0.207,2.441,0.117
							c0.227-0.027,0.443-0.058,0.657-0.084c-0.133,0.227-0.249,0.479-0.341,0.769c-0.201,0.634,0.02,1.076-0.366,1.444
							c-0.168,0.159-0.321,0.336-0.468,0.519c-1.509-0.026-2.309-0.26-3.081-1.528c-0.699-1.148-1.674-1.906-2.904-2.436
							c-0.928-0.4-1.737,0.966-0.8,1.369c0.769,0.331,1.434,0.715,1.987,1.352c0.379,0.438,0.608,0.996,0.967,1.452
							c0.708,0.899,1.74,1.212,2.815,1.321c-0.095,0.146-0.188,0.293-0.282,0.44c-2.25-0.018-4.114,0.796-5.187,2.949
							c-1.127,2.262-1.334,4.61-4.504,4.132c-1-0.15-1.43,1.377-0.421,1.529c2.432,0.367,4.313-0.269,5.364-2.58
							c0.443-0.974,0.733-2.004,1.284-2.929c0.558-0.938,1.443-1.332,2.413-1.465c-1.778,2.771-3.539,5.553-5.266,8.356
							c-1.649,2.677-3.278,5.371-4.788,8.13c-0.627,1.145-1.206,2.257-1.511,3.536c-0.243,1.019-0.708,2.894-0.134,3.874
							c0.718,1.226,3.802-0.025,4.727-0.285c2.628-0.736,5.378-1.677,7.668-3.192c0.774-0.512,1.327-1.215,1.739-2.02
							c0.743,1.294,1.763,2.296,3.151,2.513c0.07,0.019,0.144-0.005,0.227-0.005c0.005,0,0.01,0,0.015,0
							c0.082,0,0.155,0.024,0.224,0.006c1.421-0.219,2.424-1.262,3.148-2.561c0.379,0.735,0.867,1.396,1.519,1.897
							c2.125,1.635,5.029,2.505,7.56,3.26c0.923,0.276,4.094,1.569,4.937,0.543C229.307,178.886,228.837,177.147,228.676,176.166z
							 M194.862,178.478"/>
					</g>
					<g>
						<path fill="#FFFFFF" stroke="#9B9B9B" stroke-width="2" stroke-miterlimit="10" d="M208.904,149.361
							c-0.133,0.227-0.249,0.479-0.341,0.769c-0.201,0.634,0.02,1.076-0.366,1.444c-0.168,0.159-0.321,0.336-0.468,0.519
							l-1.016,1.53c-0.095,0.146-0.188,0.293-0.282,0.44l-1.051,1.636c-1.778,2.771-3.539,5.553-5.266,8.356
							c-1.649,2.677-3.278,5.371-4.788,8.13c-0.627,1.145-1.206,2.257-1.511,3.536c-0.243,1.019-0.708,2.894-0.134,3.874
							c0.718,1.226,3.802-0.025,4.727-0.285c2.628-0.736,5.378-1.677,7.668-3.192c0.774-0.512,1.327-1.215,1.739-2.02
							c0.743,1.294,1.763,2.296,3.151,2.513c0.07,0.019,0.144-0.005,0.227-0.005c0.005,0,0.01,0,0.015,0
							c0.082,0,0.155,0.024,0.224,0.006c1.421-0.219,2.424-1.262,3.148-2.561c0.379,0.735,0.867,1.396,1.519,1.897
							c2.125,1.635,5.029,2.505,7.56,3.26c0.923,0.276,4.094,1.569,4.937,0.543c0.71-0.865,0.24-2.604,0.079-3.585
							c-0.222-1.353-0.81-2.51-1.448-3.703c-1.467-2.739-3.092-5.396-4.715-8.044c-1.794-2.927-3.622-5.833-5.477-8.722
							l-1.055-1.633c-0.096-0.147-0.19-0.294-0.286-0.441l-1.024-1.53c-0.008,0-0.015,0.002-0.024,0.003
							c-0.056-0.072-0.112-0.145-0.169-0.216c-0.558-0.696-0.394-0.488-0.57-1.392c-0.101-0.515-0.278-0.944-0.522-1.299
							l-0.735-0.714c-0.3-0.186-0.653-0.312-1.051-0.387c-0.107-0.052-0.236-0.081-0.39-0.066c-0.057,0.005-0.108,0.017-0.164,0.024
							c-0.016,0.002-0.031,0.001-0.047,0.004c-0.005,0.001-0.01,0.002-0.015,0.003c-0.005,0.001-0.008,0.003-0.013,0.004
							c-0.532,0.077-0.977,0.239-1.342,0.5c-0.039-0.024-0.076-0.052-0.116-0.074 M194.862,178.478"/>
					</g>
				</g>
			</g>
		</g>
		<g>
			<path id="XMLID_4_" fill="#FFFFFF" stroke="#9B9B9B" stroke-width="2" stroke-miterlimit="10" d="M174.339,102.397V34.291
				c0-4.366-3.572-7.937-7.937-7.937h-51.594c-4.366,0-7.938,3.572-7.938,7.937v43.238c0,4.366,3.572,7.938,7.938,7.938h46.316
				C162.539,85.466,174.339,105.346,174.339,102.397z"/>
			<g>
				
					<circle id="XMLID_3_" fill="#FFFFFF" stroke="#A8A8A8" stroke-width="2" stroke-miterlimit="10" cx="126.676" cy="56.948" r="5.078"/>
				
					<circle id="XMLID_2_" fill="#FFFFFF" stroke="#A8A8A8" stroke-width="2" stroke-miterlimit="10" cx="141.103" cy="56.948" r="5.078"/>
				
					<circle id="XMLID_1_" fill="#FFFFFF" stroke="#A8A8A8" stroke-width="2" stroke-miterlimit="10" cx="155.529" cy="56.948" r="5.078"/>
			</g>
		</g>
	</g>
</g>
</svg>
