<svg width="14" height="14" viewBox="0 0 14 14" fill="none" xmlns="http://www.w3.org/2000/svg">
<path d="M9.2421 8.49888C9.27197 8.36498 9.39913 8.36833 9.42896 8.5023C9.69537 9.70112 10.3365 10.6626 11.1357 11.0622C11.2217 11.1052 11.2225 11.2898 11.1357 11.3288C10.3114 11.6989 9.66671 12.666 9.41984 13.9024C9.39387 14.0325 9.27088 14.0322 9.2421 13.9035C8.97567 12.7047 8.33465 11.7421 7.53535 11.3425C7.44597 11.2978 7.44372 11.1081 7.53308 11.0634C8.34008 10.6599 8.9731 9.70932 9.2421 8.49888Z" fill="#74AC00"/>
<path d="M3.5499 0.214183C3.60952 -0.0760505 3.8638 -0.0689328 3.92361 0.221019C4.45647 2.81857 5.73966 4.90108 7.33825 5.76693C7.51001 5.86013 7.51048 6.25986 7.33711 6.34454C5.68823 7.14662 4.39786 9.24308 3.90424 11.9224C3.85224 12.2044 3.60608 12.2029 3.54876 11.9235C3.01591 9.32619 1.73482 7.24236 0.136409 6.37644C-0.0424024 6.27959 -0.0469598 5.86606 0.131852 5.76921C1.74582 4.89498 3.01191 2.83675 3.5499 0.214183Z" fill="#74AC00"/>
<path d="M11.5527 0.132156C11.59 -0.046645 11.749 -0.042088 11.7863 0.136713C12.1193 1.73477 12.9203 3.01587 13.9191 3.5488C14.0265 3.60606 14.0274 3.852 13.9191 3.90425C12.8886 4.39783 12.0823 5.68806 11.7737 7.33683C11.7413 7.51034 11.5875 7.50957 11.5516 7.33797C11.2185 5.73954 10.4178 4.45648 9.4187 3.92361C9.30699 3.86404 9.30368 3.60968 9.41528 3.54994C10.424 3.01197 11.2164 1.74602 11.5527 0.132156Z" fill="#74AC00"/>
</svg>
