<?xml version="1.0" encoding="UTF-8"?>
<svg width="842px" height="147px" viewBox="0 0 842 147" version="1.1" xmlns="http://www.w3.org/2000/svg" xmlns:xlink="http://www.w3.org/1999/xlink">
    <!-- Generator: Sketch 55.1 (78136) - https://sketchapp.com -->
    <title>logos-CAS-NatGeo-About</title>
    <desc>Created with Sketch.</desc>
    <defs>
        <polygon id="path-1" points="0 0.0214793388 79.258032 0.0214793388 79.258032 112.943967 0 112.943967"></polygon>
    </defs>
    <g id="NatGeo-Branding" stroke="none" stroke-width="1" fill="none" fill-rule="evenodd">
        <g id="About" transform="translate(-333.000000, -1849.000000)">
            <g id="logos-CAS-NatGeo-About" transform="translate(328.000000, 1848.000000)">
                <g id="ng_2flush_blackyellow_rgb" transform="translate(463.000000, 18.050633)">
                    <g id="Group-3">
                        <mask id="mask-2" fill="white">
                            <use xlink:href="#path-1"></use>
                        </mask>
                        <g id="Clip-2"></g>
                        <path d="M11.3228434,101.701868 L67.9351886,101.701868 L67.9351886,11.3196116 L11.3228434,11.3196116 L11.3228434,101.701868 Z M0,113 L79.258032,113 L79.258032,0.0214793388 L0,0.0214793388 L0,113 Z" id="Fill-1" fill="#F8C823" mask="url(#mask-2)"></path>
                    </g>
                    <path d="M131.569721,50.3918919 L126.742466,50.3918919 C120.419546,41.611831 114.149186,32.8852629 107.881592,23.0135877 L107.82811,23.0135877 L107.82811,50.3918919 L102.501992,50.3918919 L102.501992,12.2162162 L107.328325,12.2162162 C113.652167,20.9400644 119.919761,29.6122332 126.13295,39.426789 L126.242681,39.426789 L126.242681,12.2162162 L131.569721,12.2162162 L131.569721,50.3918919" id="Fill-4" fill="#1A1919"></path>
                    <path d="M146.205147,12.2162162 L133.099602,50.3918919 L138.732853,50.3918919 L142.034669,39.9744095 L153.460501,39.9744095 L156.439157,50.3918919 L163.697211,50.3918919 L151.620558,12.2162162 L146.205147,12.2162162 Z M143.715282,35.2851824 C145.229365,30.2677458 146.746148,25.6311048 148.100001,19.7369313 L148.208921,19.7369313 C149.723904,25.6311048 151.079557,30.2677458 152.486519,35.2851824 L143.715282,35.2851824 L143.715282,35.2851824 Z" id="Fill-5" fill="#1A1919"></path>
                    <polyline id="Fill-6" fill="#1A1919" points="171.020543 50.3918919 171.020543 17.3370117 160.63745 17.3370117 160.63745 12.2162162 188.175299 12.2162162 188.175299 17.3370117 177.791268 17.3370117 177.791268 50.3918919 171.020543 50.3918919"></polyline>
                    <polygon id="Fill-7" fill="#1A1919" points="191.23506 50.3918919 197.354582 50.3918919 197.354582 12.2162162 191.23506 12.2162162"></polygon>
                    <path d="M218.773379,50.3918919 C229.141375,50.3918919 235.601594,41.4560261 235.601594,29.9949258 C235.601594,19.2421675 228.46041,10.6891892 218.773379,10.6891892 C209.082581,10.6891892 201.944223,19.2421675 201.944223,29.9949258 C201.944223,41.4560261 208.401616,50.3918919 218.773379,50.3918919 Z M218.773379,44.9120419 C211.688708,44.9120419 209.197488,37.3408967 209.197488,29.9949258 C209.197488,22.9206227 212.030603,16.1717741 218.773379,16.1717741 C225.515214,16.1717741 228.346445,22.9206227 228.346445,29.9949258 C228.346445,37.3408967 225.854283,44.9120419 218.773379,44.9120419 L218.773379,44.9120419 Z" id="Fill-8" fill="#1A1919"></path>
                    <path d="M267.729084,50.3918919 L262.90352,50.3918919 C256.581321,41.611831 250.308918,32.8852629 244.04297,23.0135877 L243.984875,23.0135877 L243.984875,50.3918919 L238.661355,50.3918919 L238.661355,12.2162162 L243.490607,12.2162162 C249.812806,20.9400644 256.081521,29.6122332 262.293985,39.426789 L262.405564,39.426789 L262.405564,12.2162162 L267.729084,12.2162162 L267.729084,50.3918919" id="Fill-9" fill="#1A1919"></path>
                    <path d="M283.89439,12.2162162 L270.788845,50.3918919 L276.423896,50.3918919 L279.727513,39.9744095 L291.152445,39.9744095 L294.1302,50.3918919 L301.386454,50.3918919 L289.310701,12.2162162 L283.89439,12.2162162 Z M281.404526,35.2851824 C282.921309,30.2677458 284.438992,25.6311048 285.793745,19.7369313 L285.899964,19.7369313 C287.416747,25.6311048 288.7706,30.2677458 290.177563,35.2851824 L281.404526,35.2851824 L281.404526,35.2851824 Z" id="Fill-10" fill="#1A1919"></path>
                    <polyline id="Fill-11" fill="#1A1919" points="302.916335 12.2162162 309.56501 12.2162162 309.56501 45.2656564 322.804781 45.2656564 322.804781 50.3918919 302.916335 50.3918919 302.916335 12.2162162"></polyline>
                    <path d="M126.98008,84.105002 L126.98008,99.9532634 C123.502863,101.32622 119.864881,102.310811 116.168192,102.310811 C104.976972,102.310811 97.9123506,93.5415732 97.9123506,82.2388382 C97.9123506,71.7666236 104.976972,62.6081081 116.385857,62.6081081 C119.916361,62.6081081 123.448672,63.9254538 125.621707,65.5691731 L123.502863,70.1219927 C121.763351,69.0252683 119.046606,68.0935539 116.550235,68.0935539 C109.593994,68.0935539 104.865882,73.6327874 104.865882,82.3491489 C104.865882,91.4547882 110.302082,96.830835 115.896337,96.830835 C117.636752,96.830835 119.102602,96.6093021 120.461878,95.9009439 L120.461878,84.105002 L126.98008,84.105002" id="Fill-12" fill="#1A1919"></path>
                    <polyline id="Fill-13" fill="#1A1919" points="150.975615 67.7388087 139.80183 67.7388087 139.80183 78.2059818 150.751805 78.2059818 150.751805 83.330337 139.80183 83.330337 139.80183 95.6539897 152.988048 95.6539897 152.988048 100.783784 133.099602 100.783784 133.099602 62.6081081 150.975615 62.6081081 150.975615 67.7388087"></polyline>
                    <path d="M171.346143,102.310811 C181.717183,102.310811 188.175299,93.3729165 188.175299,81.9124647 C188.175299,71.1631061 181.036142,62.6081081 171.346143,62.6081081 C161.657085,62.6081081 154.517928,71.1631061 154.517928,81.9124647 C154.517928,93.3729165 160.976986,102.310811 171.346143,102.310811 Z M171.346143,96.830835 C164.262562,96.830835 161.771063,89.2649859 161.771063,81.9124647 C161.771063,74.8407342 164.603553,68.0935539 171.346143,68.0935539 C178.090616,68.0935539 180.923106,74.8407342 180.923106,81.9124647 C180.923106,89.2649859 178.429723,96.830835 171.346143,96.830835 L171.346143,96.830835 Z" id="Fill-14" fill="#1A1919"></path>
                    <path d="M221.832669,84.105002 L221.832669,99.9532634 C218.355452,101.32622 214.71747,102.310811 211.020782,102.310811 C199.828659,102.310811 192.76494,93.5415732 192.76494,82.2388382 C192.76494,71.7666236 199.828659,62.6081081 211.23935,62.6081081 C214.768951,62.6081081 218.300359,63.9254538 220.474297,65.5691731 L218.355452,70.1219927 C216.616844,69.0252683 213.899195,68.0935539 211.401018,68.0935539 C204.446584,68.0935539 199.719375,73.6327874 199.719375,82.3491489 C199.719375,91.4547882 205.154671,96.830835 210.74983,96.830835 C212.488438,96.830835 213.956998,96.6093021 215.315371,95.9009439 L215.315371,84.105002 L221.832669,84.105002" id="Fill-15" fill="#1A1919"></path>
                    <path d="M250.900398,100.783784 L243.271091,84.9674474 C247.440711,82.7329639 249.820652,78.2059818 249.820652,73.6282365 C249.820652,66.2077569 245.327108,62.6081081 238.074812,62.6081081 L227.952191,62.6081081 L227.952191,100.783784 L234.446865,100.783784 L234.446865,86.3860952 L237.370278,86.3860952 L243.486141,100.783784 L250.900398,100.783784 Z M234.446865,67.7388087 L237.31809,67.7388087 C241.160187,67.7388087 243.323279,69.9732922 243.323279,73.8983688 C243.323279,79.022724 240.240603,81.3134096 237.151629,81.4747638 C236.503782,81.5327788 234.989437,81.5844484 234.446865,81.6424634 L234.446865,67.7388087 L234.446865,67.7388087 Z" id="Fill-16" fill="#1A1919"></path>
                    <path d="M265.53338,62.6081081 L252.430279,100.783784 L258.061327,100.783784 L261.364334,90.3673738 L272.792975,90.3673738 L275.770994,100.783784 L283.027888,100.783784 L270.951069,62.6081081 L265.53338,62.6081081 Z M263.043296,85.6763181 C264.558412,80.6598345 266.076229,76.0249808 267.430202,70.1382724 L267.536431,70.1382724 C269.054248,76.0249808 270.40822,80.6598345 271.818007,85.6763181 L263.043296,85.6763181 L263.043296,85.6763181 Z" id="Fill-17" fill="#1A1919"></path>
                    <path d="M294.214805,81.4747638 C293.514226,81.5273399 291.849643,81.5790095 291.373778,81.6324921 L291.373778,67.7388087 L294.440463,67.7388087 C298.418278,67.7388087 300.687134,69.9732922 300.687134,73.8983688 C300.687134,79.022724 297.448609,81.3134096 294.214805,81.4747638 Z M295.176921,62.6081081 L284.557769,62.6081081 L284.557769,100.783784 L291.373778,100.783784 L291.373778,86.3860952 L294.440463,86.3860952 C302.564157,86.3860952 307.505976,80.057929 307.505976,73.6282365 C307.505976,66.2077569 302.787927,62.6081081 295.176921,62.6081081 L295.176921,62.6081081 Z" id="Fill-18" fill="#1A1919"></path>
                    <polyline id="Fill-19" fill="#1A1919" points="339.633466 100.783784 332.85945 100.783784 332.85945 82.4039101 318.809604 82.4039101 318.809604 100.783784 312.095618 100.783784 312.095618 62.6081081 318.809604 62.6081081 318.809604 77.2804614 332.85945 77.2804614 332.85945 62.7177927 339.633466 62.7177927 339.633466 100.783784"></polyline>
                    <polygon id="Fill-20" fill="#1A1919" points="345.752988 100.783784 351.87251 100.783784 351.87251 62.6081081 345.752988 62.6081081"></polygon>
                    <path d="M381.901179,70.23048 C380.299544,69.2422428 377.653085,68.0935539 375.112118,68.0935539 C368.381765,68.0935539 363.470451,73.6327874 363.470451,82.3491489 C363.470451,91.4547882 368.878951,96.830835 375.27907,96.830835 C377.81912,96.830835 380.190384,96.0057846 381.901179,94.9090601 L383.724805,99.6834127 C381.73698,101.052723 378.20531,102.310811 375.003875,102.310811 C363.634651,102.310811 356.462151,93.5415732 356.462151,82.2388382 C356.462151,71.7666236 363.581447,62.6081081 375.112118,62.6081081 C378.532792,62.6081081 381.73698,64.0357644 384,65.5691731 L381.901179,70.23048" id="Fill-21" fill="#1A1919"></path>
                </g>
                <g id="CAS-Horizontal-Academy-Green-Digital" transform="translate(5.000000, 1.050633)" fill="#85BF52">
                    <path d="M108.426792,78.0960849 C108.204428,76.6909756 108.072656,75.2145131 108.056185,73.65572 C108.072656,72.0447841 108.218154,70.5189232 108.454245,69.0726486 C111.174779,70.9552755 114.071009,72.4070388 116.969985,73.578878 C114.071009,74.7479729 111.166544,76.2079693 108.426792,78.0960849 Z M101.420935,95.0424715 C101.93155,93.7169485 102.562956,92.3749593 103.334369,91.0219928 C104.144215,89.6360939 105.017202,88.3874128 105.939603,87.2512502 C107.339677,90.2398519 109.104867,92.9485294 111.00732,95.4129593 C107.927158,94.976607 104.70699,94.7845023 101.420935,95.0424715 Z M95.0080505,111.135364 C92.573021,109.258226 89.904646,107.523794 86.9590015,106.137895 C88.0488625,105.265191 89.2430427,104.433651 90.5662492,103.662488 C91.9663226,102.861136 93.3526697,102.218958 94.7252905,101.69753 C94.4507664,104.930379 94.6127356,108.097364 95.0080505,111.135364 Z M73.3206404,116.939673 C72.1621483,114.104755 70.7346226,111.280815 68.8953106,108.62428 C70.3063649,108.396499 71.7887955,108.262025 73.3535833,108.245559 C74.9101354,108.262025 76.3870754,108.393754 77.7871488,108.618791 C75.9286201,111.283559 74.4873681,114.110244 73.3206404,116.939673 Z M51.9489331,101.738696 C53.2831206,102.254634 54.6365248,102.88858 56.0036552,103.662488 C57.3488237,104.447373 58.5649658,105.292634 59.668553,106.179061 C56.7283991,107.570448 54.0627693,109.310369 51.6304851,111.190251 C52.0505071,108.146762 52.2234573,104.974289 51.9489331,101.738696 Z M35.8261281,95.2428094 C37.6626949,92.852477 39.3565091,90.2316188 40.7208942,87.350047 C41.6076073,88.458766 42.4476513,89.6745149 43.2355357,91.0219928 C43.9877319,92.3392827 44.6054113,93.6455953 45.1077906,94.9326974 C41.9288006,94.6719837 38.8156964,94.8393893 35.8261281,95.2428094 Z M29.9787631,73.578878 C32.7953812,72.4152719 35.609254,70.9827191 38.2639028,69.1357687 C38.4972484,70.5655772 38.6372557,72.0694833 38.6537272,73.65572 C38.6372557,75.2035357 38.5082294,76.6690208 38.28861,78.0604083 C35.631216,76.1915032 32.8091074,74.7452285 29.9787631,73.578878 Z M45.1626954,52.1921265 C44.64659,53.5423487 44.0151844,54.909037 43.2355357,56.2921915 C42.4449061,57.6259476 41.5966264,58.8334634 40.7044228,59.9312051 C39.3070947,56.9810244 37.5611209,54.3052791 35.6751398,51.8682927 C38.7251035,52.2826902 41.9095839,52.4638175 45.1626954,52.1921265 Z M51.5069492,35.7534453 C53.9749215,37.6717489 56.6872204,39.4500903 59.6822792,40.8634327 C58.5347681,41.8020018 57.2719569,42.6911725 55.8636479,43.5144788 C54.5157342,44.2856423 53.1760562,44.9168437 51.8528496,45.4272936 C52.1218833,42.1093695 51.9352069,38.8600542 51.5069492,35.7534453 Z M73.3069142,29.899738 C74.4791324,32.8005203 75.9313653,35.6958139 77.8118559,38.4127245 C76.4035469,38.6405059 74.9211163,38.7749792 73.3535833,38.7914453 C71.7585978,38.7749792 70.2514601,38.6322728 68.8184439,38.3990027 C70.693444,35.6766034 72.1429317,32.7895429 73.3069142,29.899738 Z M94.752743,45.2928202 C93.4213007,44.779626 92.0706417,44.1456802 90.7062566,43.3745167 C89.3583429,42.5896314 88.144946,41.7443704 87.0413588,40.857944 C89.9815127,39.4638121 92.652633,37.7238916 95.082172,35.844009 C94.6648952,38.8874977 94.4864545,42.0599711 94.752743,45.2928202 Z M95.7135776,95.9865294 C93.1193241,96.6451743 90.5140897,97.6303975 87.9280719,99.0766721 C85.4573543,100.566856 83.3572443,102.282078 81.5289133,104.134517 C78.9813289,103.431962 76.2717753,102.998354 73.3535833,102.968166 C70.4353913,102.998354 67.7203471,103.431962 65.1700175,104.137261 C63.3087436,102.260123 61.167455,100.539413 58.6418326,99.0766721 C56.0777768,97.611187 53.4999947,96.6122421 50.9304484,95.9343866 C50.2551189,93.4123252 49.2613414,90.8847751 47.814599,88.3819241 C46.3376589,85.8488853 44.6218828,83.700056 42.7633541,81.8338952 C43.466136,79.2871346 43.897139,76.5757127 43.9273366,73.65572 C43.897139,70.7137724 43.4579003,67.9776513 42.7441374,65.4116802 C44.6136471,63.5619855 46.3349137,61.4378555 47.814599,58.9322602 C49.2503604,56.3635447 50.2276665,53.7756188 50.8892698,51.1986703 C53.4231279,50.5317922 55.9707123,49.5438248 58.5018252,48.0975501 C61.0741168,46.5799223 63.245603,44.8098139 65.1233484,42.888766 C67.6874042,43.5995537 70.4161746,44.0386504 73.3535833,44.0688383 C76.2745205,44.0386504 78.9895647,43.6050425 81.5398943,42.8997435 C83.3956777,44.7768817 85.5397115,46.4948473 88.0680792,47.9575881 C90.6156636,49.4175845 93.1852099,50.4165294 95.7437752,51.0916405 C96.4191047,53.668589 97.4238632,56.2482818 98.8925676,58.7950425 C100.364017,61.3363144 102.093519,63.487888 103.979501,65.3567931 C103.257502,67.9392304 102.812773,70.6918175 102.77983,73.65572 C102.810028,76.5592466 103.238285,79.2596911 103.935577,81.7954743 C102.022143,83.6671238 100.259698,85.8296748 98.7553055,88.3819241 C97.3442512,90.9094743 96.3724356,93.4534905 95.7135776,95.9865294 Z M111.114384,51.7612629 C109.209186,54.2119711 107.443996,56.9041825 106.032941,59.876318 C105.129757,58.7538771 104.273241,57.5216621 103.474376,56.1549738 C102.702963,54.7855411 102.071558,53.4325745 101.560943,52.0988184 C104.836016,52.3732538 108.045204,52.1921265 111.114384,51.7612629 Z M145.391473,81.2987462 C144.534957,80.3299892 139.994328,76.4686829 133.112006,73.6063216 C139.890008,70.6808401 144.397695,66.8414887 145.254211,65.8782204 C146.363288,64.3496152 146.086019,62.6837922 144.836934,61.8495086 C143.31058,61.0179693 142.338764,61.8495086 141.506956,62.6837922 C139.560579,64.766757 132.483346,68.7954688 126.51519,70.4612918 C125.933199,70.6232087 125.337482,70.7878699 124.733528,70.9607642 C120.168191,69.7148275 114.702415,67.8651328 109.862554,63.7897669 C112.097181,57.7878645 116.00915,53.4325745 119.383052,50.0789738 C119.965043,49.9280343 120.538799,49.7770949 121.101574,49.6261554 C126.932467,48.0975501 135.258785,47.9575881 137.896963,48.9318338 C139.00604,49.2090136 140.395133,49.3489756 141.229686,47.9575881 C141.924232,46.5689449 141.229686,44.903122 139.560579,44.2088004 C138.385616,43.7806811 132.576684,42.6994056 125.20571,43.6269973 C129.625549,37.7156585 131.574671,32.1555971 131.7888,30.8739837 C132.068814,29.0654544 130.956992,27.6795556 129.430637,27.6795556 C127.767021,27.6795556 127.206991,28.9282367 126.932467,30.0397001 C126.377928,32.8169864 122.213397,39.9029088 117.911603,44.2088004 C117.48609,44.6314309 117.057832,45.0650388 116.629575,45.5068799 C112.031295,46.7336061 106.370606,47.8889792 100.100474,46.7802602 C99.0161035,40.5039223 100.204793,34.8505528 101.371521,30.3168799 C101.851938,29.8503397 102.32412,29.3865438 102.77983,28.9282367 C107.081624,24.6223451 114.161602,20.4536712 116.937042,19.8993117 C118.048865,19.6221319 119.29795,19.065028 119.29795,17.3992051 C119.29795,15.8705998 117.911603,14.7591364 116.105234,15.0363162 C114.81497,15.2531201 109.178989,17.2345438 103.216323,21.7380289 C104.152451,14.2761301 103.06808,8.43888889 102.639823,7.25881662 C101.945276,5.59299368 100.28166,4.89592773 98.8925676,5.73021138 C97.5062205,6.42453297 97.6434826,7.81317615 97.920752,9.06460163 C98.8925676,11.5647082 98.7553055,19.8993117 97.2289511,25.7338085 C97.0614913,26.3567769 96.8940316,26.993467 96.7320623,27.6383902 C93.3883578,30.9892466 89.0618568,34.8231093 83.1321345,37.0103595 C79.0060361,32.0787552 77.2188837,26.4885059 75.9807797,21.8642692 C76.1290227,21.3428419 76.2717753,20.824159 76.4090374,20.3164535 C78.0726539,14.3419946 82.0999236,7.25881662 84.1808169,5.31306956 C85.0126251,4.47878591 85.8471786,3.50728455 85.0126251,1.97867931 C84.1808169,0.729998193 82.5144551,0.452818428 80.9881007,1.70149955 C80.0300113,2.44796387 76.2278514,6.88558446 73.3124047,13.6641391 C70.3887222,6.80599819 66.5453837,2.28330262 65.5790586,1.42431978 C64.1927115,0.312856369 62.3890876,0.590036134 61.5545341,1.97867931 C60.7227258,3.37006685 61.5545341,4.47878591 62.3890876,5.31306956 C64.4699809,7.11885456 68.6345127,14.3419946 70.1608671,20.1764914 C70.3146006,20.7418284 70.4683342,21.3153984 70.6330487,21.8972014 C69.4690662,26.4336188 67.673678,32.0458229 63.5667963,37.0076152 C57.5958955,34.8011545 53.2501777,30.9261265 49.8982375,27.5615483 C49.7609754,26.9907227 49.6209681,26.4253857 49.4809608,25.8710262 C47.814599,19.8993117 47.814599,11.7046703 48.6464072,9.06460163 C48.9264219,7.95313821 49.2009461,6.56449503 47.6773369,5.73021138 C46.4282519,5.03588979 44.7591449,5.59299368 44.0645987,7.39603433 C43.6390862,8.57061789 42.5656967,14.3419946 43.4084859,21.6776531 C37.4787637,17.2180777 31.8894514,15.2531201 30.601933,15.0363162 C28.7983092,14.7591364 27.4092168,15.8705998 27.4092168,17.3992051 C27.4092168,19.065028 28.6583018,19.6221319 29.7701248,19.8993117 C32.5455642,20.4536712 39.6255428,24.6223451 43.9273366,28.9282367 C44.3391229,29.3398898 44.7563996,29.7542873 45.1874026,30.1741734 C46.4447233,34.7380343 47.6938084,40.501178 46.6039474,46.8763126 C40.3969557,47.9548437 34.7252862,46.7884932 30.1297514,45.5590226 C29.682277,45.0979711 29.2375479,44.647897 28.7983092,44.2088004 C24.4937701,39.9029088 20.3319835,32.8169864 19.7774447,30.0397001 C19.49743,28.9282367 18.9428912,27.6795556 17.2792747,27.6795556 C15.750175,27.6795556 14.6410973,29.0654544 14.9183667,30.8739837 C15.1324956,32.1610858 17.1035792,37.7787787 21.5810685,43.7285384 C14.1085204,42.8174128 8.1952696,43.9151545 7.00657991,44.3460181 C5.34021815,45.043084 4.64567198,46.708907 5.34021815,48.0975501 C6.31203374,49.4861933 7.56111875,49.3489756 8.67294167,49.0690515 C11.4456359,48.0975501 19.6374373,48.0975501 25.4683309,49.7633731 C26.1354246,49.933523 26.8244803,50.103673 27.5217717,50.2738229 C30.8544953,53.6054688 34.6648909,57.9141048 36.8501033,63.8062331 C32.0569112,67.7882909 26.6350586,69.6407299 22.0944287,70.889411 C21.4026278,70.6918175 20.7218078,70.5024571 20.0519689,70.3240741 C14.2238206,68.7954688 7.00657991,64.766757 5.20295606,62.5438302 C4.36840256,61.7095465 3.25932488,60.8780072 1.73022521,61.7095465 C0.481140197,62.5438302 0.206616019,64.3496152 1.3156937,65.7382584 C2.18044486,66.7152484 6.80343202,70.6369304 13.7928176,73.5733893 C6.83362968,76.5125926 2.18593534,80.4562294 1.3156937,81.4359639 C0.206616019,82.824607 0.481140197,84.6303921 1.73022521,85.4646757 C3.25932488,86.296215 4.23114047,85.4646757 5.06294873,84.6303921 C7.00657991,82.4074652 14.0838132,78.3814977 20.0519689,76.8528925 C20.7355341,76.6662764 21.438316,76.4686829 22.1465883,76.2628564 C26.6899635,77.5115375 32.0953445,79.3694652 36.8830462,83.4201319 C34.7362671,89.2573731 31.0027383,93.5440542 27.694722,96.867467 C26.9864496,97.04585 26.2864129,97.2269774 25.605593,97.4108491 C19.7774447,98.9394544 11.4456359,99.0766721 8.812949,98.1051707 C7.69838084,97.827991 6.31203374,97.6880289 5.48022548,99.0766721 C4.78567931,100.46806 5.48022548,102.133883 7.143842,102.828204 C8.33527693,103.261812 14.2567635,104.359554 21.7375473,103.379819 C17.1502483,109.403677 15.1352408,115.136632 14.9183667,116.440201 C14.6410973,118.24873 15.750175,119.634629 17.2792747,119.634629 C18.9428912,119.634629 19.49743,118.385948 19.7774447,117.274484 C20.3319835,114.497198 24.4937701,107.411276 28.7983092,103.105384 C29.3363766,102.567491 29.8826797,102.007642 30.4344733,101.436817 C34.9641222,100.245767 40.4930392,99.1754688 46.5957116,100.254 C47.6883179,106.450752 46.5325711,112.090399 45.3713338,116.684448 C44.8771903,117.161966 44.3940277,117.639483 43.9273366,118.108768 C39.6255428,122.414659 32.5455642,126.580589 29.7701248,127.137693 C28.6583018,127.414873 27.4092168,127.971977 27.4092168,129.637799 C27.4092168,131.166405 28.7983092,132.277868 30.601933,131.997944 C31.8949419,131.783884 37.5364138,129.796972 43.4990789,125.290743 C42.5492253,132.727942 43.636341,138.622815 44.0645987,139.91815 C44.7591449,141.583973 46.4282519,142.141077 47.814599,141.444011 C49.2009461,140.609727 49.063684,139.223828 48.7864146,138.109621 C47.814599,135.472296 47.814599,127.137693 49.4809608,121.303196 C49.6484205,120.680228 49.813135,120.043537 49.9778495,119.398614 C53.3188088,116.047758 57.648055,112.213895 63.5777773,110.023901 C67.5968113,114.832009 69.3949446,120.263086 70.6275582,124.818714 C70.4189198,125.554201 70.2157719,126.284199 70.0208598,126.997731 C68.4972506,132.832228 64.3327188,139.91815 62.2490803,141.861153 C61.417272,142.695436 60.5854638,143.8069 61.417272,145.335505 C62.2490803,146.444224 63.915442,146.721404 65.4417965,145.612685 C66.4218478,144.849754 70.3722507,140.206307 73.3124047,133.158806 C76.2443229,140.134954 80.1535472,144.745469 81.1253628,145.612685 C82.5144551,146.721404 84.318079,146.444224 85.1526325,145.055581 C85.9844407,143.666938 85.1526325,142.555474 84.318079,141.723935 C82.2371857,139.91815 78.0726539,132.69501 76.5462995,126.860513 C76.3678588,126.188146 76.1784371,125.502058 75.9780344,124.810481 C77.2161385,120.249364 79.0307433,114.801821 83.0442868,109.993713 C88.905378,112.137053 93.2071718,115.888585 96.5398954,119.206509 C96.7210813,119.966696 96.9050125,120.715904 97.0889437,121.443158 C98.7553055,127.277655 98.7553055,135.472296 97.920752,138.249583 C97.6434826,139.361046 97.3662131,140.749689 98.8925676,141.583973 C100.141653,142.278294 101.808014,141.583973 102.502561,139.91815 C102.939054,138.718867 104.042641,132.747153 103.106514,125.213901 C109.110357,129.777762 114.806734,131.78114 116.105234,131.997944 C117.911603,132.277868 119.29795,131.166405 119.29795,129.637799 C119.29795,127.971977 118.048865,127.414873 116.937042,127.137693 C114.161602,126.580589 107.081624,122.414659 102.77983,118.108768 C102.282941,117.61204 101.769581,117.107079 101.24524,116.596629 C100.034588,112.027279 98.909039,106.412331 99.9769381,100.275955 C106.236089,99.2193785 111.954428,100.421406 116.484077,101.659109 C116.964494,102.153093 117.442166,102.636099 117.911603,103.105384 C122.213397,107.411276 126.377928,114.497198 126.932467,117.274484 C127.206991,118.385948 127.767021,119.634629 129.430637,119.634629 C130.956992,119.634629 132.068814,118.24873 131.7888,116.440201 C131.574671,115.14761 129.592606,109.502473 125.087665,103.536248 C132.447658,104.425418 138.248354,103.286511 139.426062,102.968166 C141.089679,102.133883 141.784225,100.605277 141.089679,99.2166341 C140.117863,97.6880289 138.868778,97.9652087 137.756955,98.2451328 C135.121523,99.0766721 126.932467,99.0766721 120.964311,97.5508112 C120.401537,97.3971274 119.827781,97.2461879 119.243045,97.0979928 C115.871888,93.7279259 111.990116,89.3561698 109.802158,83.3487787 C114.754575,79.2322475 120.37683,77.4264625 124.991581,76.2573677 C125.551611,76.4137958 126.108895,76.5674797 126.652452,76.7129304 C132.483346,78.3814977 139.700587,82.4074652 141.506956,84.4931743 C142.338764,85.3247136 143.447842,86.1589973 144.836934,85.3247136 C146.226026,84.4931743 146.363288,82.684645 145.391473,81.2987462 L145.391473,81.2987462 Z" id="Fill-1"></path>
                    <path d="M244.791187,60.3318808 L244.791187,76.4659386 L247.080719,76.4659386 C252.219812,76.4659386 255.428999,73.3510967 255.428999,68.4002818 C255.428999,63.449467 252.219812,60.3318808 247.080719,60.3318808 L244.791187,60.3318808 Z M259.741774,68.4002818 C259.741774,75.2776332 254.69602,80.3190117 246.718347,80.3190117 L240.571751,80.3190117 L240.571751,56.4815519 L246.718347,56.4815519 C254.69602,56.4815519 259.741774,61.5256748 259.741774,68.4002818 Z M222.013916,70.9662529 L229.741772,70.9662529 L225.953338,61.0810894 L222.013916,70.9662529 Z M223.877935,56.0232448 L228.19071,56.0232448 L237.546494,80.3190117 L233.785513,81.5100614 L231.218712,74.8165818 L220.476581,74.8165818 L218.283133,80.3190117 L214.250372,80.3190117 L223.877935,56.0232448 Z M238.737929,44.7466938 L238.737929,20.9064896 L243.138552,20.9064896 L243.138552,44.7466938 L238.737929,44.7466938 Z M219.935768,20.9970533 L224.336391,20.9970533 L224.336391,40.9869286 L233.876106,40.9869286 L234.702424,44.8372575 L219.935768,44.8372575 L219.935768,20.9970533 Z M211.958096,121.209888 C215.719077,121.209888 219.202789,119.467223 221.585659,117.543431 L223.238294,122.584809 C220.668748,124.327474 216.907767,126.435138 211.590233,126.435138 C201.959925,126.435138 195.906667,118.643917 195.906667,109.107286 C195.906667,99.5706558 201.959925,91.7794345 211.590233,91.7794345 C217.185036,91.7794345 220.852679,94.2548419 222.228045,95.2620199 L220.210292,100.215579 C218.011354,98.3796061 215.351214,97.0046847 211.958096,97.0046847 C205.443637,97.0046847 201.685401,101.9555 201.685401,109.107286 C201.685401,116.168509 205.443637,121.209888 211.958096,121.209888 Z M180.461937,61.0810894 L176.522515,70.9662529 L184.253116,70.9662529 L180.461937,61.0810894 Z M172.794476,80.3190117 L168.758971,80.3190117 L178.389279,56.0232448 L182.699309,56.0232448 L192.055093,80.3190117 L188.294111,81.5100614 L185.730056,74.8165818 L174.987925,74.8165818 L172.794476,80.3190117 Z M182.699309,24.482383 C178.021417,24.482383 175.270684,28.0582764 175.270684,33.1023993 C175.270684,38.1465221 178.021417,41.7196712 182.699309,41.7196712 C185.359448,41.7196712 187.561132,40.5286215 189.30436,39.0603921 L190.495795,42.8201572 C188.661974,44.1017706 186.185766,45.57 182.518123,45.57 C175.361277,45.57 171.051248,39.9770063 171.051248,33.1023993 C171.051248,26.2250479 175.454616,20.5387462 182.424784,20.5387462 C186.46029,20.5387462 189.027091,22.3719747 190.03734,23.1074616 L188.571381,26.7766631 C187.012084,25.3989973 185.082179,24.482383 182.699309,24.482383 Z M228.555827,125.976831 L228.555827,92.5149214 L234.060037,92.5149214 L234.060037,125.976831 L228.555827,125.976831 Z M247.816444,111.21495 L247.816444,120.751581 L262.673692,120.751581 L262.673692,125.976831 L242.314979,125.976831 L242.314979,92.5149214 L262.215237,92.5149214 L262.215237,97.6468636 L247.816444,97.6468636 L247.816444,106.26688 L257.905207,106.26688 L259.280573,111.21495 L247.816444,111.21495 Z M212.23262,78.0247317 C210.396053,79.3118338 207.92259,80.7773189 204.161609,80.7773189 C197.098102,80.7773189 192.788072,75.1843252 192.788072,68.3069738 C192.788072,61.4323668 197.19144,55.7488094 204.161609,55.7488094 C208.194369,55.7488094 210.763915,57.5820379 211.774164,58.3147805 L210.30546,61.9812376 C208.748908,60.6063162 206.819003,59.6924463 204.436133,59.6924463 C199.758241,59.6924463 197.007509,63.2655953 197.007509,68.3069738 C197.007509,73.3510967 199.758241,76.9269901 204.436133,76.9269901 C207.096272,76.9269901 209.297956,75.7359404 211.041185,74.2677109 L212.23262,78.0247317 Z M182.334192,106.357444 C191.596637,109.842773 192.516293,113.141487 192.516293,116.99456 C192.516293,122.126502 188.845905,126.61901 180.772149,126.61901 C176.003664,126.61901 172.794476,125.153525 170.502199,124.053039 L171.509703,118.550609 C174.169842,119.834967 177.195099,121.574887 180.958825,121.574887 C184.442537,121.574887 186.825407,120.109402 186.825407,117.452867 C186.825407,114.609716 185.636717,113.325359 180.041915,111.21495 C172.154835,108.28398 170.870062,104.79865 170.870062,100.855014 C170.870062,95.9041987 174.537705,91.7794345 181.601212,91.7794345 C185.268855,91.7794345 188.203518,93.0637922 190.863658,94.5292773 L189.762816,99.6639639 C187.012084,97.6468636 184.261351,96.6369413 181.601212,96.6369413 C178.479872,96.6369413 176.097002,98.0118627 176.097002,100.306143 C176.097002,102.232679 176.92332,104.340343 182.334192,106.357444 Z M204.307107,25.8737706 L200.367685,35.7589341 L208.098286,35.7589341 L204.307107,25.8737706 Z M198.833095,39.6120072 L196.639646,45.1116929 L192.606886,45.1116929 L202.237194,20.8159259 L206.547224,20.8159259 L215.900263,45.1116929 L212.139282,46.3054869 L209.57248,39.6120072 L198.833095,39.6120072 Z M347.235375,76.740374 C351.635997,76.740374 354.205544,73.2577886 354.205544,68.1258464 C354.205544,63.1750316 351.635997,59.5963939 347.235375,59.5963939 C342.832007,59.5963939 340.265206,63.1750316 340.265206,68.1258464 C340.265206,73.2577886 342.832007,76.740374 347.235375,76.740374 Z M347.235375,55.6555014 C354.114951,55.6555014 358.606166,61.3418031 358.606166,68.1258464 C358.606166,75.0004535 354.114951,80.6840108 347.235375,80.6840108 C340.355799,80.6840108 335.861838,75.0004535 335.861838,68.1258464 C335.861838,61.3418031 340.355799,55.6555014 347.235375,55.6555014 Z M337.605067,111.21495 L337.605067,121.026016 L352.462315,121.026016 L352.462315,125.976831 L332.100857,125.976831 L332.100857,92.5149214 L352.00386,92.5149214 L352.187791,97.2791201 L337.605067,97.2791201 L337.605067,106.26688 L347.784423,106.26688 L349.069196,111.21495 L337.605067,111.21495 Z M345.124284,44.7439494 L345.124284,20.9970533 L349.527652,20.9970533 L349.527652,44.7439494 L345.124284,44.7439494 Z M361.326701,35.7589341 L369.057302,35.7589341 L365.266123,25.8737706 L361.326701,35.7589341 Z M363.19072,20.8159259 L367.503495,20.8159259 L376.859279,45.1116929 L373.098298,46.3054869 L370.531497,39.6120072 L359.792111,39.6120072 L357.598663,45.1116929 L353.563157,45.1116929 L363.19072,20.8159259 Z M367.778019,106.357444 C377.040465,109.842773 377.960121,113.141487 377.960121,116.99456 C377.960121,122.126502 374.289733,126.61901 366.218722,126.61901 C361.450237,126.61901 358.241049,125.153525 355.948772,124.053039 L356.956276,118.550609 C359.616415,119.834967 362.641672,121.574887 366.402653,121.574887 C369.88911,121.574887 372.27198,120.109402 372.27198,117.359559 C372.27198,114.609716 371.080545,113.325359 365.485742,111.21495 C357.598663,108.28398 356.316635,104.79865 356.316635,100.855014 C356.316635,95.9041987 359.981532,91.7794345 367.047785,91.7794345 C370.715428,91.7794345 373.647346,93.0637922 376.310231,94.5292773 L375.206643,99.6639639 C372.455911,97.6468636 369.702434,96.6369413 367.047785,96.6369413 C363.926445,96.6369413 361.543575,98.0118627 361.543575,100.306143 C361.543575,102.232679 362.369893,104.340343 367.778019,106.357444 Z M334.944927,44.8372575 L322.563887,28.1049304 L322.563887,44.8372575 L318.618975,44.8372575 L318.618975,20.9970533 L322.289363,20.9970533 L334.121355,36.9691942 L334.121355,20.9970533 L338.063522,20.9970533 L338.063522,44.8372575 L334.944927,44.8372575 Z M377.408327,60.3318808 L366.861108,60.3318808 L366.861108,66.7481807 L374.567002,66.7481807 L375.390575,70.4173821 L366.861108,70.4173821 L366.861108,80.3190117 L362.460486,80.3190117 L362.460486,56.4815519 L377.408327,56.4815519 L377.408327,60.3318808 Z M316.236105,121.487068 C319.997086,121.487068 323.115681,119.741659 325.49855,117.817866 L327.148441,122.859245 C324.58164,124.60191 321.188521,126.709574 315.868242,126.709574 C306.147341,126.709574 300.184676,118.918352 300.184676,109.384466 C300.184676,99.7545276 305.779479,92.0566143 315.868242,92.0566143 C321.463045,92.0566143 325.130688,94.5292773 326.506054,95.5391996 L324.491047,100.490014 C322.289363,98.6567859 319.629223,97.2791201 316.236105,97.2791201 C309.724391,97.2791201 305.96341,102.232679 305.96341,109.384466 C305.96341,116.442945 309.724391,121.487068 316.236105,121.487068 Z M290.005319,115.391857 L290.005319,92.5149214 L295.138922,92.5149214 L295.138922,125.976831 L291.012823,125.976831 L273.130318,102.243657 L273.130318,125.976831 L267.900633,125.976831 L267.900633,92.5149214 L272.762456,92.5149214 L290.005319,115.391857 Z M318.827613,67.1131798 L324.491047,56.4815519 L329.350125,56.4815519 L321.00459,71.2434327 L321.00459,80.3190117 L316.603967,80.3190117 L316.603967,71.3339964 L307.981163,56.4815519 L313.026917,56.4815519 L318.827613,67.1131798 Z M278.357259,76.4659386 L278.357259,80.3190117 L263.222741,80.3190117 L263.222741,56.4815519 L278.079989,56.4815519 L278.079989,60.3318808 L267.535515,60.3318808 L267.535515,66.3831816 L275.238664,66.3831816 L276.064982,70.0496387 L267.535515,70.0496387 L267.535515,76.4659386 L278.357259,76.4659386 Z M272.213407,32.9185276 C272.213407,37.8693424 274.780208,41.4452358 279.183576,41.4452358 C283.584199,41.4452358 286.153745,37.8693424 286.153745,32.9185276 C286.153745,27.9677127 283.584199,24.3918193 279.183576,24.3918193 C274.780208,24.3918193 272.213407,27.9677127 272.213407,32.9185276 Z M290.554368,32.9185276 C290.554368,39.795879 286.063152,45.476692 279.183576,45.476692 C272.304,45.476692 267.81004,39.795879 267.81004,32.9185276 C267.81004,26.0411762 272.304,20.3576188 279.183576,20.3576188 C286.063152,20.3576188 290.554368,26.0411762 290.554368,32.9185276 Z M254.514834,31.1758627 L262.215237,31.1758627 L263.041555,34.8423198 L254.514834,34.8423198 L254.514834,44.8372575 L250.108721,44.8372575 L250.108721,20.9970533 L265.701694,20.9970533 L265.611101,24.8501265 L254.514834,24.8501265 L254.514834,31.1758627 Z M304.129588,80.3190117 L301.378856,63.7239024 L295.784053,80.6840108 L293.214507,80.6840108 L287.713043,64.1822096 L285.327427,80.3190117 L281.38526,80.3190117 L284.959565,56.4815519 L289.456271,56.4815519 L294.77655,72.7089178 L300.094083,56.4815519 L304.497451,56.4815519 L308.162349,80.3190117 L304.129588,80.3190117 Z M304.038995,32.8279639 C307.522707,32.8279639 308.80748,30.991991 308.80748,28.791019 C308.80748,26.3156116 307.522707,24.7595628 303.761726,24.7595628 L299.912897,24.7595628 L299.912897,32.8279639 L304.038995,32.8279639 Z M312.936324,28.7031996 C312.936324,33.1023993 310.273439,35.3006269 307.154845,35.9428058 L313.853235,44.9278211 L309.814984,46.1216152 L302.476953,36.4011129 L299.912897,36.4011129 L299.912897,44.8372575 L295.506784,44.8372575 L295.506784,20.9970533 L303.58054,20.9970533 C309.175343,20.9970533 312.936324,23.4752051 312.936324,28.7031996 Z" id="Combined-Shape"></path>
                </g>
            </g>
        </g>
    </g>
</svg>