<?xml version="1.0" encoding="UTF-8"?>
<svg width="307px" height="54px" viewBox="0 0 307 54" version="1.1" xmlns="http://www.w3.org/2000/svg" xmlns:xlink="http://www.w3.org/1999/xlink">
    <!-- Generator: Sketch 55.1 (78136) - https://sketchapp.com -->
    <title>logos-CAS-NatGeo-WebHome</title>
    <desc>Created with Sketch.</desc>
    <g id="NatGeo-Branding" stroke="none" stroke-width="1" fill="none" fill-rule="evenodd">
        <g id="Web-Home-Page" transform="translate(-191.000000, -536.000000)">
            <g id="logos-CAS-NatGeo-WebHome" transform="translate(191.000000, 536.000000)">
                <g id="ng_2flush_white_grayscale" transform="translate(167.000000, 6.000000)" fill="#FFFFFE">
                    <path d="M4.14295499,36.8998983 L24.857045,36.8998983 L24.857045,4.10010167 L4.14295499,4.10010167 L4.14295499,36.8998983 Z M0,41 L0,0 L29,0 L29,41 L0,41 Z M47.4916445,18.418417 L45.7062956,18.418417 C43.3677785,15.1584429 41.0487006,11.9183303 38.7306459,8.25304757 L38.7108656,8.25304757 L38.7108656,18.418417 L36.7410136,18.418417 L36.7410136,4.24406043 L38.5260214,4.24406043 C40.8648796,7.48316315 43.1829343,10.7030777 45.4808676,14.3471524 L45.5214515,14.3471524 L45.5214515,4.24406043 L47.4916445,4.24406043 L47.4916445,18.418417 Z M53.1123389,4.24406043 L55.1640407,4.24406043 L59.7394448,18.418417 L56.9896324,18.418417 L55.8611282,14.55048 L51.5322966,14.55048 L50.2813587,18.418417 L48.147125,18.418417 L53.1123389,4.24406043 Z M52.1690198,12.8094033 L55.492122,12.8094033 C54.9590751,10.9464648 54.4454676,9.22491304 53.8714958,7.0364484 L53.8302299,7.0364484 C53.3173044,9.22491304 52.7426506,10.9464648 52.1690198,12.8094033 Z M62.0568174,18.418417 L62.0568174,6.14537535 L58.2818362,6.14537535 L58.2818362,4.24406043 L68.2937726,4.24406043 L68.2937726,6.14537535 L64.5184503,6.14537535 L64.5184503,18.418417 L62.0568174,18.418417 Z M69.0938544,18.418417 L69.0938544,4.24406043 L71.5350249,4.24406043 L71.5350249,18.418417 L69.0938544,18.418417 Z M79.1265944,18.6607943 C75.3710525,18.6607943 73.0328763,15.3610972 73.0328763,11.128921 C73.0328763,7.1583103 75.617625,4 79.1265944,4 C82.6341996,4 85.2199714,7.1583103 85.2199714,11.128921 C85.2199714,15.3610972 82.8807721,18.6607943 79.1265944,18.6607943 Z M79.1265944,16.6372808 C81.6905395,16.6372808 82.5929336,13.8415265 82.5929336,11.128921 C82.5929336,8.51663283 81.5677648,6.02452336 79.1265944,6.02452336 C76.6850829,6.02452336 75.659232,8.51663283 75.659232,11.128921 C75.659232,13.8415265 76.561285,16.6372808 79.1265944,16.6372808 Z M97.4667485,18.418417 L95.6820817,18.418417 C93.3439056,15.1584429 91.0241457,11.9183303 88.7067731,8.25304757 L88.6852875,8.25304757 L88.6852875,18.418417 L86.7164586,18.418417 L86.7164586,4.24406043 L88.5024896,4.24406043 C90.8406657,7.48316315 93.1590615,10.7030777 95.4566537,14.3471524 L95.4979197,14.3471524 L95.4979197,4.24406043 L97.4667485,4.24406043 L97.4667485,18.418417 Z M103.087443,4.24406043 L105.139486,4.24406043 L109.714549,18.418417 L106.965418,18.418417 L105.837255,14.55048 L101.508765,14.55048 L100.257145,18.418417 L98.122229,18.418417 L103.087443,4.24406043 Z M102.144124,12.8094033 L105.467908,12.8094033 C104.934861,10.9464648 104.421936,9.22491304 103.847282,7.0364484 L103.807039,7.0364484 C103.293773,9.22491304 102.718778,10.9464648 102.144124,12.8094033 Z M110.432781,4.24406043 L112.874292,4.24406043 L112.874292,16.5150823 L117.736171,16.5150823 L117.736171,18.418417 L110.432781,18.418417 L110.432781,4.24406043 Z M45.9760589,30.2773975 L45.9760589,36.1294617 C44.6630516,36.6364341 43.2893391,37 41.8934588,37 C37.6676216,37 35,33.7619072 35,29.5883055 C35,25.7213784 37.6676216,22.3395424 41.9756497,22.3395424 C43.3087784,22.3395424 44.6425892,22.8259801 45.4631335,23.4329331 L44.6630516,25.1140887 C44.0062069,24.7091167 42.980356,24.3650756 42.0377191,24.3650756 C39.4110224,24.3650756 37.6256736,26.4104704 37.6256736,29.6290383 C37.6256736,32.9913495 39.6783985,34.9764865 41.7908055,34.9764865 C42.4479913,34.9764865 43.0015006,34.8946842 43.5147671,34.6331188 L43.5147671,30.2773975 L45.9760589,30.2773975 Z M54.7773003,24.4872742 L50.6738967,24.4872742 L50.6738967,28.3743994 L54.6951095,28.3743994 L54.6951095,30.2773975 L50.6738967,30.2773975 L50.6738967,34.8539514 L55.5163359,34.8539514 L55.5163359,36.7589693 L48.2126049,36.7589693 L48.2126049,22.5819196 L54.7773003,22.5819196 L54.7773003,24.4872742 Z M62.3678467,37 C58.6136689,37 56.2751518,33.6996297 56.2751518,29.4677901 C56.2751518,25.4985259 58.8599004,22.3395424 62.3678467,22.3395424 C65.876134,22.3395424 68.4608826,25.4985259 68.4608826,29.4677901 C68.4608826,33.6996297 66.1227065,37 62.3678467,37 Z M62.3678467,34.9764865 C64.9324739,34.9764865 65.8352091,32.182752 65.8352091,29.4677901 C65.8352091,26.8565118 64.8096992,24.3650756 62.3678467,24.3650756 C59.9266762,24.3650756 58.9011664,26.8565118 58.9011664,29.4677901 C58.9011664,32.182752 59.8032194,34.9764865 62.3678467,34.9764865 Z M80.2782893,30.2773975 L80.2782893,36.1294617 C78.965282,36.6364341 77.5915695,37 76.1956892,37 C71.9695109,37 69.3022304,33.7619072 69.3022304,29.5883055 C69.3022304,25.7213784 71.9695109,22.3395424 76.2782211,22.3395424 C77.6110088,22.3395424 78.9444785,22.8259801 79.7653639,23.4329331 L78.965282,25.1140887 C78.3087784,24.7091167 77.2825865,24.3650756 76.3392674,24.3650756 C73.7132528,24.3650756 71.928245,26.4104704 71.928245,29.6290383 C71.928245,32.9913495 73.9806289,34.9764865 76.093377,34.9764865 C76.7498806,34.9764865 77.3044131,34.8946842 77.8173385,34.6331188 L77.8173385,30.2773975 L80.2782893,30.2773975 Z M91.2328627,36.7589693 L88.422686,36.7589693 L86.1046313,31.4121944 L84.9965896,31.4121944 L84.9965896,36.7589693 L82.5349567,36.7589693 L82.5349567,22.5819196 L86.3716663,22.5819196 C89.1204556,22.5819196 90.8236137,23.9186975 90.8236137,26.6743923 C90.8236137,28.3743994 89.9215606,30.055555 88.3411773,30.8853605 L91.2328627,36.7589693 Z M84.9965896,24.4872742 L84.9965896,29.650583 C85.2022372,29.6290383 85.776209,29.6098501 86.0217584,29.5883055 C87.1925517,29.5283845 88.3609576,28.6777076 88.3609576,26.7747095 C88.3609576,25.3170796 87.5410954,24.4872742 86.084851,24.4872742 L84.9965896,24.4872742 Z M96.2390014,22.5819196 L98.2913853,22.5819196 L102.866448,36.7589693 L100.117318,36.7589693 L98.9891549,32.8906956 L94.6596412,32.8906956 L93.4083623,36.7589693 L91.2751518,36.7589693 L96.2390014,22.5819196 Z M95.2956824,31.1486091 L98.6198077,31.1486091 C98.0857377,29.2856706 97.5728122,27.5644554 96.9978173,25.3783472 L96.9575745,25.3783472 C96.4446491,27.5644554 95.8696542,29.2856706 95.2956824,31.1486091 Z M107.133893,29.5883055 C108.301958,29.5283845 109.471728,28.6777076 109.471728,26.7747095 C109.471728,25.3170796 108.652207,24.4872742 107.215401,24.4872742 L106.107701,24.4872742 L106.107701,29.64688 C106.279585,29.6270185 106.88084,29.6078303 107.133893,29.5883055 Z M107.481413,22.5819196 C110.230544,22.5819196 111.934725,23.9186975 111.934725,26.6743923 C111.934725,29.0621449 110.149717,31.4121944 107.215401,31.4121944 L106.107701,31.4121944 L106.107701,36.7589693 L103.645727,36.7589693 L103.645727,22.5819196 L107.481413,22.5819196 Z M123.341177,36.7589693 L120.87818,36.7589693 L120.87818,29.9333565 L115.769729,29.9333565 L115.769729,36.7589693 L113.328559,36.7589693 L113.328559,22.5819196 L115.769729,22.5819196 L115.769729,28.030695 L120.87818,28.030695 L120.87818,22.6226525 L123.341177,22.6226525 L123.341177,36.7589693 Z M125.699816,36.7589693 L125.699816,22.5819196 L128.141327,22.5819196 L128.141327,36.7589693 L125.699816,36.7589693 Z M139.219699,25.1541483 C138.624241,24.7892358 137.640338,24.3650756 136.695655,24.3650756 C134.193438,24.3650756 132.367506,26.4104704 132.367506,29.6290383 C132.367506,32.9913495 134.378283,34.9764865 136.757725,34.9764865 C137.702067,34.9764865 138.583657,34.6718318 139.219699,34.2668598 L139.897688,36.0298177 C139.158652,36.5354436 137.845645,37 136.655412,37 C132.428552,37 129.761953,33.7619072 129.761953,29.5883055 C129.761953,25.7213784 132.408772,22.3395424 136.695655,22.3395424 C137.967396,22.3395424 139.158652,22.8667129 140,23.4329331 L139.219699,25.1541483 Z" id="Combined-Shape"></path>
                </g>
                <path d="M39.931,28.457 C40.93,27.769 41.988,27.237 43.044,26.811 C41.988,26.384 40.933,25.855 39.942,25.169 C39.855,25.696 39.803,26.252 39.797,26.839 C39.803,27.407 39.851,27.945 39.931,28.457 Z M37.38,34.632 C38.577,34.538 39.75,34.608 40.872,34.767 C40.179,33.869 39.536,32.882 39.026,31.793 C38.69,32.207 38.372,32.662 38.077,33.167 C37.796,33.66 37.566,34.149 37.38,34.632 Z M35.044,40.496 C34.9,39.389 34.841,38.235 34.941,37.057 C34.441,37.247 33.935,37.481 33.426,37.773 C32.944,38.054 32.509,38.357 32.112,38.675 C33.184,39.18 34.157,39.812 35.044,40.496 Z M27.143,42.611 C27.569,41.58 28.094,40.55 28.771,39.579 C28.261,39.497 27.722,39.449 27.156,39.443 C26.586,39.449 26.046,39.498 25.532,39.581 C26.202,40.549 26.722,41.578 27.143,42.611 Z M19.359,37.072 C19.459,38.251 19.395,39.407 19.243,40.516 C20.129,39.831 21.099,39.197 22.171,38.69 C21.768,38.367 21.326,38.059 20.836,37.773 C20.338,37.491 19.845,37.26 19.359,37.072 Z M13.486,34.705 C14.575,34.558 15.709,34.497 16.867,34.592 C16.683,34.123 16.459,33.647 16.184,33.167 C15.898,32.676 15.592,32.233 15.268,31.829 C14.772,32.879 14.155,33.834 13.486,34.705 Z M11.356,26.811 C12.387,27.236 13.415,27.763 14.383,28.444 C14.463,27.937 14.51,27.403 14.515,26.839 C14.51,26.261 14.459,25.713 14.374,25.192 C13.407,25.865 12.382,26.387 11.356,26.811 Z M16.887,19.018 C15.702,19.117 14.542,19.051 13.431,18.9 C14.118,19.788 14.754,20.763 15.263,21.838 C15.588,21.438 15.897,20.998 16.184,20.512 C16.469,20.008 16.699,19.51 16.887,19.018 Z M19.198,13.028 C19.353,14.16 19.422,15.344 19.324,16.553 C19.806,16.367 20.294,16.137 20.785,15.856 C21.298,15.556 21.758,15.232 22.176,14.89 C21.085,14.375 20.097,13.727 19.198,13.028 Z M27.139,10.895 C26.715,11.948 26.186,13 25.504,13.992 C26.026,14.077 26.575,14.129 27.156,14.135 C27.726,14.129 28.266,14.08 28.78,13.997 C28.095,13.007 27.565,11.952 27.139,10.895 Z M34.951,16.504 C34.854,15.326 34.919,14.17 35.071,13.061 C34.185,13.746 33.213,14.38 32.142,14.888 C32.544,15.211 32.986,15.519 33.476,15.805 C33.973,16.086 34.466,16.317 34.951,16.504 Z M35.301,34.976 C35.541,34.053 35.894,33.126 36.409,32.205 C36.957,31.275 37.599,30.487 38.296,29.805 C38.042,28.881 37.886,27.897 37.875,26.839 C37.887,25.759 38.049,24.756 38.311,23.815 C37.625,23.134 36.995,22.35 36.459,21.424 C35.924,20.496 35.557,19.556 35.311,18.617 C34.38,18.371 33.444,18.007 32.515,17.475 C31.595,16.942 30.814,16.316 30.138,15.632 C29.209,15.889 28.22,16.047 27.156,16.058 C26.086,16.047 25.092,15.887 24.158,15.628 C23.473,16.328 22.682,16.973 21.746,17.526 C20.824,18.053 19.896,18.413 18.972,18.656 C18.732,19.595 18.376,20.538 17.852,21.474 C17.314,22.387 16.687,23.161 16.006,23.835 C16.266,24.77 16.426,25.767 16.437,26.839 C16.426,27.903 16.268,28.891 16.013,29.819 C16.69,30.499 17.315,31.282 17.852,32.205 C18.38,33.117 18.742,34.038 18.988,34.957 C19.924,35.204 20.863,35.568 21.797,36.102 C22.717,36.635 23.497,37.262 24.175,37.946 C25.103,37.689 26.093,37.531 27.156,37.52 C28.219,37.531 29.206,37.689 30.134,37.945 C30.8,37.27 31.565,36.645 32.465,36.102 C33.407,35.575 34.356,35.216 35.301,34.976 Z M40.911,18.861 C39.793,19.018 38.624,19.084 37.431,18.984 C37.617,19.47 37.847,19.963 38.128,20.462 C38.419,20.96 38.731,21.409 39.059,21.818 C39.574,20.735 40.217,19.754 40.911,18.861 Z M53.397,29.624 C53.751,30.129 53.701,30.788 53.195,31.091 C52.689,31.395 52.285,31.091 51.981,30.788 C51.324,30.028 48.695,28.561 46.571,27.953 C46.373,27.9 46.17,27.844 45.966,27.787 C44.285,28.213 42.237,28.871 40.432,30.371 C41.23,32.56 42.643,34.153 43.872,35.381 C44.085,35.435 44.294,35.49 44.499,35.546 C46.673,36.102 49.656,36.102 50.616,35.799 C51.021,35.697 51.476,35.596 51.83,36.153 C52.083,36.659 51.83,37.216 51.224,37.52 C50.795,37.636 48.682,38.051 46.001,37.727 C47.642,39.901 48.364,41.958 48.442,42.429 C48.544,43.088 48.139,43.593 47.583,43.593 C46.976,43.593 46.773,43.138 46.673,42.733 C46.471,41.721 44.954,39.139 43.387,37.57 C43.216,37.399 43.042,37.223 42.867,37.043 C41.217,36.592 39.134,36.154 36.854,36.539 C36.465,38.775 36.875,40.821 37.316,42.486 C37.507,42.672 37.694,42.856 37.875,43.037 C39.442,44.606 42.021,46.124 43.032,46.327 C43.436,46.428 43.892,46.631 43.892,47.238 C43.892,47.795 43.387,48.2 42.728,48.098 C42.256,48.019 40.181,47.289 37.994,45.626 C38.335,48.371 37.933,50.547 37.774,50.984 C37.521,51.591 36.914,51.844 36.459,51.591 C35.903,51.287 36.004,50.781 36.105,50.376 C36.409,49.364 36.409,46.378 35.802,44.252 C35.735,43.987 35.668,43.714 35.601,43.437 C34.388,42.228 32.821,40.861 30.685,40.08 C29.223,41.832 28.563,43.817 28.112,45.479 C28.184,45.731 28.254,45.981 28.319,46.226 C28.875,48.352 30.391,50.984 31.15,51.642 C31.454,51.945 31.757,52.35 31.454,52.856 C31.15,53.362 30.493,53.463 29.987,53.059 C29.633,52.743 28.209,51.063 27.14,48.521 C26.07,51.089 24.631,52.781 24.274,53.059 C23.718,53.463 23.111,53.362 22.808,52.958 C22.505,52.401 22.808,51.996 23.111,51.692 C23.87,50.984 25.387,48.402 25.942,46.276 C26.013,46.016 26.087,45.75 26.163,45.482 C25.714,43.822 25.058,41.843 23.595,40.091 C21.434,40.889 19.858,42.286 18.64,43.507 C18.581,43.742 18.52,43.974 18.46,44.201 C17.852,46.327 17.852,49.364 18.207,50.325 C18.308,50.731 18.358,51.236 17.852,51.54 C17.347,51.794 16.74,51.591 16.487,50.984 C16.331,50.512 15.934,48.364 16.281,45.654 C14.109,47.296 12.054,48.02 11.583,48.098 C10.926,48.2 10.42,47.795 10.42,47.238 C10.42,46.631 10.875,46.428 11.28,46.327 C12.291,46.124 14.87,44.606 16.437,43.037 C16.607,42.866 16.783,42.692 16.963,42.518 C17.386,40.844 17.806,38.789 17.409,36.531 C15.185,36.138 13.172,36.528 11.522,36.962 C11.321,37.17 11.122,37.374 10.926,37.57 C9.358,39.139 7.842,41.721 7.639,42.733 C7.538,43.138 7.336,43.593 6.729,43.593 C6.173,43.593 5.768,43.088 5.87,42.429 C5.949,41.954 6.683,39.865 8.354,37.67 C5.629,38.027 3.472,37.627 3.038,37.469 C2.431,37.216 2.179,36.609 2.431,36.102 C2.735,35.596 3.24,35.647 3.645,35.748 C4.605,36.102 7.639,36.052 9.763,35.495 C10.011,35.428 10.266,35.362 10.523,35.297 C11.728,34.086 13.089,32.524 13.871,30.397 C12.127,28.921 10.158,28.244 8.503,27.789 C8.245,27.864 7.989,27.936 7.74,28.004 C5.566,28.561 2.988,30.028 2.28,30.838 C1.976,31.142 1.623,31.445 1.066,31.142 C0.611,30.838 0.511,30.18 0.915,29.674 C1.231,29.317 2.925,27.88 5.46,26.809 C2.914,25.739 1.23,24.31 0.915,23.954 C0.511,23.448 0.611,22.79 1.066,22.486 C1.623,22.183 2.027,22.486 2.331,22.79 C2.988,23.6 5.617,25.068 7.74,25.625 C7.984,25.69 8.232,25.759 8.484,25.831 C10.138,25.376 12.113,24.701 13.859,23.25 C13.062,21.103 11.675,19.533 10.461,18.319 C10.207,18.257 9.956,18.195 9.713,18.133 C7.589,17.526 4.605,17.526 3.595,17.88 C3.19,17.982 2.735,18.032 2.381,17.526 C2.128,17.02 2.381,16.413 2.988,16.159 C3.421,16.002 5.575,15.602 8.297,15.934 C6.666,13.766 5.948,11.719 5.87,11.25 C5.768,10.591 6.173,10.086 6.729,10.086 C7.336,10.086 7.538,10.541 7.639,10.946 C7.842,11.958 9.358,14.54 10.926,16.109 C11.086,16.269 11.248,16.433 11.411,16.601 C13.085,17.049 15.151,17.474 17.412,17.081 C17.808,14.758 17.353,12.658 16.895,10.995 C16.739,10.842 16.587,10.691 16.437,10.541 C14.87,8.972 12.291,7.453 11.28,7.251 C10.875,7.15 10.42,6.947 10.42,6.34 C10.42,5.783 10.926,5.378 11.583,5.479 C12.052,5.558 14.088,6.274 16.248,7.899 C15.941,5.226 16.332,3.123 16.487,2.695 C16.74,2.038 17.347,1.835 17.803,2.088 C18.358,2.392 18.258,2.898 18.156,3.303 C17.852,4.265 17.852,7.251 18.46,9.427 C18.511,9.629 18.561,9.835 18.612,10.043 C19.833,11.269 21.416,12.681 23.591,13.485 C25.087,11.677 25.741,9.632 26.165,7.979 C26.105,7.767 26.049,7.558 25.993,7.352 C25.437,5.226 23.92,2.594 23.162,1.936 C22.858,1.632 22.555,1.228 22.858,0.721 C23.162,0.215 23.819,0.114 24.324,0.519 C24.676,0.832 26.076,2.48 27.14,4.979 C28.203,2.509 29.588,0.892 29.936,0.62 C30.493,0.165 31.099,0.266 31.403,0.721 C31.707,1.278 31.403,1.632 31.099,1.936 C30.342,2.645 28.875,5.226 28.268,7.403 C28.219,7.588 28.167,7.777 28.113,7.967 C28.564,9.652 29.215,11.689 30.718,13.486 C32.878,12.689 34.454,11.292 35.672,10.071 C35.731,9.836 35.792,9.604 35.852,9.377 C36.409,7.251 36.459,4.214 36.105,3.303 C36.004,2.847 35.954,2.341 36.459,2.088 C36.965,1.784 37.571,2.038 37.824,2.645 C37.98,3.075 38.375,5.202 38.034,7.921 C40.206,6.28 42.259,5.558 42.728,5.479 C43.387,5.378 43.892,5.783 43.892,6.34 C43.892,6.947 43.436,7.15 43.032,7.251 C42.021,7.453 39.442,8.972 37.875,10.541 C37.709,10.708 37.537,10.877 37.362,11.047 C36.936,12.699 36.504,14.759 36.899,17.046 C39.183,17.45 41.245,17.029 42.92,16.582 C43.076,16.421 43.232,16.263 43.387,16.109 C44.954,14.54 46.471,11.958 46.673,10.946 C46.773,10.541 46.976,10.086 47.583,10.086 C48.139,10.086 48.544,10.591 48.442,11.25 C48.364,11.717 47.654,13.743 46.044,15.897 C48.728,15.559 50.845,15.953 51.273,16.109 C51.881,16.362 52.134,16.969 51.881,17.475 C51.577,17.982 51.071,17.931 50.667,17.83 C49.706,17.475 46.673,17.526 44.549,18.083 C44.344,18.138 44.135,18.193 43.923,18.248 C42.694,19.47 41.268,21.057 40.455,23.244 C42.218,24.729 44.209,25.403 45.872,25.857 C46.092,25.794 46.309,25.734 46.521,25.675 C48.695,25.068 51.273,23.6 51.981,22.841 C52.285,22.537 52.639,22.234 53.195,22.537 C53.65,22.841 53.751,23.448 53.347,24.005 C53.035,24.356 51.393,25.755 48.924,26.821 C51.43,27.864 53.085,29.271 53.397,29.624 Z M89.605,21.984 L89.605,27.863 L90.44,27.863 C92.31,27.863 93.48,26.728 93.48,24.924 C93.48,23.12 92.31,21.984 90.44,21.984 L89.605,21.984 Z M95.051,24.924 C95.051,27.43 93.213,29.267 90.307,29.267 L88.068,29.267 L88.068,20.581 L90.307,20.581 C93.213,20.581 95.051,22.419 95.051,24.924 Z M81.307,25.859 L84.124,25.859 L82.743,22.257 L81.307,25.859 Z M81.987,20.414 L83.557,20.414 L86.966,29.267 L85.596,29.701 L84.661,27.262 L80.748,27.262 L79.95,29.267 L78.479,29.267 L81.987,20.414 Z M87.4,16.305 L87.4,7.618 L89.004,7.618 L89.004,16.305 L87.4,16.305 Z M80.551,7.651 L82.155,7.651 L82.155,14.935 L85.629,14.935 L85.93,16.338 L80.551,16.338 L80.551,7.651 Z M77.644,44.167 C79.015,44.167 80.284,43.532 81.152,42.831 L81.754,44.668 C80.818,45.303 79.448,46.071 77.511,46.071 C74.003,46.071 71.798,43.232 71.798,39.757 C71.798,36.282 74.003,33.443 77.511,33.443 C79.549,33.443 80.885,34.345 81.387,34.712 L80.651,36.517 C79.849,35.848 78.881,35.347 77.644,35.347 C75.272,35.347 73.903,37.151 73.903,39.757 C73.903,42.33 75.272,44.167 77.644,44.167 Z M66.173,22.257 L64.737,25.859 L67.553,25.859 L66.173,22.257 Z M63.379,29.267 L61.909,29.267 L65.417,20.414 L66.987,20.414 L70.395,29.267 L69.025,29.701 L68.091,27.262 L64.178,27.262 L63.379,29.267 Z M66.987,8.921 C65.283,8.921 64.281,10.224 64.281,12.062 C64.281,13.9 65.283,15.202 66.987,15.202 C67.956,15.202 68.758,14.768 69.393,14.233 L69.827,15.603 C69.159,16.07 68.257,16.605 66.921,16.605 C64.314,16.605 62.744,14.567 62.744,12.062 C62.744,9.556 64.349,7.484 66.888,7.484 C68.357,7.484 69.293,8.152 69.66,8.42 L69.126,9.757 C68.558,9.255 67.856,8.921 66.987,8.921 Z M83.691,45.904 L83.691,33.711 L85.696,33.711 L85.696,45.904 L83.691,45.904 Z M90.707,40.525 L90.707,44 L96.119,44 L96.119,45.904 L88.703,45.904 L88.703,33.711 L95.952,33.711 L95.952,35.581 L90.707,35.581 L90.707,38.722 L94.382,38.722 L94.884,40.525 L90.707,40.525 Z M77.745,28.431 C77.077,28.9 76.175,29.434 74.805,29.434 C72.232,29.434 70.662,27.396 70.662,24.89 C70.662,22.385 72.266,20.314 74.805,20.314 C76.275,20.314 77.211,20.982 77.578,21.249 L77.043,22.585 C76.476,22.084 75.773,21.751 74.905,21.751 C73.201,21.751 72.199,23.053 72.199,24.89 C72.199,26.728 73.201,28.031 74.905,28.031 C75.874,28.031 76.676,27.597 77.31,27.062 L77.745,28.431 Z M66.853,38.755 C70.227,40.025 70.562,41.227 70.562,42.631 C70.562,44.501 69.226,46.138 66.286,46.138 C64.549,46.138 63.379,45.604 62.544,45.203 L62.911,43.198 C63.881,43.666 64.983,44.3 66.352,44.3 C67.622,44.3 68.49,43.766 68.49,42.798 C68.49,41.762 68.057,41.294 66.018,40.525 C63.145,39.457 62.678,38.187 62.678,36.75 C62.678,34.946 64.013,33.443 66.587,33.443 C67.923,33.443 68.992,33.911 69.961,34.445 L69.559,36.316 C68.558,35.581 67.555,35.213 66.587,35.213 C65.451,35.213 64.582,35.714 64.582,36.55 C64.582,37.252 64.883,38.02 66.853,38.755 Z M74.858,9.428 L73.424,13.03 L76.239,13.03 L74.858,9.428 Z M72.864,14.434 L72.065,16.438 L70.596,16.438 L74.103,7.585 L75.674,7.585 L79.081,16.438 L77.712,16.873 L76.776,14.434 L72.864,14.434 Z M126.922,27.963 C128.525,27.963 129.461,26.694 129.461,24.824 C129.461,23.02 128.525,21.716 126.922,21.716 C125.318,21.716 124.383,23.02 124.383,24.824 C124.383,26.694 125.318,27.963 126.922,27.963 Z M126.922,20.28 C129.428,20.28 131.064,22.352 131.064,24.824 C131.064,27.329 129.428,29.4 126.922,29.4 C124.416,29.4 122.779,27.329 122.779,24.824 C122.779,22.352 124.416,20.28 126.922,20.28 Z M123.414,40.525 L123.414,44.1 L128.826,44.1 L128.826,45.904 L121.409,45.904 L121.409,33.711 L128.659,33.711 L128.725,35.447 L123.414,35.447 L123.414,38.722 L127.122,38.722 L127.59,40.525 L123.414,40.525 Z M126.153,16.304 L126.153,7.651 L127.757,7.651 L127.757,16.304 L126.153,16.304 Z M132.055,13.03 L134.871,13.03 L133.49,9.428 L132.055,13.03 Z M132.735,7.585 L134.306,7.585 L137.713,16.438 L136.343,16.873 L135.408,14.434 L131.496,14.434 L130.697,16.438 L129.227,16.438 L132.735,7.585 Z M134.405,38.755 C137.779,40.025 138.114,41.227 138.114,42.631 C138.114,44.501 136.777,46.138 133.838,46.138 C132.1,46.138 130.931,45.604 130.096,45.203 L130.463,43.198 C131.432,43.666 132.535,44.3 133.904,44.3 C135.174,44.3 136.042,43.766 136.042,42.764 C136.042,41.762 135.608,41.294 133.57,40.525 C130.697,39.457 130.229,38.187 130.229,36.75 C130.229,34.946 131.565,33.443 134.139,33.443 C135.474,33.443 136.544,33.911 137.513,34.445 L137.111,36.316 C136.109,35.581 135.107,35.213 134.139,35.213 C133.003,35.213 132.134,35.714 132.134,36.55 C132.134,37.252 132.434,38.02 134.405,38.755 Z M122.445,16.338 L117.935,10.241 L117.935,16.338 L116.499,16.338 L116.499,7.651 L117.835,7.651 L122.144,13.471 L122.144,7.651 L123.581,7.651 L123.581,16.338 L122.445,16.338 Z M137.913,21.984 L134.071,21.984 L134.071,24.322 L136.878,24.322 L137.179,25.659 L134.071,25.659 L134.071,29.267 L132.468,29.267 L132.468,20.581 L137.913,20.581 L137.913,21.984 Z M115.63,44.268 C117,44.268 118.136,43.632 119.004,42.931 L119.605,44.768 C118.67,45.403 117.433,46.171 115.496,46.171 C111.955,46.171 109.783,43.332 109.783,39.858 C109.783,36.349 111.821,33.544 115.496,33.544 C117.534,33.544 118.87,34.445 119.372,34.813 L118.637,36.617 C117.835,35.949 116.866,35.447 115.63,35.447 C113.258,35.447 111.888,37.252 111.888,39.858 C111.888,42.43 113.258,44.268 115.63,44.268 Z M106.075,42.047 L106.075,33.711 L107.946,33.711 L107.946,45.904 L106.442,45.904 L99.928,37.256 L99.928,45.904 L98.023,45.904 L98.023,33.711 L99.795,33.711 L106.075,42.047 Z M116.574,24.455 L118.637,20.581 L120.407,20.581 L117.367,25.96 L117.367,29.267 L115.764,29.267 L115.764,25.993 L112.623,20.581 L114.461,20.581 L116.574,24.455 Z M101.832,27.863 L101.832,29.267 L96.32,29.267 L96.32,20.581 L101.732,20.581 L101.732,21.984 L97.891,21.984 L97.891,24.189 L100.696,24.189 L100.997,25.525 L97.891,25.525 L97.891,27.863 L101.832,27.863 Z M99.594,11.995 C99.594,13.799 100.529,15.102 102.133,15.102 C103.736,15.102 104.672,13.799 104.672,11.995 C104.672,10.191 103.736,8.888 102.133,8.888 C100.529,8.888 99.594,10.191 99.594,11.995 Z M106.275,11.995 C106.275,14.501 104.639,16.571 102.133,16.571 C99.627,16.571 97.99,14.501 97.99,11.995 C97.99,9.489 99.627,7.418 102.133,7.418 C104.639,7.418 106.275,9.489 106.275,11.995 Z M93.146,11.36 L95.952,11.36 L96.253,12.696 L93.146,12.696 L93.146,16.338 L91.543,16.338 L91.543,7.651 L97.222,7.651 L97.188,9.055 L93.146,9.055 L93.146,11.36 Z M111.22,29.267 L110.218,23.22 L108.18,29.4 L107.244,29.4 L105.24,23.387 L104.371,29.267 L102.934,29.267 L104.237,20.581 L105.875,20.581 L107.812,26.494 L109.75,20.581 L111.353,20.581 L112.69,29.267 L111.22,29.267 Z M111.186,11.962 C112.456,11.962 112.924,11.293 112.924,10.491 C112.924,9.589 112.456,9.022 111.087,9.022 L109.683,9.022 L109.683,11.962 L111.186,11.962 Z M114.428,10.459 C114.428,12.062 113.458,12.863 112.322,13.097 L114.762,16.371 L113.292,16.806 L110.619,13.264 L109.683,13.264 L109.683,16.338 L108.08,16.338 L108.08,7.651 L111.019,7.651 C113.057,7.651 114.428,8.554 114.428,10.459 Z" id="CAS" fill="#FFFFFF"></path>
            </g>
        </g>
    </g>
</svg>