<?xml version="1.0" encoding="UTF-8" standalone="no"?>
<!-- Created with Inkscape (http://www.inkscape.org/) -->

<svg
   width="24"
   height="24"
   viewBox="0 0 6.3500002 6.3499997"
   version="1.1"
   id="svg2150"
   inkscape:version="1.2.1 (9c6d41e, 2022-07-14)"
   sodipodi:docname="walrus.svg"
   inkscape:export-filename="../projects/inaturalist/app/assets/images/walrus.svg"
   inkscape:export-xdpi="96"
   inkscape:export-ydpi="96"
   xmlns:inkscape="http://www.inkscape.org/namespaces/inkscape"
   xmlns:sodipodi="http://sodipodi.sourceforge.net/DTD/sodipodi-0.dtd"
   xmlns="http://www.w3.org/2000/svg"
   xmlns:svg="http://www.w3.org/2000/svg">
  <sodipodi:namedview
     id="namedview2152"
     pagecolor="#ffffff"
     bordercolor="#000000"
     borderopacity="0.25"
     inkscape:showpageshadow="2"
     inkscape:pageopacity="0.0"
     inkscape:pagecheckerboard="0"
     inkscape:deskcolor="#d1d1d1"
     inkscape:document-units="px"
     showgrid="false"
     inkscape:zoom="25.041667"
     inkscape:cx="11.980033"
     inkscape:cy="12"
     inkscape:window-width="1443"
     inkscape:window-height="821"
     inkscape:window-x="0"
     inkscape:window-y="38"
     inkscape:window-maximized="0"
     inkscape:current-layer="layer1" />
  <defs
     id="defs2147" />
  <g
     inkscape:label="Layer 1"
     inkscape:groupmode="layer"
     id="layer1"
     transform="translate(-32.518645,-66.865128)">
    <path
       id="path3532"
       style="color:#000000;fill:#000000;stroke-width:0.054656;stroke-linejoin:round"
       d="m 38.353515,67.550901 a 0.26267423,0.43101549 11.66695 0 0 -0.147971,0.06646 0.26267423,0.43101549 11.66695 0 0 -0.07942,-0.04067 0.26267423,0.43101549 11.66695 0 0 -0.320037,0.281398 c -0.112386,0.01102 -0.225655,0.02001 -0.339609,0.02768 a 0.46095665,0.75728544 0 0 0 -0.265863,-0.13868 0.46095665,0.75728544 0 0 0 -0.20432,0.07886 0.46095665,0.75728544 0 0 0 -0.256628,-0.128257 0.46095665,0.75728544 0 0 0 -0.293488,0.173533 0.46095665,0.75728544 0 0 0 -0.150993,-0.04183 0.46095665,0.75728544 0 0 0 -0.315574,0.205365 c -0.32026,0.06715 -0.630047,0.172564 -0.919211,0.347489 -0.01074,0.0061 -0.02125,0.01253 -0.03186,0.01884 a 0.79708615,0.48518308 17.965598 0 0 -0.708933,0.263011 0.79708615,0.48518308 17.965598 0 0 0.06604,0.331843 c -0.22532,0.314111 -0.371409,0.686253 -0.421716,1.071305 -0.03543,0.161979 -0.07619,0.322921 -0.117185,0.483741 a 0.76793827,0.46744087 17.965598 0 0 -0.178025,0.194717 0.76793827,0.46744087 17.965598 0 0 9.32e-4,0.18887 0.76793827,0.46744087 17.965598 0 0 -0.316336,0.244822 0.76793827,0.46744087 17.965598 0 0 0.124755,0.398075 c -0.05219,0.07753 -0.11287,0.148872 -0.188446,0.212792 -0.136591,0.115536 -0.294212,0.204376 -0.439058,0.308852 -0.08808,0.06352 -0.184798,0.127642 -0.26335,0.202793 -0.02792,0.02672 -0.08664,0.07702 -0.06315,0.121367 0.0082,0.01533 0.02096,0.02681 0.03723,0.03516 0.10611,0.05454 0.359698,-0.0246 0.435019,-0.04237 0.142161,-0.03353 0.279589,-0.08366 0.419371,-0.125462 0.279594,-0.0836 0.523198,-0.08369 0.80084,0.0053 0.20776,0.06656 0.402147,0.15759 0.618014,0.200111 0.205512,0.04049 0.414018,0.042 0.621431,0.01584 0.115821,-0.01461 0.235986,-0.03071 0.34927,-0.05937 0.425917,-0.107774 0.804032,-0.363384 1.060518,-0.721162 0.341369,-0.439352 0.494189,-0.989874 0.524383,-1.538609 0.01155,-0.210047 0.08244,-0.441826 0.156644,-0.637247 0.05336,-0.08761 0.09413,-0.146557 0.13899,-0.196863 -0.0086,0.584087 -0.02438,1.048142 -0.09411,1.479069 a 0.06452441,0.0645244 0 0 0 0.115716,0.04838 c 0.195836,-0.267588 0.313298,-0.631913 0.37887,-0.972282 0.05504,-0.285696 0.07345,-0.552149 0.06358,-0.735905 0.04378,-0.0072 0.08514,-0.01692 0.125179,-0.02974 -0.0087,0.570837 -0.02514,1.02712 -0.09374,1.45108 a 0.06452441,0.0645244 0 0 0 0.115829,0.04847 c 0.195838,-0.267589 0.313272,-0.631914 0.378841,-0.972283 0.05627,-0.292109 0.07423,-0.564118 0.06284,-0.748191 0.134684,-0.153325 0.184866,-0.476096 0.05177,-0.739634 a 0.26267423,0.43101549 11.66695 0 0 0.02084,-0.07812 0.26267423,0.43101549 11.66695 0 0 -0.170371,-0.474927 0.26267423,0.43101549 11.66695 0 0 -0.123257,0.02065 0.26267423,0.43101549 11.66695 0 0 -0.1284,-0.100945 0.26267423,0.43101549 11.66695 0 0 -0.03584,-0.0033 z m -0.345088,0.543986 a 0.11470337,0.11470335 0 0 1 0.1147,0.114699 0.11470337,0.11470335 0 0 1 -0.1147,0.1147 0.11470337,0.11470335 0 0 1 -0.1147,-0.1147 0.11470337,0.11470335 0 0 1 0.1147,-0.114699 z m 0.603214,0.915115 c 0.0022,0.165322 -0.01554,0.397536 -0.06242,0.640892 -0.0438,0.227386 -0.114737,0.462828 -0.211691,0.667723 0.03984,-0.366198 0.05802,-0.75685 0.06649,-1.226254 0.0396,-0.02188 0.07891,-0.04808 0.119023,-0.0801 0.03081,0.0061 0.06042,0.0048 0.0886,-0.0023 z m -0.591436,0.182543 c 0.0077,0.166285 -0.0082,0.424402 -0.06067,0.696844 -0.0438,0.227344 -0.114767,0.462626 -0.211691,0.667497 0.04236,-0.389434 0.06024,-0.806508 0.06798,-1.31658 0.01692,-0.01301 0.0351,-0.0265 0.05494,-0.0409 0.05336,-0.0014 0.10287,-0.0035 0.149441,-0.0069 z m -1.413685,0.007 a 0.05784445,0.05784443 0 0 1 0.0453,0.03587 c 0.0639,0.161683 0.162484,0.401154 0.227507,0.652895 0.06502,0.251742 0.09907,0.517057 0.02155,0.737122 l -0.0012,0.0034 -0.0016,0.0031 c -0.01284,0.02585 -0.03458,0.03415 -0.04835,0.03802 -0.01377,0.0039 -0.02506,0.0046 -0.03663,0.0051 -0.02315,9.52e-4 -0.04716,-5.46e-4 -0.07087,-9.61e-4 -0.02371,-4.38e-4 -0.04685,1.09e-4 -0.06287,0.0028 -0.01602,0.0026 -0.02169,0.0078 -0.01943,0.0052 -0.01064,0.01214 -0.02252,0.06946 -0.0379,0.124162 -0.0077,0.02735 -0.01682,0.06402 -0.06033,0.08338 -0.02175,0.0097 -0.04741,0.0085 -0.06725,0.0019 -0.01984,-0.0066 -0.03649,-0.01729 -0.05431,-0.03127 -0.0067,-0.0053 -0.012,-0.0088 -0.01601,-0.01118 -6.07e-4,0.0013 -0.0011,0.002 -0.0017,0.0036 -0.01441,0.03538 -0.02677,0.119365 -0.103319,0.165455 -0.02149,0.01293 -0.04637,0.0208 -0.0712,0.01943 -0.02483,-0.0014 -0.04681,-0.0118 -0.06279,-0.02401 -0.03196,-0.02441 -0.04788,-0.05405 -0.0633,-0.07824 -0.01513,-0.02373 -0.0294,-0.04126 -0.03395,-0.04474 2.13e-4,-5.4e-5 2.08e-4,-6.56e-4 -0.006,0.0034 -0.0088,0.0058 -0.02619,0.03356 -0.04739,0.07086 -0.0212,0.03731 -0.05297,0.08813 -0.115604,0.104193 l -0.0207,0.0053 -0.01932,-0.0095 c -0.09606,-0.04758 -0.155552,-0.139229 -0.190452,-0.244766 -0.0349,-0.105537 -0.04758,-0.228015 -0.0492,-0.353901 -0.0032,-0.251772 0.03935,-0.518257 0.06276,-0.671875 a 0.05784445,0.05784443 0 0 1 0.06587,-0.04858 0.05784445,0.05784443 0 0 1 0.04847,0.06598 c -0.02352,0.154396 -0.06454,0.415451 -0.06149,0.65298 0.0015,0.118765 0.01443,0.23134 0.04344,0.319077 0.02439,0.07376 0.06115,0.122998 0.107187,0.156077 0.0087,-0.0076 0.01651,-0.01133 0.02839,-0.03223 0.01823,-0.03207 0.03581,-0.07834 0.08456,-0.110377 0.02113,-0.01389 0.04502,-0.02305 0.07002,-0.02327 0.025,-2.19e-4 0.04824,0.0092 0.0651,0.02101 0.03372,0.02362 0.05009,0.05342 0.06578,0.07804 0.01567,0.02458 0.03063,0.04418 0.03607,0.04836 -7.21e-4,1.09e-4 -0.0014,9.29e-4 0.0041,-0.0023 0.01976,-0.0119 0.03429,-0.05696 0.05592,-0.110069 0.01082,-0.02655 0.02668,-0.06362 0.07174,-0.07759 0.04506,-0.01397 0.0854,0.0071 0.124473,0.03779 1.64e-4,1.09e-4 5.4e-5,1.09e-4 2.18e-4,2.19e-4 0.0091,-0.03698 0.01096,-0.106269 0.06115,-0.163535 0.0257,-0.02933 0.05859,-0.03844 0.08776,-0.04324 0.02917,-0.0048 0.05775,-0.0048 0.0838,-0.0043 0.02174,4.37e-4 0.03905,9.01e-4 0.05327,8.47e-4 0.0529,-0.178503 0.02901,-0.411904 -0.03042,-0.641994 -0.06237,-0.241469 -0.158641,-0.476085 -0.223102,-0.639197 a 0.05784445,0.05784443 0 0 1 0.03254,-0.07505 v -2.8e-5 a 0.05784445,0.05784443 0 0 1 0.02974,-0.0034 z" />
  </g>
</svg>
