<?xml version="1.0" encoding="UTF-8" standalone="no"?>
<svg
   width="1000.0005"
   height="562.42999"
   viewBox="0 0 1000.0007 562.43"
   fill="none"
   version="1.1"
   id="svg82"
   sodipodi:docname="YIR2023-BG-2 (1).svg"
   inkscape:version="1.2.1 (9c6d41e, 2022-07-14)"
   inkscape:export-filename="../projects/inaturalist/app/assets/images/yir-background-dark.svg"
   inkscape:export-xdpi="96"
   inkscape:export-ydpi="96"
   xmlns:inkscape="http://www.inkscape.org/namespaces/inkscape"
   xmlns:sodipodi="http://sodipodi.sourceforge.net/DTD/sodipodi-0.dtd"
   xmlns="http://www.w3.org/2000/svg"
   xmlns:svg="http://www.w3.org/2000/svg">
  <sodipodi:namedview
     id="namedview84"
     pagecolor="#ffffff"
     bordercolor="#000000"
     borderopacity="0.25"
     inkscape:showpageshadow="2"
     inkscape:pageopacity="0.0"
     inkscape:pagecheckerboard="0"
     inkscape:deskcolor="#d1d1d1"
     showgrid="false"
     inkscape:zoom="0.5"
     inkscape:cx="492"
     inkscape:cy="79"
     inkscape:window-width="1239"
     inkscape:window-height="779"
     inkscape:window-x="167"
     inkscape:window-y="79"
     inkscape:window-maximized="0"
     inkscape:current-layer="svg82" />
  <g
     clip-path="url(#clip0_952_37)"
     id="g75"
     transform="scale(0.281215)">
    <rect
       width="3556"
       height="2000"
       fill="#1a1a1a"
       id="rect2"
       x="0"
       y="0" />
    <circle
       cx="3712.3"
       cy="2095.3"
       r="481.5"
       transform="rotate(-69.7966,3712.3,2095.3)"
       stroke="#afcb41"
       stroke-width="76"
       id="circle4" />
    <mask
       id="mask0_952_37"
       maskUnits="userSpaceOnUse"
       x="3192"
       y="1575"
       width="1040"
       height="1040">
      <circle
         cx="3712.3"
         cy="2095.3"
         r="481.5"
         transform="rotate(-69.7966,3712.3,2095.3)"
         stroke="#afcb41"
         stroke-width="76"
         id="circle6" />
    </mask>
    <g
       mask="url(#mask0_952_37)"
       id="g13">
      <path
         d="m 3401.66,2685.72 351.35,-562.1 -522.51,-307.88 -42.73,79.87 -50.53,439.37 z"
         fill="#54aaf8"
         id="path9" />
      <path
         d="m 3723.96,2124.04 -520.87,-318.39 96.8,-142.23 z"
         fill="#ea3891"
         id="path11" />
    </g>
    <circle
       cx="3671.5"
       cy="-141.5"
       r="481.5"
       transform="rotate(-48.5772,3671.5,-141.5)"
       stroke="#afcb41"
       stroke-width="76"
       id="circle15" />
    <mask
       id="mask1_952_37"
       maskUnits="userSpaceOnUse"
       x="3151"
       y="-662"
       width="1041"
       height="1041">
      <circle
         cx="3671.5"
         cy="-141.5"
         r="481.5"
         transform="rotate(-48.5772,3671.5,-141.5)"
         stroke="#afcb41"
         stroke-width="76"
         id="circle17" />
    </mask>
    <g
       mask="url(#mask1_952_37)"
       id="g24">
      <path
         d="m 3168.22,296.453 530.98,-396.819 -375.65,-476.13 -68.74,58.989 -206.13,391.292 z"
         fill="#54aaf8"
         id="path20" />
      <path
         d="m 3686.96,-130.642 -476.4,394.886 18.96,256.012 1036.29,-140.169 z"
         fill="#ea3891"
         id="path22" />
    </g>
    <circle
       cx="1778.05"
       cy="2302.05"
       r="481.5"
       transform="rotate(55.7312,1778.05,2302.05)"
       stroke="#afcb41"
       stroke-width="76"
       id="circle26" />
    <mask
       id="mask2_952_37"
       maskUnits="userSpaceOnUse"
       x="1258"
       y="1782"
       width="1040"
       height="1040">
      <circle
         cx="1778.05"
         cy="2302.05"
         r="481.5"
         transform="rotate(55.7312,1778.05,2302.05)"
         stroke="#afcb41"
         stroke-width="76"
         id="circle28" />
    </mask>
    <g
       mask="url(#mask2_952_37)"
       id="g37">
      <path
         d="m 1478.06,1706.15 253.28,612.57 554.2,-246.33 -40.17,-81.18 -328.21,-296.44 z"
         fill="#54aaf8"
         id="path31" />
      <path
         d="m 1747.88,2294.83 561.8,-238.88 59.5,161.43 z"
         fill="#ea3891"
         id="path33" />
      <path
         d="m 1763.7,2314.34 -264.89,-559.22 -252.76,-44.89 -120.29,1038.78 z"
         fill="#ed6d2d"
         id="path35" />
    </g>
    <circle
       cx="1777.5"
       cy="-343.5"
       r="481.5"
       transform="rotate(-104.494,1777.5,-343.5)"
       stroke="#afcb41"
       stroke-width="76"
       id="circle39" />
    <mask
       id="mask3_952_37"
       maskUnits="userSpaceOnUse"
       x="1257"
       y="-864"
       width="1041"
       height="1041">
      <circle
         cx="1777.5"
         cy="-343.5"
         r="481.5"
         transform="rotate(-104.494,1777.5,-343.5)"
         stroke="#afcb41"
         stroke-width="76"
         id="circle41" />
    </mask>
    <g
       mask="url(#mask3_952_37)"
       id="g48">
      <path
         d="m 1858.19,318.753 -31.1,-662.144 -604.85,44.308 10.33,89.99 208.57,389.999 z"
         fill="#afcb41"
         id="path44" />
      <path
         d="m 1795.16,-350.22 60.08,615.863 222.66,127.763 464.64,-936.834 z"
         fill="#ed6d2d"
         id="path46" />
    </g>
    <circle
       cx="-135.03101"
       cy="-208.03101"
       r="481.5"
       transform="rotate(-135.649,-135.031,-208.031)"
       stroke="#afcb41"
       stroke-width="76"
       id="circle50" />
    <mask
       id="mask4_952_37"
       maskUnits="userSpaceOnUse"
       x="-655"
       y="-728"
       width="1040"
       height="1040">
      <circle
         cx="-135.03101"
         cy="-208.03101"
         r="481.5"
         transform="rotate(-135.649,-135.031,-208.031)"
         stroke="#afcb41"
         stroke-width="76"
         id="circle52" />
    </mask>
    <g
       mask="url(#mask4_952_37)"
       id="g59">
      <path
         d="m 276.636,316.964 -369.1712,-550.558 -494.7018,350.835 55.4,71.666 380.25,225.852 z"
         fill="#ed6d2d"
         id="path55" />
      <path
         d="M -123.396,-222.917 246.632,273.042 503.279,267.186 416.239,-774.91 Z"
         fill="#ea3891"
         id="path57" />
    </g>
    <circle
       cx="-265.5"
       cy="1782.5"
       r="481.5"
       stroke="#afcb41"
       stroke-width="76"
       id="circle61" />
    <path
       fill-rule="evenodd"
       clip-rule="evenodd"
       d="m 2007,676.462 c 86,-130.719 129,-219.828 129,-267.327 0,-71.247 -57.76,-129.005 -129,-129.005 -71.24,0 -129,57.758 -129,129.005 0,47.499 43,136.608 129,267.327 z"
       fill="#74ac00"
       id="path63" />
    <path
       d="m 2051.82,380.296 18.18,60 v 36 c 0,3.314 -2.71,6 -6.06,6 h -33.33 c -3.35,0 -6.06,-2.686 -6.06,-6 v -39 l -4.55,-3 v -54 z m -58.82,0 v 54 l -4.55,3 v 39 c 0,3.163 -2.47,5.755 -5.6,5.984 l -0.46,0.016 h -33.33 c -3.19,0 -5.81,-2.447 -6.04,-5.552 l -0.02,-0.448 v -36 l 18.18,-60 z m 23,0 v 51 h -18 v -51 z m 22,-24 c 3.31,0 6,2.686 6,6 v 12 h -27 v -12 c 0,-3.314 2.69,-6 6,-6 z m -48,0 c 3.16,0 5.75,2.448 5.98,5.552 l 0.02,0.448 v 12 h -27 v -12 c 0,-3.163 2.45,-5.754 5.55,-5.983 l 0.45,-0.017 z"
       fill="#ffffff"
       id="path65" />
    <path
       fill-rule="evenodd"
       clip-rule="evenodd"
       d="m 2007,1719.13 c 86,-130.72 129,-219.83 129,-267.33 0,-71.25 -57.76,-129.01 -129,-129.01 -71.24,0 -129,57.76 -129,129.01 0,47.5 43,136.61 129,267.33 z"
       fill="#74ac00"
       id="path67" />
    <path
       d="m 2007,1415.28 c 0,0 17.72,-25.54 50,-13.04 v 100.46 l -50,46.09 -50,-46.09 v -100.46 c 32.28,-12.5 50,13.04 50,13.04 z m 7.03,75.48 -7.03,-22.97 -7.03,22.97 -22.97,7.03 22.97,7.04 7.03,22.96 7.03,-22.96 22.97,-7.04 z"
       fill="#ffffff"
       id="path69" />
    <path
       fill-rule="evenodd"
       clip-rule="evenodd"
       d="m 2007,1197.79 c 86,-130.72 129,-219.824 129,-267.323 0,-71.247 -57.76,-129.005 -129,-129.005 -71.24,0 -129,57.758 -129,129.005 0,47.499 43,136.603 129,267.323 z"
       fill="#74ac00"
       id="path71" />
    <path
       d="m 2073.96,877.824 c -3.66,38.322 -4.8,129.516 -96.27,106.314 -4.88,-1.236 -9.21,-4.256 -13.41,0 -9.75,9.889 -14.02,15.456 -20.72,22.252 -4.87,4.94 -6.09,-6.18 -2.43,-11.126 3.28,-4.447 5.25,-6.568 9.75,-11.126 3.65,-3.709 6.87,-5.834 9.74,-13.599 3.66,-9.889 -17.38,-65.437 65.81,-86.534 14.63,-3.709 21.94,-6.181 40.22,-9.89 3.93,-0.798 7.78,-1.214 7.31,3.709 z m -9.62,10.601 c 2.45,-6.173 -2.44,-6.173 -6.1,-1.235 -7.33,9.869 -12.22,12.346 -45.2,30.864 -32.97,18.518 -35.42,24.691 -47.63,49.381 l -0.06,0.136 c -1.29,2.793 -3.48,13.3 3.72,4.802 14.02,-16.522 26.87,-23.456 48.86,-34.567 25.21,-12.738 36.37,-24.01 46.41,-49.381 z"
       fill="#ffffff"
       id="path73" />
  </g>
  <defs
     id="defs80">
    <clipPath
       id="clip0_952_37">
      <rect
         width="3556"
         height="2000"
         fill="#ffffff"
         id="rect77"
         x="0"
         y="0" />
    </clipPath>
  </defs>
</svg>
