<?xml version="1.0" encoding="UTF-8" standalone="no"?>
<svg xmlns="http://www.w3.org/2000/svg" width="297.9183" height="300">
  <defs>
    <clipPath id="a">
      <path d="M535.9 212.355h82.904v82.904H535.9v-82.904z"/>
    </clipPath>
  </defs>
  <g clip-path="url(#a)" transform="matrix(5.4493 0 0 -5.4493 -2997.95 1534.946)">
    <path fill="#231f20" d="M554.022 259.707c.482-.107.634-.046.712.295l.118-.026-.317-1.416-.119.026c.065.286.019.473-.533.595l-3.049.683-.129-.58c-.12-.536-.021-.815.388-.944l-.025-.118-.914.204.026.119c.062.045.111.1.16.191.042.086.083.209.121.376l.468 2.093c.078.348.073.518-.004.668l.028.126.913-.205-.017-.077c-.351-.002-.618-.081-.76-.716l-.136-.607m3.285 3.86l1.067-.521c.443-.216.638-.176.791.14l.11-.054-.65-1.33-.109.053c.139.283.108.464-.38.703l-2.294 1.12c-.437.212-.629.195-.789-.133l-.108.054.648 1.329.109-.054c-.141-.288-.091-.479.378-.709l1.047-.51.978 2.004-1.048.511c-.448.22-.631.189-.784-.126l-.109.054.642 1.317.109-.054c-.154-.314-.056-.489.381-.702l2.294-1.119c.437-.213.635-.183.788.132l.109-.053-.642-1.317-.109.053c.141.288.104.458-.385.697l-1.066.52m3.865 4.73l-.078-.093c-.323.158-.398.136-.667-.188l-.65-.78 1.125-.938c.154-.129.26-.124.407.052l.458.55c.383.461.458.594.201 1.124l.078.094.469-.632-1.889-2.269-.094.077c.206.247.22.421-.197.769l-1.967 1.639c-.389.324-.573.328-.797.06l-.094.076 1.891 2.269.527-.439-.051-.061c-.404.217-.524.131-.813-.216l-.754-.906 1.345-1.121.733.879c.178.214.209.329-.025.597l.079.093m8.437 3.98c-.118-.592-.387-.989-.86-1.256-.865-.488-1.559-.074-1.905.542l-.99 1.758c-.267.473-.444.497-.724.338l-.06.106 1.29.726.059-.106c-.293-.165-.351-.337-.095-.791l1.017-1.807c.31-.549.836-.769 1.439-.429.412.232.657.641.688 1.168l-1.21 2.149c-.231.411-.406.501-.699.352l-.059.107 1.257.708.06-.106c-.299-.169-.328-.365-.085-.794l1.253-2.225c.262-.466.449-.493.723-.338l.059-.106-.877-.495m6.215 2.119l-.118-.03-3.681 2.732-.014-.003.714-2.785c.102-.402.298-.507.659-.414l.03-.118-1.205-.309-.03.118c.331.086.465.23.317.805l-.594 2.32c-.113.443-.295.663-.776.583l-.032.118 1.02.261 3.27-2.454.013.004-.594 2.32c-.132.519-.304.614-.651.527l-.03.117 1.199.307.029-.117c-.388-.1-.471-.291-.353-.755m4.167-2.136c.025-.499.154-.643.496-.626l.005-.121-1.471-.074-.005.122c.335.017.458.152.432.672l-.128 2.55c-.024.514-.145.644-.495.626l-.006.122 1.47.074.006-.122c-.343-.017-.456-.18-.431-.673m4.266-3.577l-.113.016-.818 3.462c-.125.521-.2.726-.579.792l.015.119 1.475-.195-.017-.121c-.289.039-.452-.099-.373-.434l.643-2.753 1.278 2.403c.173.331.139.56-.229.609l.017.12 1.183-.157-.018-.128c-.304.041-.562-.164-.841-.689m4.838-3.123l-.114.042c.039.359-.007.421-.402.566l-.954.349-.503-1.377c-.07-.188-.03-.286.185-.365l.672-.245c.564-.207.715-.231 1.128.189l.113-.042-.437-.654-2.773 1.014.042.114c.302-.11.47-.066.657.444l.879 2.404c.175.477.117.65-.213.771l.042.114 2.774-1.014-.236-.645-.074.027c.067.455-.055.537-.478.692l-1.108.406-.601-1.646 1.074-.392c.262-.096.379-.086.553.223l.115-.041m4.312-.658l.357-.235c.526-.347.652-.893.354-1.347-.258-.393-.744-.639-1.324-.257l-.418.275 1.031 1.564zm-1.125-1.707l.275-.181c.627-.413.274-1.337.401-2.534l.7-.46.066.102c-.539.415-.012 1.685-.378 2.517.6-.181 1.01.002 1.258.378.298.455.22 1.14-.55 1.647l-1.402.924-.067-.102c.275-.18.333-.338.037-.786l-1.412-2.144c-.302-.459-.482-.46-.745-.287l-.067-.101 1.23-.811.067.101c-.281.186-.306.382-.03.799m7.142-2.774l-.085.086c.386.471.254.943-.036 1.238-.301.306-.686.36-.955.094-.54-.532.049-1.416.042-2.245-.003-.405-.136-.636-.33-.827-.458-.451-1.196-.445-1.647.013-.306.311-.409.721-.505.818-.049.051-.122.051-.223.001l-.085.088.791.777.083-.087c-.533-.536-.275-1.156-.025-1.41.347-.352.782-.385 1.097-.075.504.497-.034 1.513-.028 2.16.002.353.135.625.365.852.449.441 1.069.42 1.536-.053.306-.311.34-.569.45-.681.045-.045.066-.046.157.004l.079-.082m-.334-5.054c-.412-.285-.465-.47-.27-.753l-.1-.068-.839 1.21.1.069c.191-.276.37-.309.799-.011l2.098 1.453c.422.293.47.465.27.753l.1.068.839-1.21-.099-.069c-.196.282-.395.292-.801.011m-.057-5.169c-.449-.206-.534-.348-.389-.666l-.11-.051-.603 1.319.11.052c.121-.267.27-.388.785-.152l2.84 1.301-.247.539c-.229.501-.477.663-.882.517l-.051.11.852.391.05-.111c-.021-.073-.028-.146-.012-.249.02-.094.06-.217.132-.373l.893-1.95c.15-.324.257-.455.408-.528l.054-.117-.852-.39-.033.072c.28.214.444.439.173 1.031l-.259.564m-1.244-6.29c-.483-.104-.616-.234-.543-.576l-.118-.026-.313 1.461.119.026c.065-.309.167-.476.741-.354l1.258.269 1.145 1.138c.382.374.447.513.393.829l.119.026.335-1.566-.119-.025c-.094.441-.258.456-.469.244l-1.047-1.052 1.142-.42c.358-.129.654-.08.582.257l.119.024.235-1.097-.119-.026c-.087.304-.193.391-.591.539l-1.612.598m-49.847-10.66c1.141.328 2.074-.043 2.341-.97.233-.81-.271-1.67-1.508-2.027-.954-.274-2.044-.03-2.329.96-.255.886.349 1.707 1.496 2.037m-.166.607c-1.169-.336-1.817-1.52-1.48-2.694.339-1.175 1.519-1.84 2.687-1.504 1.147.331 1.782 1.509 1.446 2.677-.346 1.202-1.485 1.858-2.653 1.521m1.631-7.952c-.435-.248-.504-.428-.333-.727l-.106-.061-.731 1.28.106.061c.171-.298.354-.333.795-.082l2.217 1.265c.447.256.505.427.335.726l.105.061 1.392-2.442-.633-.36-.045.08c.384.336.349.454.129.841l-.517.906-1.491-.85.529-.926c.152-.266.345-.288.649-.157l.056-.098-1-.571-.056.099c.248.158.325.366.184.616l-.535.938m6.807-8.497l-.095.076c.156.326.133.399-.193.666l-.784.644-.93-1.133c-.127-.155-.122-.261.056-.406l.552-.453c.464-.381.599-.454 1.127-.193l.094-.078-.629-.473-2.283 1.873.077.093c.249-.204.423-.217.767.203l1.623 1.979c.322.393.324.575.054.798l.076.093 2.284-1.871-.435-.531-.061.05c.214.406.125.525-.223.81l-.911.749-1.112-1.355.885-.726c.216-.176.329-.205.596.03l.094-.078m4.037-.901l.708-.327c1.177-.54 1.211-1.643.801-2.533-.467-1.013-1.312-1.393-2.234-.97l-.382.177c-.345.159-.423.329-.157.907l1.264 2.746zm-1.819-2.648c-.211-.462-.395-.535-.694-.397l-.05-.11 1.766-.815c1.46-.671 2.45-.081 2.88.854.447.968.211 2.233-1.21 2.889l-1.721.792-.052-.11c.312-.144.356-.339.15-.785m6.14-4.902c-.108-.489-.022-.663.313-.737l-.026-.118-1.438.316.026.119c.329-.072.481.027.594.537l.549 2.491c.11.503.028.66-.314.734l.026.121 1.438-.318-.026-.117c-.335.072-.488-.054-.594-.537m6.86-3.813l-.121-.001-2.927 3.529-.016-.001.033-2.874c.004-.414.17-.562.542-.558l.002-.123-1.245-.012-.002.121c.344.003.508.113.5.706l-.025 2.394c-.006.459-.13.713-.617.751l-.002.123 1.053.011 2.593-3.161.015.001-.027 2.395c-.005.537-.151.67-.508.666v.122l1.235.013.002-.121c-.4-.005-.528-.171-.522-.648m4.323-.396l-.461 1.675.393.108c.641.176 1.041-.091 1.178-.589.136-.495-.125-.924-.704-1.082l-.406-.112zm-.145-1.522c.133-.483.057-.66-.275-.751l.033-.118 1.819.502c.744.205 1.165.721 1.001 1.314-.144.531-.683.872-1.324.829l-.003.012c.494.33.665.681.547 1.116-.139.503-.687.849-1.638.586l-1.489-.409.032-.116c.33.09.482-.002.621-.505l.676-2.46zm.187 1.371l.373.102c.695.19 1.245-.081 1.405-.66.159-.578-.147-.951-.548-1.061l-.323-.091c-.31-.084-.442.02-.588.551m7.969 3.139c-.109-.592-.371-.995-.84-1.267-.858-.502-1.558-.099-1.915.512l-1.015 1.743c-.275.468-.453.488-.73.327l-.061.104 1.277.746.062-.105c-.29-.169-.346-.343-.083-.793l1.045-1.79c.318-.544.846-.756 1.445-.407.409.238.647.651.671 1.178l-1.245 2.13c-.236.408-.413.495-.704.342l-.061.105 1.246.728.064-.105c-.299-.173-.323-.371-.076-.796l1.288-2.205c.27-.463.456-.486.729-.327l.061-.104-.869-.509m1.364 6.046l.3.304c.443.449 1.004.468 1.391.085.336-.331.48-.855-.006-1.348l-.352-.357-1.333 1.316zm1.455-1.437l.231.236c.528.534 1.365.008 2.565-.1l.586.595-.087.087c-.511-.45-1.654.316-2.543.118.295.553.196.992-.125 1.308-.386.382-1.075.438-1.722-.218l-1.181-1.197.087-.085c.231.234.398.261.78-.116l1.827-1.802c.391-.387.358-.564.137-.788l.087-.085 1.033 1.048-.086.085c-.235-.238-.433-.225-.788.127m5.93 6.491c-.065-.229-.415-.871-.511-1.03-.938-1.538-2.177-1.487-2.983-.995-1.24.754-1.363 2.119-.839 2.979.301.496.581.584.746.853.066.109.065.176.002.265l.068.11 1.031-.627-.06-.098c-.721.313-1.363-.108-1.653-.585-.438-.72-.141-1.645.818-2.229 1.025-.626 2.155-.476 2.66.354.154.251.297.623-.016.814l-.377.229c-.427.26-.64.257-.815-.031l-.082-.134-.104.063.864 1.417.103-.063c-.208-.344-.099-.534.206-.72m.826 4.155l1.14-.329c.474-.137.659-.063.756.273l.117-.033-.41-1.422-.117.033c.088.302.025.477-.496.627l-2.452.708c-.468.133-.653.084-.755-.266l-.117.033.411 1.422.116-.034c-.09-.309-.008-.488.494-.633l1.12-.324.619 2.143-1.119.324c-.481.138-.656.077-.753-.259l-.117.033.406 1.409.117-.035c-.096-.336.029-.492.497-.626l2.452-.707c.467-.135.656-.072.755.264l.116-.032-.407-1.408-.116.033c.089.31.024.47-.499.62l-1.14.33m-50.108 5.658c-.001-.2-.164-.36-.363-.359-.199.001-.359.164-.358.362.001.201.164.36.363.36.198-.002.359-.164.358-.363m51.217-.007c-.002-.199-.165-.361-.364-.358-.199 0-.36.162-.359.362.002.199.165.359.363.358.199-.001.361-.163.36-.362m-15.468-18.589c.289.149.553.351.83.523.236.142.473.287.709.432.211.157.404.337.623.487.227.164.452.331.68.495.048.044.094.091.142.138.053.027.106.057.158.088.194.147.391.322.572.49.145.134.254.289.406.424.151.137.318.262.473.399.065.059.1.124.158.182.125.122.254.239.368.369.079.099.159.195.239.292.283.27.538.569.775.873.192.228.385.459.576.688.127.177.253.357.378.536.066.071.132.141.2.213.206.287.413.574.618.863.061.098.097.2.155.301.045.066.091.133.136.196.041.084.079.169.119.252.139.238.27.477.399.718.109.186.218.371.326.557.09.189.147.386.231.576.095.197.187.396.281.594.318.853.629 1.708.884 2.589.019.104.037.211.056.315.069.323.156.655.221.985.02.169.038.339.057.509.047.276.102.573.14.853.019.225.037.452.053.679.018.087.034.176.052.265.011.189.02.379.032.568.01.094.039.183.044.283 0 .132-.004.266-.006.397.06.855.075 1.784.028 2.63-.026.443-.128.877-.173 1.308-.05.457-.085.908-.176 1.343-.252 1.195-.585 2.369-1.006 3.485-.061.16-.153.308-.219.466-.137.332-.291.64-.451.956-.054.092-.105.181-.159.272-.131.277-.222.577-.367.846-.09.166-.198.306-.303.466-.08.173-.162.345-.243.518-.302.47-.616.931-.931 1.392-.119.14-.238.277-.357.415-.133.171-.265.342-.397.513-.126.128-.266.234-.379.376-.064.082-.102.169-.17.251-.098.108-.197.217-.297.324-.059.055-.12.108-.177.164-.152.171-.293.347-.45.516-.137.128-.272.257-.409.385-.132.132-.262.265-.394.398-.181.141-.364.282-.548.422-.186.165-.375.328-.563.494-.124.093-.259.159-.385.242-.161.117-.324.235-.485.352-.122.085-.225.179-.342.276-.088.052-.174.106-.262.16-.117.083-.234.166-.352.249-.386.236-.8.415-1.201.623-.146.091-.293.183-.437.275-.254.128-.506.255-.757.381-.206.1-.42.171-.632.254-.103.057-.208.114-.31.172-.08.029-.162.056-.241.085-.127.056-.253.114-.381.17-.397.144-.813.247-1.223.373-.195.059-.396.138-.591.195-.429.125-.857.191-1.3.29-.284.066-.582.147-.872.196-.188.027-.377.051-.563.078-.313.065-.661.121-.989.16-.123.003-.251.007-.376.01-.087.012-.175.023-.264.035l-.513.009c-.381.026-.787.058-1.191.06-.156-.045-.375-.018-.549-.017-.207 0-.416 0-.625-.001-.056-.01-.113-.018-.17-.027-.144-.004-.289-.008-.433-.011-.078-.018-.154-.037-.231-.055-.075-.011-.15-.019-.226-.028-.072 0-.146.006-.208-.018-.043-.007-.087-.013-.132-.018-.093 0-.191.003-.265-.036-.204.001-.505-.025-.662-.111-.045-.005-.089-.011-.133-.018-.128.002-.299-.015-.398-.074-.334.003-.611-.139-.913-.212-.161-.037-.353-.055-.491-.139-.131.001-.275-.031-.378-.092-.211.001-.394-.121-.575-.191-.106-.041-.239-.043-.334-.107-.211.001-.397-.121-.571-.199-.12-.051-.242-.101-.361-.152-.65-.274-1.286-.584-1.91-.909-.105-.069-.211-.135-.317-.202-.747-.379-1.487-.795-2.149-1.334l-.587-.419c-.101-.092-.205-.184-.306-.275-.19-.14-.389-.259-.572-.415-.377-.318-.731-.675-1.08-1.02-.215-.194-.43-.389-.645-.583-.074-.085-.148-.169-.22-.255l-.293-.272c-.154-.157-.263-.346-.411-.5-.13-.131-.259-.255-.376-.4-.052-.072-.108-.146-.161-.217-.226-.255-.447-.505-.641-.779-.135-.208-.268-.416-.402-.625-.192-.248-.409-.569-.559-.84-.044-.089-.087-.178-.131-.267-.13-.215-.259-.431-.39-.646-.113-.225-.189-.466-.302-.691-.053-.089-.104-.174-.157-.262-.11-.203-.202-.407-.319-.608-.053-.131-.107-.261-.161-.393-.065-.133-.128-.268-.193-.402-.052-.155-.105-.309-.157-.464-.063-.167-.128-.332-.192-.498-.321-1.037-.59-2.077-.81-3.175-.019-.207-.037-.414-.055-.621-.029-.24-.111-.501-.131-.738-.016-.184-.009-.395-.061-.568-.013-.145-.026-.291-.04-.434-.033-.888-.008-1.733.014-2.593.012-.412.093-.827.129-1.232.01-.176.018-.351.027-.529.057-.553.15-1.114.236-1.665.041-.139.079-.279.118-.42.092-.434.19-.854.315-1.271.037-.093.074-.189.11-.285.023-.099.048-.198.071-.296.164-.461.328-.921.491-1.381.081-.172.162-.349.242-.52.047-.115.071-.244.12-.356.125-.294.307-.559.457-.843.118-.231.257-.452.374-.684.033-.083.067-.167.102-.25.04-.051.081-.099.122-.15.044-.096.088-.193.133-.291.11-.192.244-.379.383-.557.083-.107.152-.226.237-.333.114-.142.241-.274.348-.422.082-.121.164-.242.247-.362.154-.185.309-.37.466-.554.128-.162.256-.325.383-.487.161-.167.321-.335.481-.503.132-.152.245-.332.397-.472.217-.198.429-.4.629-.601.106-.109.214-.216.32-.323.174-.152.378-.261.547-.422l.49-.472c.12-.091.238-.183.356-.272.146-.126.271-.271.429-.382.19-.13.368-.282.566-.395.132-.076.273-.116.398-.199.149-.105.294-.209.443-.312.144-.095.309-.169.457-.26.559-.343 1.122-.637 1.708-.918.257-.124.502-.283.779-.377.253-.099.504-.197.757-.294.093-.025.186-.053.277-.078.249-.096.496-.191.744-.287.067-.02.133-.04.201-.059.214-.084.426-.183.65-.244.27-.053.539-.104.809-.158.402-.083.822-.207 1.232-.271.15-.014.299-.025.452-.035.199-.026.399-.073.606-.092.157-.008.312-.02.471-.03.102-.016.203-.031.303-.047l.323-.011c.246-.037.49-.074.737-.111.126-.007.252-.011.378-.017.076.009.153.019.228.027.226-.002.493-.027.718-.037.144-.004.279.007.417 0 .283-.015.552.04.815.078.119.006.239.01.357.014.161.02.335.047.493.061.587.053 1.154.118 1.721.231.192.05.383.1.572.151.24.047.478.097.716.145.124.036.234.098.351.146.196.057.389.113.584.172.082.03.165.059.248.089.142.039.269.054.409.096.287.099.572.201.861.301.169.083.34.161.51.243.166.063.333.14.491.213.046.027.091.057.137.083.171.082.351.163.518.25.195.112.39.221.585.332.1.05.21.08.31.132"/>
    <path fill="#fcd213" d="M577.313 234.303h-.02v.02c-.029 0-.042.036-.06.057-.072.116-.146.233-.219.35-.153.178-.307.357-.46.538-.459.436-.997.81-1.56 1.053-.117.042-.236.087-.351.129-.13.056-.248.13-.384.18-.125.047-.262.062-.395.086-.136.026-.275.065-.416.095-.289.059-.579.146-.873.198-.283.036-.565.07-.849.107-.226.011-.443.007-.661.028-1.026.104-2.039.203-3.029.363-.338.056-.669.058-.999.117-.329.058-.658.154-.97.252-.174.055-.351.095-.518.159-.165.074-.329.148-.494.222-.114.052-.228.103-.341.153-.079.05-.159.102-.238.153-.038.021-.076.041-.114.062-.271.217-.484.518-.692.781-.16.204-.244.442-.32.688-.036.121-.074.243-.112.365-.12.566-.108 1.158-.114 1.777-.009.121-.02.239-.03.361.016.46.044.926.054 1.381-.004.101-.007.201-.012.302.003.46.006.92.008 1.381.003.303.026.602.023.889-.013 1.24.01 2.495.037 3.748-.01.176-.019.352-.03.53-.001.196.02.38.02.566-.003.088-.005.177-.008.266.025.282.048.567.071.851.005.22-.014.436-.014.642.002.156.025.312.018.474-.005.13-.035.253-.032.398.006.118.014.239.019.36-.003.24-.018.502-.013.756.003.146.023.3.02.455-.004.167-.037.334-.032.51.019.208.038.416.058.624.005.203-.013.398-.012.588.003.424.022.883.024 1.324.003.089.007.176.009.264-.007.19-.019.379-.028.568.015.164.028.329.045.493.016.787.014 1.597.031 2.366.001.264.001.528.002.793-.007.187-.035.369-.031.569.008.125.014.253.022.378.003.664-.012 1.329-.008 2.006.001.245.022.465.021.701-.004.265-.014.552-.013.832.001.181.02.359.022.549.001.15-.029.361.021.491.001.038.045.031.076.035.273.038.616.074.908.028.36-.055.722.003 1.099.001.333-.002.668-.002 1.003-.003.202.011.402.021.605.032.377-.002.728-.024 1.096-.022.444.004.923.011 1.385.008.131-.006.262-.012.397-.017.186.01.377.018.566.028.158-.003.306-.036.473-.036.213-.002.405.018.605.012.311-.005.645-.007.966-.025.151-.013.302-.023.453-.035.446.005.908.023 1.345.028.297-.009.593-.016.89-.025.251.003.499.052.755.05.181-.001.379-.018.568-.019.172.003.341.006.512.008.195-.016.391-.03.586-.047.152.007.304.015.455.022.296-.012.592-.022.889-.033.139.011.278.021.417.033.807.02 1.568.001 2.384.008.178.01.353.022.531.032.363.01.747-.015 1.096.01.077.007.152.015.228.022.303-.031.658.001.984-.007.135-.001.246-.034.377-.038.146.006.292.009.435.014.234-.008.503-.036.738-.034.164.001.322.033.494.028.12-.01.239-.022.359-.033.168-.002.357.021.53.007.119-.018.239-.035.36-.053.1.004.201.009.303.013.106-.006.212-.012.322-.017.106.003.213.01.32.015.203.003.397-.02.587-.008.308.024.611-.022.927-.019.153.01.302.02.454.03l.303-.015c.096-.001.214.011.293-.021.007-.005.015-.013.023-.017.067-.1.043-.284.041-.42-.002-.431-.023-.85-.004-1.266.01-.264.006-.566.009-.834-.005-.087-.009-.176-.014-.263.007-.191.015-.378.022-.567-.011-.191-.021-.38-.032-.57.015-.246.032-.492.046-.738-.01-.093-.021-.189-.032-.284-.006-.164.027-.314.025-.473-.009-.164-.02-.328-.03-.492-.001-.201-.005-.403-.009-.604-.009-.151-.022-.304-.032-.454.018-.247.036-.493.051-.738-.006-.089-.015-.178-.023-.266-.007-.204-.023-.41-.02-.606.004-.35.033-.74.037-1.078-.009-.076-.019-.151-.025-.228.005-.157.012-.313.018-.471-.01-.182-.026-.388-.028-.589 0-.146.032-.272.028-.416-.01-.076-.018-.152-.03-.227.005-.099.009-.201.012-.301-.01-.38-.044-.747-.039-1.137.006-.189.01-.378.019-.568.009-.076.018-.151.028-.227-.004-.127-.011-.251-.016-.378.004-.081.009-.164.012-.245l-.033-.417c0-.188.047-.387.039-.587-.02-.553-.05-1.075-.054-1.628-.001-.223.034-.42.033-.643l-.036-.359c-.002-.258-.005-.517-.009-.776-.012-.139-.024-.277-.037-.416.007-.524.015-1.047.022-1.57-.002-.365-.039-.751-.035-1.117.008-.195.019-.391.027-.588-.004-.076-.009-.151-.014-.227-.001-.139-.002-.276-.004-.416-.002-.338.015-.678.014-1.003-.003-.391.001-.815-.008-1.229-.006-.114-.01-.226-.014-.34.007-.07.017-.138.026-.208-.012-.241-.025-.48-.035-.719-.005-.203.024-.416.01-.624-.023-.127-.047-.254-.068-.381-.018-.137-.035-.275-.053-.412-.047-.236-.219-.573-.343-.774-.109-.172-.289-.267-.427-.405-.084-.081-.178-.135-.264-.208-.162-.138-.323-.284-.506-.381-.117-.044-.233-.087-.35-.13-.236-.097-.472-.203-.714-.295-.223-.083-.458-.146-.68-.229-.052-.02-.111-.041-.167-.059-.122.002-.285-.054-.379-.112-.106.001-.217-.011-.303-.054-.16.001-.275-.046-.406-.095-.041-.012-.082-.024-.124-.035-.065 0-.139-.008-.19-.037-.127.002-.419-.057-.511-.111-.113 0-.247.021-.341-.017-.065 0-.14-.007-.19-.037-.102.002-.222.013-.304-.034-.048-.007-.101-.014-.151-.02-.08 0-.165-.003-.226-.036-.071 0-.153-.008-.209-.037-.132.002-.329.022-.436-.037-.051-.004-.101-.01-.152-.016-.127.001-.287.048-.397-.017-.076 0-.165.011-.228-.017-.038-.008-.075-.013-.112-.018-.122 0-.276.023-.379-.017-.051-.007-.101-.013-.152-.019-.038-.005-.075-.012-.113-.017-.039-.008-.077-.014-.113-.019-.057-.006-.115-.011-.171-.019-.079.002-.165-.002-.228-.036-.051-.004-.1-.012-.151-.018-.085 0-.182.003-.246-.036-.082 0-.167-.001-.227-.037-.066 0-.141-.008-.19-.036-.06 0-.124-.009-.171-.038-.037-.005-.075-.012-.113-.019-.097.002-.226-.028-.303-.073-.063 0-.124-.009-.172-.038-.198.002-.369-.088-.537-.153-.129-.048-.259-.095-.39-.143-.254.001-.523-.234-.71-.389-.164-.134-.375-.201-.536-.352-.449-.417-.72-.977-.943-1.519"/>
    <path fill="#231f20" d="M579.423 236.992c.116.048.233.097.35.147.23.069.472.112.715.165.454.098.894.217 1.349.312.112.008.225.015.335.023.178.032.349.076.534.093.239.009.48.016.719.024.288.022.582.083.872.103.26.02.519.029.773.062.23.036.457.073.685.111.075.005.151.012.224.018.353.057.693.14 1.03.219.114.027.224.04.334.073.324.095.639.221.953.322.265.086.521.166.768.279.216.098.396.236.596.362.358.224.748.463.971.84.098.168.189.416.22.615.007.093.014.188.02.284.068.408.059.856.054 1.283.008.152.012.303.02.455-.006.082-.01.165-.015.246 0 .163 0 .327-.001.491-.01.063-.018.126-.027.19.007.056.013.113.02.17-.007.057-.013.114-.021.17.002.113.033.204.033.322.001.126-.032.219-.033.341-.001.145.036.251.04.397.009.496.004.987.023 1.477-.004.12-.009.238-.013.358.003.436.005.871.007 1.305.025 1.185.01 2.45.037 3.634-.008.125-.013.252-.022.378-.005.039-.009.075-.015.113.006.093.026.201.022.303-.007.07-.014.139-.022.209.004.097.029.195.028.303-.003.219-.055.405-.053.625 0 .149.022.279.033.416l-.006.208c.009.068.019.14.03.208-.01.082-.019.163-.03.246.011.094.02.189.031.284-.003.085-.029.155-.029.246.002.517.006 1.034.009 1.551 0 .118.031.209.035.323.003.112-.032.196-.028.302.009.057.02.114.028.17.008.171.016.341.026.511-.004.26-.006.543-.017.814-.009.088-.02.176-.032.265-.001.213.037.401.034.606-.009.157-.019.314-.027.472.006 1.219-.041 2.389.005 3.598.003.66.007 1.323.011 1.985.012.359-.014.75-.018 1.097-.004.356.004.678.007 1.041h-.021c0 .04-.177.016-.207.001-.353.005-.707.011-1.058.015-.229.02-.457.035-.702.033-.068 0-.151.008-.208-.018-.087-.008-.174-.018-.265-.026-.125.015-.252.031-.379.047-.442.004-.882.006-1.324.009-.124.001-.446.041-.53.004-.227.002-.454.005-.681.007-.171.012-.418.085-.586.019-.05-.006-.102-.012-.151-.019-.164.002-.329.004-.493.007-.244.016-.482.056-.738.057-.189-.054-.461.037-.643-.034-.051-.007-.101-.012-.151-.018-.195.001-.391.003-.587.003-.095 0-.225.018-.303-.018-.06.001-.142.007-.19-.018-.162.001-.299.035-.454.04-.389.001-.781.005-1.172.008-.143 0-.353.031-.472-.017-.045-.006-.089-.011-.134-.018l-.171-.018c-.22.001-.586.117-.776.042-.037-.006-.075-.012-.113-.017-.083 0-.181-.002-.246-.037-.564.002-1.127.006-1.666.017-.143.005-.293-.003-.435-.002-.067 0-.167.027-.227-.003-.139.003-.276.004-.416.006-.193.014-.62.09-.795.02-.127.002-.252.004-.378.005-.083.007-.185.03-.266-.001-.112 0-.262.021-.359-.017-.226.002-.424.04-.662.042-.075 0-.164.008-.227-.018-.14.001-.337.031-.454-.016-.215.001-.429.001-.643.003-.102.001-.24.02-.322-.017-.271-.002-.542-.003-.813-.004-.173.012-.505.076-.663.012-.17.001-.466.06-.606.004-.358.002-.688.023-1.042.046-.124.01-.316.052-.436-.001-.068.001-.148.01-.208-.019-.134.003-.32.031-.433-.015-.12.001-.303.031-.399-.015-.447.001-.922.023-1.399.026-.139 0-.336.031-.455-.016-.172 0-.549.036-.682-.015-.1 0-.275.028-.341-.036-.106-.1-.048-.597-.044-.758-.004-.125-.01-.252-.015-.378.004-.115.021-.235.008-.359v-.53c-.018-.483-.022-.945-.025-1.439-.001-.134-.033-.234-.038-.358-.005-.133.023-.259.022-.378-.016-.121-.03-.241-.045-.361.007-.251.011-.504.018-.755-.017-.43-.036-.891-.032-1.346.007-.176.013-.352.019-.528.007-.057.015-.114.022-.171-.015-.107-.027-.215-.042-.321.009-.771-.012-1.508-.017-2.29-.002-.34.016-.653.009-.985-.012-.163-.024-.327-.035-.492.004-.246.008-.492.014-.738-.003-.489-.024-.996-.019-1.495.008-.176.015-.352.023-.53-.011-.227-.023-.453-.036-.681-.005-.895.011-1.824.019-2.725.002-.224-.038-.411-.039-.643-.002-.239-.003-.479-.003-.718.004-.109.009-.216.014-.323-.018-.814-.045-1.596-.049-2.422-.003-.374-.044-.7-.045-1.059 0-.158.001-.315.001-.472.008-.063.018-.126.026-.19-.01-.063-.02-.126-.029-.188-.009-.182-.02-.375-.021-.549-.002-.222.004-.468.012-.701.005-.105.034-.193.034-.304-.001-.111-.034-.195-.035-.302-.002-.13.033-.224.033-.36-.006-.977.005-1.919.449-2.664.305-.508.867-.829 1.379-1.049.354-.153.717-.328 1.103-.42.285-.066.567-.102.867-.153.226-.04.462-.098.7-.124.227-.018.454-.035.681-.052.486-.059.963-.145 1.458-.205.232-.012.465-.024.698-.034.101-.023.202-.043.304-.067.182-.004.366-.005.547-.01.195-.018.392-.035.587-.056.101-.003.2-.007.302-.011.089-.021.177-.042.266-.062.251-.039.485-.067.736-.115.077-.025.155-.05.231-.078.173-.049.329-.09.492-.155.238-.086.477-.173.715-.258.174-.088.345-.174.521-.261.09-.063.185-.124.276-.187.19-.109.378-.203.552-.345.213-.174.36-.386.547-.586.061-.069.094-.159.175-.204 0-.031.01-.02.039-.02 0 .033.094.093.12.125.041.061.079.121.119.182.414.606 1.027 1.039 1.651 1.371.099.033.193.068.29.102"/>
    <path fill="#ed0f93" d="M579.532 265.817v-.018h-.057c0 .062-.001.125-.004.187.028.189.184.275.29.417.201-.176-.108-.457-.229-.586m.983 1.578c.079.085.124.189.193.282.059.059.119.118.18.177.136-.014.263-.034.414-.041v-.056c-.2.002-.738-.667-.863-.836-.058-.079-.128-.236-.22-.285-.055-.027-.12-.004-.165.024-.13.08-.032.221.004.313.025.06.03.128.08.172.053.025.102.051.154.077.075.056.148.114.223.173m-1.284-.456c.031.096.03.203.078.291.059.117.207.146.295.228.081.075.097.177.162.258.067.087.158.102.251.143.074 0 .15-.001.227-.001 0-.094-.124-.19-.169-.266-.064-.103-.125-.211-.189-.311-.072-.099-.147-.199-.221-.299-.051-.077-.069-.165-.131-.236-.045-.035-.091-.072-.137-.107-.042-.048-.083-.093-.125-.138-.042-.039-.084-.08-.127-.119-.077-.094-.077-.231-.18-.312-.092-.07-.256-.119-.378-.077h-.039c.001.057.25.442.306.491.052.046.128.049.17.109.037.055.031.122.064.179.039.068.114.09.143.167m-1.436.267c.023.092.113.154.141.248.032.11-.008.203.069.292.08.092.568.018.725.102.101-.001.201-.001.301-.002v-.038c-.029 0-.029-.016-.041-.035-.148-.208-.224-.449-.327-.679-.048-.083-.097-.166-.143-.25-.038-.091-.078-.182-.114-.273-.098-.183-.344-.495-.557-.536v.02c-.033 0-.021.172-.026.206-.015.084-.048.154-.037.248.009.103.063.17.062.282-.005.14-.086.275-.053.415m-1.503.633c.071.075.343.026.452.057.119-.04.423-.035.566-.041.003-.084.007-.165.011-.248.014-.063.029-.125.042-.188-.011-.068-.024-.138-.034-.207-.008-.3-.045-.598-.061-.89.011-.182.021-.366.03-.549h-.017v.019c-.241.002-.518.738-.615.906-.054.093-.137.154-.202.243-.135.19-.381.678-.172.898m-1.532-.144c.001.005.002.008.003.013.04.115.339.117.446.178.112-.001.257.019.348-.025.269-.132.359-.525.467-.772.07-.16.165-.316.241-.476.052-.085.1-.169.151-.254.034-.086.046-.178.049-.278.001-.07.014-.203-.053-.238-.053-.028-.134-.015-.186.006-.098.037-1.459 1.728-1.468 1.815v.016c0 .004.002.01.002.015m-.742.178c.142-.022.226-.064.328-.165.15-.145.278-.318.398-.488.062-.085.097-.182.17-.267.094-.101.189-.201.283-.302.084-.106.168-.211.251-.317.032-.046.06-.091.092-.136.059-.054.12-.107.181-.159.127-.121.243-.274.309-.429-.03.001-.029-.032-.037-.055-.104 0-.231.037-.304.096-.122.122-.243.247-.366.372-.078.077-.169.109-.236.198-.131.174-.228.382-.389.538-.091.09-.224.108-.316.196l-.009.009c-.099.102-.133.241-.217.352-.096.124-.234.211-.325.334-.004.009-.009.018-.013.026-.002.004-.002.009-.004.014-.017.108.134.15.204.183"/>
    <path fill="#87d5b6" d="M578.254 263.933c.054-.007.108-.014.161-.019.164-.06.305-.3.245-.472-.034-.093-.138-.174-.217-.235-.055-.043-.134-.107-.213-.101-.11.011-.063.245-.036.307.038.086.137.11.144.218.008.126-.085.183-.084.302m.266.776c-.064-.038-.139-.142-.223-.132-.116.014-.163.166-.239.236-.084.081-.259.12-.235.274.008.062.063.095.117.114v.019c.126-.024.214-.089.329-.137.13-.054.264-.085.4-.137.029-.01.04-.044.032-.074-.029-.081-.116-.121-.181-.163m-.247-2.342c-.025-.138-.34-.196-.449-.129-.16.1.147.299.215.352.08-.022.254-.113.234-.223m-.824.12c-.053-.01-.082.039-.117.061-.043.029-.095.036-.133.08-.097.106-.068.219-.074.365-.004.074-.018.168.01.236.024.061.083.089.132.122.061-.002.111-.006.158-.035.055-.035.437-.404.444-.444.026-.143-.305-.361-.42-.385m2.223 1.212c0-.137-.072-.286-.192-.341-.001-.028-.066.012-.094.021 0 .137.178.237.269.32h.017m-.356.243c-.047-.033-.09-.073-.154-.073-.066.001-.093.043-.114.098-.015.048-.01.659.007.712.02.066.122.122.169.175.142-.044.134-.13.183-.259.09-.237.154-.472-.091-.653m-.235-1.094c.018 0 .012-.004-.001-.017 0-.087-.245-.241-.322-.167-.107.104.027.214.095.281.101-.007.175-.012.228-.097m-1.731 1.998c.068-.007.134-.015.2-.022.118-.038.496-.343.455-.493-.036-.132-.162-.21-.258-.307-.099-.097-.22-.211-.363-.229-.142-.018-.344.615-.318.726.013.051.235.278.284.306v.019m-.44-1.534c-.074-.063-.17-.174-.271-.181-.079-.006-.117.049-.168.093-.125.108-.214.331-.172.508.03.053.056.107.085.16.051.153.03.179.149.297.162-.077.631-.422.583-.641-.022-.094-.14-.178-.206-.236m.085-1.038h-.019c0-.032-.068-.013-.092-.006-.286.06-.595.133-.358.482.045-.006.084-.008.118-.035.067-.05.086-.125.135-.186.073-.093.182-.139.216-.255m-1.31 2.41c.001 0 .137.165.19.189v.02c.237-.156.431-.432.185-.683-.05-.05-.128-.117-.195-.128-.222-.032-.128.239-.131.356-.003.088-.028.169-.049.246m.436.358v.057c.039.01.078.02.115.03.237.035.39.069.587.175.062-.018.158-.018.196-.079.107-.166-.391-.506-.538-.49-.161.018-.247.211-.36.307m-.292-1.57c.036-.01.071-.021.106-.03.091-.055.421-.37.43-.468.012-.106-.267-.302-.357-.321-.075-.015-.096.061-.118.115-.087.218-.151.455-.061.704m-.386.2c-.185-.045-.145.311-.14.428.136-.045.412-.359.14-.428"/>
    <path fill="#fff" d="M579.425 244.844c.091-.127.632-.726.6-.839-.009-.028-.042-.031-.067-.037-.165-.002-.328-.006-.492-.006-.289 0-.579.004-.87.004 0 .008 0 .012.001.02h-.019c0 .063.051.12.077.17.091.17.447.653.423.828-.007.058-.05.102-.103.121-.228.078-.502.011-.751.019-.131.007-.432.073-.548.02-.249.002-1.113.124-1.215-.095-.026-.052.009-.113.031-.157.102-.199.257-.383.391-.565.074-.111.146-.223.218-.332v-.019c-.019-.008-.038-.014-.056-.021-.533.004-1.061.026-1.59.028v.038c.019 0 .774.914.859 1.019 0 .024-.007.024-.02.038-.094.01-.191.023-.285.035-.157.007-.314.015-.472.024-.453.01-.93-.017-1.362.027.001.053.645.675.732.764.548.577 1.119 1.13 1.692 1.694.197.203.393.403.59.603.063.062.121.129.202.157 0 .011 0 .025.001.038.127-.065.238-.195.342-.301.172-.175.343-.353.512-.528.108-.101.217-.2.325-.301.486-.506 1.004-.986 1.501-1.488.204-.206.471-.417.63-.656-.037-.005-.074-.011-.113-.018-.156 0-.314.003-.472.004-.06.002-.134.019-.189 0-.216.002-.47.029-.644-.052-.002-.083.096-.172.141-.236m7.542-6.26c-.061 0-.14-.009-.188-.038-.095.001-.285-.049-.36-.092-.172 0-.32-.071-.476-.101-.107-.02-.221-.041-.32-.06-.075-.008-.162-.006-.228-.042-.043-.005-.088-.011-.131-.018-.045-.005-.089-.012-.133-.017-.114.001-.255.017-.341-.037-.044-.006-.089-.012-.134-.017-.183 0-.406.028-.548-.055-.068 0-.15.007-.209-.017-.086 0-.151.021-.226.039 0-.039-.227-.071-.265-.094-.127.001-.287.024-.397-.015-.044-.007-.089-.012-.132-.019-.127.001-.28.014-.381-.036-.084.002-.178-.004-.245-.037-.123 0-.437-.032-.512.029-.121.096-.053 1.299-.048 1.525-.004.116-.011.228-.015.343-.005.119.036.522-.171.455-.115 0-.364.027-.451-.017-.125.001-.456-.025-.529.043-.13.124-.202.573-.269.753-.103.264-.268.529-.304.82-.004.03-.012.081.008.104.054.064.306.053.402.053.222-.003 1.237-.005 1.32.138.051.093.03.389.021.507.008.183.017.365.023.55.009.281-.055.61.03.87.645-.696 1.376-1.334 2.04-2.027.063-.078.123-.155.186-.231.165-.167.35-.316.522-.483.458-.452.883-.938 1.33-1.391.344-.347.704-.688 1.048-1.035.063-.063.174-.137.204-.224.026-.065-.085-.099-.121-.126m-1.249 17.972c.105.122.209.246.315.369.121.128.262.227.388.347.165.169.33.339.495.508.188.178.375.357.561.537.366.379.729.758 1.095 1.137.562.536 1.135 1.066 1.65 1.643.133.149.329.273.432.439.093-.128.027-.466.037-.643.024-.419.004-.872.009-1.307.01-.22.019-.44.029-.66-.013-.228-.023-.454-.036-.682.01-.133.019-.267.032-.398-.004-.064-.009-.126-.011-.189.008-.076.015-.152.021-.229-.006-.062-.016-.124-.027-.188-.028-.348-.031-.699-.025-1.06.016-.183.032-.365.049-.549-.01-.101-.022-.201-.035-.302l-.006-.682c-.005-.077-.008-.15-.012-.226.004-.146.039-.296.036-.435-.005-.201-.053-.412-.05-.626.018-.258.034-.516.051-.776-.012-.157-.025-.314-.036-.472.008-.058.013-.114.021-.172.003-.17-.013-.343-.018-.508.007-.121.017-.241.024-.362 0-.093-.023-.179-.03-.264-.012-.181-.001-.365.02-.531.034-.262.024-.605-.004-.869-.009-.063-.018-.126-.028-.191-.009-.158.03-.299.028-.454-.01-.088-.022-.174-.033-.264.004-.093.009-.187.012-.283-.004-.127-.012-.252-.019-.38-.002-.119.074-.799-.04-.799-.073.001-.677.66-.778.761-.754.763-1.519 1.539-2.267 2.297-.12.121-.222.263-.338.377-.107.101-.214.206-.321.307-.054.064-.11.13-.163.193-.725.713-1.46 1.437-2.187 2.148-.13.128-1.074 1.072-1.076 1.135.002.017.006.035.007.053.074.177.37.376.519.517.161.153.279.325.429.478.135.14.284.274.421.411.051.043.102.087.154.13.119.121.236.244.354.365.117.117.233.232.351.349m-4.35 10.543c.061.044.128.059.183.12.038.057.076.115.114.173.102.148.208.273.332.405.044.039.089.08.134.121.083.044.225.023.328.022.216-.001.429.009.623.029.097.011.184.005.266.041.145-.002.289-.005.433-.008.165-.019.338-.058.513-.058.153-.002.285.056.436.051.05-.01.101-.016.151-.024.182-.022.41-.022.568.027v-.019h.019c0-.024.005-.019-.019-.019-.003-.01-.007-.019-.011-.03-.182-.244-.452-.431-.666-.636l-1.213-1.192c-.091-.094-.198-.166-.287-.259-.364-.371-.692-.774-1.066-1.13-.135-.132-.27-.262-.403-.392-.077-.063-.15-.128-.224-.193-.084-.1-.168-.198-.251-.297-.226-.238-.465-.47-.706-.695-.112-.133-.225-.266-.337-.399-.251-.242-.502-.485-.751-.727-.426-.419-.846-.849-1.274-1.263-.143-.133-.267-.301-.423-.407v-.02h-.02v.02h-.02c.007.056.013.113.019.17.002.131-.023.263-.009.397.015.07.032.139.047.209.008.13-.038.238.023.35.038.071.126.098.181.153.11.108.174.247.307.334.137.092.31.119.459.19.094.05.17.129.26.186.201.131.435.244.587.452.04.083.083.165.123.248.05.071.101.143.151.216.04.098.035.209.063.314.038.142.111.272.114.439-.017.146-.035.29-.053.435-.02.188-.124.356-.236.497-.048.059-.106.117-.136.187-.036 0 0 .05.011.07.031.043.061.086.091.127.129.196.263.407.457.551.099.073.112.177.188.268.09.105.222.16.315.27.048.064.096.129.145.191.039.073.057.149.117.212.061.064.129.094.194.148.051.048.102.097.153.145m-10.965.832c.186-.001.419-.028.587.018.135-.028.288-.02.435-.023.115-.007.227-.015.342-.02.157 0 .314 0 .471.001.071-.014.14-.024.208-.038.144-.001.314.096.455.049.168-.057.312-.245.439-.375.205-.201.407-.401.608-.602.135-.145.261-.312.398-.454.17-.175.355-.3.526-.479.102-.105.162-.223.261-.326.056-.044.113-.088.17-.132.11-.091.21-.213.271-.335-.06 0-.149-.13-.19-.17-.156-.165-.279-.332-.331-.548-.014-.087-.026-.174-.039-.262-.029-.139-.065-.277-.048-.434.024-.102.048-.201.073-.303.044-.104.087-.208.131-.311.053-.116.079-.237.156-.344.06-.079.16-.107.234-.163.074-.052.103-.143.178-.198.069-.035.14-.066.21-.099.098-.065.195-.13.291-.194.131-.083.289-.139.403-.247.074-.103.148-.204.222-.307.067-.083.177-.142.225-.239.034-.067.058-.16.063-.239.004-.075-.017-.157.002-.228.038-.167.106-.406.076-.586-.151.002-.469.384-.583.496-.235.221-.471.439-.704.659-.172.181-.342.364-.513.546-.338.353-.702.681-1.035 1.027-.178.186-.361.37-.541.557-.075.087-.152.176-.227.264-.619.605-1.232 1.206-1.847 1.808-.163.177-.326.355-.49.531-.353.357-.68.711-1.048 1.05-.183.17-.569.399-.633.637.261-.001.527.015.794.013m-3.991-18.648c-.277-.257-.502-.557-.772-.816-.4-.391-.798-.78-1.195-1.17-.133-.137-.325-.277-.423-.429h-.02c0-.039-.043.068-.047.096-.002.137-.005.276-.006.416.008.416.016.832.026 1.247.002.346.007.675.003 1.002-.004.115-.01.229-.014.342.008.311.026.655.023.984-.004.139-.01.277-.015.416.004.202.019.411.02.625-.005.126-.009.251-.015.379.003.36.003.718.006 1.078-.005.107-.011.214-.016.321.013.133.025.267.036.398.011.299-.02.58-.008.871.011.22.022.44.032.662-.005.474-.027.944-.015 1.419.014.226.028.455.043.681-.008.12-.017.24-.027.36-.004.482.012.974.008 1.438-.006.101-.011.202-.015.303.007.119.015.239.023.358.001.141-.026.274-.018.419.011.081.021.162.031.244-.003.225-.011.456-.01.682.194-.071.349-.284.497-.431.329-.317.654-.635.979-.953.114-.12.225-.239.339-.36.245-.232.491-.469.712-.724.075-.087.145-.177.233-.259.161-.153.333-.293.49-.458.068-.072.103-.15.176-.219.377-.36.777-.696 1.159-1.058.364-.374.727-.749 1.089-1.125.231-.218 1.683-1.582 1.597-1.792-.026-.04-.053-.079-.08-.12-.171-.291-.569-.619-.83-.856-.09-.08-.146-.189-.233-.279-.215-.218-.427-.425-.643-.642-.297-.294-.598-.588-.897-.881-.199-.201-.394-.401-.591-.602-.05-.058-.1-.115-.149-.171-.495-.461-.988-.937-1.483-1.396m8.038-9.022c-.163 0-.708.038-.804-.027-.038-.026-.042-.074-.045-.118-.003-.506-.007-1.011-.011-1.515.003-.218.028-.536-.016-.754-.013-.053-.042-.1-.084-.134v-.02c-.156.002-.293.068-.437.091-.138.021-.282-.013-.414-.013-.101.016-.202.028-.304.04-.195.018-.391.037-.586.056-.076.009-.196.018-.265-.011-.451.003-.87.093-1.305.134-.201.023-.397.019-.583.053-.159.027-.318.051-.475.079-.069.015-.139.031-.21.046-.098.005-.199.009-.3.015-.228.041-.456.082-.684.122-.174.025-.395.028-.545.103h-.021v.038c.03 0 .014-.008.028.014.103.161.296.335.44.466.133.132.265.264.397.399.202.201.421.38.628.584.102.099.204.199.306.299.083.091.167.185.251.279.52.498 1.052.984 1.561 1.503.314.32.604.659.925.966.448.431.891.851 1.316 1.299.122.127.248.255.372.384.08-.115.032-.552.019-.701-.02-.241-.025-.483-.027-.738 0-.161-.02-.329.03-.468.047-.135.142-.251.224-.371.044-.069.068-.16.148-.205.116-.063.481-.079.632-.073.268.011.545.029.834.028-.002-.184-.119-.411-.18-.572-.114-.288-.229-.574-.336-.865-.041-.108-.078-.254-.156-.344-.057-.061-.136-.02-.208-.05-.04-.007-.077-.011-.115-.019m3.414-3.757c-.064-.08-.131-.157-.198-.239-.164-.167-.334-.322-.442-.523h-.017c-.117.129-.234.258-.35.387-.114.102-.345.234-.479.301v.019h-.019v.017h.019c0 .033.03.022.056.025.069.016.14.031.209.044.223.007.443.015.662.021.012.037.021.076.031.113.01.095.018.19.026.284-.008.087-.019.176-.029.265.006.088.01.176.013.265-.002.189-.025.394-.01.587.023.107.046.215.07.322.023.131.058.291.148.386.092.102.217.093.334.141.037-.019.08-.039.093-.083.04-.126.01-.293.009-.43.005-.327.008-.654.011-.983.012-.077.062-.144.095-.212.047-.108.091-.213.139-.319.018 0 .02.001.013-.014-.084-.158-.254-.265-.384-.374"/>
    <path fill="#fff" d="M577.782 243.991c0 .053.412.652.473.724.031.038.077.068.12.086v.02c.094-.001.19-.002.285-.002-.003-.117-.45-.777-.567-.826-.082-.038-.195-.019-.292-.022v.02h-.019m-2.884.056c-.106-.044-.265-.017-.389-.02.002.171.696.67.836.81h.286c-.002-.14-.597-.732-.733-.79m5.162-3.734c-.121-.054-.285.051-.353.139-.073.1-.099.213-.137.327-.059.181-.119.368-.189.546-.047.12-.138.281-.12.422.011.088.094.124.156.169.054-.013.094-.029.126-.077.036-.057.049-.119.071-.184.059-.176.117-.347.168-.53.059-.206.146-.416.235-.61.013-.032.107-.175.043-.202"/>
    <path fill="#fff" d="M574.067 242.698c.076.132 1.535.019 1.777.018.378-.003.712.05 1.082.05.49-.003 1.013-.041 1.513-.043.254-.002.532.007.795.015.596.017 1.215-.012 1.796-.015.001.005.001.013.001.019.031 0 .034.168.034.208.002.379.01.774.012 1.172.001.274-.007.552.04.796.309-.163.272-.551.283-.891.004-.211.018-.455.011-.681-.011-.122-.023-.241-.034-.36-.011-.18.042-.383-.026-.548v-.039h-.019c0 .036-.117.021-.151.021-.3.002-.581-.016-.89-.013-.134 0-.321.028-.435-.017-.114 0-.262.022-.36-.017-.348.001-.677.003-1.021.026-.154.012-.363.082-.511.021-.254 0-.504.021-.757.013-.055-.003-.125.014-.171-.008-.143 0-.461.056-.568.002-.083 0-.177.011-.246-.018-.239.003-.48.005-.718.009-.144.007-.303.012-.454.02-.052 0-.102-.001-.154-.001-.055-.007-.111-.012-.169-.019-.279.002-.504-.065-.64.174-.012.023-.037.076-.02.106m7.216-4.727c-.057-.079-.227-.099-.318-.112.004.474-.024.979-.005 1.461.005.137-.02.298.009.429.008.045.033.065.064.098.098-.002.188 0 .265-.04.027 0 .034-.202.027-.245-.016-.103.008-.206.008-.322-.001-.17-.028-.321-.02-.491.012-.176.064-.644-.03-.778m-5.545-1.078c-.196.02-.378.159-.554.234-.14.057-.301.084-.429.161h-.019v.02h.019c0 .026-.005.019.019.019.278-.002 1.585-.051 1.704.066.059.058.058.3.058.397.004.611-.069 1.43.493 1.743.082.047.167.055.257.089.155 0 .538-.057.519-.265-.004-.05-.063-.05-.107-.057-.37-.044-.443-.246-.596-.534-.125-.233-.105-.635-.111-.942-.007-.299-.022-.584-.024-.887h-.017c0-.036-.187 0-.228-.019-.104.001-.193-.028-.285-.033-.234.003-.468.005-.699.008m2.87.126c-.088.075-.152.247-.162.363.094-.001.202-.009.285.017.218-.001.434-.015.642-.022v-.039c-.07.001-.157-.055-.215-.081-.173-.078-.35-.156-.524-.236 0-.023-.01-.015-.026-.002"/>
    <path fill="#fcd213" d="M572.061 252.557c.003.17.037.35.038.528-.013.196-.023.391-.033.587-.004.324.034.634.041.946-.01.19-.021.38-.029.569.005.144.011.289.016.434-.011.145-.023.292-.033.437.002.235.07.441.075.68-.008.132-.019.266-.031.399.006.075.009.15.015.226.01.281.044.547.045.832.001.193-.03.489.02.658.051.176.568.763.747.832v.019c.038-.145.017-.341.001-.491-.019-.182-.031-.373-.025-.568.011-.125.022-.252.033-.379.001-.239.002-.48.004-.718-.008-.109-.018-.215-.026-.323l.015-.378c-.008-.335-.026-.717-.017-1.061.01-.373-.041-.767-.031-1.134l.033-.417c.002-.284.004-.568.005-.851-.009-.133-.02-.265-.031-.398l-.003-.661c-.001-.267.035-.737-.041-.959-.025-.071-.112-.117-.152-.178-.061-.084-.123-.168-.184-.254l-.184-.175c-.063-.119-.126-.241-.187-.36h-.018v-.019h-.02c.001.357-.053.741-.057 1.098-.004.21.032.439.044.641.008.157-.032.29-.03.438m.357-2.347c.092.224.168.292.351.448.1.088.184.198.294.267.485.315 1.245.313 1.844.188.115-.032.23-.065.344-.097.382-.073.726-.117 1.05-.308.212-.124.385-.297.58-.456.05-.034.103-.066.153-.097.09-.068.183-.213.308-.21.177.001.289.229.421.323.147.107.292.222.456.301.446.215.891.439 1.382.561.179.04.356.082.532.124.102.018.212.006.303.043.15-.002.301-.005.452-.008.251-.04.513-.163.709-.312.087-.097.173-.191.259-.289.139-.149.29-.308.314-.515h-.02c0-.036-.149-.019-.189-.019-.397.002-.793.004-1.191.007-.146 0-.341.027-.454-.035-.132.001-.316.081-.436.022-.043-.007-.088-.013-.132-.018-.149 0-.332.023-.455-.036-.064 0-.138-.012-.189-.038-.128.001-.397.034-.493-.016-.057-.005-.113-.011-.17-.017-.057-.008-.113-.013-.171-.018-.09 0-.209-.013-.264-.074-.032 0-.007-.101-.005-.134.008-.335-.241-.639-.587-.637-.28.002-.499.203-.554.458-.016.088.006.211-.05.281-.024.029-.07.048-.111.039-.133.007-.264.014-.397.022-.03-.008-.063-.013-.094-.019-.311.001-.587.04-.909.042-.081.001-.2.016-.265-.017-.227.002-.445.022-.68.022-.112.001-.254.013-.341-.036-.333.002-.673.029-1.003.025-.118 0-.281.028-.379-.017-.102.001-.202.002-.284.041 0 .078.044.144.071.209m10.303 7.51c-.002.178-.034.359-.048.53-.005.095-.011.189-.016.286-.004.036.011.206-.023.207v.018h-.057c-.038-.371-.018-.779-.026-1.173-.004-.152-.072-.265-.084-.398.002-.075.003-.152.006-.227-.008-.068-.013-.138-.02-.208-.091-.012-.156.011-.178.101-.027.127.035.234.032.354-.01.082-.017.165-.028.248-.005.448.037.923.033 1.362-.009.076-.015.152-.024.226-.011.039-.021.076-.028.115h-.061v-.019h-.018c-.011-.321-.047-.609-.063-.927-.013-.056-.024-.113-.037-.17h-.056c-.1.249-.069.577-.073.871-.002.159.016.321-.033.454-.057-.103-.053-.208-.064-.338-.012-.152-.023-.333-.015-.493.01-.169.041-.356.028-.532-.094-1.084-.044-2.148-.05-3.254-.007-.219-.012-.44-.015-.66-.017-.189-.047-.392-.049-.589-.001-.272.018-.563.013-.851-.005-.27-.036-.572-.02-.851.002-.037.009-.134.054-.134v-.018h.019v.018h.017c.051.16.034.348.042.53.011.298.049.6.04.909-.004.193-.046.435.021.62.011.03.035.041.07.03.074-.019.09-.131.1-.197.038-.231-.005-.458-.017-.7-.003-.19-.004-.379-.006-.568-.001-.208-.014-.428.009-.625.011-.109-.013-.215.018-.317.019-.059.032-.195.118-.195.02.312.032.665.033.985-.005.151-.014.302-.022.455.015.149.028.302.043.452.015.101.03.203.046.304.001.141-.042.276-.061.398-.027.204-.022.422-.02.643.001.116.001.235.031.337.011.035.066.065.066.097h.017c.068-.058.11-.118.123-.21.033-.231.017-.519.002-.755-.007-.083-.034-.153-.032-.246.002-.209.055-.429.061-.644-.006-.087-.009-.175-.014-.265l-.006-1.117c-.001-.277.024-.573.053-.835-.006-.05-.013-.099-.021-.15h.076c.076.163.054.367.062.569.007.214.039.459.014.679-.02.146-.042.291-.063.438.004.153.052.292.056.453.005.238-.036.45-.035.682.016.245.03.491.043.737 0 .189.002.378.001.567-.009.077-.02.152-.029.228-.003.12.031.218.035.34l-.015.587c0 .3.02.598.022.909.003.32.027.62.023.927m-.672-2.914c-.008-.018-.119-.176-.118-.072-.027.056-.02.143-.02.209-.005.173-.003.369-.007.549 0 .238-.002.479-.003.717.001.195-.017.397.059.549.057-.027.102-.076.118-.136.056-.209.012-.448.011-.678-.002-.313.078-.863-.04-1.138m.05 2.765c0-.007 0-.013-.001-.018-.149.029-.173.145-.093.265.078-.038.166-.247.094-.247m.288-2.328h-.036c-.061.15-.039.294-.039.473.003.225-.047.453.061.644.06-.013.106-.03.133-.087.056-.128.048-1.033-.119-1.03"/>
    <path fill="#fee884" d="M581.536 255.702c-.011.113-.022.226-.033.341-.004.474.022.961.025 1.417l-.015.438c-.005.361.002.711-.017 1.059-.021.109-.039.216-.059.325-.02.124.005.265.013.394 0 .043.012.17-.041.171-.092.043-.196.023-.301.029-.124.007-.245.031-.378.032-.144-.05-.319-.035-.472-.063-.7-.131-1.355-.233-1.961-.555-.149-.08-.309-.164-.422-.301-.087-.103-.089-.233-.109-.369-.049-.323-.048-.668-.06-1.023-.012-.177-.025-.355-.038-.531-.003-.257-.004-.516-.007-.775-.011-.101-.023-.202-.035-.302-.022-.24-.016-.506-.025-.739-.013-.362.009-.731.016-1.079.007-.333-.013-.692-.009-1.04.008-.094.015-.188.023-.285-.008-.056-.014-.113-.021-.17-.001-.16.03-.316.028-.492-.002-.465-.015-1.064.172-1.435.009-.018.067-.101.067-.061.209.081.396.243.592.351.173.095.362.152.537.245.212.112.322.191.597.188.078.051.312.094.418.094.045.005.088.011.131.017.039.006.076.011.113.019.201.099.67.008.873-.043.099-.026.201-.05.302-.077.048.292.001.624-.006.909.009.163.02.327.031.491.002.205-.013.413-.009.606.01.102.021.203.031.303.013.238-.001.467.012.7.007.136.028.279.031.416.006.262.013.526.006.795m-3.512-.711c.455.424 1.046.632 1.602.859.176.072.382.2.59.198.071.055.229.133.321.132v.019c.111-.018.194-.065.197-.19.004-.108-.051-.194-.133-.25-.166-.11-.365-.129-.556-.194-.213-.071-.436-.152-.651-.218-.149-.045-.295-.076-.437-.133-.255-.103-.509-.235-.745-.378-.084-.05-.17-.13-.276-.134-.027 0-.055.002-.073.02-.089.091.108.223.161.269m2.642-1.543c-.153-.092-.358-.092-.54-.131-.164-.034-.327-.085-.493-.124-.564-.128-1.031-.355-1.512-.643-.06-.034-.218-.186-.278-.074-.043.076.073.156.121.198.188.164.38.273.583.401.227.141.453.266.701.362.08.043.158.086.239.13.309.122.63.198.944.305.088 0 .182-.002.254-.039.153-.08.113-.307-.019-.385m.031 4.628c-.072-.05-.179-.071-.263-.096-.215-.064-.428-.131-.642-.196-.293-.091-.594-.202-.869-.337-.193-.112-.385-.224-.581-.337-.032-.016-.296-.155-.296-.083h-.021c.026.2.255.335.412.427.074.053.151.106.227.162.192.122.398.242.602.336.216.101.444.156.671.233.078.034.155.068.231.102.103.036.205.073.307.107.078-.001.17.007.24-.017.148-.052.076-.232-.018-.301m-3.51.149c-.027.279.009.574-.147.785-.296.4-.701.545-1.134.708-.114.04-.228.08-.346.12-.129.025-.26.049-.392.073-.2.05-.432.093-.646.103l-.907.009c-.091-.041-.238-.027-.297-.116-.058-.089-.028-.433-.028-.564-.003-.512-.025-1.024-.028-1.552-.002-.309-.005-.618-.008-.927-.017-.258-.035-.517-.052-.776-.007-.185.067-.353.063-.549-.009-.379-.016-.796-.024-1.192-.014-.164-.025-.328-.04-.491-.005-.337.02-.652.013-.985-.013-.164-.026-.328-.038-.491-.002-.159.047-.291.046-.435-.001-.171-.033-.333-.034-.511.069-.001.139-.002.208-.002.053.025.125.038.189.038.053.025.126.035.19.035.045.008.089.013.132.018.18.08.67-.021.853-.051.234-.04.451-.031.678-.08.266-.055.671-.21.902-.346.083-.048.548-.408.59-.408v.017c.121.201.109.395.144.642.038.28.044.564.055.87.015.436.041.882.044 1.326-.004.188-.008.379-.013.567.02.545.016 1.074.028 1.609.016.835.072 1.724-.001 2.556m-.688-5.743c-.323.153-.669.275-1.017.384-.121.038-.246.054-.373.079-.184.038-.377.092-.57.122-.215.033-.435.042-.641.087-.024.009-.047.019-.071.028-.17.094-.173.426.074.423v.02c.154-.001.267-.04.399-.069.137-.029.277-.042.411-.076.115-.041.229-.083.343-.124.337-.108.645-.22.961-.37.075-.028.15-.056.224-.081.181-.081.442-.272.572-.427.049-.057.129-.091.129-.175-.158-.021-.312.119-.441.179m.454 2.072c-.015-.005-.027-.01-.041-.014-.008-.001-.013-.004-.019-.004-.133-.019-.666.417-.828.493-.19.09-.387.163-.583.239-.263.101-.52.218-.815.257-.114.014-.226.03-.341.045-.154.007-.396-.027-.51.064-.14.113-.049.414.136.413v.018c.836-.059 1.559-.441 2.239-.822.182-.104.656-.389.752-.581.011-.021.046-.108.01-.108m.072 2.364c-.021-.041-.09-.043-.132-.035-.111.024-.196.126-.291.183-.11.062-.22.123-.33.186-.588.298-1.252.47-1.893.648-.185.051-.426.039-.584.139-.131.082-.133.258-.019.354.275 0 .497-.088.74-.161.073-.014.148-.029.218-.044.16-.043.313-.109.463-.17.135-.046.269-.094.404-.14.063-.036.13-.072.192-.105l.553-.26c.115-.055.748-.448.679-.595"/>
    <path fill="#287ac8" d="M565.077 267.988c-.244-.071-.772.024-.882-.087-.091-.093-.06-1.994-.083-2.36-.038-.604-.019-1.309.002-1.903.007-.258-.023-.571.081-.811.134-.305.931-.994 1.193-1.27 1.077-1.143 2.252-2.237 3.364-3.347.72-.687 1.438-1.374 2.157-2.06.046-.045.216-.232.216-.149h.091c.066.273.042.601.042.908 0 .719-.046 1.396-.046 2.084.017.001.032.001.046.001v.046c.177.005.396-.016.537.057.648.347.771 1.214 1.684 1.215.174.077.47.045.681.045 1.012.001 1.876-.177 2.644-.653.055-.036.212-.089.212-.161.06.102.032.207-.03.296-.219.314-.588.555-.865.806-.326.339-.652.677-.979 1.017-.172.16-.344.319-.516.478-1.465 1.462-2.932 2.984-4.398 4.401-.374.36-1.13 1.176-1.569 1.362-.188.079-.668.071-.96.038-.437.016-.866 0-1.304.017-.427.037-.909-.034-1.318.03m22.15-.021c-.33-.029-.892.084-1.167-.079-.399-.233-.865-.791-1.183-1.12-.254-.258-.509-.517-.767-.775-1.449-1.45-2.944-2.867-4.343-4.361-.365-.388-1.844-1.759-1.843-2.178h.134v.046c.504.179.944.498 1.541.498.117.068.258.093.409.093.201.091.528.046.771.047.268 0 .659.055.873-.06.159-.083.209-.259.301-.395.317-.454.779-.679 1.367-.678.03-.933.005-1.918.005-2.856.016-.181.029-.364.042-.545h.047c1.388 1.299 2.634 2.747 4.02 4.048.677.638 1.36 1.3 2.058 1.976.278.271.864.731 1.06 1.054.25.417.122 1.132.122 1.657 0 .509.086 3.327-.055 3.457-.115.106-.658.077-.943.085-.815.024-1.662.042-2.449.086m-3.768-14.493c-.07-.296.002-.592-.007-.906-.029-.997.01-1.971.011-2.995-.829.078-1.787.071-2.676.041-.596-.019-1.208-.111-1.814-.102-.097.002-.497-.006-.497-.078-.051-.087-.115-.454-.227-.454.157-.485.68-.869 1.05-1.214.154-.164.306-.33.46-.494.217-.19.436-.381.652-.572.229-.255.458-.51.685-.763.345-.366.741-.663 1.083-1.006.345-.364.69-.728 1.034-1.094.522-.489 1.06-1.001 1.582-1.505.324-.313.682-.569.981-.921.221-.216.444-.435.665-.651.245-.244.47-.509.735-.761.249-.233.563-.634.841-.797.131-.076.329-.096.499-.096.181.076.363.152.542.228.415.17.914.505 1.189.889.367.519.312 1.203.333 1.878.025.778.029 1.616.018 2.405-.01.55.138 1.284-.088 1.748-.121.248-.481.52-.677.716-.333.331-.671.633-1.004.947-.525.549-1.048 1.097-1.574 1.646-.32.331-.668.613-.992.958-.733.777-1.43 1.586-2.2 2.331-.21.203-.35.5-.604.622m-12.286-.103v-.045c-.246-.111-.483-.399-.68-.587-.571-.532-1.114-1.171-1.689-1.713-.501-.47-.992-.963-1.494-1.451-.591-.575-1.226-1.239-1.781-1.852-.341-.375-1.401-1.212-1.53-1.665-.007-.029-.012-.056-.017-.082-.129-.867-.059-1.731-.058-2.631.002-1.625-.327-3.478 1.257-4.247.365-.177 1.03-.542 1.28-.303.781.744 1.617 1.508 2.397 2.254.291.283.549.642.833.934.275.289.603.541.888.837.289.3.525.62.8.923.359.321.717.644 1.074.965.245.271.491.538.735.806.339.328.678.653 1.016.98.453.455.876.919 1.361 1.358.316.289.719.591.953.951.063.1.062.229.008.33-.115.207-.379.248-.593.279-.494.072-.959-.017-1.447-.026-1.088-.001-2.176-.003-3.265-.004-.001 1.052.095 2.099.046 3.13-.014.276.055.655-.094.859"/>
    <path fill="#ee293d" d="M576.004 274.868c-.286-.034-.574-.069-.861-.103-.249-.04-.493-.083-.763-.093-.587-.113-1.176-.225-1.763-.338-.826-.169-1.609-.517-2.367-.83-1.42-.586-2.758-1.266-4.047-2.116-.305-.2-2.435-1.693-2.435-1.925.347-.028.696-.056 1.042-.083.836-.049 1.709-.017 2.541-.017.513-.025 1.026-.052 1.541-.078.202.095.525.046.771.046.702.001 1.37-.044 2.04-.043.345.145.902.018 1.269.005 1.133 0 2.267 0 3.4-.001 1.27-.029 2.54-.057 3.81-.086 2.342.032 4.685.064 7.027.095.175.064.435.002.636.002.407-.01.816-.023 1.222-.034.212.01.423.02.636.031.398-.011.839-.051 1.268-.038.094.004.36-.015.456-.015.288 0-.23.411-.319.511-.296.333-.624.564-.974.796-.209.165-.418.331-.628.496-.427.286-.856.571-1.284.858-2.678 1.616-5.264 2.571-8.592 2.9-.483.01-.964.019-1.449.029-.702.011-1.461.032-2.177.031m-13.364-6.451c-.291-.297-.723-.729-1.014-1.025-.605-.814-1.208-1.627-1.812-2.441-1.271-2.142-2.046-4.37-2.594-6.869-.089-.399-.087-.795-.126-1.218-.195-2.059-.252-4.374.077-6.404.09-.336.18-.671.269-1.004.102-.555.184-1.066.356-1.581.176-.428.35-.853.524-1.279.208-.627.526-1.19.824-1.769.707-1.376 1.525-2.684 2.522-3.927.145-.18.508-.685.766-.685v.045c.201.38.061 1.531.047 1.997-.002.785-.005 1.569-.006 2.356 0 .702-.028 1.444.006 2.176.072 1.563.01 3.182.034 4.763.019 1.336.088 2.712.087 4.079-.002 1.285-.077 2.695.032 3.94-.01.139-.02.276-.031.416l-.003 1.177.066 1.628c-.036 1.168-.028 2.355-.067 3.542-.029.833.075 1.635.043 2.083m29.906-.127c-.064-.8.068-2.04.057-2.881-.029-1.812-.036-3.613-.035-5.489.003-3.062.004-5.841.007-8.797.001-1.654-.083-3.304-.001-4.985-.006-.681-.011-1.362-.018-2.042.001-1.25.145-2.557-.118-3.759-.017-.073-.179-.61-.05-.61.428 0 2.394 2.838 2.669 3.291.198.362.396.723.594 1.084.108.246.218.492.327.739.382.678.82 1.501 1.075 2.246.538 1.574.861 3.192 1.086 4.926.075.569.052 1.119.062 1.72.014.317.028.635.041.951-.027 1.698-.226 3.494-.664 5.005-.434 1.491-1.109 2.943-1.853 4.288-.26.468-.583.899-.871 1.356-.389.61-2.053 3.148-2.308 2.957m-2.729-30.724c-1.162-.874-3.578-.966-5.115-1.154-.394-.05-.788-.101-1.183-.15-1.918-.092-4.444-.27-5.134-2.24-.07-.213-.063-.257-.135-.469-.032-.188.856-.01 1.263-.01.117.059.309.046.454.046.09.015.181.03.272.045.226.125.575.137.861.138.19.095.447.09.681.09.248.137.857.229 1.177.229.542.186 1.085.372 1.625.56 1.537.623 3.169 1.25 4.482 2.302.194.155.44.206.752.613m-23.891-.386c.341-.41.825-.505 1.249-.793.242-.179.596-.363.835-.539.93-.446 1.632-.81 2.58-1.125 1.044-.347 2.065-.676 3.188-.881.379-.07 2.967-.54 3.064-.298.155.393-.688 1.352-.982 1.601-.273.232-.605.379-.906.544-.288.159-.63.251-.949.337-.422.117-.831.252-1.28.327-.431.074-.856.077-1.31.12-.396.063-.789.128-1.184.192-.512.069-1.025.062-1.536.125-.937.118-1.813.333-2.769.39"/>
  </g>
</svg>
