<?xml version="1.0" encoding="UTF-8"?>
<svg width="118px" height="24px" viewBox="0 0 118 24" version="1.1" xmlns="http://www.w3.org/2000/svg" xmlns:xlink="http://www.w3.org/1999/xlink">
    <!-- Generator: Sketch 43.1 (39012) - http://www.bohemiancoding.com/sketch -->
    <title>Group</title>
    <desc>Created with Sketch.</desc>
    <defs></defs>
    <g id="Round-2" stroke="none" stroke-width="1" fill="none" fill-rule="evenodd">
        <g id="User-has-added-photo-loading-state-" transform="translate(-362.000000, -657.000000)">
            <g id="Group" transform="translate(362.000000, 657.000000)">
                <g id="v_logo" fill-rule="nonzero" fill="#000000">
                    <path d="M14.8794308,22.7300685 C15.8899983,21.5441977 17.3077579,19.4779613 18.1888283,17.9069664 C18.911788,16.6178906 19.8252982,14.6775521 20.3481527,13.3204582 C20.9652476,11.7187603 21.5896601,9.54369866 21.7641046,8.38817052 C21.8024572,8.13412175 21.8516177,7.90473245 21.8733511,7.87841588 C21.9216173,7.81997138 22.1161965,8.46642216 22.2961604,9.28311506 C22.4225595,9.85672659 22.4297521,9.99350876 22.4297521,11.8236028 C22.4297521,13.675657 22.4238287,13.7848224 22.2903323,14.3929597 C21.7715515,16.7562473 20.5748412,18.8869012 18.8566751,20.5063311 C17.8639555,21.4420025 16.5192045,22.3168645 15.3984771,22.7561489 C14.5592654,23.0850895 14.5761676,23.0859389 14.8794308,22.7300685 L14.8794308,22.7300685 Z M10.4966026,22.4618057 C9.9512611,22.1794836 9.80417641,21.4215175 9.9307935,19.5460371 C9.99268718,18.6292525 10.2532938,16.031001 10.285468,16.0099253 C10.2931122,16.0049194 10.5623201,15.9415573 10.8837081,15.869124 C11.6165825,15.7039507 12.9055347,15.2680013 13.7379707,14.9037548 L14.3748653,14.6250714 L14.3383013,14.2093027 C14.2809907,13.5576185 14.0607237,12.9193879 13.7571024,12.525259 L13.6526799,12.3897089 L13.2059407,12.6211566 C12.9602347,12.7484523 12.5965773,12.921922 12.397814,13.0066444 C11.7383779,13.287728 10.691239,13.603491 10.6295017,13.5398761 C10.6023374,13.5118857 10.6972084,12.5799972 10.8600684,11.2750884 C11.082533,9.49260368 11.1046537,7.57097356 10.9162314,6.39619718 C10.7125404,5.12622122 10.2839764,4.11125422 9.62891716,3.34745139 C9.26835399,2.927033 8.41087966,2.39784248 7.80584493,2.22234154 C7.06866871,2.00851042 5.85913775,1.94200969 5.05254638,2.07096254 C4.83622417,2.10554666 4.64748646,2.1217388 4.63312938,2.10694508 C4.59792422,2.07066923 5.72619721,1.3816468 6.18085355,1.16176932 C7.60980485,0.470711046 8.99297735,0.113692263 10.6355713,0.0119353359 C11.7291956,-0.0558131208 13.397563,0.170746998 14.5387575,0.541978655 C15.0834781,0.719177098 16.1679587,1.19007671 16.4971102,1.3923284 L16.7252646,1.53252117 L16.3748476,1.92908207 C15.7583326,2.62678142 15.1101414,3.59991466 14.7803449,4.32291842 L14.6857458,4.53030536 L15.0472403,5.01577871 C16.3485535,6.76339524 17.1728304,8.48101784 17.4396249,10.0010142 C17.8508306,12.3437584 16.2671336,17.0779706 14.0618113,20.0984552 C13.5531823,20.7950898 12.6170796,21.7675349 12.1204772,22.1151561 C11.5280889,22.5298278 10.8907863,22.6658733 10.4966026,22.4618057 L10.4966026,22.4618057 Z M4.13560577,21.1692257 C2.69155885,20.0295248 1.4768946,18.4607944 0.697564143,16.7290184 C0.378596097,16.0202293 0.0682229099,15.0270372 0.0316967458,14.5982479 L0,14.2261524 L0.162640569,14.3546948 C0.852886255,14.9002281 1.67201796,15.3778393 2.49049587,15.711996 C2.97303482,15.9090004 4.1057939,16.1931649 4.61444534,16.2448101 C4.83396206,16.2670989 5.024717,16.3152781 5.0383462,16.351875 C5.05197595,16.3884724 4.99944895,17.0799256 4.9216197,17.888437 C4.84379102,18.696949 4.75006936,19.8456259 4.71334904,20.4410527 C4.67662928,21.0364795 4.63247658,21.523506 4.61523262,21.5233339 C4.5979881,21.5231607 4.38215618,21.3638132 4.13560577,21.1692257 L4.13560577,21.1692257 Z M4.35974251,13.9348076 C3.68731491,13.8371859 3.22222052,13.7002611 2.66375693,13.4355047 C1.67893202,12.9686197 0.820117183,12.1661275 0.421147673,11.3399707 C-0.279168981,9.88980605 -0.0618662238,8.05024466 0.951958842,6.84642415 C1.64030749,6.0290765 2.88266456,5.2007828 3.62780997,5.06240417 C4.2309244,4.95040157 4.88564183,5.12115641 5.19175435,5.47029102 C5.66825562,6.0137614 5.76131887,6.5171192 5.75791592,8.53251641 C5.75518705,10.1481633 5.71570312,10.6934922 5.43600961,12.97837 L5.31232367,13.9887912 L5.08818692,13.9984064 C4.96491172,14.0036952 4.63711173,13.9750749 4.35974251,13.9348076 L4.35974251,13.9348076 Z" id="path4147"></path>
                </g>
                <path d="M33.5669252,19.9979737 L28.2809917,5.00303951 L31.4602826,5.00303951 L35.5576057,16.6038501 L39.5196399,5.00303951 L41.6649365,5.00303951 L36.552946,19.9979737 L33.5669252,19.9979737 Z M43.2598002,19.9979737 L43.2598002,8.8733536 L46.1201957,8.8733536 L46.1201957,19.9979737 L43.2598002,19.9979737 Z M43.2598002,6.99898683 L43.2598002,4.4964539 L46.1201957,4.4964539 L46.1201957,6.99898683 L43.2598002,6.99898683 Z M49.0196316,19.6433637 L49.0196316,17.4447822 C50.4369518,18.066197 51.6480981,18.3768997 52.6531069,18.3768997 C53.8256172,18.3768997 54.4118635,17.9581264 54.4118635,17.1205674 C54.4118635,16.5802067 53.9286935,16.1073982 52.9623388,15.7021277 L51.995989,15.2968592 C50.9458837,14.8510616 50.1953595,14.3714987 49.744394,13.858156 C49.2934285,13.3448134 49.0679491,12.7098991 49.0679491,11.9533941 C49.0679491,10.8996908 49.4512641,10.0807189 50.2179054,9.4964539 C50.9845467,8.91218891 52.0571843,8.62006079 53.4358502,8.62006079 C54.2991271,8.62006079 55.3266687,8.75177173 56.5185061,9.01519757 L56.5185061,11.1225937 C55.3717653,10.7038142 54.4215308,10.4944276 53.6677742,10.4944276 C52.4823792,10.4944276 51.8896906,10.8794288 51.8896906,11.6494428 C51.8896906,12.1560309 52.3277648,12.5849358 53.2039263,12.9361702 L54.0349871,13.2705167 C55.2783634,13.7635958 56.1432378,14.263422 56.6296363,14.7700101 C57.1160348,15.2765983 57.3592304,15.9283986 57.3592304,16.7254306 C57.3592304,17.7723794 56.9453148,18.6217461 56.1174709,19.2735562 C55.2896271,19.9253663 54.2121579,20.2512665 52.8850309,20.2512665 C51.6094427,20.2512665 50.3209892,20.0486342 49.0196316,19.6433637 Z M60.094387,19.9979737 L60.094387,8.8733536 L62.9547824,8.8733536 L62.9547824,19.9979737 L60.094387,19.9979737 Z M60.094387,6.99898683 L60.094387,4.4964539 L62.9547824,4.4964539 L62.9547824,6.99898683 L60.094387,6.99898683 Z M66.1344598,24 L66.1344598,8.8733536 L68.9948552,8.8733536 L68.9948552,10.970618 C69.7292847,9.40357204 70.8856718,8.62006079 72.464051,8.62006079 C73.7396391,8.62006079 74.7430223,9.10975532 75.4742306,10.0891591 C76.205439,11.0685628 76.5710377,12.4160671 76.5710377,14.1317123 C76.5710377,15.9959566 76.1587325,17.4819262 75.3341099,18.5896657 C74.5094873,19.6974051 73.4046384,20.2512665 72.0195301,20.2512665 C70.9050011,20.2512665 69.8967862,19.7919668 68.9948552,18.8733536 L68.9948552,24 L66.1344598,24 Z M68.9948552,17.0901722 C69.6906306,17.9007133 70.4314913,18.3059777 71.2174598,18.3059777 C71.9196775,18.3059777 72.4801547,17.9496827 72.8989084,17.2370821 C73.3176621,16.5244814 73.5270358,15.5737986 73.5270358,14.3850051 C73.5270358,12.1087357 72.8280498,10.970618 71.4300567,10.970618 C70.586107,10.970618 69.7743813,11.5413655 68.9948552,12.6828774 L68.9948552,17.0901722 Z M87.491177,19.6231003 C86.1318382,20.0418798 84.8433846,20.2512665 83.6257778,20.2512665 C81.8541276,20.2512665 80.4561556,19.7244227 79.4318197,18.6707194 C78.4074837,17.617016 77.8953235,16.1783273 77.8953235,14.3546099 C77.8953235,12.6322102 78.3639984,11.2458681 79.3013624,10.195542 C80.2387264,9.14521596 81.4772524,8.62006079 83.0169774,8.62006079 C84.5695872,8.62006079 85.7034263,9.13339574 86.4185287,10.1600811 C87.1336312,11.1867664 87.491177,12.8112013 87.491177,15.0334347 L80.9103349,15.0334347 C81.1036058,17.1543504 82.2148969,18.2147923 84.2442417,18.2147923 C85.2041539,18.2147923 86.2864549,17.9817652 87.491177,17.5157042 L87.491177,19.6231003 Z M80.8716809,13.3414387 L84.6790991,13.3414387 C84.6790991,11.4434218 84.0960739,10.4944276 82.9300059,10.4944276 C81.7446109,10.4944276 81.0585094,11.4434218 80.8716809,13.3414387 Z M96.7298677,19.9979737 L96.7298677,17.9007092 C95.9954382,19.4677552 94.8390511,20.2512665 93.2606719,20.2512665 C91.9850838,20.2512665 90.9833112,19.7615719 90.255324,18.7821682 C89.5273369,17.8027644 89.1633487,16.4552602 89.1633487,14.739615 C89.1633487,12.8753706 89.5740433,11.389401 90.3954447,10.2816616 C91.2168462,9.17392219 92.3200845,8.62006079 93.7051928,8.62006079 C94.8132795,8.62006079 95.8214943,9.07936049 96.7298677,9.99797366 L96.7298677,4 L99.5999266,4 L99.5999266,19.9979737 L96.7298677,19.9979737 Z M96.7298677,11.781155 C96.0405347,10.970614 95.3028951,10.5653495 94.5169266,10.5653495 C93.8147089,10.5653495 93.2542317,10.9199559 92.835478,11.6291793 C92.4167243,12.3384027 92.2073506,13.2907742 92.2073506,14.4863222 C92.2073506,16.7625916 92.9031155,17.9007092 94.2946662,17.9007092 C95.1450583,17.9007092 95.956784,17.3299618 96.7298677,16.1884498 L96.7298677,11.781155 Z M102.769941,19.9979737 L102.769941,8.8733536 L105.630336,8.8733536 L105.630336,19.9979737 L102.769941,19.9979737 Z M102.769941,6.99898683 L102.769941,4.4964539 L105.630336,4.4964539 L105.630336,6.99898683 L102.769941,6.99898683 Z M114.008975,18.8024316 C113.055505,19.7683263 112.034406,20.2512665 110.945646,20.2512665 C110.017946,20.2512665 109.264201,19.9540725 108.684388,19.3596758 C108.104575,18.765279 107.814673,17.9952766 107.814673,17.0496454 C107.814673,15.8203248 108.283348,14.8730192 109.220712,14.2077001 C110.158076,13.542381 111.499678,13.2097264 113.245559,13.2097264 L114.008975,13.2097264 L114.008975,12.1965552 C114.008975,11.0415342 113.380854,10.4640324 112.124593,10.4640324 C111.010064,10.4640324 109.882667,10.7949984 108.742369,11.4569402 L108.742369,9.39007092 C110.037284,8.87672827 111.319295,8.62006079 112.588441,8.62006079 C115.3651,8.62006079 116.753409,9.77844164 116.753409,12.0952381 L116.753409,17.0192503 C116.753409,17.8905819 117.020763,18.3262411 117.555479,18.3262411 C117.652115,18.3262411 117.777739,18.3127323 117.932356,18.2857143 L118,19.9675785 C117.394418,20.1567048 116.85971,20.2512665 116.395859,20.2512665 C115.223349,20.2512665 114.469604,19.7683263 114.134601,18.8024316 L114.008975,18.8024316 Z M114.008975,17.1914894 L114.008975,14.9321175 L113.33253,14.9321175 C111.483572,14.9321175 110.559107,15.5400142 110.559107,16.7558257 C110.559107,17.1678508 110.692784,17.5140141 110.960142,17.7943262 C111.2275,18.0746383 111.557666,18.2147923 111.95065,18.2147923 C112.620656,18.2147923 113.306758,17.8736947 114.008975,17.1914894 Z" id="Visipedia" fill="#636363"></path>
            </g>
        </g>
    </g>
</svg>