<?xml version="1.0" encoding="UTF-8"?>
<svg width="38px" height="38px" viewBox="0 0 38 38" version="1.1" xmlns="http://www.w3.org/2000/svg" xmlns:xlink="http://www.w3.org/1999/xlink">
    <!-- Generator: Sketch 43.1 (39012) - http://www.bohemiancoding.com/sketch -->
    <title>v_logo</title>
    <desc>Created with Sketch.</desc>
    <defs></defs>
    <g id="FINAL" stroke="none" stroke-width="1" fill="none" fill-rule="evenodd">
        <g id="User-has-added-photo-loading-state-" transform="translate(-22.000000, -369.000000)" fill-rule="nonzero" fill="#000000">
            <g id="v_logo" transform="translate(22.000000, 369.000000)">
                <path d="M25.1635828,37.4927257 C26.87262,35.536659 29.2702863,32.1284495 30.7603223,29.5371295 C31.982967,27.4108286 33.5278641,24.2102848 34.4120976,21.9717895 C35.4557074,19.3298257 36.5116924,15.7421114 36.8067069,13.8360943 C36.8715675,13.4170467 36.954706,13.0386743 36.9914609,12.9952657 C37.0730869,12.8988629 37.4021527,13.9651686 37.7065015,15.3122848 C37.9202633,16.2584438 37.9324271,16.4840629 37.9324271,19.502761 C37.9324271,22.5576819 37.9224097,22.7377476 37.6966451,23.7408562 C36.819301,27.6390448 34.7954655,31.1535095 31.8897619,33.8247219 C30.2109086,35.3680905 27.9367119,36.8111552 26.0413761,37.5357448 C24.6221301,38.0783248 24.6507145,38.0797257 25.1635828,37.4927257 L25.1635828,37.4927257 Z M17.7514942,37.0502324 C16.8292313,36.5845486 16.5804867,35.334301 16.7946172,32.240739 C16.8992897,30.7285238 17.3400186,26.4427676 17.3944306,26.4080038 C17.4073582,26.3997467 17.8626333,26.2952324 18.4061536,26.1757552 C19.6455658,25.9033057 21.8253974,25.1842171 23.2331846,24.583401 L24.310279,24.123719 L24.2484433,23.4379181 C24.1515215,22.36298 23.7790134,21.3102333 23.2655396,20.6601267 L23.0889439,20.43654 L22.3334337,20.8183076 C21.9179042,21.028279 21.3028993,21.3144133 20.9667576,21.454161 C19.8515419,21.9178019 18.0806566,22.4386457 17.9762485,22.3337143 C17.9303093,22.2875448 18.0907517,20.7504162 18.366175,18.597999 C18.7423996,15.6578314 18.7798092,12.4881467 18.461156,10.55038 C18.1166808,8.45558381 17.391908,6.78141905 16.2840943,5.52154381 C15.6743223,4.82807333 14.2241911,3.95518571 13.2009771,3.66570095 C11.95429,3.31299143 9.90877273,3.2033 8.54469308,3.41600476 C8.17885637,3.47305048 7.85966964,3.49975905 7.83538944,3.47535714 C7.77585168,3.41552095 9.68394824,2.27899429 10.4528474,1.91631143 C12.8694409,0.776426667 15.2086147,0.187532381 17.9865133,0.0196866667 C19.8360131,-0.0920628571 22.6574989,0.281642857 24.5874478,0.893980952 C25.5086607,1.18626571 27.342697,1.96300381 27.8993468,2.29661333 L28.2851937,2.5278581 L27.6925804,3.18197619 C26.6499513,4.33281524 25.5537527,5.93797619 24.9960122,7.13055429 L24.8360294,7.47263429 L25.4473764,8.27341143 C27.6481128,11.1560648 29.0421016,13.9892438 29.4932952,16.4964429 C30.1887122,20.3607457 27.5104182,28.16972 23.7808528,33.15194 C22.9206768,34.3010229 21.3375722,35.9050486 20.4977352,36.4784419 C19.4959083,37.1624333 18.4181241,37.3868371 17.7514942,37.0502324 L17.7514942,37.0502324 Z M6.99399457,34.9181514 C4.55187198,33.038241 2.49767348,30.4506562 1.17969654,27.5941314 C0.640268728,26.425 0.115376244,24.7867524 0.0536044489,24.0794743 L0,23.4657114 L0.27505215,23.677739 C1.44237197,24.5775838 2.82765941,25.3653924 4.21184116,25.9165762 C5.02789447,26.2415305 6.94357777,26.7102533 7.80379163,26.795441 C8.17503078,26.8322057 8.49762899,26.9116762 8.52067821,26.9720419 C8.54372839,27.0324086 8.45489652,28.1729448 8.32327437,29.5065657 C8.19165318,30.8401876 8.03315432,32.7349038 7.97105417,33.7170467 C7.90895497,34.6991895 7.83428545,35.5025286 7.80512305,35.5022448 C7.77595971,35.501959 7.41095218,35.239119 6.99399457,34.9181514 L6.99399457,34.9181514 Z M7.37304694,22.9851448 C6.23586046,22.82412 5.44930879,22.5982657 4.50485432,22.1615562 C2.83935223,21.39144 1.38695404,20.0677476 0.712230494,18.705021 C-0.472121002,16.3130076 -0.104626035,13.2786933 1.60992013,11.293019 C2.77403175,9.94482286 4.8750634,8.57857143 6.13522774,8.35031905 C7.15519417,8.16557333 8.26242984,8.44722952 8.78011682,9.02311905 C9.58595941,9.91956095 9.7433448,10.7498381 9.73758984,14.0741895 C9.73297487,16.7391619 9.66620101,17.6386695 9.19319293,21.4075229 L8.98401951,23.0741895 L8.60496714,23.0900495 C8.39648834,23.0987733 7.84212425,23.0515648 7.37304694,22.9851448 L7.37304694,22.9851448 Z" id="path4147"></path>
            </g>
        </g>
    </g>
</svg>