<?xml version="1.0" encoding="UTF-8"?>
<svg width="109px" height="20px" viewBox="0 0 109 20" version="1.1" xmlns="http://www.w3.org/2000/svg" xmlns:xlink="http://www.w3.org/1999/xlink">
    <!-- Generator: Sketch 43.1 (39012) - http://www.bohemiancoding.com/sketch -->
    <title>NVLogo_2D_H</title>
    <desc>Created with Sketch.</desc>
    <defs>
        <polygon id="path-1" points="106.176685 19.9070694 0.00673176001 19.9070694 0.00673176001 0.0315300365 53.0917082 0.0315300365 106.176685 0.0315300365"></polygon>
    </defs>
    <g id="Round-2" stroke="none" stroke-width="1" fill="none" fill-rule="evenodd">
        <g id="User-has-added-photo-loading-state-" transform="translate(-688.000000, -660.000000)">
            <g id="NVLogo_2D_H" transform="translate(688.000000, 660.000000)">
                <path d="M107.836115,16.9017853 L107.836115,16.6427025 L107.995978,16.6427025 C108.08326,16.6427025 108.202071,16.6494394 108.202071,16.7605024 C108.202071,16.8804196 108.140863,16.9017853 108.037955,16.9017853 L107.836115,16.9017853 M107.836115,17.0838747 L107.942998,17.0838747 L108.190699,17.5366922 L108.462531,17.5366922 L108.188572,17.0653 C108.330036,17.054521 108.446812,16.984457 108.446812,16.7857177 C108.446812,16.5389539 108.283066,16.4595544 108.006518,16.4595544 L107.606352,16.4595544 L107.606352,17.5366922 L107.836115,17.5366922 L107.836115,17.0838747 M109,16.9995669 C109,16.3669698 108.527807,16 108.001618,16 C107.471823,16 107,16.3669698 107,16.9995669 C107,17.631779 107.471823,18 108.001618,18 C108.527807,18 109,17.631779 109,16.9995669 M108.711987,16.9995669 C108.711987,17.4603725 108.386344,17.7696935 108.001618,17.7696935 L108.001618,17.7664213 C107.606352,17.7696935 107.286718,17.4603725 107.286718,16.9995669 C107.286718,16.5389539 107.606352,16.2306915 108.001618,16.2306915 C108.386344,16.2306915 108.711987,16.5389539 108.711987,16.9995669" id="Fill-1" fill="#1A1918"></path>
                <g id="Group-5">
                    <mask id="mask-2" fill="white">
                        <use xlink:href="#path-1"></use>
                    </mask>
                    <g id="Clip-3"></g>
                    <path d="M64.8768883,3.78847218 L64.8782346,16.8382564 L68.6157078,16.8382564 L68.6157078,3.78869344 L64.8768883,3.78847218 Z M35.4745801,3.7707711 L35.4745801,16.8382564 L39.2453755,16.8382564 L39.2453755,6.69476712 L42.1870424,6.70439208 C43.1547329,6.70439208 43.8235333,6.93306782 44.2898198,7.42371944 C44.8809806,8.0450271 45.1223142,9.04624405 45.1223142,10.8790795 L45.1223142,16.8382564 L48.7758647,16.8382564 L48.7758647,9.61843124 C48.7758647,4.46564885 45.4448777,3.7707711 42.1861448,3.7707711 L35.4745801,3.7707711 Z M70.8949695,3.7889147 L70.8949695,16.8382564 L76.957256,16.8382564 C80.1872667,16.8382564 81.2413481,16.3086625 82.3814838,15.1211417 C83.1873877,14.2871999 83.7080893,12.4570196 83.7080893,10.4570196 C83.7080893,8.62274588 83.2673834,6.9863923 82.4982799,5.96736365 C81.1137812,4.14525943 79.1188241,3.7889147 76.1405813,3.7889147 L70.8949695,3.7889147 Z M74.6024864,6.63037947 L76.2095819,6.63037947 C78.5409026,6.63037947 80.0488168,7.66279456 80.0488168,10.3414094 C80.0488168,13.0205775 78.5409026,14.0529926 76.2095819,14.0529926 L74.6024864,14.0529926 L74.6024864,6.63037947 Z M59.4880022,3.7889147 L56.3686168,14.1312092 L53.3796032,3.78957849 L49.345035,3.7889147 L53.613644,16.8382564 L59.0006228,16.8382564 L63.3028906,3.7889147 L59.4880022,3.7889147 Z M85.4473517,16.8382564 L89.1854981,16.8382564 L89.1854981,3.78957849 L85.4464542,3.7889147 L85.4473517,16.8382564 Z M95.9249996,3.79367187 L90.7058661,16.8337205 L94.3915047,16.8337205 L95.217155,14.5290408 L101.393657,14.5290408 L102.175327,16.8337205 L106.176685,16.8337205 L100.917722,3.79256555 L95.9249996,3.79367187 Z M98.3512381,6.17269609 L100.615241,12.281779 L96.015654,12.281779 L98.3512381,6.17269609 L98.3512381,6.17269609 Z" id="Fill-2" fill="#1A1918" mask="url(#mask-2)"></path>
                    <path d="M11.3690451,5.96415533 L11.3690451,4.16827083 C11.545866,4.15576944 11.724482,4.14647638 11.9064639,4.14094479 C16.8878541,3.98650293 20.1558992,8.36143379 20.1558992,8.36143379 C20.1558992,8.36143379 16.6262131,13.1955969 12.8417298,13.1955969 C12.2966816,13.1955969 11.8088534,13.1089722 11.3690451,12.9634915 L11.3690451,7.51753513 C13.3083529,7.74853413 13.698234,8.59320721 14.8643993,10.509459 L17.4574732,8.35368957 C17.4574732,8.35368957 15.5647267,5.90574179 12.3738725,5.90574179 C12.0266258,5.90574179 11.6948623,5.9298595 11.3690451,5.96415533 L11.3690451,5.96415533 Z M11.3690451,0.0315300365 L11.3690451,2.71412767 C11.5478855,2.70018807 11.7268381,2.68901427 11.9064639,2.68259763 C18.8338938,2.45248368 23.3469779,8.28465538 23.3469779,8.28465538 C23.3469779,8.28465538 18.1630739,14.5002766 12.7626316,14.5002766 C12.2678472,14.5002766 11.8044778,14.4552495 11.3690451,14.3792455 L11.3690451,16.0375041 C11.7414236,16.0841907 12.1270413,16.1116274 12.5296005,16.1116274 C17.5554203,16.1116274 21.1896732,13.5810377 24.7091495,10.5855736 C25.2923443,11.0463547 27.6813337,12.1669432 28.17264,12.6582587 C24.8260577,15.4204005 17.0278747,17.646753 12.6067914,17.646753 C12.1807831,17.646753 11.7710434,17.6213077 11.3690451,17.5832504 L11.3690451,19.9137073 L30.4708629,19.9137073 L30.4708629,0.0315300365 L11.3690451,0.0315300365 Z M11.3690451,12.9634915 L11.3690451,14.3792455 C6.7207648,13.5621197 5.43062299,8.79754398 5.43062299,8.79754398 C5.43062299,8.79754398 7.66242583,6.35922115 11.3690451,5.96415533 L11.3690451,7.51753513 C11.3662402,7.51753513 11.3643329,7.5167607 11.3618645,7.5167607 C9.41683468,7.28642549 7.89702766,9.07843788 7.89702766,9.07843788 C7.89702766,9.07843788 8.74848311,12.0952539 11.3690451,12.9634915 L11.3690451,12.9634915 Z M3.11321461,8.59110521 C3.11321461,8.59110521 5.86818739,4.5826972 11.3690451,4.16827083 L11.3690451,2.71412767 C5.2762413,3.19626065 0,8.28465538 0,8.28465538 C0,8.28465538 2.98822827,16.8034075 11.3690451,17.5832504 L11.3690451,16.0375041 C5.21902134,15.2744773 3.11321461,8.59110521 3.11321461,8.59110521 L3.11321461,8.59110521 Z" id="Fill-4" fill="#7AB547" mask="url(#mask-2)"></path>
                </g>
            </g>
        </g>
    </g>
</svg>