<?xml version="1.0" encoding="UTF-8"?>
<svg width="50px" height="37px" viewBox="0 0 50 37" version="1.1" xmlns="http://www.w3.org/2000/svg" xmlns:xlink="http://www.w3.org/1999/xlink">
    <!-- Generator: Sketch 43.1 (39012) - http://www.bohemiancoding.com/sketch -->
    <title>NVLogo_2D</title>
    <desc>Created with Sketch.</desc>
    <defs>
        <polygon id="path-1" points="0.00456553838 0.060295292 0.00456553838 9.12119104 49.4408999 9.12119104 49.4408999 4.59074317 49.4408999 0.060295292 0.00456553838 0.060295292"></polygon>
    </defs>
    <g id="Symbols" stroke="none" stroke-width="1" fill="none" fill-rule="evenodd">
        <g id="Footer" transform="translate(-181.000000, -152.000000)">
            <g id="Group-6" transform="translate(102.000000, 150.000000)">
                <g id="NVLogo_2D" transform="translate(79.000000, 2.000000)">
                    <g id="Group-4" transform="translate(0.000000, 27.393230)">
                        <mask id="mask-2" fill="white">
                            <use xlink:href="#path-1"></use>
                        </mask>
                        <g id="Clip-2"></g>
                        <path d="M48.495453,8.28113198 L48.495453,8.08070107 L48.6253426,8.08070107 C48.6961845,8.08070107 48.7927457,8.08590805 48.7927457,8.17186091 C48.7927457,8.26460549 48.7429813,8.28113198 48.6594319,8.28113198 L48.495453,8.28113198 M48.495453,8.42202223 L48.5821982,8.42202223 L48.7834624,8.77254993 L49.0042062,8.77254993 L48.7816362,8.40768418 C48.8966877,8.3993832 48.9914988,8.34512498 48.9914988,8.19133048 C48.9914988,8.00033251 48.8584894,7.93890526 48.6337888,7.93890526 L48.3087986,7.93890526 L48.3087986,8.77254993 L48.495453,8.77254993 L48.495453,8.42202223 M49.4408999,8.35674635 C49.4408999,7.86736592 49.0573186,7.58324605 48.6299081,7.58324605 C48.19953,7.58324605 47.8163292,7.86736592 47.8163292,8.35674635 C47.8163292,8.84605133 48.19953,9.13107675 48.6299081,9.13107675 C49.0573186,9.13107675 49.4408999,8.84605133 49.4408999,8.35674635 M49.20684,8.35674635 C49.20684,8.71338659 48.9423431,8.95298303 48.6299081,8.95298303 L48.6299081,8.95026634 C48.3087986,8.95298303 48.0492477,8.71338659 48.0492477,8.35674635 C48.0492477,8.00033251 48.3087986,7.76179256 48.6299081,7.76179256 C48.9423431,7.76179256 49.20684,8.00033251 49.20684,8.35674635" id="Fill-1" fill="#1A1918" mask="url(#mask-2)"></path>
                        <path d="M19.6809707,0.0722185161 L19.6818838,8.85759723 L22.1836466,8.85759723 L22.1836466,0.072369443 L19.6809707,0.0722185161 Z M0,0.060295292 L0,8.85759723 L2.52405789,8.85759723 L2.52405789,2.17764861 L4.47947798,2.17832778 C5.12717569,2.17832778 5.58852334,2.33815936 5.90065398,2.66846285 C6.29641007,3.08668126 6.45787794,3.76087167 6.45787794,4.99462352 L6.45787794,8.85759723 L8.90348467,8.85759723 L8.90348467,3.99714771 C8.90348467,0.528093183 6.67375181,0.060295292 4.49248976,0.060295292 L0,0.060295292 Z M23.7092213,0.0725203699 L23.7092213,8.85759723 L27.7671479,8.85759723 C29.9291586,8.85759723 30.6347625,8.50095699 31.3978922,7.70149727 C31.9373867,7.14020017 32.2858895,5.90810851 32.2858895,4.56161428 C32.2858895,3.32680594 31.9908796,2.22511512 31.4761912,1.53907695 C30.5493108,0.312343196 29.213967,0.0725203699 27.2205007,0.0725203699 L23.7092213,0.0725203699 Z M26.1909718,1.98536775 L27.2666127,1.98536775 C28.8271898,1.98536775 29.8364781,2.68038608 29.8364781,4.483736 C29.8364781,6.28746325 28.8271898,6.98248157 27.2666127,6.98248157 L26.1909718,6.98248157 L26.1909718,1.98536775 Z M16.0738149,0.0725203699 L13.985842,7.03515505 L11.9850709,0.0729731506 L9.28440275,0.0725203699 L12.1417449,8.85759723 L15.7476072,8.85759723 L18.6273205,0.0725203699 L16.0738149,0.0725203699 Z M33.4501018,8.85759723 L35.9523211,8.85759723 L35.9523211,0.0729731506 L33.449493,0.0725203699 L33.4501018,8.85759723 Z M40.4635296,0.0756898346 L36.9700557,8.85457869 L39.4369683,8.85457869 L39.9897028,7.30289935 L44.1240261,7.30289935 L44.6472368,8.85457869 L47.325686,8.85457869 L43.8055037,0.0749352001 L40.4635296,0.0756898346 Z M42.0875677,1.67725051 L43.6030982,5.79000822 L40.5241752,5.79000822 L42.0875677,1.67725051 L42.0875677,1.67725051 Z" id="Fill-3" fill="#1A1918" mask="url(#mask-2)"></path>
                    </g>
                    <path d="M16.3874901,7.03860653 L16.3874901,4.90780323 C16.5949289,4.89317581 16.8045841,4.88212906 17.0182904,4.87542483 C22.8648675,4.69227738 26.7006495,9.88280116 26.7006495,9.88280116 C26.7006495,9.88280116 22.5578368,15.6181962 18.1159424,15.6181962 C17.4761231,15.6181962 16.9036411,15.5154234 16.3874901,15.3427132 L16.3874901,8.88150873 C18.6635837,9.15554426 19.1211871,10.1577509 20.4899463,12.4312477 L23.5333491,9.87358284 C23.5333491,9.87358284 21.3118287,6.96927867 17.5667724,6.96927867 C17.1592325,6.96927867 16.7698072,6.99792402 16.3874901,7.03860653 L16.3874901,7.03860653 Z M16.3874901,0 L16.3874901,3.18268221 C16.5972983,3.16615018 16.8074122,3.15289408 17.0182904,3.14527563 C25.1488336,2.87223051 30.4458587,9.79160835 30.4458587,9.79160835 C30.4458587,9.79160835 24.3614989,17.166036 18.0230765,17.166036 C17.4422633,17.166036 16.8984437,17.1126307 16.3874901,17.0224283 L16.3874901,18.9897397 C16.8245331,19.0451258 17.277092,19.0777328 17.7495233,19.0777328 C23.6482277,19.0777328 27.9140209,16.0753792 32.0447572,12.5215263 C32.7290604,13.0681498 35.5330755,14.3977973 36.1096085,14.9805323 C32.1818777,18.2576832 23.0291217,20.8989986 17.8402491,20.8989986 C17.3402255,20.8989986 16.8593101,20.8689819 16.3874901,20.8237283 L16.3874901,23.5886149 L38.8070762,23.5886149 L38.8070762,0 L16.3874901,0 Z M16.3874901,15.3427132 L16.3874901,17.0224283 C10.9317905,16.0529048 9.41757956,10.4001699 9.41757956,10.4001699 C9.41757956,10.4001699 12.036933,7.50736954 16.3874901,7.03860653 L16.3874901,8.88150873 C16.3841271,8.88150873 16.3819105,8.88067071 16.3789297,8.88067071 C14.0961101,8.60732085 12.3123205,10.7335531 12.3123205,10.7335531 C12.3123205,10.7335531 13.3116798,14.3126231 16.3874901,15.3427132 L16.3874901,15.3427132 Z M6.69764055,10.1552368 C6.69764055,10.1552368 9.93105537,5.39949777 16.3874901,4.90780323 L16.3874901,3.18268221 C9.2363573,3.75475135 3.04369225,9.79160835 3.04369225,9.79160835 C3.04369225,9.79160835 6.55081307,19.898468 16.3874901,20.8237283 L16.3874901,18.9897397 C9.16917283,18.0845159 6.69764055,10.1552368 6.69764055,10.1552368 L6.69764055,10.1552368 Z" id="Fill-5" fill="#7AB547"></path>
                </g>
            </g>
        </g>
    </g>
</svg>