<?xml version="1.0" encoding="UTF-8"?>
<svg width="106px" height="41px" viewBox="0 0 106 41" version="1.1" xmlns="http://www.w3.org/2000/svg" xmlns:xlink="http://www.w3.org/1999/xlink">
    <!-- Generator: Sketch 43.1 (39012) - http://www.bohemiancoding.com/sketch -->
    <title>Group 5</title>
    <desc>Created with Sketch.</desc>
    <defs></defs>
    <g id="Symbols" stroke="none" stroke-width="1" fill="none" fill-rule="evenodd">
        <g id="Footer" transform="translate(-264.000000, -150.000000)">
            <g id="Group-6" transform="translate(102.000000, 150.000000)">
                <g id="Group-5" transform="translate(162.000000, 0.000000)">
                    <g id="Group-3" transform="translate(47.388235, 3.741176)" fill="#717271">
                        <path d="M3.49099897,7.30179195 C1.6987129,7.30179195 0.492544479,5.92184479 0.492544479,3.88174407 C0.492544479,1.85192611 1.71927843,0.445243756 3.53829969,0.445243756 C4.28585676,0.445243756 4.8987096,0.664266667 5.39639546,1.0097676 L5.29151125,1.67917564 C4.77428813,1.30693953 4.19948153,1.03855934 3.53007348,1.03855934 C2.07403385,1.03855934 1.17326357,2.18714427 1.17326357,3.86323509 C1.17326357,5.55783488 2.08226006,6.6981936 3.51979071,6.6981936 C4.22724499,6.6981936 4.86888958,6.41953065 5.40564995,6.00822002 L5.50230795,6.63958184 C5.00256553,7.01284623 4.27557399,7.30179195 3.49099897,7.30179195" id="Fill-1"></path>
                        <path d="M12.0709387,7.24318019 L11.2184974,5.04061176 L8.32698369,5.04061176 L7.51258865,7.17737049 L6.84112405,7.17737049 L9.44677688,0.531618989 L10.127496,0.531618989 L12.7125833,7.10024974 L12.0709387,7.24318019 Z M9.77274056,1.30693953 L8.56657214,4.45655067 L10.997418,4.45655067 L9.77274056,1.30693953 L9.77274056,1.30693953 Z" id="Fill-2"></path>
                        <polyline id="Fill-3" points="14.5120673 7.17737049 14.5120673 0.568636945 15.1732491 0.568636945 15.1732491 6.58302663 17.7192619 6.58302663 17.8159199 7.17737049 14.5120673 7.17737049"></polyline>
                        <polygon id="Fill-4" points="19.7788999 7.17737049 20.4390535 7.17737049 20.4390535 0.569665222 19.7788999 0.569665222"></polygon>
                        <polyline id="Fill-5" points="23.8683558 1.1629808 23.8683558 3.52801692 25.9948318 3.52801692 26.0904615 4.12236078 23.8683558 4.12236078 23.8683558 7.17634221 23.207174 7.17634221 23.207174 0.569665222 26.5213094 0.569665222 26.5213094 1.1629808 23.8683558 1.1629808"></polyline>
                        <path d="M30.9881428,7.30179195 C29.2308182,7.30179195 28.0236215,5.90230753 28.0236215,3.88174407 C28.0236215,1.85192611 29.2503554,0.445243756 31.0076801,0.445243756 C32.7886551,0.445243756 33.985569,1.84267162 33.985569,3.86323509 C33.985569,5.88379856 32.7691179,7.30179195 30.9881428,7.30179195 M30.9984256,1.03855934 C29.613337,1.03855934 28.7033123,2.18714427 28.7033123,3.86323509 C28.7033123,5.55783488 29.6246481,6.70744809 31.0076801,6.70744809 C32.3958535,6.70744809 33.3069065,5.55783488 33.3069065,3.88174407 C33.3069065,2.18714427 32.386599,1.03855934 30.9984256,1.03855934" id="Fill-6"></path>
                        <path d="M40.2642258,7.09922147 L39.5948178,7.24318019 L37.4498328,4.25603674 L36.5973915,4.25603674 L36.5973915,7.17634221 L35.9362097,7.17634221 L35.9362097,0.568636945 L37.6225833,0.568636945 C38.9151269,0.568636945 39.7387765,1.22056429 39.7387765,2.3701775 C39.7387765,3.39434097 39.0775946,3.97840206 38.1675699,4.16966151 L40.2642258,7.09922147 Z M37.5937915,1.15372632 L36.5973915,1.15372632 L36.5973915,3.69048462 L37.4775963,3.69048462 C38.454459,3.69048462 39.0673119,3.25038225 39.0673119,2.40822374 C39.0673119,1.60411146 38.5500888,1.15372632 37.5937915,1.15372632 L37.5937915,1.15372632 Z" id="Fill-7"></path>
                        <polyline id="Fill-8" points="46.6148619 7.17737049 42.7557399 1.61336594 42.7557399 7.17737049 42.1346609 7.17737049 42.1346609 0.568636945 42.7557399 0.568636945 46.5007232 5.9609193 46.5007232 0.568636945 47.1218023 0.568636945 47.1218023 7.17737049 46.6148619 7.17737049"></polyline>
                        <polygon id="Fill-9" points="49.7192289 7.17737049 50.381439 7.17737049 50.381439 0.569665222 49.7192289 0.569665222"></polygon>
                        <path d="M57.4847736,7.24318019 L56.6323323,5.04061176 L53.7408186,5.04061176 L52.9264235,7.17737049 L52.2559872,7.17737049 L54.86164,0.531618989 L55.5403026,0.531618989 L58.1264182,7.10024974 L57.4847736,7.24318019 Z M55.1865754,1.30693953 L53.9793787,4.45655067 L56.4122811,4.45655067 L55.1865754,1.30693953 L55.1865754,1.30693953 Z" id="Fill-10"></path>
                        <path d="M5.51053416,18.4154052 L4.65912116,16.2128367 L1.76760743,16.2128367 L0.953212384,18.3485672 L0.281747781,18.3485672 L2.88740062,11.7028157 L3.56811971,11.7028157 L6.15217874,18.273503 L5.51053416,18.4154052 Z M3.21233602,12.4791645 L2.0061676,15.6287756 L4.43804169,15.6287756 L3.21233602,12.4791645 L3.21233602,12.4791645 Z" id="Fill-11"></path>
                        <path d="M9.83340888,18.4729886 C8.04112281,18.4729886 6.83495439,17.0940698 6.83495439,15.0549973 C6.83495439,13.0241511 8.06168834,11.6164405 9.8807096,11.6164405 C10.6272384,11.6164405 11.2411195,11.8364916 11.7377771,12.1819926 L11.6339212,12.8514006 C11.1156698,12.4781362 10.5408632,12.2107843 9.87145511,12.2107843 C8.41644376,12.2107843 7.51567348,13.3593692 7.51567348,15.0354601 C7.51567348,16.7310881 8.42466997,17.8693903 9.86220062,17.8693903 C10.5696549,17.8693903 11.2112995,17.5917556 11.7490881,17.180445 L11.8447179,17.8118068 C11.3460037,18.1860995 10.6179839,18.4729886 9.83340888,18.4729886" id="Fill-12"></path>
                        <path d="M18.0010097,18.4154052 L17.1485684,16.2128367 L14.2570547,16.2128367 L13.4426596,18.3485672 L12.7722233,18.3485672 L15.3768479,11.7028157 L16.0565387,11.7028157 L18.6426543,18.273503 L18.0010097,18.4154052 Z M15.7028116,12.4791645 L14.4956149,15.6287756 L16.9285172,15.6287756 L15.7028116,12.4791645 L15.7028116,12.4791645 Z" id="Fill-13"></path>
                        <path d="M21.697664,18.3485672 L19.9259434,18.3485672 L19.9259434,11.7408619 L21.7264557,11.7408619 C23.9290241,11.7408619 25.1639843,13.0724801 25.1639843,15.0354601 C25.1639843,17.0663063 23.8231117,18.3485672 21.697664,18.3485672 M21.7367385,12.3352058 L20.5871253,12.3352058 L20.5871253,17.7552516 L21.7367385,17.7552516 C23.411801,17.7552516 24.4832652,16.8544813 24.4832652,15.0447146 C24.4832652,13.2627112 23.381981,12.3352058 21.7367385,12.3352058" id="Fill-14"></path>
                        <polyline id="Fill-15" points="26.6210522 18.3485672 26.6210522 11.7408619 30.0688636 11.7408619 30.0688636 12.3352058 27.2812058 12.3352058 27.2812058 14.5933011 29.4837742 14.5933011 29.5804322 15.1886733 27.2812058 15.1886733 27.2812058 17.7552516 30.1655216 17.7552516 30.1655216 18.3485672 26.6210522 18.3485672"></polyline>
                        <polyline id="Fill-16" points="37.996876 18.3485672 37.5660281 12.7074419 35.2770844 18.3866134 34.7598613 18.3866134 32.4616632 12.7074419 32.0308153 18.3485672 31.4179624 18.3485672 31.94444 11.7408619 32.7588351 11.7408619 35.0282415 17.5053804 37.3079307 11.7408619 38.1120429 11.7408619 38.6385205 18.3485672 37.996876 18.3485672"></polyline>
                        <polyline id="Fill-17" points="42.458568 15.6010122 42.458568 18.3485672 41.7963579 18.3485672 41.7963579 15.6102667 39.4611418 11.8066716 40.1120409 11.6740239 42.1428871 15.0251773 44.1151216 11.7408619 44.8338869 11.7408619 42.458568 15.6010122"></polyline>
                        <path d="M50.3485342,18.4729886 C48.5860681,18.4729886 47.3798997,17.0745325 47.3798997,15.0549973 C47.3798997,13.0241511 48.6066336,11.6164405 50.3680714,11.6164405 C52.1490464,11.6164405 53.3459604,13.0148966 53.3459604,15.0354601 C53.3459604,17.0549953 52.1295092,18.4729886 50.3485342,18.4729886 M50.3588169,12.2107843 C48.9696153,12.2107843 48.0595905,13.3593692 48.0595905,15.0354601 C48.0595905,16.7310881 48.9788698,17.8796731 50.3680714,17.8796731 C51.7562448,17.8796731 52.6672978,16.7310881 52.6672978,15.0549973 C52.6672978,13.3593692 51.7469903,12.2107843 50.3588169,12.2107843" id="Fill-18"></path>
                        <polyline id="Fill-19" points="55.5012281 12.3341775 55.5012281 14.6992136 57.627704 14.6992136 57.7223055 15.2935575 55.5012281 15.2935575 55.5012281 18.3485672 54.8400462 18.3485672 54.8400462 11.7408619 58.1531534 11.7408619 58.1531534 12.3341775 55.5012281 12.3341775"></polyline>
                        <path d="M0.603598349,25.1680974 C0.603598349,26.4894328 1.3079678,27.0313346 2.88945717,27.7490716 C4.20873602,28.345472 4.51310588,28.6549833 4.51310588,29.4035686 C4.51310588,30.1809457 3.94241238,30.6632074 3.02621796,30.6632074 C2.041129,30.6632074 1.19897049,30.2045961 0.785603302,29.9321028 L0.706426006,29.8796607 L0.510025181,31.2225899 L0.547043137,31.2421271 C1.24421465,31.6102502 2.11722147,31.8128206 3.00153932,31.8128206 C4.67557358,31.8128206 5.80153643,30.810251 5.80153643,29.3151368 C5.80153643,28.0277346 5.28636987,27.4200231 3.50333829,26.6087129 C2.2077098,26.0174539 1.8920289,25.7171971 1.8920289,25.0796656 C1.8920289,24.3855789 2.40513891,23.9711835 3.26477812,23.9711835 C3.87763096,23.9711835 4.52750175,24.2004892 5.05192281,24.6004888 L5.1311001,24.6611571 L5.34086852,23.3398217 L5.30590712,23.3192561 C4.7228743,22.984038 4.06786213,22.820542 3.30282436,22.820542 C1.68945841,22.820542 0.603598349,23.7644999 0.603598349,25.1680974" id="Fill-20"></path>
                        <path d="M7.32749886,27.3295348 C7.32749886,30.0503546 8.96245862,31.8765738 11.3974175,31.8765738 C12.3372623,31.8765738 13.3326341,31.5567798 14.0585973,31.0231042 L14.0884173,31.0004821 L13.8920165,29.7511261 L13.8128392,29.8076813 C13.031349,30.37529 12.2231236,30.6632074 11.4097569,30.6632074 C9.71721362,30.6632074 8.66631496,29.3809465 8.66631496,27.3171955 C8.66631496,25.2462464 9.71721362,23.9588442 11.4097569,23.9588442 C12.2087278,23.9588442 12.9285214,24.2231112 13.6729936,24.7886634 L13.7542275,24.8493317 L13.9496,23.5064025 L13.9187517,23.4848087 C13.1886753,22.9891794 12.3958741,22.7588454 11.4220962,22.7588454 C8.97376966,22.7588454 7.32749886,24.5953474 7.32749886,27.3295348" id="Fill-21"></path>
                        <polygon id="Fill-22" points="16.4771038 31.7141061 17.778902 31.7141061 17.778902 22.9213131 16.4771038 22.9213131"></polygon>
                        <polygon id="Fill-23" points="20.9264566 31.7130778 25.8477882 31.7130778 25.8477882 30.5120508 22.2282547 30.5120508 22.2282547 27.717195 25.1290229 27.717195 24.9336504 26.516168 22.2282547 26.516168 22.2282547 24.1223401 25.7223385 24.1223401 25.7223385 22.9213131 20.9264566 22.9213131"></polygon>
                        <path d="M33.9937953,22.9213131 L33.9937953,29.2904582 C33.7860834,28.9984277 29.4889156,22.9213131 29.4889156,22.9213131 L28.3413589,22.9213131 L28.3413589,31.7130778 L29.5557536,31.7130778 L29.5557536,25.0930332 C29.7634654,25.3871203 34.2241292,31.7130778 34.2241292,31.7130778 L35.2071616,31.7130778 L35.2071616,22.9213131 L33.9937953,22.9213131" id="Fill-24"></path>
                        <path d="M37.1732264,27.3295348 C37.1732264,30.0503546 38.8081862,31.8765738 41.2431451,31.8765738 C42.1829899,31.8765738 43.1783616,31.5567798 43.9053531,31.0231042 L43.9341449,31.0004821 L43.7377441,29.7511261 L43.6585668,29.8076813 C42.8770766,30.37529 42.0688512,30.6632074 41.2554844,30.6632074 C39.5629412,30.6632074 38.5120425,29.3809465 38.5120425,27.3171955 C38.5120425,25.2462464 39.5629412,23.9588442 41.2554844,23.9588442 C42.0544553,23.9588442 42.7742489,24.2231112 43.5187212,24.7886634 L43.599955,24.8493317 L43.7953276,23.5064025 L43.7644793,23.4848087 C43.0344029,22.9891794 42.2416017,22.7588454 41.2678237,22.7588454 C38.8184689,22.7588454 37.1732264,24.5953474 37.1732264,27.3295348" id="Fill-25"></path>
                        <polyline id="Fill-26" points="46.0595926 22.9213131 46.0595926 31.7130778 50.979896 31.7130778 50.979896 30.5120508 47.3613907 30.5120508 47.3613907 27.717195 50.2621589 27.717195 50.0657581 26.516168 47.3613907 26.516168 47.3613907 24.1223401 50.8554745 24.1223401 50.8554745 22.9213131 46.0595926 22.9213131"></polyline>
                        <path d="M52.9973746,25.1680974 C52.9973746,26.4884045 53.7017441,27.0313346 55.2822052,27.7490716 C56.6025123,28.345472 56.9058539,28.6549833 56.9058539,29.4035686 C56.9058539,30.1809457 56.3361886,30.6632074 55.4199942,30.6632074 C54.4349053,30.6632074 53.5917185,30.2045961 53.1783513,29.9321028 L53.1002023,29.8796607 L52.9027732,31.2225899 L52.9408194,31.2421271 C53.6390192,31.6102502 54.5099695,31.8128206 55.3942873,31.8128206 C57.0703781,31.8128206 58.1953127,30.810251 58.1953127,29.3151368 C58.1953127,28.0277346 57.6801461,27.4210514 55.8971146,26.6087129 C54.6025143,26.0174539 54.2868334,25.7171971 54.2868334,25.0796656 C54.2868334,24.3855789 54.7999434,23.9711835 55.6595827,23.9711835 C56.2703789,23.9711835 56.921278,24.2004892 57.4446708,24.6004888 L57.5238481,24.6611571 L57.7346448,23.3398217 L57.6986551,23.3192561 C57.1166506,22.984038 56.4606101,22.820542 55.6966006,22.820542 C54.0822064,22.820542 52.9973746,23.7644999 52.9973746,25.1680974" id="Fill-27"></path>
                    </g>
                    <g id="Group-2" transform="translate(20.576471, 20.576471) rotate(-360.000000) translate(-20.576471, -20.576471) ">
                        <path d="M14.2240174,9.81852414 C13.7741732,9.47936714 13.3498722,9.11963367 12.9369237,8.74996673 C13.2086751,10.133557 13.3484531,11.5164377 13.0029103,13.0199391 C13.3924442,12.9305379 13.791202,12.8077886 14.1984742,12.6453055 C14.3538621,11.660473 14.3339951,10.7238888 14.2240174,9.81852414 M4.79006045,20.2841428 C4.12593712,20.4927456 3.44762312,20.7155391 2.77072819,20.9908381 C1.79866734,21.3888864 0.930907911,21.9139412 0.19228357,22.5489736 C-0.0397338742,22.7483525 -0.0652770791,23.0960239 0.133392292,23.3266223 C0.33135213,23.5558016 0.679733063,23.5820544 0.91033144,23.383385 C1.55884503,22.8256917 2.32514118,22.3637854 3.18722434,22.0111473 C3.98473996,21.6854714 4.80779878,21.4293298 5.6031858,21.1831217 C5.93879513,21.0788203 6.27653306,20.9752284 6.61427099,20.8638316 C6.17436024,20.7141201 5.72806369,20.5750515 5.27680041,20.435983 C5.11573631,20.3848966 4.95396268,20.3352292 4.79006045,20.2841428 M12.528942,6.88105558 C12.6545294,6.99670953 12.7801168,7.11165396 12.9042852,7.22730791 C13.2505375,7.54801704 13.5932422,7.86446897 13.9444613,8.16956836 C13.8699602,7.82189696 13.7933306,7.47706369 13.7145724,7.13506856 C13.5308032,6.3219432 13.3392292,5.48327465 13.2228657,4.62828682 C13.0965688,3.70660284 13.1143071,2.8111716 13.2732426,1.96966491 C13.3307148,1.67095132 13.1334645,1.38288073 12.8347509,1.32611805 C12.5367469,1.26935538 12.2472572,1.46589615 12.1919136,1.7639002 C12.010273,2.72389899 11.9904061,3.73711278 12.1323128,4.77728884 C12.2309379,5.50243205 12.3771018,6.20061298 12.528942,6.88105558 M12.0010491,15.5118207 C11.7449075,15.9566982 11.4738657,16.3476511 11.1921809,16.7031274 C10.9204296,17.0472511 10.6366162,17.351641 10.3435789,17.6248114 C9.21542069,18.6749209 7.94748438,19.2460953 6.61427099,19.7037444 C7.14003529,19.8754515 7.66367099,20.0620588 8.18233996,20.2841428 C9.02171805,19.9251189 9.84264828,19.4738556 10.6174588,18.8473375 C10.9445538,18.5833911 11.2624247,18.2868061 11.5724909,17.9540349 C12.0606499,17.426142 12.5253943,16.8074288 12.9560811,16.0631282 C13.3860584,15.3174085 13.6883197,14.6057465 13.9011797,13.917499 C13.4676548,14.0530199 13.0433538,14.150226 12.6289862,14.2147935 C12.4629554,14.6355469 12.2586097,15.0655241 12.0010491,15.5118207" id="Fill-29" fill="#ACAEAC"></path>
                        <path d="M18.8303087,29.9316694 C18.5670718,29.605284 18.2697773,29.287413 17.9362966,28.9794755 C17.4084037,28.4906069 16.7904,28.0258625 16.0446803,27.5951757 C15.3010892,27.1651984 14.5894272,26.8622276 13.9018892,26.6493675 C14.0352815,27.083602 14.1346162,27.506484 14.1984742,27.9215611 C14.6192276,28.089011 15.0499144,28.2919375 15.4955014,28.5502077 C15.9403789,28.8056398 16.3320414,29.0781006 16.6868081,29.3576568 C17.0309318,29.6308272 17.3360312,29.9146406 17.6084921,30.2062588 C18.6593112,31.334417 19.2297761,32.6023533 19.6860061,33.9369858 C19.8584227,33.4112215 20.0471586,32.8861667 20.2678235,32.3689168 C19.9095091,31.5288292 19.4575363,30.7086085 18.8303087,29.9316694 M23.3677753,39.6402158 C22.8086629,38.9909927 22.3467566,38.2246966 21.9941185,37.3619039 C21.6684426,36.5658073 21.4137201,35.7427485 21.167512,34.9466519 C21.062501,34.6117521 20.9581996,34.2733047 20.8482219,33.9369858 C20.6978008,34.3754775 20.5587323,34.821774 20.4182446,35.2723278 C20.3685773,35.4326824 20.3182004,35.5951655 20.267114,35.7583582 C20.4750073,36.4253197 20.6985103,37.1036337 20.9752284,37.7791095 C21.3718576,38.7525895 21.8962028,39.6196394 22.5326544,40.3596828 C22.7313237,40.5895716 23.0789951,40.6158243 23.3095935,40.417155 C23.5394824,40.2184856 23.5657351,39.8708142 23.3677753,39.6402158 M4.61196755,27.3283911 C3.68815497,27.4539785 2.7941428,27.4362402 1.95334564,27.2765951 C1.65463205,27.2198325 1.36585193,27.4163732 1.30979878,27.7157963 C1.25303611,28.0123813 1.44815781,28.3025805 1.74758093,28.3593432 C2.70545112,28.5409838 3.71937444,28.5615602 4.76026004,28.418944 C5.48469371,28.3188998 6.18500325,28.1727359 6.86544584,28.0223148 C6.97968073,27.8960178 7.09533469,27.7704304 7.20886004,27.6476811 C7.52956917,27.3007193 7.84885923,26.955886 8.15324909,26.6075051 C7.80628722,26.6798775 7.46145396,26.7579262 7.11733022,26.8359748 C6.30633347,27.0204535 5.46553631,27.2106085 4.61196755,27.3283911 M9.8007858,26.3258203 C9.4637574,26.776374 9.10260487,27.2013846 8.734357,27.6136235 C10.1179473,27.3411627 11.4994089,27.2013846 13.0029103,27.5483465 C12.9127996,27.1573935 12.7900503,26.7600548 12.6289862,26.352073 C11.6427347,26.1973947 10.7075696,26.2165521 9.8007858,26.3258203" id="Fill-30" fill="#ACAEAC"></path>
                        <path d="M29.9160596,21.7209481 C29.5896742,21.9834755 29.2718032,22.2800604 28.9617371,22.6128316 C28.4735781,23.1421436 28.0081241,23.7594377 27.5781469,24.5044479 C27.1488791,25.2501675 26.8459083,25.9611201 26.6323387,26.6500771 C27.0658637,26.5152657 27.4894552,26.4166406 27.9045323,26.352073 C28.0712726,25.9313197 28.2749087,25.4999233 28.5317598,25.0550458 C28.7893205,24.6108779 29.0603623,24.2185059 29.3413375,23.8637391 C29.6145079,23.5189059 29.8969022,23.214516 30.1899396,22.9420552 C31.3180978,21.8926552 32.5867436,21.3207712 33.919957,20.8652507 C33.3941927,20.691415 32.8698475,20.5040982 32.3511785,20.2841428 C31.5118004,20.6424572 30.6908702,21.0937205 29.9160596,21.7209481 M28.0045765,33.68723 C27.878989,33.5708665 27.7526921,33.4552126 27.6299428,33.3409777 C27.2836905,33.0202686 26.9402763,32.7031071 26.5904763,32.3972982 C26.6628487,32.74426 26.7408974,33.0898028 26.818946,33.4325075 C27.0034247,34.2463424 27.1942892,35.0835919 27.3106527,35.9385797 C27.4369497,36.8616828 27.4206304,37.757114 27.2609854,38.5972016 C27.2035132,38.8952057 27.400054,39.1846953 27.6987675,39.241458 C27.9974811,39.2982207 28.2855517,39.1009704 28.3408953,38.8029663 C28.5246645,37.8450961 28.5438219,36.8304633 28.4019152,35.7895777 C28.3025805,35.0658535 28.1571262,34.3669631 28.0045765,33.68723 M27.5313176,27.5483465 C27.1417838,27.6370381 26.743026,27.7590779 26.3357538,27.9215611 C26.1796564,28.9063935 26.1995233,29.8429777 26.309501,30.7490519 C26.7593452,31.0860803 27.1836462,31.4472329 27.5958852,31.8176093 C27.3255529,30.4333095 27.1850653,29.0497193 27.5313176,27.5483465 M40.4001262,17.2416633 C40.2028759,17.0117744 39.8544949,16.9848122 39.6238966,17.1834815 C38.9746734,17.7433034 38.2083773,18.2037907 37.3462941,18.5564288 C36.5487785,18.8806856 35.7271387,19.1375367 34.9296231,19.3837448 C34.5947233,19.4887558 34.2569854,19.5923477 33.919957,19.7037444 C34.3598677,19.853456 34.8054548,19.9925245 35.2560085,20.1323026 C35.4177822,20.1812604 35.5802653,20.2323469 35.743458,20.2841428 C36.4075813,20.0748304 37.0858953,19.8527465 37.7634998,19.5767379 C38.7362702,19.1786897 39.6026105,18.6536349 40.3419444,18.0186024 C40.5732523,17.8192235 40.598086,17.4708426 40.4001262,17.2416633" id="Fill-31" fill="#ACAEAC"></path>
                        <path d="M27.5313176,13.0206487 C27.6200093,13.409473 27.7434682,13.8068118 27.9038227,14.215503 C28.8907838,14.3694718 29.8259489,14.3517335 30.7320231,14.2410462 C31.0711801,13.791202 31.4309136,13.3661915 31.7991615,12.9546621 C30.4169903,13.2271229 29.0334,13.3654819 27.5313176,13.0206487 M25.0387266,12.0180779 C24.5931396,11.7619363 24.2014771,11.4908945 23.8467103,11.2092097 C23.5040057,10.9367489 23.1967777,10.6543546 22.9264454,10.3613172 C21.8756264,9.23244949 21.3037424,7.96522272 20.8482219,6.6312998 C20.6765148,7.15635456 20.4877789,7.6806998 20.267114,8.19936876 C20.6240093,9.03874686 21.0774012,9.85967708 21.7025002,10.6344876 C21.9671562,10.9615826 22.2630316,11.2801631 22.5965124,11.5881006 C23.1251148,12.0769692 23.743828,12.5431327 24.4888381,12.9724004 C25.2324292,13.4030872 25.9448008,13.7053485 26.6323387,13.9182085 C26.4982369,13.483974 26.4010308,13.0603826 26.3350442,12.646015 C25.9142909,12.4785651 25.4843136,12.2756385 25.0387266,12.0180779 M19.5597091,2.78846653 C19.1616609,1.81569615 18.6380252,0.947227181 18.0015736,0.207893306 C17.8036138,-0.022705071 17.4545233,-0.0475387424 17.2239249,0.149711562 C16.9940361,0.348380933 16.9677834,0.696761866 17.1657432,0.927360243 C17.7248556,1.57658337 18.1874714,2.34216998 18.5401095,3.20425314 C18.8650759,4.0024783 19.1197984,4.82411805 19.366716,5.6202146 C19.4703079,5.95582394 19.5760284,6.29356187 19.6867156,6.6312998 C19.8364272,6.19209858 19.9754957,5.74580203 20.1159834,5.29382921 C20.1649412,5.13347465 20.2153181,4.97028195 20.2678235,4.80850832 C20.0585112,4.14225639 19.8357176,3.46465193 19.5597091,2.78846653 M38.7873566,12.2089424 C37.8273578,12.0265923 36.814144,12.0067254 35.7732584,12.148632 C35.0481152,12.2486763 34.3499343,12.3941306 33.6687822,12.5466803 C33.5538377,12.6715582 33.4381838,12.7964361 33.3246584,12.9206045 C33.0032398,13.2668568 32.6867878,13.6116901 32.3816884,13.960071 C32.7286503,13.886989 33.0720645,13.8089404 33.4154787,13.7323108 C34.2286041,13.547832 35.0686917,13.356258 35.92297,13.2398945 C36.8453635,13.1143071 37.7393757,13.1306264 38.5815919,13.2902714 C38.8795959,13.3477436 39.1683761,13.1512028 39.2244292,12.8524892 C39.2811919,12.5537757 39.0860702,12.2649955 38.7873566,12.2089424" id="Fill-32" fill="#ACAEAC"></path>
                        <path d="M11.5717813,17.9540349 C11.2624247,18.2860966 10.9445538,18.5826815 10.6181684,18.8473375 C10.684155,19.2943436 10.7231793,19.7690215 10.7231793,20.2841428 C10.7231793,20.797845 10.684155,21.2725229 10.6181684,21.719529 C10.9445538,21.9834755 11.2624247,22.2800604 11.5717813,22.6128316 C11.7307168,21.911103 11.8243753,21.1433878 11.8243753,20.2841428 C11.8243753,19.4220596 11.7307168,18.6571826 11.5717813,17.9540349 M5.46908398,10.9232677 C5.91679959,11.5001185 6.39289655,12.0322686 6.86473631,12.5459708 C6.97968073,12.6708487 7.09533469,12.7964361 7.20956957,12.9198949 C7.5302787,13.2668568 7.84744016,13.610271 8.15324909,13.9607805 C9.0798998,15.0229521 9.89160609,16.1504008 10.3442884,17.6248114 C10.6366162,17.351641 10.9204296,17.0472511 11.1921809,16.7031274 C10.8338665,15.7722195 10.3492552,14.9711562 9.8007858,14.2410462 C9.46304787,13.791202 9.10260487,13.366901 8.734357,12.9546621 C8.49666329,12.6907156 8.25684097,12.4310264 8.01772819,12.1720467 C7.45293955,11.5618479 6.86757444,10.928944 6.33897201,10.2485014 C5.7685071,9.51129615 5.33640122,8.72939026 5.05329736,7.91981258 C4.95254361,7.63387059 4.63963935,7.48061136 4.3522783,7.58278418 C4.06491724,7.68140933 3.91378661,7.99715172 4.01383083,8.28309371 C4.33524949,9.20477769 4.82553712,10.0924041 5.46908398,10.9232677 M10.3442884,22.9427647 C9.89089655,24.4164657 9.0798998,25.5439144 8.15395862,26.6067955 C7.84885923,26.955886 7.5302787,27.3007193 7.20956957,27.6476811 C7.09533469,27.77114 6.97968073,27.8960178 6.86473631,28.0216053 C6.39289655,28.5353075 5.91679959,29.0681671 5.46908398,29.6457274 C4.82553712,30.4744625 4.33524949,31.3627984 4.01383083,32.2837728 C3.91378661,32.5704243 4.06491724,32.8868763 4.3522783,32.9855014 C4.63892982,33.0862552 4.95254361,32.9337055 5.05329736,32.6477635 C5.33640122,31.8381858 5.7685071,31.0555704 6.33897201,30.3190746 C6.86757444,29.6379225 7.45293955,29.0071473 8.01772819,28.3955294 C8.25684097,28.1372592 8.49666329,27.8768604 8.734357,27.6136235 C9.10260487,27.2020941 9.46304787,26.776374 9.8007858,26.3258203 C10.3492552,25.5964199 10.8338665,24.7946471 11.1914714,23.8637391 C10.9204296,23.5189059 10.6366162,23.2159351 10.3442884,22.9427647" id="Fill-34" fill="#628A44"></path>
                        <path d="M32.6300252,35.4958308 C31.8225761,35.2155651 31.0385416,34.7820402 30.3034649,34.2122848 C29.6223128,33.6829728 28.9894089,33.0983172 28.3785006,32.5321095 C28.1202304,32.2929968 27.8605412,32.053884 27.5958852,31.8176093 C27.1836462,31.4472329 26.7593452,31.0860803 26.309501,30.7490519 C25.5793911,30.2005826 24.7769087,29.7173903 23.8474199,29.3576568 C23.5040057,29.6308272 23.1967777,29.913931 22.9257359,30.2055493 C24.4001465,30.6575221 25.5275951,31.4706475 26.5904763,32.3972982 C26.9402763,32.7031071 27.2836905,33.0202686 27.6299428,33.3409777 C27.7534016,33.4552126 27.878989,33.5708665 28.0045765,33.68723 C28.5182787,34.1583602 29.0504288,34.6344572 29.627989,35.0814633 C30.4588527,35.7250101 31.3464791,36.2131692 32.266744,36.5360069 C32.5533955,36.6374702 32.8691379,36.48563 32.9684726,36.1989785 C33.0685168,35.9109079 32.9180957,35.5987132 32.6300252,35.4958308 M16.6860986,29.3576568 C15.7566097,29.7173903 14.9548369,30.2005826 14.2240174,30.7490519 C13.7748828,31.0860803 13.3484531,31.4472329 12.9369237,31.8176093 C12.6729773,32.053884 12.413288,32.2929968 12.1557274,32.5321095 C11.5441095,33.0983172 10.9119152,33.6829728 10.2314726,34.2108657 C9.49426734,34.7820402 8.71094239,35.2155651 7.90349331,35.4958308 C7.61613225,35.5972941 7.46429209,35.9109079 7.56504584,36.1989785 C7.66509006,36.48563 7.97941339,36.6374702 8.26606491,36.5352974 C9.18703935,36.2145882 10.0760848,35.7250101 10.9055294,35.0814633 C11.4837992,34.6337477 12.0159493,34.1569412 12.528942,33.685811 C12.6552389,33.570157 12.7801168,33.4537935 12.9035757,33.3395586 C13.249828,33.0188495 13.5939517,32.7031071 13.9437517,32.3972982 C15.0059233,31.4699379 16.1347911,30.6575221 17.6077826,30.2055493 C17.3360312,29.913931 17.0309318,29.6308272 16.6860986,29.3576568 M17.9362966,28.980185 C18.2704868,29.287413 18.5670718,29.6059935 18.8310183,29.9323789 C19.2787339,29.8671018 19.7527022,29.827368 20.267114,29.827368 C20.7808162,29.827368 21.2547846,29.8671018 21.7039193,29.9323789 C21.9678657,29.6059935 22.2637412,29.287413 22.5972219,28.980185 C21.8947838,28.8198304 21.126359,28.7254625 20.267114,28.7254625 C19.4071594,28.7254625 18.6394442,28.8198304 17.9362966,28.980185" id="Fill-35" fill="#628A44"></path>
                        <path d="M21.7025002,10.6344876 C21.2547846,10.7004742 20.7801067,10.7402081 20.267114,10.7402081 C19.7534118,10.7402081 19.2787339,10.7004742 18.8310183,10.6344876 C18.5670718,10.9615826 18.2704868,11.2794535 17.9362966,11.5881006 C18.6394442,11.7484552 19.4071594,11.8414041 20.267114,11.8414041 C21.126359,11.8414041 21.8947838,11.7484552 22.5965124,11.5881006 C22.2630316,11.2801631 21.9671562,10.9615826 21.7025002,10.6344876 M32.9684726,4.36859757 C32.8677189,4.08265558 32.5555241,3.93010588 32.2674535,4.03085963 C31.3464791,4.35298783 30.4588527,4.84256592 29.6286986,5.48540325 C29.0504288,5.9338284 28.5175692,6.40992535 28.0045765,6.88176511 C27.878989,6.99670953 27.7548207,7.11236349 27.6306523,7.22730791 C27.2836905,7.54730751 26.9402763,7.86446897 26.5904763,8.17027789 C25.5275951,9.09621907 24.3994369,9.90863489 22.9264454,10.3613172 C23.1967777,10.6543546 23.5040057,10.9367489 23.8467103,11.2092097 C24.7776183,10.8508953 25.5793911,10.366284 26.309501,9.81852414 C26.7593452,9.47936714 27.1836462,9.1203432 27.5958852,8.74996673 C27.8612507,8.51369209 28.1202304,8.27316024 28.3785006,8.034757 C28.9894089,7.46925882 29.6223128,6.88389371 30.3034649,6.35600081 C31.0399606,5.7855359 31.8225761,5.35343002 32.6293156,5.07032617 C32.9180957,4.97099148 33.0685168,4.65595862 32.9684726,4.36859757 M12.9042852,7.22730791 C12.7808264,7.11165396 12.6552389,6.99670953 12.5282325,6.88105558 C12.0159493,6.40992535 11.4837992,5.9338284 10.9055294,5.48540325 C10.0760848,4.84256592 9.18703935,4.35298783 8.26606491,4.03085963 C7.98012292,3.93010588 7.66509006,4.08265558 7.56575538,4.36859757 C7.46500162,4.65595862 7.61613225,4.97099148 7.90349331,5.07032617 C8.71094239,5.35343002 9.49497688,5.7855359 10.2314726,6.35600081 C10.9119152,6.88389371 11.5441095,7.46925882 12.1557274,8.034757 C12.4139976,8.27316024 12.6736868,8.51369209 12.9369237,8.74996673 C13.3484531,9.11963367 13.7748828,9.47936714 14.224727,9.81852414 C14.9548369,10.3655744 15.7566097,10.8508953 16.6875176,11.2092097 C17.0309318,10.9367489 17.3360312,10.6543546 17.6077826,10.3613172 C16.1340815,9.90863489 15.0059233,9.09621907 13.9437517,8.16956836 C13.5932422,7.86446897 13.2505375,7.54730751 12.9042852,7.22730791" id="Fill-36" fill="#628A44"></path>
                        <path d="M30.1899396,17.6248114 C30.6419124,16.1504008 31.4543282,15.0229521 32.3816884,13.9607805 C32.6867878,13.6109805 33.0032398,13.2661473 33.3239489,12.9206045 C33.4381838,12.7964361 33.5538377,12.6715582 33.6694917,12.5466803 C34.142041,12.0329781 34.6174284,11.5001185 35.065144,10.9239773 C35.7086909,10.0931136 36.1975594,9.20406815 36.5203972,8.28380325 C36.6204414,7.99715172 36.4686012,7.68140933 36.1819497,7.58207465 C35.8952982,7.48203043 35.5802653,7.63387059 35.4802211,7.91981258 C35.1964077,8.72868073 34.7657209,9.51129615 34.1945465,10.2477919 C33.665944,10.928944 33.081998,11.5611383 32.5157903,12.1720467 C32.277387,12.4310264 32.0375647,12.6907156 31.799871,12.9546621 C31.4309136,13.366901 31.0704706,13.791202 30.7320231,14.2403367 C30.1842633,14.9718657 29.6989424,15.7722195 29.3413375,16.7038369 C29.6145079,17.0472511 29.8969022,17.3537696 30.1899396,17.6248114 M35.065144,29.6457274 C34.6174284,29.0674576 34.1406219,28.534598 33.6694917,28.0216053 C33.5538377,27.8960178 33.4381838,27.77114 33.3239489,27.6476811 C33.0032398,27.3007193 32.6853688,26.955886 32.3809789,26.6075051 C31.4543282,25.5446239 30.6419124,24.4171753 30.1899396,22.9427647 C29.8969022,23.214516 29.6145079,23.5189059 29.3413375,23.8637391 C29.6989424,24.7946471 30.1849728,25.5950008 30.7320231,26.3258203 C31.0704706,26.776374 31.4316231,27.2013846 31.8005805,27.6143331 C32.0375647,27.87757 32.277387,28.1358402 32.5157903,28.3955294 C33.0812884,29.0071473 33.665944,29.6379225 34.1945465,30.3183651 C34.7657209,31.0555704 35.1964077,31.8381858 35.4802211,32.6477635 C35.5802653,32.934415 35.8938791,33.0862552 36.1819497,32.9847919 C36.4686012,32.8868763 36.6204414,32.5704243 36.5196876,32.2844824 C36.1975594,31.3635079 35.7086909,30.4744625 35.065144,29.6457274 M29.8103391,20.2841428 C29.8103391,19.7690215 29.8493635,19.2943436 29.9153501,18.8473375 C29.5896742,18.5826815 29.2718032,18.2860966 28.9624467,17.9540349 C28.8042207,18.656473 28.7098527,19.4241882 28.7098527,20.2841428 C28.7098527,21.1448069 28.8042207,21.9125221 28.9624467,22.6135412 C29.2718032,22.2800604 29.5896742,21.9834755 29.9160596,21.7209481 C29.8493635,21.2718134 29.8103391,20.797845 29.8103391,20.2841428" id="Fill-37" fill="#628A44"></path>
                        <path d="M14.1984742,27.9215611 C14.1339067,27.506484 14.0359911,27.083602 13.9011797,26.6500771 C13.6890292,25.9611201 13.386768,25.2501675 12.9553716,24.5051574 C12.5246848,23.7587282 12.0606499,23.1407245 11.5717813,22.6135412 C11.2624247,22.2800604 10.9445538,21.9834755 10.6181684,21.719529 C9.84264828,21.0937205 9.02171805,20.6417477 8.18304949,20.2841428 C7.66438053,20.0620588 7.13932576,19.8754515 6.61427099,19.7030349 C6.2772426,19.5923477 5.93950467,19.4866272 5.60247627,19.3830353 C4.80779878,19.1375367 3.98544949,18.8821047 3.18722434,18.5564288 C2.32443164,18.2037907 1.55884503,17.7433034 0.91033144,17.1834815 C0.680442596,16.9848122 0.332061663,17.0103554 0.133392292,17.2416633 C-0.0652770791,17.4715521 -0.0397338742,17.8192235 0.191574037,18.0186024 C0.930198377,18.6543444 1.79795781,19.1786897 2.77001866,19.5767379 C3.44691359,19.8520369 4.12522759,20.07554 4.79076998,20.2841428 C4.95325314,20.3352292 5.11644584,20.3848966 5.27680041,20.435983 C5.72877323,20.5757611 6.17436024,20.7141201 6.61427099,20.8638316 C7.94748438,21.3200617 9.21542069,21.8926552 10.3442884,22.9427647 C10.6366162,23.2152256 10.9204296,23.5189059 11.1914714,23.8637391 C11.4738657,24.2192154 11.7449075,24.6101684 12.0017586,25.0557554 C12.2586097,25.5006329 12.4615363,25.9313197 12.6289862,26.352073 C12.7900503,26.7600548 12.9135091,27.156684 13.0029103,27.5483465 C13.3484531,29.0497193 13.2093846,30.4333095 12.9369237,31.8168998 C13.3484531,31.4465233 13.7748828,31.0860803 14.2240174,30.7490519 C14.3347047,29.8429777 14.3531525,28.907103 14.1984742,27.9215611 M12.528942,33.685811 C12.3763923,34.365544 12.2316475,35.065144 12.1323128,35.7888682 C11.9896966,36.8311728 12.010273,37.8436771 12.1912041,38.8029663 C12.2479667,39.1009704 12.5367469,39.2975112 12.8347509,39.241458 C13.134174,39.1846953 13.3300053,38.8952057 13.2739521,38.5972016 C13.1135976,37.757114 13.0972783,36.8623923 13.2228657,35.9378702 C13.3392292,35.0835919 13.5300937,34.2456329 13.7145724,33.433217 C13.7919116,33.0898028 13.8706698,32.7435505 13.9437517,32.3980077 C13.5939517,32.7031071 13.249828,33.019559 12.9035757,33.3395586 C12.7801168,33.4537935 12.6552389,33.570157 12.528942,33.685811" id="Fill-39" fill="#D7632B"></path>
                        <path d="M27.9038227,26.352073 C27.4894552,26.4166406 27.0658637,26.5152657 26.6323387,26.6493675 C25.9448008,26.8615181 25.2324292,27.1651984 24.4888381,27.5951757 C23.743828,28.0258625 23.1251148,28.4906069 22.5972219,28.9794755 C22.2637412,29.2867034 21.9678657,29.605284 21.7039193,29.9316694 C21.0774012,30.7086085 20.6240093,31.5288292 20.2678235,32.3689168 C20.0464491,32.8861667 19.8584227,33.4112215 19.6867156,33.9369858 C19.5760284,34.2740142 19.4703079,34.6117521 19.366716,34.9466519 C19.1197984,35.7427485 18.8650759,36.5658073 18.5401095,37.3626134 C18.1874714,38.2246966 17.7248556,38.9924118 17.1657432,39.6402158 C16.9677834,39.8701047 16.9940361,40.2184856 17.2239249,40.417155 C17.4545233,40.6158243 17.8029043,40.5895716 18.0001546,40.3596828 C18.6380252,39.6196394 19.1616609,38.7525895 19.5582901,37.7791095 C19.8357176,37.1036337 20.0585112,36.4253197 20.267114,35.7583582 C20.3182004,35.5951655 20.3692868,35.4326824 20.4182446,35.2723278 C20.5587323,34.821774 20.6978008,34.3754775 20.8482219,33.9369858 C21.3037424,32.6023533 21.8756264,31.3358361 22.9264454,30.2062588 C23.1967777,29.9146406 23.5040057,29.6308272 23.8474199,29.3576568 C24.2021866,29.0773911 24.5931396,28.8063493 25.0387266,28.5502077 C25.4843136,28.2919375 25.9142909,28.089011 26.3350442,27.9215611 C26.743026,27.7590779 27.1417838,27.6377477 27.5313176,27.5483465 C29.0334,27.2013846 30.4169903,27.3411627 31.8005805,27.6136235 C31.4316231,27.2013846 31.0711801,26.776374 30.7320231,26.3258203 C29.8259489,26.2165521 28.8907838,26.1973947 27.9038227,26.352073 M39.2244292,27.7157963 C39.166957,27.4177923 38.8795959,27.220542 38.5815919,27.2765951 C37.7386661,27.4362402 36.844654,27.453269 35.9215509,27.3283911 C35.0686917,27.2106085 34.2286041,27.0204535 33.4154787,26.8359748 C33.0720645,26.7579262 32.7286503,26.6798775 32.3809789,26.6075051 C32.6853688,26.955886 33.0032398,27.3007193 33.3246584,27.6476811 C33.4381838,27.7704304 33.5538377,27.8960178 33.6687822,28.0223148 C34.3485152,28.1727359 35.0481152,28.3188998 35.7725489,28.418944 C36.814144,28.5615602 37.8273578,28.5395647 38.7845185,28.3600527 C39.0846511,28.3025805 39.2811919,28.0123813 39.2244292,27.7157963" id="Fill-40" fill="#D7632B"></path>
                        <path d="M6.86473631,12.5459708 C6.18429371,12.3941306 5.48540325,12.2479667 4.76096957,12.148632 C3.72008398,12.0067254 2.70545112,12.0265923 1.74758093,12.2082329 C1.44957688,12.2657051 1.25232657,12.5537757 1.30908925,12.8510702 C1.36585193,13.1512028 1.65463205,13.3477436 1.95263611,13.2895619 C2.7941428,13.1306264 3.6888645,13.1135976 4.61196755,13.2398945 C5.46553631,13.3569675 6.30562394,13.547832 7.11803976,13.7316012 C7.46074442,13.8096499 7.80557769,13.886989 8.15253955,13.9607805 C7.8481497,13.610271 7.5302787,13.2661473 7.20956957,12.9206045 C7.09533469,12.7971456 6.97968073,12.6708487 6.86473631,12.5459708 M23.3095935,0.150421095 C23.0797047,-0.0482482759 22.7313237,-0.022705071 22.5326544,0.207893306 C21.8954933,0.947936714 21.3718576,1.81569615 20.9752284,2.787757 C20.6978008,3.46465193 20.4764264,4.14367546 20.2678235,4.80779878 C20.2160276,4.97099148 20.1649412,5.13276511 20.1152738,5.29453874 C19.9762053,5.74580203 19.8364272,6.19138905 19.6860061,6.63059026 C19.2304856,7.96451318 18.6586016,9.23173996 17.6084921,10.3613172 C17.3353217,10.653645 17.0302223,10.9374584 16.6875176,11.2092097 C16.3320414,11.490185 15.9403789,11.7612268 15.4947919,12.0180779 C15.0499144,12.2756385 14.6192276,12.4792746 14.1984742,12.6453055 C13.791202,12.8077886 13.3924442,12.9305379 13.0029103,13.0192296 C11.5001185,13.3647724 10.1172377,13.2264134 8.734357,12.9546621 C9.10260487,13.366901 9.46304787,13.791202 9.8007858,14.2403367 C10.70686,14.3517335 11.6441538,14.3701813 12.6289862,14.215503 C13.0433538,14.1495164 13.4676548,14.0523103 13.9011797,13.9182085 C14.5894272,13.7046389 15.3010892,13.4030872 16.0453899,12.9731099 C16.7904,12.5431327 17.4091132,12.0769692 17.9362966,11.5881006 C18.2697773,11.2794535 18.5670718,10.9615826 18.8303087,10.6344876 C19.4568268,9.85896755 19.9095091,9.03803732 20.2678235,8.19936876 C20.4870694,7.68140933 20.6765148,7.15635456 20.8482219,6.63059026 C20.9589091,6.2942714 21.062501,5.95582394 21.167512,5.6202146 C21.4130105,4.82482759 21.6684426,4.00176876 21.9941185,3.20425314 C22.3474661,2.34216998 22.8086629,1.57587383 23.3677753,0.927360243 C23.5650256,0.696052333 23.5394824,0.349090467 23.3095935,0.150421095" id="Fill-41" fill="#D7632B"></path>
                        <path d="M28.0045765,6.88176511 C28.1571262,6.20061298 28.3032901,5.50172252 28.4019152,4.77799838 C28.5445314,3.73711278 28.5232454,2.72389899 28.3423144,1.76460974 C28.2862613,1.46589615 27.9974811,1.26935538 27.698058,1.32611805 C27.3993444,1.38288073 27.2035132,1.67095132 27.2602759,1.96966491 C27.4206304,2.81188114 27.4369497,3.70660284 27.3106527,4.62899635 C27.1935797,5.48256511 27.0034247,6.3219432 26.8196556,7.13506856 C26.7416069,7.47777323 26.6621391,7.82260649 26.5904763,8.17027789 C26.9402763,7.86446897 27.2829809,7.54801704 27.6306523,7.22730791 C27.7541112,7.11236349 27.878989,6.99670953 28.0045765,6.88176511 M40.3419444,22.5489736 C39.6033201,21.9132316 38.7355606,21.3888864 37.7634998,20.9908381 C37.0866049,20.7155391 36.4075813,20.4920361 35.743458,20.2834333 C35.5802653,20.2323469 35.4177822,20.1812604 35.2560085,20.1323026 C34.8054548,19.991815 34.3598677,19.853456 33.919957,19.7037444 C32.5860341,19.2460953 31.3180978,18.6749209 30.1899396,17.6241018 C29.8976118,17.35306 29.6137984,17.0479606 29.3413375,16.7031274 C29.0603623,16.3490702 28.788611,15.9566982 28.5317598,15.5118207 C28.2749087,15.0669432 28.0712726,14.6362564 27.9038227,14.2147935 C27.7434682,13.8068118 27.6200093,13.409473 27.5313176,13.0206487 C27.1850653,11.5164377 27.3255529,10.1342665 27.5958852,8.75067627 C27.1836462,9.1203432 26.7593452,9.48007667 26.309501,9.8178146 C26.1995233,10.7238888 26.1796564,11.6618921 26.3350442,12.646015 C26.4010308,13.0603826 26.4982369,13.483974 26.6323387,13.9182085 C26.8459083,14.6057465 27.1488791,15.316699 27.5781469,16.0631282 C28.0088337,16.8074288 28.4742876,17.426142 28.9624467,17.9540349 C29.2718032,18.2868061 29.5889647,18.5833911 29.9146406,18.8473375 C30.6915797,19.4738556 31.5118004,19.9251189 32.351888,20.2834333 C32.8691379,20.5048077 33.3941927,20.6921245 33.919957,20.8652507 C34.2569854,20.9752284 34.5947233,21.0788203 34.9296231,21.1831217 C35.7264292,21.4293298 36.549488,21.6861809 37.3462941,22.0111473 C38.2083773,22.3637854 38.9760925,22.8249822 39.6238966,23.3840945 C39.8537854,23.5820544 40.2021663,23.5572207 40.4001262,23.3273318 C40.5987955,23.0953144 40.5739619,22.7483525 40.3419444,22.5489736" id="Fill-42" fill="#D7632B"></path>
                    </g>
                </g>
            </g>
        </g>
    </g>
</svg>